<?xml version="1.0" encoding="utf-8"?>
<!-- Generator: Adobe Illustrator 24.2.1, SVG Export Plug-In . SVG Version: 6.00 Build 0)  -->
<svg version="1.1" id="Capa_1" xmlns="http://www.w3.org/2000/svg" xmlns:xlink="http://www.w3.org/1999/xlink" x="0px" y="0px"
	 viewBox="0 0 119.3 119.3" style="enable-background:new 0 0 119.3 119.3;" xml:space="preserve">
<style type="text/css">
	.st0{opacity:0.3;}
	.st1{fill:#FFC107;}
</style>
<g>
	<g class="st0">
		<path class="st1" d="M89.3,97.2c-6,4-12.7,7.4-20,8c-7.2,0.6-15-2-19.2-7.9c-4.3-6-4.5-14.8-10.5-19.2C31.7,72.1,18,77.5,12,69.7
			c-3.7-4.8-1.9-11.7,0.2-17.4c2.6-6.8,5.5-13.4,8.8-19.8c0.8-1.7,1.8-3.4,3.4-4.4c4.2-2.7,9.3,1,13.8,3.2
			c7.6,3.6,17.2,2.4,23.6-3.1c5.3-4.6,9.2-12.1,16.1-12.4c3.1-0.2,6.1,1.3,8.7,3c11.3,7.6,17.9,21.6,16.5,35.1
			c-0.5,4.7-1.9,9.2-3.2,13.7C96.9,77.3,93.9,87,90,96.3"/>
	</g>
	<g class="st0">
		<path class="st1" d="M88.1,322.2c-6,4-12.7,7.4-20,8c-7.2,0.6-15-2-19.2-7.9c-4.3-6-4.5-14.8-10.5-19.2
			c-7.9-5.9-21.6-0.4-27.7-8.3c-3.7-4.8-1.9-11.7,0.2-17.4c2.6-6.8,5.5-13.4,8.8-19.8c0.8-1.7,1.8-3.4,3.4-4.4
			c4.2-2.7,9.3,1,13.8,3.2c7.6,3.6,17.2,2.4,23.6-3.1c5.3-4.6,9.2-12.1,16.1-12.4c3.1-0.2,6.1,1.3,8.7,3
			c11.3,7.6,17.9,21.6,16.5,35.1c-0.5,4.7-1.9,9.2-3.2,13.7c-2.9,9.7-5.9,19.4-9.8,28.7"/>
	</g>
	<g class="st0">
		<path class="st1" d="M97.3,560.3c-6,4-12.7,7.4-20,8s-15-2-19.2-7.9c-4.3-6-4.5-14.8-10.5-19.2c-7.9-5.9-21.6-0.4-27.7-8.3
			c-3.7-4.8-1.9-11.7,0.2-17.4c2.6-6.8,5.5-13.4,8.8-19.8c0.8-1.7,1.8-3.4,3.4-4.4c4.2-2.7,9.3,1,13.8,3.2
			c7.6,3.6,17.2,2.4,23.6-3.1c5.3-4.6,9.2-12.1,16.1-12.4c3.1-0.2,6.1,1.3,8.7,3c11.3,7.6,17.9,21.6,16.5,35.1
			c-0.5,4.7-1.9,9.2-3.2,13.7c-2.9,9.7-5.9,19.4-9.8,28.7"/>
	</g>
	<g class="st0">
		<path class="st1" d="M478,296c-1.4,7.1-3.8,14.2-8.5,19.8c-4.7,5.5-12,9.2-19.2,8c-7.3-1.3-13.7-7.3-21-6.2
			c-9.8,1.5-15.6,15-25.4,13.7c-6-0.8-9.6-6.9-12.1-12.4c-3-6.6-5.6-13.4-7.8-20.2c-0.6-1.8-1.1-3.7-0.7-5.5c1-4.8,7.3-5.8,12-7.5
			c7.9-2.8,13.8-10.5,14.4-18.9c0.5-6.9-2-15,2.6-20.2c2.1-2.3,5.2-3.4,8.3-4c13.3-2.7,27.9,2.6,36.5,13.2c3,3.7,5.2,7.8,7.4,12
			c4.8,8.9,9.6,17.8,13.4,27.2"/>
	</g>
	<g class="st0">
		<path class="st1" d="M478,528.7c-1.4,7.1-3.8,14.2-8.5,19.8c-4.7,5.5-12,9.2-19.2,8c-7.3-1.3-13.7-7.3-21-6.2
			c-9.8,1.5-15.6,15-25.4,13.7c-6-0.8-9.6-6.9-12.1-12.4c-3-6.6-5.6-13.4-7.8-20.2c-0.6-1.8-1.1-3.7-0.7-5.5c1-4.8,7.3-5.8,12-7.5
			c7.9-2.8,13.8-10.5,14.4-18.9c0.5-6.9-2-15,2.6-20.2c2.1-2.3,5.2-3.4,8.3-4c13.3-2.7,27.9,2.6,36.5,13.2c3,3.7,5.2,7.8,7.4,12
			c4.8,8.9,9.6,17.8,13.4,27.2"/>
	</g>
	<g class="st0">
		<path class="st1" d="M840.8,531.7c-1.4,7.1-3.8,14.2-8.5,19.8c-4.7,5.5-12,9.2-19.2,8c-7.3-1.3-13.7-7.3-21-6.2
			c-9.8,1.5-15.6,15-25.4,13.7c-6-0.8-9.6-6.9-12.1-12.4c-3-6.6-5.6-13.4-7.8-20.2c-0.6-1.8-1.1-3.7-0.7-5.5c1-4.8,7.3-5.8,12-7.5
			c7.9-2.8,13.8-10.5,14.4-18.9c0.5-6.9-2-15,2.6-20.2c2.1-2.3,5.2-3.4,8.3-4c13.3-2.7,27.9,2.6,36.5,13.2c3,3.7,5.2,7.8,7.4,12
			c4.8,8.9,9.6,17.8,13.4,27.2"/>
	</g>
	<g class="st0">
		<path class="st1" d="M801.7,249.7c5.8,1.1,11.5,3.1,16,6.9c4.5,3.8,7.4,9.8,6.5,15.6c-1,5.9-5.9,11.1-5,17
			c1.2,7.9,12.2,12.7,11.1,20.6c-0.6,4.9-5.6,7.8-10.1,9.8c-5.3,2.4-10.8,4.5-16.4,6.3c-1.4,0.5-3,0.9-4.4,0.6
			c-3.9-0.9-4.7-5.9-6.1-9.7c-2.2-6.4-8.5-11.2-15.3-11.7c-5.6-0.4-12.2,1.7-16.4-2.1c-1.9-1.7-2.8-4.3-3.3-6.7
			c-2.1-10.8,2.1-22.7,10.7-29.6c3-2.4,6.3-4.2,9.7-6c7.2-3.9,14.5-7.7,22.1-10.9"/>
	</g>
	<g class="st0">
		<path class="st1" d="M432.1,15.5c6.6,1.3,13.2,3.5,18.3,7.9c5.1,4.4,8.4,11.4,7.2,18.3c-1.2,7-6.9,13.2-6,20.2
			c1.3,9.3,13.8,14.8,12.5,24.1c-0.8,5.8-6.5,9.3-11.7,11.7c-6.2,2.9-12.5,5.5-19,7.7c-1.7,0.6-3.4,1.1-5.1,0.8
			c-4.5-1-5.4-6.9-6.8-11.4c-2.5-7.5-9.7-13.1-17.5-13.6c-6.5-0.4-14,2.1-18.8-2.3c-2.2-2-3.1-5-3.7-7.9c-2.3-12.7,2.8-26.8,12.7-35
			c3.4-2.9,7.4-5,11.2-7.2c8.4-4.7,16.7-9.3,25.5-13.1"/>
	</g>
	<g class="st0">
		<path class="st1" d="M747.6,63.2c-0.8-6.7-0.7-13.7,2-19.9c2.7-6.2,8.4-11.5,15.3-12.3c7-0.9,14.7,2.7,21-0.3
			c8.5-4,10-17.6,19.3-19.2c5.7-1,10.8,3.5,14.7,7.7c4.6,5,8.9,10.3,13,15.8c1,1.4,2.1,2.9,2.3,4.7c0.4,4.6-5,7.2-8.8,9.9
			c-6.5,4.6-9.6,13.1-7.8,20.7c1.5,6.3,6.2,12.8,3.4,18.6c-1.3,2.6-3.8,4.5-6.5,5.9c-11.4,6-26.4,5.4-37.2-1.7
			c-3.8-2.4-7-5.5-10.2-8.6c-6.9-6.6-13.9-13.2-20.1-20.4"/>
	</g>
	<g>
		<g>
			<path d="M103,42L78,17c-0.7-0.7-1.8-0.7-2.5,0L58.7,33.9L41.8,17.1c-0.3-0.3-0.8-0.5-1.2-0.5c-0.5,0-0.9,0.2-1.2,0.5L14.8,41.6
				c-0.7,0.7-0.7,1.8,0,2.5l10.5,10.5c-0.4,1.3-0.7,2.4-1,3.3c-1.3,3.9-1.6,5.5,0.9,10.3l-1.4,1.4v0c-2.6,2.6-2.6,6.9,0,9.5
				c1.3,1.3,2.9,2,4.7,2c0.7,0,1.5-0.1,2.1-0.3c0.2,1.3,0.8,2.6,1.9,3.7c1.3,1.3,2.9,2,4.7,2c0.8,0,1.6-0.1,2.4-0.4
				c0.2,1.3,0.9,2.5,1.9,3.5c1.3,1.3,2.9,2,4.7,2c1,0,2-0.2,2.9-0.7c0.3,1.2,0.9,2.4,1.8,3.3c1.3,1.3,3,2,4.7,2c1.7,0,3.4-0.7,4.7-2
				l2-2l5.3,5.3c1.3,1.3,2.9,2,4.7,2h0c1.8,0,3.5-0.7,4.7-2c2.1-2.1,2.5-5.2,1.3-7.7c1.2-0.3,2.4-0.9,3.3-1.8c1.3-1.3,2-2.9,2-4.7
				c0-1-0.2-2-0.7-2.9c1.2-0.3,2.3-0.9,3.3-1.8c1.3-1.3,2-2.9,2-4.7c0-1-0.2-2-0.7-2.9c1.2-0.3,2.3-0.9,3.3-1.8
				c2.6-2.6,2.6-6.9,0-9.5l-1.5-1.5L103,44.5C103.7,43.8,103.7,42.7,103,42L103,42z M28.6,77.5c-0.9,0-1.7-0.3-2.3-0.9
				c-1.3-1.3-1.3-3.3,0-4.6v0l9.4-9.4c0.6-0.6,1.4-0.9,2.3-0.9s1.7,0.3,2.3,0.9c0.6,0.6,0.9,1.4,0.9,2.3s-0.3,1.7-0.9,2.3l-7.7,7.7
				l-1.7,1.7C30.3,77.2,29.5,77.5,28.6,77.5L28.6,77.5z M39.6,81.9c-0.6,0.6-1.4,0.9-2.3,0.9c-0.9,0-1.7-0.3-2.3-0.9
				c-1.3-1.3-1.3-3.3,0-4.6c0,0,0,0,0,0l7.7-7.7c1.3-1.3,3.3-1.3,4.6,0s1.3,3.3,0,4.6l-5.7,5.7L39.6,81.9z M48.6,86.9
				c-0.6,0.6-1.4,0.9-2.3,0.9c-0.9,0-1.7-0.3-2.3-0.9c-1.3-1.3-1.3-3.3,0-4.6c0,0,0,0,0,0l5.7-5.7c1.3-1.3,3.3-1.3,4.6,0
				c0.6,0.6,0.9,1.4,0.9,2.3c0,0.9-0.3,1.7-0.9,2.3l-3.3,3.3L48.6,86.9z M58.1,91.5c-0.6,0.6-1.4,0.9-2.3,0.9
				c-0.9,0-1.7-0.3-2.3-0.9c-1.3-1.3-1.3-3.3,0-4.6l3.3-3.3c1.3-1.3,3.3-1.3,4.6,0c1.3,1.3,1.3,3.3,0,4.6L58.1,91.5z M88.6,66.3
				c-1.3,1.3-3.3,1.3-4.6,0l-2.5-2.5c-0.7-0.7-1.8-0.7-2.5,0c-0.7,0.7-0.7,1.8,0,2.5l2.5,2.5l2.5,2.5c1.3,1.3,1.3,3.3,0,4.6
				c-1.3,1.3-3.3,1.3-4.6,0L77,73.3c-0.7-0.7-1.8-0.7-2.5,0c-0.7,0.7-0.7,1.8,0,2.5l2.5,2.5l2.5,2.5c1.3,1.3,1.3,3.3,0,4.6
				s-3.3,1.3-4.6,0l-2.5-2.5c-0.7-0.7-1.8-0.7-2.5,0c-0.7,0.7-0.7,1.8,0,2.5l2.5,2.5l2.5,2.5c0.6,0.6,0.9,1.4,0.9,2.3
				s-0.3,1.7-0.9,2.3c-0.6,0.6-1.4,0.9-2.3,0.9c-0.9,0-1.7-0.3-2.3-0.9l-5.5-5.5c1.5-2.6,1.1-5.9-1.1-8.1c-1.4-1.4-3.2-2-5.1-2
				c0-0.1,0-0.2,0-0.3c0-1.8-0.7-3.5-2-4.7c-1.4-1.4-3.2-2-5.1-2c0-0.1,0-0.2,0-0.3c0-1.8-0.7-3.5-2-4.7c-1.4-1.4-3.2-2-5.1-2
				c0-0.1,0-0.2,0-0.3c0-1.8-0.7-3.5-2-4.7c-2.6-2.6-6.9-2.6-9.5,0l-5.5,5.5c-1.5-2.9-1.2-3.8-0.2-6.6c0.4-1.1,0.9-2.6,1.4-4.5
				c0.2-0.6,0-1.2-0.5-1.7l-10-10l22.1-22.1l18,18c0.7,0.7,1.8,0.7,2.5,0c0.6-0.6,1.4-0.9,2.3-0.9c0.9,0,1.7,0.3,2.3,0.9l23,23
				C89.9,63,89.9,65.1,88.6,66.3L88.6,66.3z M87.2,55.4L68.1,36.3c-1.3-1.3-3.1-2-4.8-2l13.6-13.6l22.5,22.5L87.2,55.4z"/>
			<path d="M71.5,67.8c-0.7-0.7-1.8-0.7-2.5,0c-0.7,0.7-0.7,1.8,0,2.5c0.3,0.3,0.8,0.5,1.2,0.5c0.4,0,0.9-0.2,1.2-0.5
				C72.2,69.6,72.2,68.5,71.5,67.8L71.5,67.8z"/>
		</g>
	</g>
	<g>
		<g>
			<path d="M459,61.9h-1.1V51.6c0-1.6-0.8-3.1-2-3.9v-1.4c0-2-1.7-3.7-3.7-3.7h-0.9l3.3-4.8c1.1-1.6,0.7-3.8-0.9-4.9l-22.2-15.1
				c-0.8-0.5-1.7-0.7-2.6-0.6c-0.9,0.2-1.7,0.7-2.3,1.5l-19.1,28.1h-5.3l1.3-13c0-0.1,0.1-0.3,0.2-0.3c1.7-0.6,3.1-1.8,4-3.3
				c0.1-0.1,0.2-0.2,0.4-0.2l8.3,0.8c0.6,0.1,1.1-0.4,1.2-1c0.1-0.6-0.4-1.1-1-1.2l-8.3-0.8c-1-0.1-1.9,0.4-2.4,1.2
				c-0.7,1.1-1.8,2-3,2.4c-0.9,0.3-1.5,1.2-1.6,2.1l-1.3,13.2h-1.4l2-20.6c0.1-0.7,0.7-1.3,1.5-1.2l16.9,1.7c0.6,0.1,1.1-0.4,1.2-1
				c0.1-0.6-0.4-1.1-1-1.2l-16.9-1.7c-1.9-0.2-3.7,1.2-3.9,3.2l-1.6,16.6h-2.8c-2,0-3.7,1.7-3.7,3.7v1c-1.7,0.8-2.8,2.4-2.8,4.4
				v37.1c0,2.7,2.2,4.8,4.8,4.8H453c2.7,0,4.8-2.2,4.8-4.8V78.4h1.1c1.3,0,2.4-1.1,2.4-2.4V64.4C461.4,63,460.3,61.9,459,61.9z
				 M452.1,44.8L452.1,44.8c0.8,0,1.5,0.7,1.5,1.5v0.6c-0.2,0-0.4,0-0.6,0h-4.6l1.4-2H452.1z M428.3,19.9c0.2-0.3,0.5-0.5,0.9-0.6
				c0.1,0,0.2,0,0.3,0c0.3,0,0.5,0.1,0.8,0.2l22.2,15.1c0.6,0.4,0.8,1.3,0.4,1.9l-7,10.2h-1.7l3.4-5c0.6-0.8,0.6-1.8,0.1-2.7
				c-0.6-1.1-0.9-2.5-0.7-3.8c0.1-1-0.3-1.9-1.1-2.4l-11.5-7.8c-0.8-0.5-1.8-0.6-2.7-0.1c-1.1,0.6-2.5,0.9-3.8,0.7
				c-1-0.1-1.9,0.3-2.5,1.1l-13.7,20.1H410L428.3,19.9z M428.8,38.4c-4.7,0-8.6,3.7-8.9,8.4h-5.5l12.8-18.8c0,0,0,0,0,0
				c0.1-0.1,0.2-0.2,0.3-0.2c0,0,0,0,0,0c1.8,0.2,3.6-0.1,5.1-0.9c0.1-0.1,0.3-0.1,0.4,0l11.5,7.8c0.1,0.1,0.2,0.2,0.2,0.4
				c-0.2,1.8,0.1,3.6,1,5.1c0.1,0.1,0.1,0.3,0,0.4l-4.2,6.2h-3.7C437.4,42.1,433.5,38.4,428.8,38.4z M435.6,46.8H422
				c0.3-3.5,3.2-6.2,6.8-6.2C432.3,40.6,435.2,43.3,435.6,46.8z M392.4,46.3c0-0.8,0.7-1.5,1.5-1.5h2.6l-0.2,2h-3.9V46.3z
				 M389.6,51.6c0-1.5,1.2-2.7,2.7-2.7H453c1.5,0,2.7,1.2,2.7,2.7v3h-66V51.6z M455.6,88.7c0,1.5-1.2,2.7-2.7,2.7h-60.7
				c-1.5,0-2.7-1.2-2.7-2.7v-3h5.9c0.6,0,1.1-0.5,1.1-1.1s-0.5-1.1-1.1-1.1h-5.9V56.8h66v5.1h-10.3h0c-3.3,0-6.1,1.9-7.4,4.7
				c0,0,0,0,0,0c0,0,0,0,0,0.1c-0.2,0.3-0.3,0.7-0.4,1.1c0,0,0,0,0,0c-0.2,0.8-0.4,1.6-0.4,2.4c0,4.6,3.7,8.3,8.3,8.3h0h10.3v5.1
				h-53.2c-0.6,0-1.1,0.5-1.1,1.1c0,0.6,0.5,1.1,1.1,1.1h53.2V88.7z M459.2,76c0,0.1-0.1,0.3-0.3,0.3h-13.7c-2.3,0-4.3-1.3-5.3-3.2
				c0-0.1-0.1-0.2-0.1-0.3c-0.1-0.2-0.2-0.4-0.2-0.5c-0.2-0.7-0.4-1.4-0.4-2.1c0-0.7,0.1-1.4,0.4-2.1c0.1-0.2,0.1-0.4,0.2-0.5
				c0-0.1,0.1-0.2,0.1-0.3c1-1.9,3-3.2,5.3-3.2H459c0.1,0,0.3,0.1,0.3,0.3V76L459.2,76z"/>
		</g>
	</g>
	<g>
		<g>
			<path d="M445.6,65.7c-2.4,0-4.4,2-4.4,4.4c0,2.4,2,4.4,4.4,4.4s4.4-2,4.4-4.4C450,67.7,448,65.7,445.6,65.7z M445.6,72.4
				c-1.2,0-2.2-1-2.2-2.2c0-1.2,1-2.2,2.2-2.2c1.2,0,2.2,1,2.2,2.2C447.8,71.4,446.8,72.4,445.6,72.4z"/>
		</g>
	</g>
	<g>
		<g>
			<path d="M811.3,42.5c-0.4-0.5-1.2-0.6-1.8-0.2L797,52.2l-16.1-6.7c-0.4-0.2-0.8-0.1-1.2,0.2L762.5,58c-0.5,0.4-0.7,1.2-0.3,1.7
				c0.2,0.4,0.6,0.5,1,0.5c0.2,0,0.5-0.1,0.7-0.2l16.7-11.9l16.2,6.7c0.4,0.2,0.9,0.1,1.2-0.2l13-10.3
				C811.6,43.9,811.6,43,811.3,42.5z"/>
		</g>
	</g>
	<g>
		<g>
			<path d="M829.3,84.7h-5.7V49.1c0-0.7-0.5-1.2-1.2-1.2H811c-0.7,0-1.2,0.5-1.2,1.2v35.7h-4.2V61.4c0-0.7-0.5-1.2-1.2-1.2H793
				c-0.7,0-1.2,0.5-1.2,1.2v23.3h-4.2V59.5c0-0.7-0.5-1.2-1.2-1.2h-11.3c-0.7,0-1.2,0.5-1.2,1.2v25.2h-4.2V66.8
				c0-0.7-0.5-1.2-1.2-1.2H757c-0.7,0-1.2,0.5-1.2,1.2v17.9H750c-0.7,0-1.2,0.5-1.2,1.2s0.5,1.2,1.2,1.2h6.9h11.3h6.8h11.3h6.6h11.3
				h6.6h11.3h6.9c0.7,0,1.2-0.5,1.2-1.2C830.5,85.3,830,84.7,829.3,84.7z M767.1,84.7h-8.9V68h8.9V84.7z M785.1,84.7h-8.9v-24h8.9
				V84.7z M803.1,84.7h-8.9V62.6h8.9V84.7z M821.1,84.7h-8.9V50.3h8.9V84.7z"/>
		</g>
	</g>
	<g>
		<g>
			<path d="M22.1,260.9h-3.9v49.3h40.7l47.6-7v-34.4l-1.3-0.2l-1.8-0.3c-1.4-0.2-2.3-0.4-2.3-0.4s-0.4,0-2.4-0.5l-39.8-6.7h-1.7
				 M49.3,260.9H29.8 M54.5,260.9h-2.6 M27.3,260.9h-2.6 M29.8,307.6h-9.1v-44.1h9.1v2.6h-6.5V305h6.5V307.6z M45.4,302.4h-2.6v-9.1
				h-2.6V305h5.2v2.6h-13V305h5.2v-11.7H35v9.1h-2.6v-2.6h-2.6v2.6H26v-33.8h3.9v2.6h2.6v-2.6H35v10.4h2.6v-13h-5.2v-2.6h13v2.6
				h-5.2v13h2.6v-10.4h2.6v2.6H48v-2.6h3.9v33.8H48v-2.6h-2.6L45.4,302.4L45.4,302.4z M103.9,301l-44.1,6.5v-6.3h-2.6v6.5H48V305
				h6.5v-38.9H48v-2.6h9.1v29.9h2.6v-29.7l44.1,7.4L103.9,301L103.9,301z"/>
		</g>
	</g>
	<g>
		<g>
			<rect x="57.1" y="295.9" width="2.6" height="2.6"/>
		</g>
	</g>
	<g>
		<g>
			<rect x="29.8" y="273.9" width="2.6" height="2.6"/>
		</g>
	</g>
	<g>
		<g>
			<path d="M48,281.6v-2.6h-2.6v2.6h-13v-2.6h-2.6v2.6h-1.3v7.8h1.3v2.6h2.6v-2.6h13v2.6H48v-2.6h1.3v-7.8H48z M46.7,286.8H31.1
				v-2.6h15.6V286.8z"/>
		</g>
	</g>
	<g>
		<g>
			<rect x="29.8" y="294.6" width="2.6" height="2.6"/>
		</g>
	</g>
	<g>
		<g>
			<rect x="45.4" y="273.9" width="2.6" height="2.6"/>
		</g>
	</g>
	<g>
		<g>
			<rect x="45.4" y="294.6" width="2.6" height="2.6"/>
		</g>
	</g>
	<g>
		<g>
			<rect x="64.9" y="268.7" width="2.6" height="33.8"/>
		</g>
	</g>
	<g>
		<g>
			<rect x="71.4" y="270" width="2.6" height="31.2"/>
		</g>
	</g>
	<g>
		<g>
			<rect x="77.9" y="271.3" width="2.6" height="28.6"/>
		</g>
	</g>
	<g>
		<g>
			<rect x="84.4" y="272.6" width="2.6" height="26"/>
		</g>
	</g>
	<g>
		<g>
			<rect x="90.9" y="273.9" width="2.6" height="23.4"/>
		</g>
	</g>
	<g>
		<g>
			<rect x="97.4" y="275.2" width="2.6" height="20.8"/>
		</g>
	</g>
	<path d="M469.2,285.6h-9.7c-0.9,0-1.6,0.7-1.6,1.6v1.4h-10.2c-0.2,0-0.4,0-0.6,0.1l-13.1,5.4c-1.5,0.6-2.7,1.8-3.3,3.3
		c-0.6,1.5-0.6,3.2,0,4.7l0,0.1c0.4,0.9,0.9,1.7,1.6,2.3c-2,0.5-4.1,0.6-6.1,0.1l-12.9-2.9c-1.6-0.4-3.2-0.1-4.5,0.8
		c-1.4,0.9-2.3,2.2-2.6,3.8c-0.7,3.1,1.3,6.2,4.4,7l15.3,3.9c1.3,0.3,2.6,0.5,3.9,0.5c2,0,3.9-0.4,5.8-1.1L455,309h2.8v0.9
		c0,0.9,0.7,1.6,1.6,1.6h9.7c0.9,0,1.6-0.7,1.6-1.6v-22.6C470.8,286.4,470.1,285.6,469.2,285.6z M454.7,305.7c-0.2,0-0.4,0-0.6,0.1
		l-19.8,7.8c-2.5,1-5.1,1.1-7.7,0.5l-15.3-3.9c-1.4-0.4-2.3-1.7-2-3.1c0.1-0.7,0.6-1.3,1.2-1.7c0.4-0.3,0.9-0.4,1.4-0.4
		c0.2,0,0.4,0,0.6,0.1l12.9,2.9c3.1,0.7,6.3,0.5,9.3-0.7l3.7-1.4c0.1,0,0.2-0.1,0.2-0.1c3.3-1.3,7.5-2.9,8.4-3.2l0.2-0.1
		c0.8-0.3,1.3-1.3,0.9-2.1c-0.3-0.8-1.3-1.3-2.1-0.9c0,0-0.1,0-0.2,0.1l-8.6,3.3c-1.5,0.5-3-0.2-3.6-1.7l0-0.1
		c-0.3-0.7-0.3-1.5,0-2.2s0.8-1.2,1.5-1.5l12.8-5.3h9.9v13.8H454.7z M467.5,308.2h-6.4v-19.3h6.4V308.2z"/>
	<path d="M402.8,285h-3v-15.3h0.5c1.2,0,2.4-0.3,3.5-0.8c0.1,0,0.1-0.1,0.1-0.1l10.6-6.9c1.5-0.7,3.3-0.6,4.6,0.4l0.8,0.6
		c0,0.1-0.1,0.1-0.1,0.2c-0.2,0.3-0.4,0.6-0.6,0.9c-1.1,1.9-1.9,4-2.1,6.2c-1.1,0.1-2.2,0.6-3,1.4c-0.9,0.9-1.4,2.2-1.4,3.5
		c0,2.7,2.2,4.9,4.9,4.9h12.1c0.7,0,1.3,0.3,1.8,0.7c0.5,0.5,0.7,1.1,0.7,1.8c0,1-0.6,1.9-1.5,2.3c-0.1,0-0.2,0.1-0.3,0.1
		c0,0,0,0,0,0c-0.2,0.1-0.5,0.1-0.7,0.1h-13.8c-0.9,0-1.6,0.7-1.6,1.6s0.7,1.6,1.6,1.6h13.8c0.4,0,0.8,0,1.2-0.1
		c0.7,0.1,1.4,0.1,2.1,0.1c8.9,0,16.1-7.2,16.1-16.1c0-8.9-7.2-16.1-16.1-16.1c-4.1,0-8,1.6-11,4.3l-1-0.7c-2.3-1.7-5.5-2-8.1-0.7
		c-0.1,0-0.1,0.1-0.1,0.1l-10.6,6.9c-0.6,0.3-1.3,0.4-1.9,0.4h-0.5v-0.6c0-0.9-0.7-1.6-1.6-1.6h-9.7c-0.9,0-1.6,0.7-1.6,1.6v22.6
		c0,0.9,0.7,1.6,1.6,1.6h9.7c0.9,0,1.6-0.7,1.6-1.6v-0.1h3c0.9,0,1.6-0.7,1.6-1.6S403.7,285,402.8,285z M415.9,275
		c0-0.4,0.2-0.9,0.5-1.2c0.2-0.2,0.4-0.3,0.6-0.4c0.1,1.1,0.3,2.2,0.6,3.2C416.6,276.6,415.9,275.9,415.9,275z M445.9,272.1
		c0,6.4-4.7,11.8-10.9,12.7c0.3-0.7,0.5-1.6,0.5-2.4c0-1-0.3-2-0.7-2.8c0.7-0.1,1.4-0.4,1.9-1c0.7-0.6,1-1.5,1-2.4v-2.4
		c0-1.9-1.5-3.4-3.4-3.4h-2.4c-0.1,0-0.2-0.1-0.2-0.2v-2.3c0-0.1,0.1-0.2,0.2-0.2h1.2h0h0h1.2c0.1,0,0.2,0.1,0.2,0.2
		c0,0.9,0.7,1.6,1.6,1.6c0.9,0,1.6-0.7,1.6-1.6c0-1.7-1.3-3.2-3-3.4V264c0-0.9-0.7-1.6-1.6-1.6s-1.6,0.7-1.6,1.6v0.6
		c-1.7,0.2-3,1.7-3,3.4v2.3c0,1.9,1.5,3.4,3.4,3.4h2.4c0.1,0,0.2,0.1,0.2,0.2v2.4c0,0,0,0.1,0,0.1c0,0-0.1,0-0.1,0h-2.4
		c-0.1,0-0.2-0.1-0.2-0.2V276c0-0.9-0.7-1.6-1.6-1.6s-1.6,0.7-1.6,1.6v0.2c0,0.1,0,0.3,0,0.4H421c-0.6-1.4-0.8-3-0.8-4.6
		c0-2.4,0.7-4.8,2-6.8c0.4-0.6,0.8-1.1,1.2-1.7c2.4-2.8,6-4.4,9.6-4.4C440.1,259.2,445.9,265,445.9,272.1z M396.5,286.7h-6.4v-19.3
		h6.4V286.7z"/>
	<path d="M410.6,285.7c-0.4-0.6-1.1-0.9-1.8-0.7c-0.7,0.2-1.1,0.8-1.2,1.4c-0.1,0.7,0.3,1.3,1,1.6c0.6,0.3,1.4,0.1,1.8-0.3
		C411,287.2,411.1,286.3,410.6,285.7z"/>
	<g>
		<g>
			<path d="M796.5,256.3c-17.5,0-31.7,14.2-31.7,31.7s14.2,31.7,31.7,31.7c17.5,0,31.7-14.2,31.7-31.7
				C828.1,270.5,813.9,256.3,796.5,256.3z M796.5,317.5c-16.3,0-29.5-13.2-29.5-29.5c0-16.3,13.2-29.5,29.5-29.5
				c16.3,0,29.5,13.2,29.5,29.5C826,304.2,812.8,317.5,796.5,317.5z"/>
		</g>
	</g>
	<g>
		<g>
			<path d="M796.5,261.6c-14.6,0-26.4,11.8-26.4,26.4c0,14.6,11.8,26.4,26.4,26.4c14.6,0,26.4-11.8,26.4-26.4
				C822.8,273.4,811,261.6,796.5,261.6z M796.5,312.2c-13.4,0-24.3-10.9-24.3-24.3c0-13.4,10.9-24.3,24.3-24.3
				c13.4,0,24.3,10.9,24.3,24.3C820.7,301.3,809.9,312.2,796.5,312.2z"/>
		</g>
	</g>
	<g>
		<g>
			<rect x="795.4" y="266.8" width="2.1" height="2.1"/>
		</g>
	</g>
	<g>
		<g>
			<rect x="795.4" y="306.9" width="2.1" height="2.1"/>
		</g>
	</g>
	<g>
		<g>
			<rect x="785.4" y="269.5" transform="matrix(0.866 -0.5001 0.5001 0.866 -29.9002 429.5932)" width="2.1" height="2.1"/>
		</g>
	</g>
	<g>
		<g>
			<rect x="805.4" y="304.2" transform="matrix(0.866 -0.5001 0.5001 0.866 -44.5748 444.2694)" width="2.1" height="2.1"/>
		</g>
	</g>
	<g>
		<g>
			<rect x="778.1" y="276.9" transform="matrix(0.5 -0.866 0.866 0.5 148.8683 813.6736)" width="2.1" height="2.1"/>
		</g>
	</g>
	<g>
		<g>
			<rect x="812.8" y="296.9" transform="matrix(0.5 -0.866 0.866 0.5 148.8633 853.7626)" width="2.1" height="2.1"/>
		</g>
	</g>
	<g>
		<g>
			<rect x="775.4" y="286.9" width="2.1" height="2.1"/>
		</g>
	</g>
	<g>
		<g>
			<rect x="815.5" y="286.9" width="2.1" height="2.1"/>
		</g>
	</g>
	<g>
		<g>
			<rect x="778.1" y="296.9" transform="matrix(0.8661 -0.4999 0.4999 0.8661 -44.6148 429.3703)" width="2.1" height="2.1"/>
		</g>
	</g>
	<g>
		<g>
			<rect x="812.8" y="276.9" transform="matrix(0.866 -0.5 0.5 0.866 -29.9219 444.1549)" width="2.1" height="2.1"/>
		</g>
	</g>
	<g>
		<g>
			<rect x="785.4" y="304.2" transform="matrix(0.5001 -0.866 0.866 0.5001 128.7495 833.622)" width="2.1" height="2.1"/>
		</g>
	</g>
	<g>
		<g>
			<rect x="805.4" y="269.5" transform="matrix(0.5001 -0.866 0.866 0.5001 168.8338 833.632)" width="2.1" height="2.1"/>
		</g>
	</g>
	<g>
		<g>
			<path d="M795.4,271.1v16.3l-10,6l1.1,1.8l10.6-6.3c0.3-0.2,0.5-0.5,0.5-0.9v-16.9H795.4z"/>
		</g>
	</g>
	<g>
		<g>
			<g>
				<path d="M44.3,554.2c-1,0-1.7,0.8-1.7,1.7s0.8,1.7,1.7,1.7h0c1,0,1.7-0.8,1.7-1.7S45.2,554.2,44.3,554.2z"/>
				<path d="M110.9,525.8c0.2-0.9-0.3-1.8-1.1-2.1c-4.1-1.4-9.1-4.5-9.1-11.4v-3.7c0-5.5-0.9-9.6-2.9-12.5
					c-2.3-3.5-6.2-5.2-11.4-5.2c-5.2,0-9,1.8-11.4,5.2c-1.9,2.9-2.9,7-2.9,12.5v3.7c0,6.9-4.9,10-9.1,11.4c-0.9,0.3-1.4,1.2-1.1,2.1
					c0.9,3.6,2.3,5.7,4.8,6.9c-0.5,0.5-1,1.1-1.4,1.7c-2.6-3.9-7.5-5.2-11.7-6.4c-0.8-0.2-1.5-0.4-2.3-0.6v-1.2
					c4.7-2.5,7.9-7.5,7.9-13.2v-6.9c0-8.3-6.7-15-15-15c-8.3,0-15,6.7-15,15v6.9c0,5.7,3.2,10.6,7.9,13.2v1.2
					c-0.7,0.2-1.5,0.4-2.2,0.6c-5.9,1.6-13.3,3.6-13.4,12.6c0,0,0,0,0,0V556c0,1,0.8,1.7,1.7,1.7h13.2c1,0,1.7-0.8,1.7-1.7
					c0-1-0.8-1.7-1.7-1.7h-2.1v-7.1c0-1-0.8-1.7-1.7-1.7c-1,0-1.7,0.8-1.7,1.7v7.1h-5.9v-13.5c0.1-6,4.2-7.5,10.9-9.3
					c0.6-0.2,1.1-0.3,1.7-0.5c0.9,2.8,3.6,4.9,6.8,4.9c3.2,0,5.8-2.1,6.8-4.9c0.6,0.2,1.1,0.3,1.7,0.5c6.7,1.8,10.8,3.3,10.9,9.3
					v13.5h-5.9v-7.1c0-1-0.8-1.7-1.7-1.7c-1,0-1.7,0.8-1.7,1.7v7.1h-2.1c-1,0-1.7,0.8-1.7,1.7c0,1,0.8,1.7,1.7,1.7h26.5
					c1,0,1.7-0.8,1.7-1.7c0-1-0.8-1.7-1.7-1.7h-2.1v-7.1c0-1-0.8-1.7-1.7-1.7s-1.7,0.8-1.7,1.7v7.1h-5.9v-13.5
					c0.1-6,4.2-7.5,10.9-9.3c0.6-0.2,1.1-0.3,1.7-0.5c0.9,2.8,3.6,4.9,6.8,4.9c3.2,0,5.8-2.1,6.8-4.9c0.6,0.2,1.1,0.3,1.7,0.5
					c6.7,1.8,10.8,3.3,10.9,9.3v13.5h-5.9v-7.1c0-1-0.8-1.7-1.7-1.7c-1,0-1.7,0.8-1.7,1.7v7.1h-2.1c-1,0-1.7,0.8-1.7,1.7
					c0,1,0.8,1.7,1.7,1.7h13.2c1,0,1.7-0.8,1.7-1.7v-15.3c0,0,0,0,0,0c-0.1-3.7-1.3-6.2-3.2-8C108.6,531.5,110,529.4,110.9,525.8
					L110.9,525.8z M32.8,506.1c0-6.3,5.2-11.5,11.5-11.5c6.3,0,11.5,5.2,11.5,11.5v1.8c-4.6,0.2-10.4-0.4-14.7-3.3
					c-0.8-0.5-1.8-0.4-2.4,0.4c-1.5,1.9-3.3,2.4-5.9,2.7V506.1z M47.9,528.7c0,2-1.6,3.6-3.6,3.6c-2,0-3.6-1.6-3.6-3.6v-1.1
					c1.2,0.3,2.4,0.5,3.6,0.5c1.3,0,2.5-0.2,3.6-0.4V528.7z M44.3,524.6c-6.3,0-11.5-5.2-11.5-11.5v-1.8c2.8-0.3,5.5-0.8,7.7-2.9
					c4.8,2.7,10.6,3.3,15.3,3.1v1.6C55.8,519.4,50.6,524.6,44.3,524.6L44.3,524.6z M78,498.1c1.7-2.5,4.4-3.7,8.5-3.7
					c4,0,6.8,1.2,8.5,3.7c1.4,2,2.1,5,2.3,9.1c-3.2,0.6-7.1,0.1-9.2-4.1c-0.6-1.3-2.5-1.3-3.1,0c-2.1,4.2-5.9,4.6-9.2,4.1
					C75.8,503.1,76.6,500.1,78,498.1z M79.3,527.4c-0.7,0.2-1.5,0.4-2.2,0.6c-2.1,0.6-4.4,1.2-6.5,2.2c-2.7-0.5-3.9-1.3-4.7-3.8
					c2.8-1.2,6.3-3.3,8.3-7.1c1.3,2.2,3.1,4,5.3,5.3L79.3,527.4L79.3,527.4z M90.1,528.7c0,2-1.6,3.6-3.6,3.6c-2,0-3.6-1.6-3.6-3.6
					v-2.6c1.2,0.3,2.4,0.5,3.6,0.5c1.3,0,2.5-0.2,3.6-0.5V528.7z M86.4,523.1c-5.9,0-10.8-4.8-10.8-10.8v-1.5
					c0.7,0.1,1.5,0.2,2.2,0.2c3.5,0,6.5-1.3,8.6-3.8c2.1,2.5,5.1,3.8,8.6,3.8c0.7,0,1.4-0.1,2.2-0.2v1.5
					C97.2,518.2,92.4,523.1,86.4,523.1z M102.3,530.2c-2.1-1-4.4-1.6-6.5-2.2c-0.8-0.2-1.5-0.4-2.2-0.6v-2.8c2.2-1.3,4-3.1,5.2-5.3
					c2,3.8,5.4,5.9,8.3,7.1C106.2,528.8,105.1,529.7,102.3,530.2L102.3,530.2z"/>
				<path d="M86.4,554.2c-1,0-1.7,0.8-1.7,1.7s0.8,1.7,1.7,1.7h0c1,0,1.7-0.8,1.7-1.7S87.4,554.2,86.4,554.2z"/>
			</g>
		</g>
	</g>
	<path d="M437,548.8h-2.7v-13.1c0-0.7-0.6-1.3-1.3-1.3c-0.7,0-1.3,0.6-1.3,1.3v13.1H397v-26.7h11.1c0.7,0,1.3-0.6,1.3-1.3
		s-0.6-1.3-1.3-1.3h-12.4c-0.7,0-1.3,0.6-1.3,1.3v28h-2.7c-0.7,0-1.3,0.6-1.3,1.3v2.7c0,3.7,3,6.7,6.7,6.7h34.7c3.7,0,6.7-3,6.7-6.7
		v-2.7C438.3,549.4,437.7,548.8,437,548.8z M435.7,552.8c0,2.2-1.8,4-4,4H429v-1.3c0-0.7-0.6-1.3-1.3-1.3s-1.3,0.6-1.3,1.3v1.3h-24
		v-1.3c0-0.7-0.6-1.3-1.3-1.3s-1.3,0.6-1.3,1.3v1.3H397c-2.2,0-4-1.8-4-4v-1.3h42.7V552.8z"/>
	<path d="M459.7,487.5h2.7c0.7,0,1.3-0.6,1.3-1.3s-0.6-1.3-1.3-1.3h-2.7c-2.2,0-4,1.8-4,4v1.3h-1.3c-0.7,0-1.3,0.6-1.3,1.3
		s0.6,1.3,1.3,1.3h1.3v4c0,0.7,0.6,1.3,1.3,1.3s1.3-0.6,1.3-1.3v-4h1.3c0.7,0,1.3-0.6,1.3-1.3s-0.6-1.3-1.3-1.3h-1.3v-1.3
		C458.3,488.1,458.9,487.5,459.7,487.5z"/>
	<path d="M466.3,479.5h-16c-2.2,0-4,1.8-4,4v2.7c0,0.7,0.6,1.3,1.3,1.3s1.3-0.6,1.3-1.3v-2.7c0-0.7,0.6-1.3,1.3-1.3h16
		c0.7,0,1.3,0.6,1.3,1.3v16c0,0.7-0.6,1.3-1.3,1.3h-16c-0.7,0-1.3-0.6-1.3-1.3v-8c0-0.7-0.6-1.3-1.3-1.3s-1.3,0.6-1.3,1.3v8
		c0,2.2,1.8,4,4,4h16c2.2,0,4-1.8,4-4v-16C470.3,481.3,468.6,479.5,466.3,479.5z"/>
	<path d="M453,532.8c0,2.9,2.4,5.3,5.3,5.3s5.3-2.4,5.3-5.3s-2.4-5.3-5.3-5.3S453,529.9,453,532.8z M461,532.8
		c0,1.5-1.2,2.7-2.7,2.7s-2.7-1.2-2.7-2.7s1.2-2.7,2.7-2.7S461,531.3,461,532.8z"/>
	<path d="M466.3,520.8h-16c-2.2,0-4,1.8-4,4v16c0,2.2,1.8,4,4,4h16c2.2,0,4-1.8,4-4v-2.7c0-0.7-0.6-1.3-1.3-1.3
		c-0.7,0-1.3,0.6-1.3,1.3v2.7c0,0.7-0.6,1.3-1.3,1.3h-16c-0.7,0-1.3-0.6-1.3-1.3v-16c0-0.7,0.6-1.3,1.3-1.3h16
		c0.7,0,1.3,0.6,1.3,1.3v8c0,0.7,0.6,1.3,1.3,1.3c0.7,0,1.3-0.6,1.3-1.3v-8C470.3,522.6,468.6,520.8,466.3,520.8z"/>
	<path d="M420.3,495.3c0.2,0.1,0.5,0.2,0.7,0.2c0.2,0,0.4-0.1,0.6-0.1l8-4c0.7-0.3,0.9-1.1,0.6-1.8c-0.1-0.2-0.3-0.5-0.6-0.6l-8-4
		c-0.7-0.3-1.5-0.1-1.8,0.6c-0.1,0.2-0.1,0.4-0.1,0.6v8C419.7,494.6,419.9,495,420.3,495.3z M422.3,488.3l3.7,1.8l-3.7,1.8V488.3z"
		/>
	<path d="M423.7,502.1c6.6,0,12-5.4,12-12s-5.4-12-12-12s-12,5.4-12,12S417,502.1,423.7,502.1z M423.7,480.8c5.2,0,9.3,4.2,9.3,9.3
		s-4.2,9.3-9.3,9.3c-5.2,0-9.3-4.2-9.3-9.3S418.5,480.8,423.7,480.8z"/>
	<path d="M437,507.5c0.4,0,0.8-0.2,1.1-0.5l4-5.3c0.4-0.6,0.3-1.4-0.3-1.9c-0.6-0.4-1.4-0.3-1.9,0.3l-4,5.3
		c-0.4,0.6-0.3,1.4,0.3,1.9C436.4,507.4,436.7,507.5,437,507.5z"/>
	<path d="M439.9,512.3c0.3,0.3,0.6,0.5,1.1,0.5c0.3,0,0.6-0.1,0.8-0.3l5.3-4c0.6-0.4,0.7-1.3,0.3-1.9s-1.3-0.7-1.9-0.3l-5.3,4
		C439.6,510.8,439.5,511.7,439.9,512.3L439.9,512.3z"/>
	<path d="M453,515.2c-0.1-0.7-0.8-1.2-1.5-1.1c0,0,0,0-0.1,0l-6.7,1.3c-0.7,0.1-1.3,0.7-1.2,1.5s0.7,1.3,1.5,1.2h0.3l6.7-1.3
		C452.7,516.7,453.2,516,453,515.2C453,515.2,453,515.2,453,515.2z"/>
	<path d="M391.7,515.5h16c0.7,0,1.3-0.6,1.3-1.3v-21.3c0-0.7-0.6-1.3-1.3-1.3h-16c-0.7,0-1.3,0.6-1.3,1.3v21.3
		C390.3,514.9,390.9,515.5,391.7,515.5z M393,494.1h13.3v18.7H393V494.1z"/>
	<path d="M402.3,496.8h-2.7c-0.7,0-1.3,0.6-1.3,1.3s0.6,1.3,1.3,1.3h2.7c0.7,0,1.3-0.6,1.3-1.3S403.1,496.8,402.3,496.8z"/>
	<path d="M402.3,502.1H397c-0.7,0-1.3,0.6-1.3,1.3s0.6,1.3,1.3,1.3h5.3c0.7,0,1.3-0.6,1.3-1.3S403.1,502.1,402.3,502.1z"/>
	<path d="M402.3,507.5H397c-0.7,0-1.3,0.6-1.3,1.3s0.6,1.3,1.3,1.3h5.3c0.7,0,1.3-0.6,1.3-1.3S403.1,507.5,402.3,507.5z"/>
	<path d="M435.8,515.1c-0.4-0.6-1.2-0.9-1.8-0.5c-0.6,0.4-0.9,1.2-0.5,1.8l5.9,10.2l-21.3,8c0,0,0,0-0.1,0h-0.1l-3.5,2l-2.3,1.3
		c-0.6,0.4-1.3,0.5-2,0.3c-0.7-0.2-1.3-0.6-1.6-1.2l-2.7-4.6c-0.7-1.3-0.2-2.8,1-3.5l4.6-2.7l3.3,5.8c0.2,0.4,0.7,0.7,1.2,0.7
		c0.7,0,1.3-0.6,1.3-1.3c0-0.2-0.1-0.5-0.2-0.7l-3.4-5.9l16.7-13.8l0.5,0.9c0.4,0.6,1.2,0.9,1.8,0.5c0.6-0.4,0.9-1.2,0.5-1.8
		l-1.3-2.3c-0.2-0.3-0.5-0.6-0.9-0.6c-0.4-0.1-0.8,0-1.1,0.3l-18.7,15.4l-5.7,3.3c-2.1,1.2-3.1,3.7-2.5,6l-1.3,0.8
		c-1.9,1.1-2.6,3.5-1.5,5.5c0.5,0.9,1.4,1.6,2.4,1.9c0.3,0.1,0.7,0.1,1,0.1c0.7,0,1.4-0.2,2-0.5l1.3-0.8c0.6,0.7,1.4,1.1,2.3,1.4
		c0.5,0.1,0.9,0.2,1.4,0.2c0.9,0,1.9-0.2,2.7-0.7l1.2-0.7l2.7,4.6c1.1,1.9,3.5,2.6,5.5,1.5c1.9-1.1,2.6-3.5,1.5-5.5c0,0,0,0,0,0
		l-2.4-4.2l20-7.5c0.4-0.1,0.7-0.4,0.8-0.8c0.1-0.4,0.1-0.8-0.1-1.1L435.8,515.1z M404.3,537.9c-0.3,0.2-0.7,0.2-1,0.1
		c-0.3-0.1-0.6-0.3-0.8-0.6c-0.2-0.3-0.2-0.7-0.1-1c0.1-0.3,0.3-0.6,0.6-0.8l1.2-0.7l1.3,2.3L404.3,537.9z M421.9,541.6
		c0.2,0.3,0.2,0.7,0.1,1c-0.1,0.3-0.3,0.6-0.6,0.8c-0.6,0.4-1.4,0.2-1.8-0.5l-2.7-4.6l2.2-1.3h0.1L421.9,541.6z"/>
	<g>
		<g>
			<path d="M818.7,552.4l-3-8.9c-1-3.1-3.7-5.4-6.9-6l-8.5-1.6v-0.7c1.5-0.9,2.8-2,3.8-3.4h2.6c2.1,0,3.8-1.7,3.8-3.8v-15.3
				c0-9.2-7.4-16.6-16.6-16.6s-16.6,7.4-16.6,16.6v8.9c0,2.5,1.8,4.5,4.1,5c0.7,3.7,3,6.8,6.1,8.6v0.7l-8.5,1.6
				c-3.2,0.6-5.8,2.9-6.9,6l-0.5,1.5l-4.3-4.3c-0.5-0.5-0.5-1.3,0-1.8l5-5l-9.5-9.5l-5.7,5.7c-1.7,1.7-2.6,3.9-2.6,6.3
				c0,2.4,0.9,4.6,2.6,6.3l17.3,17.3c1.7,1.7,3.9,2.6,6.3,2.6c2.4,0,4.6-0.9,6.3-2.6l6.2-5.7l-1.9-1.9H818.7z M808,528.2
				c0,0.7-0.6,1.3-1.3,1.3h-1.1c0.4-0.8,0.7-1.7,0.8-2.7c0.5-0.1,1-0.3,1.5-0.6V528.2z M806.7,524v-4.4c0.8,0.4,1.3,1.3,1.3,2.2
				C808,522.7,807.5,523.5,806.7,524z M781.2,524c-0.8-0.4-1.3-1.3-1.3-2.2c0-0.9,0.5-1.8,1.3-2.2V524z M781.2,515.4v1.5
				c-0.5,0.1-0.9,0.3-1.3,0.5v-4.5c0-7.7,6.3-14,14-14s14,6.3,14,14v4.5c-0.4-0.2-0.8-0.4-1.3-0.5v-1.5h-1.3c-3.8,0-7.3-1.5-10-4.1
				l-1.5-1.5l-1.5,1.5c-2.7,2.7-6.2,4.1-10,4.1H781.2z M783.7,524.3v-6.4c3.8-0.3,7.4-1.9,10.2-4.5c2.8,2.7,6.4,4.3,10.2,4.5v6.4
				c0,1.9-0.5,3.6-1.4,5.1H794v2.6h6.7c-1.8,1.6-4.2,2.6-6.7,2.6C788.3,534.6,783.7,530,783.7,524.3z M797.8,536.5L797.8,536.5
				l-3.8,3.9l-3.8-3.8v-0.1c1.2,0.4,2.5,0.6,3.8,0.6S796.6,536.9,797.8,536.5z M774.6,544.4c0.7-2.2,2.6-3.8,4.9-4.3l8.9-1.6
				l5.5,5.5l5.5-5.5l8.9,1.6c2.3,0.4,4.2,2.1,4.9,4.3l1.8,5.5h-26.4l-5-5l-5.5,5c-0.5,0.5-1.3,0.5-1.8,0l-2.8-2.8L774.6,544.4z
				 M762.9,528l5.9,5.9l-1.4,1.4l-5.9-5.9L762.9,528z M785.3,558.2c-1.2,1.2-2.8,1.9-4.5,1.9c-1.7,0-3.3-0.7-4.5-1.9L759,541
				c-1.2-1.2-1.9-2.8-1.9-4.5c0-1.7,0.7-3.3,1.9-4.5l0.7-0.7l5.9,5.9l0,0c-1.5,1.5-1.5,3.9,0,5.4l9.2,9.2c0.7,0.7,1.7,1.1,2.7,1.1
				c1,0,2-0.4,2.7-1.1l0.1-0.1l5.9,5.9L785.3,558.2z M787.9,555.8L782,550l1.7-1.5l5.9,5.9L787.9,555.8z"/>
		</g>
	</g>
	<g>
		<g>
			<path d="M829.7,483.5h-17.9c-2.1,0-3.8,1.7-3.8,3.8v10.2c0,2.1,1.7,3.8,3.8,3.8h3.4l-1.3,7.7l12.3-7.7h3.5c2.1,0,3.8-1.7,3.8-3.8
				v-10.2C833.5,485.2,831.8,483.5,829.7,483.5z M831,497.5c0,0.7-0.6,1.3-1.3,1.3h-4.2l-8.1,5.1l0.9-5.1h-6.4
				c-0.7,0-1.3-0.6-1.3-1.3v-10.2c0-0.7,0.6-1.3,1.3-1.3h17.9c0.7,0,1.3,0.6,1.3,1.3V497.5z"/>
		</g>
	</g>
	<g>
		<g>
			<rect x="813.1" y="488.6" width="15.3" height="2.6"/>
		</g>
	</g>
	<g>
		<g>
			<rect x="813.1" y="493.7" width="10.2" height="2.6"/>
		</g>
	</g>
	<g>
		<g>
			<rect x="825.9" y="493.7" width="2.6" height="2.6"/>
		</g>
	</g>
	<g>
		<g>
			<path d="M794,487.3c-16.7,0-31.1,11.5-34.8,27.6l-2.4-4l-2.2,1.3l4.5,7.5l7.5-4.5l-1.3-2.2l-3.5,2.1
				c3.6-14.7,16.9-25.2,32.2-25.2c3.4,0,6.7,0.5,9.8,1.5l0.8-2.4C801.1,487.8,797.6,487.3,794,487.3z"/>
		</g>
	</g>
	<g>
		<g>
			<path d="M832.9,511.7l-7.5-4.5l-4.5,7.5l2.2,1.3l2.2-3.7c1.2,3.4,1.8,7,1.8,10.7c0,7.6-2.6,15-7.4,20.9l2,1.6
				c5.1-6.3,8-14.3,8-22.5c0-3.9-0.6-7.7-1.9-11.4l3.8,2.3L832.9,511.7z"/>
		</g>
	</g>
</g>
</svg>
