<?xml version="1.0" encoding="utf-8"?>
<!-- Generator: Adobe Illustrator 24.2.1, SVG Export Plug-In . SVG Version: 6.00 Build 0)  -->
<svg version="1.1" id="Capa_1" xmlns="http://www.w3.org/2000/svg" xmlns:xlink="http://www.w3.org/1999/xlink" x="0px" y="0px"
	 viewBox="0 0 119.3 119.3" style="enable-background:new 0 0 119.3 119.3;" xml:space="preserve">
<style type="text/css">
	.st0{opacity:0.3;}
	.st1{fill:#FFC107;}
</style>
<g>
	<g class="st0">
		<path class="st1" d="M-274.2,96.2c-6,4-12.7,7.4-20,8c-7.2,0.6-15-2-19.2-7.9c-4.3-6-4.5-14.8-10.5-19.2
			c-7.9-5.9-21.6-0.4-27.7-8.3c-3.7-4.8-1.9-11.7,0.2-17.4c2.6-6.8,5.5-13.4,8.8-19.8c0.8-1.7,1.8-3.4,3.4-4.4
			c4.2-2.7,9.3,1,13.8,3.2c7.6,3.6,17.2,2.4,23.6-3.1c5.3-4.6,9.2-12.1,16.1-12.4c3.1-0.2,6.1,1.3,8.7,3
			c11.3,7.6,17.9,21.6,16.5,35.1c-0.5,4.7-1.9,9.2-3.2,13.7c-2.9,9.7-5.9,19.4-9.8,28.7"/>
	</g>
	<g class="st0">
		<path class="st1" d="M-275.4,321.2c-6,4-12.7,7.4-20,8c-7.2,0.6-15-2-19.2-7.9c-4.3-6-4.5-14.8-10.5-19.2
			c-7.9-5.9-21.6-0.4-27.7-8.3c-3.7-4.8-1.9-11.7,0.2-17.4c2.6-6.8,5.5-13.4,8.8-19.8c0.8-1.7,1.8-3.4,3.4-4.4
			c4.2-2.7,9.3,1,13.8,3.2c7.6,3.6,17.2,2.4,23.6-3.1c5.3-4.6,9.2-12.1,16.1-12.4c3.1-0.2,6.1,1.3,8.7,3
			c11.3,7.6,17.9,21.6,16.5,35.1c-0.5,4.7-1.9,9.2-3.2,13.7c-2.9,9.7-5.9,19.4-9.8,28.7"/>
	</g>
	<g class="st0">
		<path class="st1" d="M-266.2,559.3c-6,4-12.7,7.4-20,8s-15-2-19.2-7.9c-4.3-6-4.5-14.8-10.5-19.2c-7.9-5.9-21.6-0.4-27.7-8.3
			c-3.7-4.8-1.9-11.7,0.2-17.4c2.6-6.8,5.5-13.4,8.8-19.8c0.8-1.7,1.8-3.4,3.4-4.4c4.2-2.7,9.3,1,13.8,3.2
			c7.6,3.6,17.2,2.4,23.6-3.1c5.3-4.6,9.2-12.1,16.1-12.4c3.1-0.2,6.1,1.3,8.7,3c11.3,7.6,17.9,21.6,16.5,35.1
			c-0.5,4.7-1.9,9.2-3.2,13.7c-2.9,9.7-5.9,19.4-9.8,28.7"/>
	</g>
	<g class="st0">
		<path class="st1" d="M114.5,295c-1.4,7.1-3.8,14.2-8.5,19.8c-4.7,5.5-12,9.2-19.2,8c-7.3-1.3-13.7-7.3-21-6.2
			c-9.8,1.5-15.6,15-25.4,13.7c-6-0.8-9.6-6.9-12.1-12.4c-3-6.6-5.6-13.4-7.8-20.2c-0.6-1.8-1.1-3.7-0.7-5.5c1-4.8,7.3-5.8,12-7.5
			c7.9-2.8,13.8-10.5,14.4-18.9c0.5-6.9-2-15,2.6-20.2c2.1-2.3,5.2-3.4,8.3-4c13.3-2.7,27.9,2.6,36.5,13.2c3,3.7,5.2,7.8,7.4,12
			c4.8,8.9,9.6,17.8,13.4,27.2"/>
	</g>
	<g class="st0">
		<path class="st1" d="M114.5,527.7c-1.4,7.1-3.8,14.2-8.5,19.8c-4.7,5.5-12,9.2-19.2,8c-7.3-1.3-13.7-7.3-21-6.2
			c-9.8,1.5-15.6,15-25.4,13.7c-6-0.8-9.6-6.9-12.1-12.4c-3-6.6-5.6-13.4-7.8-20.2c-0.6-1.8-1.1-3.7-0.7-5.5c1-4.8,7.3-5.8,12-7.5
			c7.9-2.8,13.8-10.5,14.4-18.9c0.5-6.9-2-15,2.6-20.2c2.1-2.3,5.2-3.4,8.3-4c13.3-2.7,27.9,2.6,36.5,13.2c3,3.7,5.2,7.8,7.4,12
			c4.8,8.9,9.6,17.8,13.4,27.2"/>
	</g>
	<g class="st0">
		<path class="st1" d="M477.3,530.7c-1.4,7.1-3.8,14.2-8.5,19.8c-4.7,5.5-12,9.2-19.2,8c-7.3-1.3-13.7-7.3-21-6.2
			c-9.8,1.5-15.6,15-25.4,13.7c-6-0.8-9.6-6.9-12.1-12.4c-3-6.6-5.6-13.4-7.8-20.2c-0.6-1.8-1.1-3.7-0.7-5.5c1-4.8,7.3-5.8,12-7.5
			c7.9-2.8,13.8-10.5,14.4-18.9c0.5-6.9-2-15,2.6-20.2c2.1-2.3,5.2-3.4,8.3-4c13.3-2.7,27.9,2.6,36.5,13.2c3,3.7,5.2,7.8,7.4,12
			c4.8,8.9,9.6,17.8,13.4,27.2"/>
	</g>
	<g class="st0">
		<path class="st1" d="M438.2,248.7c5.8,1.1,11.5,3.1,16,6.9c4.5,3.8,7.4,9.8,6.5,15.6c-1,5.9-5.9,11.1-5,17
			c1.2,7.9,12.2,12.7,11.1,20.6c-0.6,4.9-5.6,7.8-10.1,9.8c-5.3,2.4-10.8,4.5-16.4,6.3c-1.4,0.5-3,0.9-4.4,0.6
			c-3.9-0.9-4.7-5.9-6.1-9.7c-2.2-6.4-8.5-11.2-15.3-11.7c-5.6-0.4-12.2,1.7-16.4-2.1c-1.9-1.7-2.8-4.3-3.3-6.7
			c-2.1-10.8,2.1-22.7,10.7-29.6c3-2.4,6.3-4.2,9.7-6c7.2-3.9,14.5-7.7,22.1-10.9"/>
	</g>
	<g class="st0">
		<path class="st1" d="M68.6,14.5c6.6,1.3,13.2,3.5,18.3,7.9c5.1,4.4,8.4,11.4,7.2,18.3c-1.2,7-6.9,13.2-6,20.2
			c1.3,9.3,13.8,14.8,12.5,24.1c-0.8,5.8-6.5,9.3-11.7,11.7c-6.2,2.9-12.5,5.5-19,7.7c-1.7,0.6-3.4,1.1-5.1,0.8
			c-4.5-1-5.4-6.9-6.8-11.4c-2.5-7.5-9.7-13.1-17.5-13.6c-6.5-0.4-14,2.1-18.8-2.3c-2.2-2-3.1-5-3.7-7.9c-2.3-12.7,2.8-26.8,12.7-35
			c3.4-2.9,7.4-5,11.2-7.2c8.4-4.7,16.7-9.3,25.5-13.1"/>
	</g>
	<g class="st0">
		<path class="st1" d="M384.1,62.2c-0.8-6.7-0.7-13.7,2-19.9s8.4-11.5,15.3-12.3c7-0.9,14.7,2.7,21-0.3c8.5-4,10-17.6,19.3-19.2
			c5.7-1,10.8,3.5,14.7,7.7c4.6,5,8.9,10.3,13,15.8c1,1.4,2.1,2.9,2.3,4.7c0.4,4.6-5,7.2-8.8,9.9c-6.5,4.6-9.6,13.1-7.8,20.7
			c1.5,6.3,6.2,12.8,3.4,18.6c-1.3,2.6-3.8,4.5-6.5,5.9c-11.4,6-26.4,5.4-37.2-1.7c-3.8-2.4-7-5.5-10.2-8.6
			c-6.9-6.6-13.9-13.2-20.1-20.4"/>
	</g>
	<g>
		<g>
			<path d="M-260.5,41l-25-25c-0.7-0.7-1.8-0.7-2.5,0l-16.9,16.9l-16.9-16.9c-0.3-0.3-0.8-0.5-1.2-0.5s-0.9,0.2-1.2,0.5l-24.6,24.6
				c-0.7,0.7-0.7,1.8,0,2.5l10.5,10.5c-0.4,1.3-0.7,2.4-1,3.3c-1.3,3.9-1.6,5.5,0.9,10.3l-1.4,1.4v0c-2.6,2.6-2.6,6.9,0,9.5
				c1.3,1.3,2.9,2,4.7,2c0.7,0,1.5-0.1,2.1-0.3c0.2,1.3,0.8,2.6,1.9,3.7c1.3,1.3,2.9,2,4.7,2c0.8,0,1.6-0.1,2.4-0.4
				c0.2,1.3,0.9,2.5,1.9,3.5c1.3,1.3,2.9,2,4.7,2c1,0,2-0.2,2.9-0.7c0.3,1.2,0.9,2.4,1.8,3.3c1.3,1.3,3,2,4.7,2c1.7,0,3.4-0.7,4.7-2
				l2-2l5.3,5.3c1.3,1.3,2.9,2,4.7,2h0c1.8,0,3.5-0.7,4.7-2c2.1-2.1,2.5-5.2,1.3-7.7c1.2-0.3,2.4-0.9,3.3-1.8c1.3-1.3,2-2.9,2-4.7
				c0-1-0.2-2-0.7-2.9c1.2-0.3,2.3-0.9,3.3-1.8c1.3-1.3,2-2.9,2-4.7c0-1-0.2-2-0.7-2.9c1.2-0.3,2.3-0.9,3.3-1.8
				c2.6-2.6,2.6-6.9,0-9.5l-1.5-1.5l13.4-13.4C-259.8,42.8-259.8,41.7-260.5,41L-260.5,41z M-334.9,76.5c-0.9,0-1.7-0.3-2.3-0.9
				c-1.3-1.3-1.3-3.3,0-4.6v0l9.4-9.4c0.6-0.6,1.4-0.9,2.3-0.9c0.9,0,1.7,0.3,2.3,0.9c0.6,0.6,0.9,1.4,0.9,2.3
				c0,0.9-0.3,1.7-0.9,2.3l-7.7,7.7l-1.7,1.7C-333.2,76.2-334,76.5-334.9,76.5L-334.9,76.5z M-323.9,80.9c-0.6,0.6-1.4,0.9-2.3,0.9
				c-0.9,0-1.7-0.3-2.3-0.9c-1.3-1.3-1.3-3.3,0-4.6c0,0,0,0,0,0l7.7-7.7c1.3-1.3,3.3-1.3,4.6,0s1.3,3.3,0,4.6l-5.7,5.7L-323.9,80.9z
				 M-314.9,85.9c-0.6,0.6-1.4,0.9-2.3,0.9c-0.9,0-1.7-0.3-2.3-0.9c-1.3-1.3-1.3-3.3,0-4.6c0,0,0,0,0,0l5.7-5.7
				c1.3-1.3,3.3-1.3,4.6,0c0.6,0.6,0.9,1.4,0.9,2.3c0,0.9-0.3,1.7-0.9,2.3l-3.3,3.3L-314.9,85.9z M-305.4,90.5
				c-0.6,0.6-1.4,0.9-2.3,0.9s-1.7-0.3-2.3-0.9c-1.3-1.3-1.3-3.3,0-4.6l3.3-3.3c1.3-1.3,3.3-1.3,4.6,0c1.3,1.3,1.3,3.3,0,4.6
				L-305.4,90.5z M-274.9,65.3c-1.3,1.3-3.3,1.3-4.6,0l-2.5-2.5c-0.7-0.7-1.8-0.7-2.5,0c-0.7,0.7-0.7,1.8,0,2.5l2.5,2.5l2.5,2.5
				c1.3,1.3,1.3,3.3,0,4.6c-1.3,1.3-3.3,1.3-4.6,0l-2.5-2.5c-0.7-0.7-1.8-0.7-2.5,0c-0.7,0.7-0.7,1.8,0,2.5l2.5,2.5l2.5,2.5
				c1.3,1.3,1.3,3.3,0,4.6c-1.3,1.3-3.3,1.3-4.6,0l-2.5-2.5c-0.7-0.7-1.8-0.7-2.5,0c-0.7,0.7-0.7,1.8,0,2.5l2.5,2.5l2.5,2.5
				c0.6,0.6,0.9,1.4,0.9,2.3s-0.3,1.7-0.9,2.3c-0.6,0.6-1.4,0.9-2.3,0.9c-0.9,0-1.7-0.3-2.3-0.9l-5.5-5.5c1.5-2.6,1.1-5.9-1.1-8.1
				c-1.4-1.4-3.2-2-5.1-2c0-0.1,0-0.2,0-0.3c0-1.8-0.7-3.5-2-4.7c-1.4-1.4-3.2-2-5.1-2c0-0.1,0-0.2,0-0.3c0-1.8-0.7-3.5-2-4.7
				c-1.4-1.4-3.2-2-5.1-2c0-0.1,0-0.2,0-0.3c0-1.8-0.7-3.5-2-4.7c-2.6-2.6-6.9-2.6-9.5,0l-5.5,5.5c-1.5-2.9-1.2-3.8-0.2-6.6
				c0.4-1.1,0.9-2.6,1.4-4.5c0.2-0.6,0-1.2-0.5-1.7l-10-10l22.1-22.1l18,18c0.7,0.7,1.8,0.7,2.5,0c0.6-0.6,1.4-0.9,2.3-0.9
				c0.9,0,1.7,0.3,2.3,0.9l23,23C-273.6,62-273.6,64.1-274.9,65.3L-274.9,65.3z M-276.3,54.4l-19.1-19.1c-1.3-1.3-3.1-2-4.8-2
				l13.6-13.6l22.5,22.5L-276.3,54.4z"/>
			<path d="M-292,66.8c-0.7-0.7-1.8-0.7-2.5,0c-0.7,0.7-0.7,1.8,0,2.5c0.3,0.3,0.8,0.5,1.2,0.5c0.4,0,0.9-0.2,1.2-0.5
				C-291.3,68.6-291.3,67.5-292,66.8L-292,66.8z"/>
		</g>
	</g>
	<g>
		<g>
			<path d="M95.5,60.9h-1.1V50.6c0-1.6-0.8-3.1-2-3.9v-1.4c0-2-1.7-3.7-3.7-3.7h-0.9l3.3-4.8c1.1-1.6,0.7-3.8-0.9-4.9L67.9,16.8
				c-0.8-0.5-1.7-0.7-2.6-0.6c-0.9,0.2-1.7,0.7-2.3,1.5L43.9,45.8h-5.3l1.3-13c0-0.1,0.1-0.3,0.2-0.3c1.7-0.6,3.1-1.8,4-3.3
				c0.1-0.1,0.2-0.2,0.4-0.2l8.3,0.8c0.6,0.1,1.1-0.4,1.2-1c0.1-0.6-0.4-1.1-1-1.2l-8.3-0.8c-1-0.1-1.9,0.4-2.4,1.2
				c-0.7,1.1-1.8,2-3,2.4c-0.9,0.3-1.5,1.2-1.6,2.1l-1.3,13.2H35l2-20.6c0.1-0.7,0.7-1.3,1.5-1.2l16.9,1.7c0.6,0.1,1.1-0.4,1.2-1
				c0.1-0.6-0.4-1.1-1-1.2l-16.9-1.7c-1.9-0.2-3.7,1.2-3.9,3.2l-1.6,16.6h-2.8c-2,0-3.7,1.7-3.7,3.7v1c-1.7,0.8-2.8,2.4-2.8,4.4
				v37.1c0,2.7,2.2,4.8,4.8,4.8h60.7c2.7,0,4.8-2.2,4.8-4.8V77.4h1.1c1.3,0,2.4-1.1,2.4-2.4V63.4C97.9,62,96.8,60.9,95.5,60.9z
				 M88.6,43.8L88.6,43.8c0.8,0,1.5,0.7,1.5,1.5v0.6c-0.2,0-0.4,0-0.6,0h-4.6l1.4-2H88.6z M64.8,18.9c0.2-0.3,0.5-0.5,0.9-0.6
				c0.1,0,0.2,0,0.3,0c0.3,0,0.5,0.1,0.8,0.2l22.2,15.1c0.6,0.4,0.8,1.3,0.4,1.9l-7,10.2h-1.7l3.4-5c0.6-0.8,0.6-1.8,0.1-2.7
				c-0.6-1.1-0.9-2.5-0.7-3.8c0.1-1-0.3-1.9-1.1-2.4l-11.5-7.8c-0.8-0.5-1.8-0.6-2.7-0.1c-1.1,0.6-2.5,0.9-3.8,0.7
				c-1-0.1-1.9,0.3-2.5,1.1L48.2,45.8h-1.7L64.8,18.9z M65.3,37.4c-4.7,0-8.6,3.7-8.9,8.4h-5.5l12.8-18.8c0,0,0,0,0,0
				c0.1-0.1,0.2-0.2,0.3-0.2c0,0,0,0,0,0c1.8,0.2,3.6-0.1,5.1-0.9c0.1-0.1,0.3-0.1,0.4,0L81,33.7c0.1,0.1,0.2,0.2,0.2,0.4
				c-0.2,1.8,0.1,3.6,1,5.1c0.1,0.1,0.1,0.3,0,0.4l-4.2,6.2h-3.7C73.9,41.1,70,37.4,65.3,37.4z M72.1,45.8H58.5
				c0.3-3.5,3.2-6.2,6.8-6.2C68.8,39.6,71.8,42.3,72.1,45.8z M28.9,45.3c0-0.8,0.7-1.5,1.5-1.5H33l-0.2,2h-3.9V45.3z M26.1,50.6
				c0-1.5,1.2-2.7,2.7-2.7h60.7c1.5,0,2.7,1.2,2.7,2.7v3h-66V50.6z M92.2,87.7c0,1.5-1.2,2.7-2.7,2.7H28.8c-1.5,0-2.7-1.2-2.7-2.7
				v-3H32c0.6,0,1.1-0.5,1.1-1.1s-0.5-1.1-1.1-1.1h-5.9V55.8h66v5.1H81.8h0c-3.3,0-6.1,1.9-7.4,4.7c0,0,0,0,0,0c0,0,0,0,0,0.1
				c-0.2,0.3-0.3,0.7-0.4,1.1c0,0,0,0,0,0c-0.2,0.8-0.4,1.6-0.4,2.4c0,4.6,3.7,8.3,8.3,8.3h0h10.3v5.1H39c-0.6,0-1.1,0.5-1.1,1.1
				c0,0.6,0.5,1.1,1.1,1.1h53.2V87.7z M95.7,75c0,0.1-0.1,0.3-0.3,0.3H81.8c-2.3,0-4.3-1.3-5.3-3.2c0-0.1-0.1-0.2-0.1-0.3
				c-0.1-0.2-0.2-0.4-0.2-0.5c-0.2-0.7-0.4-1.4-0.4-2.1c0-0.7,0.1-1.4,0.4-2.1c0.1-0.2,0.1-0.4,0.2-0.5c0-0.1,0.1-0.2,0.1-0.3
				c1-1.9,3-3.2,5.3-3.2h13.7c0.1,0,0.3,0.1,0.3,0.3V75L95.7,75z"/>
		</g>
	</g>
	<g>
		<g>
			<path d="M82.1,64.7c-2.4,0-4.4,2-4.4,4.4c0,2.4,2,4.4,4.4,4.4c2.4,0,4.4-2,4.4-4.4C86.5,66.7,84.5,64.7,82.1,64.7z M82.1,71.4
				c-1.2,0-2.2-1-2.2-2.2c0-1.2,1-2.2,2.2-2.2c1.2,0,2.2,1,2.2,2.2C84.3,70.4,83.3,71.4,82.1,71.4z"/>
		</g>
	</g>
	<g>
		<g>
			<path d="M447.8,41.5c-0.4-0.5-1.2-0.6-1.8-0.2l-12.5,9.9l-16.1-6.7c-0.4-0.2-0.8-0.1-1.2,0.2L399,57c-0.5,0.4-0.7,1.2-0.3,1.7
				c0.2,0.4,0.6,0.5,1,0.5c0.2,0,0.5-0.1,0.7-0.2l16.7-11.9l16.2,6.7c0.4,0.2,0.9,0.1,1.2-0.2l13-10.3
				C448.1,42.9,448.2,42,447.8,41.5z"/>
		</g>
	</g>
	<g>
		<g>
			<path d="M465.8,83.7h-5.7V48.1c0-0.7-0.5-1.2-1.2-1.2h-11.3c-0.7,0-1.2,0.5-1.2,1.2v35.7h-4.2V60.4c0-0.7-0.5-1.2-1.2-1.2h-11.4
				c-0.7,0-1.2,0.5-1.2,1.2v23.3h-4.2V58.5c0-0.7-0.5-1.2-1.2-1.2h-11.3c-0.7,0-1.2,0.5-1.2,1.2v25.2h-4.2V65.8
				c0-0.7-0.5-1.2-1.2-1.2h-11.4c-0.7,0-1.2,0.5-1.2,1.2v17.9h-5.8c-0.7,0-1.2,0.5-1.2,1.2s0.5,1.2,1.2,1.2h6.9h11.3h6.8h11.3h6.6
				h11.3h6.6h11.3h6.9c0.7,0,1.2-0.5,1.2-1.2C467,84.3,466.5,83.7,465.8,83.7z M403.6,83.7h-8.9V67h8.9V83.7z M421.7,83.7h-8.9v-24
				h8.9V83.7z M439.6,83.7h-8.9V61.6h8.9V83.7z M457.6,83.7h-8.9V49.3h8.9V83.7z"/>
		</g>
	</g>
	<g>
		<g>
			<path d="M-341.4,259.9h-3.9v49.3h40.7l47.6-7v-34.4l-1.3-0.2l-1.8-0.3c-1.4-0.2-2.3-0.4-2.3-0.4s-0.4,0-2.4-0.5l-39.8-6.7h-1.7
				 M-314.2,259.9h-19.5 M-309,259.9h-2.6 M-336.2,259.9h-2.6 M-333.6,306.6h-9.1v-44.1h9.1v2.6h-6.5V304h6.5V306.6z M-318.1,301.4
				h-2.6v-9.1h-2.6V304h5.2v2.6h-13V304h5.2v-11.7h-2.6v9.1h-2.6v-2.6h-2.6v2.6h-3.9v-33.8h3.9v2.6h2.6v-2.6h2.6v10.4h2.6v-13h-5.2
				v-2.6h13v2.6h-5.2v13h2.6v-10.4h2.6v2.6h2.6v-2.6h3.9v33.8h-3.9v-2.6h-2.6V301.4L-318.1,301.4z M-259.6,300l-44.1,6.5v-6.3h-2.6
				v6.5h-9.1V304h6.5v-38.9h-6.5v-2.6h9.1v29.9h2.6v-29.7l44.1,7.4V300L-259.6,300z"/>
		</g>
	</g>
	<g>
		<g>
			<rect x="-306.4" y="294.9" width="2.6" height="2.6"/>
		</g>
	</g>
	<g>
		<g>
			<rect x="-333.6" y="272.9" width="2.6" height="2.6"/>
		</g>
	</g>
	<g>
		<g>
			<path d="M-315.5,280.6v-2.6h-2.6v2.6h-13v-2.6h-2.6v2.6h-1.3v7.8h1.3v2.6h2.6v-2.6h13v2.6h2.6v-2.6h1.3v-7.8H-315.5z
				 M-316.8,285.8h-15.6v-2.6h15.6V285.8z"/>
		</g>
	</g>
	<g>
		<g>
			<rect x="-333.6" y="293.6" width="2.6" height="2.6"/>
		</g>
	</g>
	<g>
		<g>
			<rect x="-318.1" y="272.9" width="2.6" height="2.6"/>
		</g>
	</g>
	<g>
		<g>
			<rect x="-318.1" y="293.6" width="2.6" height="2.6"/>
		</g>
	</g>
	<g>
		<g>
			<rect x="-298.6" y="267.7" width="2.6" height="33.8"/>
		</g>
	</g>
	<g>
		<g>
			<rect x="-292.1" y="269" width="2.6" height="31.2"/>
		</g>
	</g>
	<g>
		<g>
			<rect x="-285.6" y="270.3" width="2.6" height="28.6"/>
		</g>
	</g>
	<g>
		<g>
			<rect x="-279.1" y="271.6" width="2.6" height="26"/>
		</g>
	</g>
	<g>
		<g>
			<rect x="-272.6" y="272.9" width="2.6" height="23.4"/>
		</g>
	</g>
	<g>
		<g>
			<rect x="-266.1" y="274.2" width="2.6" height="20.8"/>
		</g>
	</g>
	<path d="M105.7,284.6H96c-0.9,0-1.6,0.7-1.6,1.6v1.4H84.1c-0.2,0-0.4,0-0.6,0.1l-13.1,5.4c-1.5,0.6-2.7,1.8-3.3,3.3
		c-0.6,1.5-0.6,3.2,0,4.7l0,0.1c0.4,0.9,0.9,1.7,1.6,2.3c-2,0.5-4.1,0.6-6.1,0.1l-12.9-2.9c-1.6-0.4-3.2-0.1-4.5,0.8
		c-1.4,0.9-2.3,2.2-2.6,3.8c-0.7,3.1,1.3,6.2,4.4,7l15.3,3.9c1.3,0.3,2.6,0.5,3.9,0.5c2,0,3.9-0.4,5.8-1.1l19.5-7.6h2.8v0.9
		c0,0.9,0.7,1.6,1.6,1.6h9.7c0.9,0,1.6-0.7,1.6-1.6v-22.6C107.3,285.4,106.6,284.6,105.7,284.6z M91.2,304.7c-0.2,0-0.4,0-0.6,0.1
		l-19.8,7.8c-2.5,1-5.1,1.1-7.7,0.5l-15.3-3.9c-1.4-0.4-2.3-1.7-2-3.1c0.1-0.7,0.6-1.3,1.2-1.7c0.4-0.3,0.9-0.4,1.4-0.4
		c0.2,0,0.4,0,0.6,0.1l12.9,2.9c3.1,0.7,6.3,0.5,9.3-0.7l3.7-1.4c0.1,0,0.2-0.1,0.2-0.1c3.3-1.3,7.5-2.9,8.4-3.2l0.2-0.1
		c0.8-0.3,1.3-1.3,0.9-2.1c-0.3-0.8-1.3-1.3-2.1-0.9c0,0-0.1,0-0.2,0.1l-8.6,3.3c-1.5,0.5-3-0.2-3.6-1.7l0-0.1
		c-0.3-0.7-0.3-1.5,0-2.2s0.8-1.2,1.5-1.5l12.8-5.3h9.9v13.8H91.2z M104,307.2h-6.4v-19.3h6.4V307.2z"/>
	<path d="M39.3,284h-3v-15.3h0.5c1.2,0,2.4-0.3,3.5-0.8c0.1,0,0.1-0.1,0.1-0.1l10.6-6.9c1.5-0.7,3.3-0.6,4.6,0.4l0.8,0.6
		c0,0.1-0.1,0.1-0.1,0.2c-0.2,0.3-0.4,0.6-0.6,0.9c-1.1,1.9-1.9,4-2.1,6.2c-1.1,0.1-2.2,0.6-3,1.4c-0.9,0.9-1.4,2.2-1.4,3.5
		c0,2.7,2.2,4.9,4.9,4.9h12.1c0.7,0,1.3,0.3,1.8,0.7c0.5,0.5,0.7,1.1,0.7,1.8c0,1-0.6,1.9-1.5,2.3c-0.1,0-0.2,0.1-0.3,0.1
		c0,0,0,0,0,0c-0.2,0.1-0.5,0.1-0.7,0.1H52.4c-0.9,0-1.6,0.7-1.6,1.6s0.7,1.6,1.6,1.6h13.8c0.4,0,0.8,0,1.2-0.1
		c0.7,0.1,1.4,0.1,2.1,0.1c8.9,0,16.1-7.2,16.1-16.1c0-8.9-7.2-16.1-16.1-16.1c-4.1,0-8,1.6-11,4.3l-1-0.7c-2.3-1.7-5.5-2-8.1-0.7
		c-0.1,0-0.1,0.1-0.1,0.1l-10.6,6.9c-0.6,0.3-1.3,0.4-1.9,0.4h-0.5v-0.6c0-0.9-0.7-1.6-1.6-1.6h-9.7c-0.9,0-1.6,0.7-1.6,1.6v22.6
		c0,0.9,0.7,1.6,1.6,1.6h9.7c0.9,0,1.6-0.7,1.6-1.6v-0.1h3c0.9,0,1.6-0.7,1.6-1.6S40.2,284,39.3,284z M52.4,274
		c0-0.4,0.2-0.9,0.5-1.2c0.2-0.2,0.4-0.3,0.6-0.4c0.1,1.1,0.3,2.2,0.6,3.2C53.1,275.6,52.4,274.9,52.4,274z M82.4,271.1
		c0,6.4-4.7,11.8-10.9,12.7c0.3-0.7,0.5-1.6,0.5-2.4c0-1-0.3-2-0.7-2.8c0.7-0.1,1.4-0.4,1.9-1c0.7-0.6,1-1.5,1-2.4v-2.4
		c0-1.9-1.5-3.4-3.4-3.4h-2.4c-0.1,0-0.2-0.1-0.2-0.2v-2.3c0-0.1,0.1-0.2,0.2-0.2h1.2h0h0h1.2c0.1,0,0.2,0.1,0.2,0.2
		c0,0.9,0.7,1.6,1.6,1.6c0.9,0,1.6-0.7,1.6-1.6c0-1.7-1.3-3.2-3-3.4V263c0-0.9-0.7-1.6-1.6-1.6c-0.9,0-1.6,0.7-1.6,1.6v0.6
		c-1.7,0.2-3,1.7-3,3.4v2.3c0,1.9,1.5,3.4,3.4,3.4h2.4c0.1,0,0.2,0.1,0.2,0.2v2.4c0,0,0,0.1,0,0.1c0,0-0.1,0-0.1,0h-2.4
		c-0.1,0-0.2-0.1-0.2-0.2V275c0-0.9-0.7-1.6-1.6-1.6c-0.9,0-1.6,0.7-1.6,1.6v0.2c0,0.1,0,0.3,0,0.4h-7.4c-0.6-1.4-0.8-3-0.8-4.6
		c0-2.4,0.7-4.8,2-6.8c0.4-0.6,0.8-1.1,1.2-1.7c2.4-2.8,6-4.4,9.6-4.4C76.6,258.2,82.4,264,82.4,271.1z M33,285.7h-6.4v-19.3H33
		V285.7z"/>
	<path d="M47.2,284.7c-0.4-0.6-1.1-0.9-1.8-0.7c-0.7,0.2-1.1,0.8-1.2,1.4c-0.1,0.7,0.3,1.3,1,1.6c0.6,0.3,1.4,0.1,1.8-0.3
		C47.5,286.2,47.6,285.3,47.2,284.7z"/>
	<g>
		<g>
			<path d="M433,255.3c-17.5,0-31.7,14.2-31.7,31.7s14.2,31.7,31.7,31.7s31.7-14.2,31.7-31.7C464.6,269.5,450.5,255.3,433,255.3z
				 M433,316.5c-16.3,0-29.5-13.2-29.5-29.5c0-16.3,13.2-29.5,29.5-29.5s29.5,13.2,29.5,29.5C462.5,303.2,449.3,316.5,433,316.5z"/>
		</g>
	</g>
	<g>
		<g>
			<path d="M433,260.6c-14.6,0-26.4,11.8-26.4,26.4c0,14.6,11.8,26.4,26.4,26.4s26.4-11.8,26.4-26.4
				C459.3,272.4,447.5,260.6,433,260.6z M433,311.2c-13.4,0-24.3-10.9-24.3-24.3c0-13.4,10.9-24.3,24.3-24.3s24.3,10.9,24.3,24.3
				C457.2,300.3,446.4,311.2,433,311.2z"/>
		</g>
	</g>
	<g>
		<g>
			<rect x="431.9" y="265.8" width="2.1" height="2.1"/>
		</g>
	</g>
	<g>
		<g>
			<rect x="431.9" y="305.9" width="2.1" height="2.1"/>
		</g>
	</g>
	<g>
		<g>
			<rect x="421.9" y="268.5" transform="matrix(0.866 -0.5001 0.5001 0.866 -78.1254 247.668)" width="2.1" height="2.1"/>
		</g>
	</g>
	<g>
		<g>
			<rect x="441.9" y="303.2" transform="matrix(0.866 -0.5001 0.5001 0.866 -92.8 262.3442)" width="2.1" height="2.1"/>
		</g>
	</g>
	<g>
		<g>
			<rect x="414.6" y="275.9" transform="matrix(0.5 -0.866 0.866 0.5 -32.0058 498.3858)" width="2.1" height="2.1"/>
		</g>
	</g>
	<g>
		<g>
			<rect x="449.3" y="295.9" transform="matrix(0.5 -0.866 0.866 0.5 -32.0109 538.4748)" width="2.1" height="2.1"/>
		</g>
	</g>
	<g>
		<g>
			<rect x="411.9" y="285.9" width="2.1" height="2.1"/>
		</g>
	</g>
	<g>
		<g>
			<rect x="452" y="285.9" width="2.1" height="2.1"/>
		</g>
	</g>
	<g>
		<g>
			<rect x="414.6" y="295.9" transform="matrix(0.8661 -0.4999 0.4999 0.8661 -92.7906 247.5312)" width="2.1" height="2.1"/>
		</g>
	</g>
	<g>
		<g>
			<rect x="449.3" y="275.9" transform="matrix(0.866 -0.5 0.5 0.866 -78.1224 262.2727)" width="2.1" height="2.1"/>
		</g>
	</g>
	<g>
		<g>
			<rect x="421.9" y="303.2" transform="matrix(0.5001 -0.866 0.866 0.5001 -52.0817 518.3591)" width="2.1" height="2.1"/>
		</g>
	</g>
	<g>
		<g>
			<rect x="441.9" y="268.5" transform="matrix(0.5001 -0.866 0.866 0.5001 -11.9974 518.3691)" width="2.1" height="2.1"/>
		</g>
	</g>
	<g>
		<g>
			<path d="M431.9,270.1v16.3l-10,6l1.1,1.8l10.6-6.3c0.3-0.2,0.5-0.5,0.5-0.9v-16.9H431.9z"/>
		</g>
	</g>
	<g>
		<g>
			<g>
				<path d="M-319.2,553.2c-1,0-1.7,0.8-1.7,1.7s0.8,1.7,1.7,1.7h0c1,0,1.7-0.8,1.7-1.7S-318.3,553.2-319.2,553.2z"/>
				<path d="M-252.6,524.8c0.2-0.9-0.3-1.8-1.1-2.1c-4.1-1.4-9.1-4.5-9.1-11.4v-3.7c0-5.5-0.9-9.6-2.9-12.5
					c-2.3-3.5-6.2-5.2-11.4-5.2c-5.2,0-9,1.8-11.4,5.2c-1.9,2.9-2.9,7-2.9,12.5v3.7c0,6.9-4.9,10-9.1,11.4c-0.9,0.3-1.4,1.2-1.1,2.1
					c0.9,3.6,2.3,5.7,4.8,6.9c-0.5,0.5-1,1.1-1.4,1.7c-2.6-3.9-7.5-5.2-11.7-6.4c-0.8-0.2-1.5-0.4-2.3-0.6v-1.2
					c4.7-2.5,7.9-7.5,7.9-13.2v-6.9c0-8.3-6.7-15-15-15c-8.3,0-15,6.7-15,15v6.9c0,5.7,3.2,10.6,7.9,13.2v1.2
					c-0.7,0.2-1.5,0.4-2.2,0.6c-5.9,1.6-13.3,3.6-13.4,12.6c0,0,0,0,0,0V555c0,1,0.8,1.7,1.7,1.7h13.2c1,0,1.7-0.8,1.7-1.7
					c0-1-0.8-1.7-1.7-1.7h-2.1v-7.1c0-1-0.8-1.7-1.7-1.7c-1,0-1.7,0.8-1.7,1.7v7.1h-5.9v-13.5c0.1-6,4.2-7.5,10.9-9.3
					c0.6-0.2,1.1-0.3,1.7-0.5c0.9,2.8,3.6,4.9,6.8,4.9c3.2,0,5.8-2.1,6.8-4.9c0.6,0.2,1.1,0.3,1.7,0.5c6.7,1.8,10.8,3.3,10.9,9.3
					v13.5h-5.9v-7.1c0-1-0.8-1.7-1.7-1.7s-1.7,0.8-1.7,1.7v7.1h-2.1c-1,0-1.7,0.8-1.7,1.7c0,1,0.8,1.7,1.7,1.7h26.5
					c1,0,1.7-0.8,1.7-1.7c0-1-0.8-1.7-1.7-1.7h-2.1v-7.1c0-1-0.8-1.7-1.7-1.7s-1.7,0.8-1.7,1.7v7.1h-5.9v-13.5
					c0.1-6,4.2-7.5,10.9-9.3c0.6-0.2,1.1-0.3,1.7-0.5c0.9,2.8,3.6,4.9,6.8,4.9c3.2,0,5.8-2.1,6.8-4.9c0.6,0.2,1.1,0.3,1.7,0.5
					c6.7,1.8,10.8,3.3,10.9,9.3v13.5h-5.9v-7.1c0-1-0.8-1.7-1.7-1.7s-1.7,0.8-1.7,1.7v7.1h-2.1c-1,0-1.7,0.8-1.7,1.7
					c0,1,0.8,1.7,1.7,1.7h13.2c1,0,1.7-0.8,1.7-1.7v-15.3c0,0,0,0,0,0c-0.1-3.7-1.3-6.2-3.2-8C-254.9,530.5-253.5,528.4-252.6,524.8
					L-252.6,524.8z M-330.7,505.1c0-6.3,5.2-11.5,11.5-11.5c6.3,0,11.5,5.2,11.5,11.5v1.8c-4.6,0.2-10.4-0.4-14.7-3.3
					c-0.8-0.5-1.8-0.4-2.4,0.4c-1.5,1.9-3.3,2.4-5.9,2.7V505.1z M-315.6,527.7c0,2-1.6,3.6-3.6,3.6c-2,0-3.6-1.6-3.6-3.6v-1.1
					c1.2,0.3,2.4,0.5,3.6,0.5c1.3,0,2.5-0.2,3.6-0.4V527.7z M-319.2,523.6c-6.3,0-11.5-5.2-11.5-11.5v-1.8c2.8-0.3,5.5-0.8,7.7-2.9
					c4.8,2.7,10.6,3.3,15.3,3.1v1.6C-307.7,518.4-312.9,523.6-319.2,523.6L-319.2,523.6z M-285.5,497.1c1.7-2.5,4.4-3.7,8.5-3.7
					c4,0,6.8,1.2,8.5,3.7c1.4,2,2.1,5,2.3,9.1c-3.2,0.6-7.1,0.1-9.2-4.1c-0.6-1.3-2.5-1.3-3.1,0c-2.1,4.2-5.9,4.6-9.2,4.1
					C-287.6,502.1-286.9,499.1-285.5,497.1z M-284.2,526.4c-0.7,0.2-1.5,0.4-2.2,0.6c-2.1,0.6-4.4,1.2-6.5,2.2
					c-2.7-0.5-3.9-1.3-4.7-3.8c2.8-1.2,6.3-3.3,8.3-7.1c1.3,2.2,3.1,4,5.3,5.3L-284.2,526.4L-284.2,526.4z M-273.4,527.7
					c0,2-1.6,3.6-3.6,3.6c-2,0-3.6-1.6-3.6-3.6v-2.6c1.2,0.3,2.4,0.5,3.6,0.5c1.3,0,2.5-0.2,3.6-0.5V527.7z M-277.1,522.1
					c-5.9,0-10.8-4.8-10.8-10.8v-1.5c0.7,0.1,1.5,0.2,2.2,0.2c3.5,0,6.5-1.3,8.6-3.8c2.1,2.5,5.1,3.8,8.6,3.8c0.7,0,1.4-0.1,2.2-0.2
					v1.5C-266.3,517.2-271.1,522.1-277.1,522.1z M-261.2,529.2c-2.1-1-4.4-1.6-6.5-2.2c-0.8-0.2-1.5-0.4-2.2-0.6v-2.8
					c2.2-1.3,4-3.1,5.2-5.3c2,3.8,5.4,5.9,8.3,7.1C-257.2,527.8-258.4,528.7-261.2,529.2L-261.2,529.2z"/>
				<path d="M-277.1,553.2c-1,0-1.7,0.8-1.7,1.7s0.8,1.7,1.7,1.7h0c1,0,1.7-0.8,1.7-1.7S-276.1,553.2-277.1,553.2z"/>
			</g>
		</g>
	</g>
	<path d="M73.5,547.8h-2.7v-13.1c0-0.7-0.6-1.3-1.3-1.3c-0.7,0-1.3,0.6-1.3,1.3v13.1H33.5v-26.7h11.1c0.7,0,1.3-0.6,1.3-1.3
		s-0.6-1.3-1.3-1.3H32.2c-0.7,0-1.3,0.6-1.3,1.3v28h-2.7c-0.7,0-1.3,0.6-1.3,1.3v2.7c0,3.7,3,6.7,6.7,6.7h34.7c3.7,0,6.7-3,6.7-6.7
		v-2.7C74.9,548.4,74.3,547.8,73.5,547.8z M72.2,551.8c0,2.2-1.8,4-4,4h-2.7v-1.3c0-0.7-0.6-1.3-1.3-1.3c-0.7,0-1.3,0.6-1.3,1.3v1.3
		h-24v-1.3c0-0.7-0.6-1.3-1.3-1.3c-0.7,0-1.3,0.6-1.3,1.3v1.3h-2.7c-2.2,0-4-1.8-4-4v-1.3h42.7V551.8z"/>
	<path d="M96.2,486.5h2.7c0.7,0,1.3-0.6,1.3-1.3s-0.6-1.3-1.3-1.3h-2.7c-2.2,0-4,1.8-4,4v1.3h-1.3c-0.7,0-1.3,0.6-1.3,1.3
		s0.6,1.3,1.3,1.3h1.3v4c0,0.7,0.6,1.3,1.3,1.3c0.7,0,1.3-0.6,1.3-1.3v-4h1.3c0.7,0,1.3-0.6,1.3-1.3s-0.6-1.3-1.3-1.3h-1.3v-1.3
		C94.9,487.1,95.5,486.5,96.2,486.5z"/>
	<path d="M102.9,478.5h-16c-2.2,0-4,1.8-4,4v2.7c0,0.7,0.6,1.3,1.3,1.3c0.7,0,1.3-0.6,1.3-1.3v-2.7c0-0.7,0.6-1.3,1.3-1.3h16
		c0.7,0,1.3,0.6,1.3,1.3v16c0,0.7-0.6,1.3-1.3,1.3h-16c-0.7,0-1.3-0.6-1.3-1.3v-8c0-0.7-0.6-1.3-1.3-1.3c-0.7,0-1.3,0.6-1.3,1.3v8
		c0,2.2,1.8,4,4,4h16c2.2,0,4-1.8,4-4v-16C106.9,480.3,105.1,478.5,102.9,478.5z"/>
	<path d="M89.5,531.8c0,2.9,2.4,5.3,5.3,5.3c2.9,0,5.3-2.4,5.3-5.3s-2.4-5.3-5.3-5.3C91.9,526.5,89.5,528.9,89.5,531.8z M97.5,531.8
		c0,1.5-1.2,2.7-2.7,2.7s-2.7-1.2-2.7-2.7s1.2-2.7,2.7-2.7S97.5,530.3,97.5,531.8z"/>
	<path d="M102.9,519.8h-16c-2.2,0-4,1.8-4,4v16c0,2.2,1.8,4,4,4h16c2.2,0,4-1.8,4-4v-2.7c0-0.7-0.6-1.3-1.3-1.3
		c-0.7,0-1.3,0.6-1.3,1.3v2.7c0,0.7-0.6,1.3-1.3,1.3h-16c-0.7,0-1.3-0.6-1.3-1.3v-16c0-0.7,0.6-1.3,1.3-1.3h16
		c0.7,0,1.3,0.6,1.3,1.3v8c0,0.7,0.6,1.3,1.3,1.3c0.7,0,1.3-0.6,1.3-1.3v-8C106.9,521.6,105.1,519.8,102.9,519.8z"/>
	<path d="M56.8,494.3c0.2,0.1,0.5,0.2,0.7,0.2c0.2,0,0.4-0.1,0.6-0.1l8-4c0.7-0.3,0.9-1.1,0.6-1.8c-0.1-0.2-0.3-0.5-0.6-0.6l-8-4
		c-0.7-0.3-1.5-0.1-1.8,0.6c-0.1,0.2-0.1,0.4-0.1,0.6v8C56.2,493.6,56.4,494,56.8,494.3z M58.9,487.3l3.7,1.8l-3.7,1.8V487.3z"/>
	<path d="M60.2,501.1c6.6,0,12-5.4,12-12s-5.4-12-12-12s-12,5.4-12,12S53.6,501.1,60.2,501.1z M60.2,479.8c5.2,0,9.3,4.2,9.3,9.3
		s-4.2,9.3-9.3,9.3s-9.3-4.2-9.3-9.3S55,479.8,60.2,479.8z"/>
	<path d="M73.5,506.5c0.4,0,0.8-0.2,1.1-0.5l4-5.3c0.4-0.6,0.3-1.4-0.3-1.9c-0.6-0.4-1.4-0.3-1.9,0.3l-4,5.3
		c-0.4,0.6-0.3,1.4,0.3,1.9C73,506.4,73.2,506.5,73.5,506.5z"/>
	<path d="M76.5,511.3c0.3,0.3,0.6,0.5,1.1,0.5c0.3,0,0.6-0.1,0.8-0.3l5.3-4c0.6-0.4,0.7-1.3,0.3-1.9c-0.4-0.6-1.3-0.7-1.9-0.3
		l-5.3,4C76.1,509.8,76,510.7,76.5,511.3L76.5,511.3z"/>
	<path d="M89.5,514.2c-0.1-0.7-0.8-1.2-1.5-1.1c0,0,0,0-0.1,0l-6.7,1.3c-0.7,0.1-1.3,0.7-1.2,1.5c0.1,0.7,0.7,1.3,1.5,1.2h0.3
		l6.7-1.3C89.2,515.7,89.7,515,89.5,514.2C89.5,514.2,89.5,514.2,89.5,514.2z"/>
	<path d="M28.2,514.5h16c0.7,0,1.3-0.6,1.3-1.3v-21.3c0-0.7-0.6-1.3-1.3-1.3h-16c-0.7,0-1.3,0.6-1.3,1.3v21.3
		C26.8,513.9,27.4,514.5,28.2,514.5z M29.5,493.1h13.3v18.7H29.5V493.1z"/>
	<path d="M38.8,495.8h-2.7c-0.7,0-1.3,0.6-1.3,1.3s0.6,1.3,1.3,1.3h2.7c0.7,0,1.3-0.6,1.3-1.3S39.6,495.8,38.8,495.8z"/>
	<path d="M38.8,501.1h-5.3c-0.7,0-1.3,0.6-1.3,1.3s0.6,1.3,1.3,1.3h5.3c0.7,0,1.3-0.6,1.3-1.3S39.6,501.1,38.8,501.1z"/>
	<path d="M38.8,506.5h-5.3c-0.7,0-1.3,0.6-1.3,1.3s0.6,1.3,1.3,1.3h5.3c0.7,0,1.3-0.6,1.3-1.3S39.6,506.5,38.8,506.5z"/>
	<path d="M72.3,514.1c-0.4-0.6-1.2-0.9-1.8-0.5c-0.6,0.4-0.9,1.2-0.5,1.8l5.9,10.2l-21.3,8c0,0,0,0-0.1,0h-0.1l-3.5,2l-2.3,1.3
		c-0.6,0.4-1.3,0.5-2,0.3c-0.7-0.2-1.3-0.6-1.6-1.2l-2.7-4.6c-0.7-1.3-0.2-2.8,1-3.5l4.6-2.7l3.3,5.8c0.2,0.4,0.7,0.7,1.2,0.7
		c0.7,0,1.3-0.6,1.3-1.3c0-0.2-0.1-0.5-0.2-0.7l-3.4-5.9l16.7-13.8l0.5,0.9c0.4,0.6,1.2,0.9,1.8,0.5c0.6-0.4,0.9-1.2,0.5-1.8
		l-1.3-2.3c-0.2-0.3-0.5-0.6-0.9-0.6c-0.4-0.1-0.8,0-1.1,0.3l-18.7,15.4l-5.7,3.3c-2.1,1.2-3.1,3.7-2.5,6l-1.3,0.8
		c-1.9,1.1-2.6,3.5-1.5,5.5c0.5,0.9,1.4,1.6,2.4,1.9c0.3,0.1,0.7,0.1,1,0.1c0.7,0,1.4-0.2,2-0.5l1.3-0.8c0.6,0.7,1.4,1.1,2.3,1.4
		c0.5,0.1,0.9,0.2,1.4,0.2c0.9,0,1.9-0.2,2.7-0.7l1.2-0.7l2.7,4.6c1.1,1.9,3.5,2.6,5.5,1.5c1.9-1.1,2.6-3.5,1.5-5.5c0,0,0,0,0,0
		l-2.4-4.2l20-7.5c0.4-0.1,0.7-0.4,0.8-0.8c0.1-0.4,0.1-0.8-0.1-1.1L72.3,514.1z M40.8,536.9c-0.3,0.2-0.7,0.2-1,0.1
		c-0.3-0.1-0.6-0.3-0.8-0.6c-0.2-0.3-0.2-0.7-0.1-1c0.1-0.3,0.3-0.6,0.6-0.8l1.2-0.7l1.3,2.3L40.8,536.9z M58.4,540.6
		c0.2,0.3,0.2,0.7,0.1,1c-0.1,0.3-0.3,0.6-0.6,0.8c-0.6,0.4-1.4,0.2-1.8-0.5l-2.7-4.6l2.2-1.3h0.1L58.4,540.6z"/>
	<g>
		<g>
			<path d="M455.2,551.4l-3-8.9c-1-3.1-3.7-5.4-6.9-6l-8.5-1.6v-0.7c1.5-0.9,2.8-2,3.8-3.4h2.6c2.1,0,3.8-1.7,3.8-3.8v-15.3
				c0-9.2-7.4-16.6-16.6-16.6s-16.6,7.4-16.6,16.6v8.9c0,2.5,1.8,4.5,4.1,5c0.7,3.7,3,6.8,6.1,8.6v0.7l-8.5,1.6
				c-3.2,0.6-5.8,2.9-6.9,6l-0.5,1.5l-4.3-4.3c-0.5-0.5-0.5-1.3,0-1.8l5-5l-9.5-9.5l-5.7,5.7c-1.7,1.7-2.6,3.9-2.6,6.3
				c0,2.4,0.9,4.6,2.6,6.3l17.3,17.3c1.7,1.7,3.9,2.6,6.3,2.6s4.6-0.9,6.3-2.6l6.2-5.7l-1.9-1.9H455.2z M444.5,527.2
				c0,0.7-0.6,1.3-1.3,1.3h-1.1c0.4-0.8,0.7-1.7,0.8-2.7c0.5-0.1,1-0.3,1.5-0.6V527.2z M443.2,523v-4.4c0.8,0.4,1.3,1.3,1.3,2.2
				C444.5,521.7,444,522.5,443.2,523z M417.7,523c-0.8-0.4-1.3-1.3-1.3-2.2c0-0.9,0.5-1.8,1.3-2.2V523z M417.7,514.4v1.5
				c-0.5,0.1-0.9,0.3-1.3,0.5v-4.5c0-7.7,6.3-14,14-14s14,6.3,14,14v4.5c-0.4-0.2-0.8-0.4-1.3-0.5v-1.5H442c-3.8,0-7.3-1.5-10-4.1
				l-1.5-1.5l-1.5,1.5c-2.7,2.7-6.2,4.1-10,4.1H417.7z M420.3,523.3v-6.4c3.8-0.3,7.4-1.9,10.2-4.5c2.8,2.7,6.4,4.3,10.2,4.5v6.4
				c0,1.9-0.5,3.6-1.4,5.1h-8.8v2.6h6.7c-1.8,1.6-4.2,2.6-6.7,2.6C424.8,533.6,420.3,529,420.3,523.3z M434.3,535.5L434.3,535.5
				l-3.8,3.9l-3.8-3.8v-0.1c1.2,0.4,2.5,0.6,3.8,0.6S433.1,535.9,434.3,535.5z M411.1,543.4c0.7-2.2,2.6-3.8,4.9-4.3l8.9-1.6
				l5.5,5.5l5.5-5.5l8.9,1.6c2.3,0.4,4.2,2.1,4.9,4.3l1.8,5.5h-26.4l-5-5l-5.5,5c-0.5,0.5-1.3,0.5-1.8,0l-2.8-2.8L411.1,543.4z
				 M399.4,527l5.9,5.9l-1.4,1.4l-5.9-5.9L399.4,527z M421.8,557.2c-1.2,1.2-2.8,1.9-4.5,1.9s-3.3-0.7-4.5-1.9L395.5,540
				c-1.2-1.2-1.9-2.8-1.9-4.5c0-1.7,0.7-3.3,1.9-4.5l0.7-0.7l5.9,5.9l0,0c-1.5,1.5-1.5,3.9,0,5.4l9.2,9.2c0.7,0.7,1.7,1.1,2.7,1.1
				c1,0,2-0.4,2.7-1.1l0.1-0.1l5.9,5.9L421.8,557.2z M424.4,554.8l-5.9-5.9l1.7-1.5l5.9,5.9L424.4,554.8z"/>
		</g>
	</g>
	<g>
		<g>
			<path d="M466.2,482.5h-17.9c-2.1,0-3.8,1.7-3.8,3.8v10.2c0,2.1,1.7,3.8,3.8,3.8h3.4l-1.3,7.7l12.3-7.7h3.5c2.1,0,3.8-1.7,3.8-3.8
				v-10.2C470.1,484.2,468.3,482.5,466.2,482.5z M467.5,496.5c0,0.7-0.6,1.3-1.3,1.3H462l-8.1,5.1l0.9-5.1h-6.4
				c-0.7,0-1.3-0.6-1.3-1.3v-10.2c0-0.7,0.6-1.3,1.3-1.3h17.9c0.7,0,1.3,0.6,1.3,1.3V496.5z"/>
		</g>
	</g>
	<g>
		<g>
			<rect x="449.6" y="487.6" width="15.3" height="2.6"/>
		</g>
	</g>
	<g>
		<g>
			<rect x="449.6" y="492.7" width="10.2" height="2.6"/>
		</g>
	</g>
	<g>
		<g>
			<rect x="462.4" y="492.7" width="2.6" height="2.6"/>
		</g>
	</g>
	<g>
		<g>
			<path d="M430.5,486.3c-16.7,0-31.1,11.5-34.8,27.6l-2.4-4l-2.2,1.3l4.5,7.5l7.5-4.5l-1.3-2.2l-3.5,2.1
				c3.6-14.7,16.9-25.2,32.2-25.2c3.4,0,6.7,0.5,9.8,1.5l0.8-2.4C437.6,486.8,434.1,486.3,430.5,486.3z"/>
		</g>
	</g>
	<g>
		<g>
			<path d="M469.4,510.7l-7.5-4.5l-4.5,7.5l2.2,1.3l2.2-3.7c1.2,3.4,1.8,7,1.8,10.7c0,7.6-2.6,15-7.4,20.9l2,1.6
				c5.1-6.3,8-14.3,8-22.5c0-3.9-0.6-7.7-1.9-11.4l3.8,2.3L469.4,510.7z"/>
		</g>
	</g>
</g>
</svg>
