<?xml version="1.0" encoding="utf-8"?>
<!-- Generator: Adobe Illustrator 24.2.1, SVG Export Plug-In . SVG Version: 6.00 Build 0)  -->
<svg version="1.1" id="Capa_1" xmlns="http://www.w3.org/2000/svg" xmlns:xlink="http://www.w3.org/1999/xlink" x="0px" y="0px"
	 viewBox="0 0 119.3 119.3" style="enable-background:new 0 0 119.3 119.3;" xml:space="preserve">
<style type="text/css">
	.st0{opacity:0.3;}
	.st1{fill:#FFC107;}
</style>
<g>
	<g class="st0">
		<path class="st1" d="M-643.1,100.2c-6,4-12.7,7.4-20,8c-7.2,0.6-15-2-19.2-7.9c-4.3-6-4.5-14.8-10.5-19.2
			c-7.9-5.9-21.6-0.4-27.7-8.3c-3.7-4.8-1.9-11.7,0.2-17.4c2.6-6.8,5.5-13.4,8.8-19.8c0.8-1.7,1.8-3.4,3.4-4.4
			c4.2-2.7,9.3,1,13.8,3.2c7.6,3.6,17.2,2.4,23.6-3.1c5.3-4.6,9.2-12.1,16.1-12.4c3.1-0.2,6.1,1.3,8.7,3
			c11.3,7.6,17.9,21.6,16.5,35.1c-0.5,4.7-1.9,9.2-3.2,13.7c-2.9,9.7-5.9,19.4-9.8,28.7"/>
	</g>
	<g class="st0">
		<path class="st1" d="M-644.4,325.2c-6,4-12.7,7.4-20,8c-7.2,0.6-15-2-19.2-7.9c-4.3-6-4.5-14.8-10.5-19.2
			c-7.9-5.9-21.6-0.4-27.7-8.3c-3.7-4.8-1.9-11.7,0.2-17.4c2.6-6.8,5.5-13.4,8.8-19.8c0.8-1.7,1.8-3.4,3.4-4.4
			c4.2-2.7,9.3,1,13.8,3.2c7.6,3.6,17.2,2.4,23.6-3.1c5.3-4.6,9.2-12.1,16.1-12.4c3.1-0.2,6.1,1.3,8.7,3
			c11.3,7.6,17.9,21.6,16.5,35.1c-0.5,4.7-1.9,9.2-3.2,13.7c-2.9,9.7-5.9,19.4-9.8,28.7"/>
	</g>
	<g class="st0">
		<path class="st1" d="M-635.1,563.3c-6,4-12.7,7.4-20,8s-15-2-19.2-7.9c-4.3-6-4.5-14.8-10.5-19.2c-7.9-5.9-21.6-0.4-27.7-8.3
			c-3.7-4.8-1.9-11.7,0.2-17.4c2.6-6.8,5.5-13.4,8.8-19.8c0.8-1.7,1.8-3.4,3.4-4.4c4.2-2.7,9.3,1,13.8,3.2
			c7.6,3.6,17.2,2.4,23.6-3.1c5.3-4.6,9.2-12.1,16.1-12.4c3.1-0.2,6.1,1.3,8.7,3c11.3,7.6,17.9,21.6,16.5,35.1
			c-0.5,4.7-1.9,9.2-3.2,13.7c-2.9,9.7-5.9,19.4-9.8,28.7"/>
	</g>
	<g class="st0">
		<path class="st1" d="M-254.4,299c-1.4,7.1-3.8,14.2-8.5,19.8c-4.7,5.5-12,9.2-19.2,8c-7.3-1.3-13.7-7.3-21-6.2
			c-9.8,1.5-15.6,15-25.4,13.7c-6-0.8-9.6-6.9-12.1-12.4c-3-6.6-5.6-13.4-7.8-20.2c-0.6-1.8-1.1-3.7-0.7-5.5c1-4.8,7.3-5.8,12-7.5
			c7.9-2.8,13.8-10.5,14.4-18.9c0.5-6.9-2-15,2.6-20.2c2.1-2.3,5.2-3.4,8.3-4c13.3-2.7,27.9,2.6,36.5,13.2c3,3.7,5.2,7.8,7.4,12
			c4.8,8.9,9.6,17.8,13.4,27.2"/>
	</g>
	<g class="st0">
		<path class="st1" d="M-254.4,531.7c-1.4,7.1-3.8,14.2-8.5,19.8c-4.7,5.5-12,9.2-19.2,8c-7.3-1.3-13.7-7.3-21-6.2
			c-9.8,1.5-15.6,15-25.4,13.7c-6-0.8-9.6-6.9-12.1-12.4c-3-6.6-5.6-13.4-7.8-20.2c-0.6-1.8-1.1-3.7-0.7-5.5c1-4.8,7.3-5.8,12-7.5
			c7.9-2.8,13.8-10.5,14.4-18.9c0.5-6.9-2-15,2.6-20.2c2.1-2.3,5.2-3.4,8.3-4c13.3-2.7,27.9,2.6,36.5,13.2c3,3.7,5.2,7.8,7.4,12
			c4.8,8.9,9.6,17.8,13.4,27.2"/>
	</g>
	<g class="st0">
		<path class="st1" d="M108.3,534.7c-1.4,7.1-3.8,14.2-8.5,19.8c-4.7,5.5-12,9.2-19.2,8c-7.3-1.3-13.7-7.3-21-6.2
			c-9.8,1.5-15.6,15-25.4,13.7c-6-0.8-9.6-6.9-12.1-12.4c-3-6.6-5.6-13.4-7.8-20.2c-0.6-1.8-1.1-3.7-0.7-5.5c1-4.8,7.3-5.8,12-7.5
			c7.9-2.8,13.8-10.5,14.4-18.9c0.5-6.9-2-15,2.6-20.2c2.1-2.3,5.2-3.4,8.3-4c13.3-2.7,27.9,2.6,36.5,13.2c3,3.7,5.2,7.8,7.4,12
			c4.8,8.9,9.6,17.8,13.4,27.2"/>
	</g>
	<g class="st0">
		<path class="st1" d="M69.2,252.7c5.8,1.1,11.5,3.1,16,6.9c4.5,3.8,7.4,9.8,6.5,15.6c-1,5.9-5.9,11.1-5,17
			c1.2,7.9,12.2,12.7,11.1,20.6c-0.6,4.9-5.6,7.8-10.1,9.8c-5.3,2.4-10.8,4.5-16.4,6.3c-1.4,0.5-3,0.9-4.4,0.6
			c-3.9-0.9-4.7-5.9-6.1-9.7c-2.2-6.4-8.5-11.2-15.3-11.7c-5.6-0.4-12.2,1.7-16.4-2.1c-1.9-1.7-2.8-4.3-3.3-6.7
			c-2.1-10.8,2.1-22.7,10.7-29.6c3-2.4,6.3-4.2,9.7-6c7.2-3.9,14.5-7.7,22.1-10.9"/>
	</g>
	<g class="st0">
		<path class="st1" d="M-300.4,18.5c6.6,1.3,13.2,3.5,18.3,7.9c5.1,4.4,8.4,11.4,7.2,18.3c-1.2,7-6.9,13.2-6,20.2
			c1.3,9.3,13.8,14.8,12.5,24.1c-0.8,5.8-6.5,9.3-11.7,11.7c-6.2,2.9-12.5,5.5-19,7.7c-1.7,0.6-3.4,1.1-5.1,0.8
			c-4.5-1-5.4-6.9-6.8-11.4c-2.5-7.5-9.7-13.1-17.5-13.6c-6.5-0.4-14,2.1-18.8-2.3c-2.2-2-3.1-5-3.7-7.9c-2.3-12.7,2.8-26.8,12.7-35
			c3.4-2.9,7.4-5,11.2-7.2c8.4-4.7,16.7-9.3,25.5-13.1"/>
	</g>
	<g class="st0">
		<path class="st1" d="M15.1,66.2c-0.8-6.7-0.7-13.7,2-19.9S25.5,34.9,32.4,34c7-0.9,14.7,2.7,21-0.3c8.5-4,10-17.6,19.3-19.2
			c5.7-1,10.8,3.5,14.7,7.7c4.6,5,8.9,10.3,13,15.8c1,1.4,2.1,2.9,2.3,4.7c0.4,4.6-5,7.2-8.8,9.9c-6.5,4.6-9.6,13.1-7.8,20.7
			c1.5,6.3,6.2,12.8,3.4,18.6c-1.3,2.6-3.8,4.5-6.5,5.9c-11.4,6-26.4,5.4-37.2-1.7c-3.8-2.4-7-5.5-10.2-8.6
			C28.6,81,21.7,74.4,15.5,67.1"/>
	</g>
	<g>
		<g>
			<path d="M-629.4,45l-25-25c-0.7-0.7-1.8-0.7-2.5,0l-16.9,16.9l-16.9-16.9c-0.3-0.3-0.8-0.5-1.2-0.5s-0.9,0.2-1.2,0.5l-24.6,24.6
				c-0.7,0.7-0.7,1.8,0,2.5l10.5,10.5c-0.4,1.3-0.7,2.4-1,3.3c-1.3,3.9-1.6,5.5,0.9,10.3l-1.4,1.4v0c-2.6,2.6-2.6,6.9,0,9.5
				c1.3,1.3,2.9,2,4.7,2c0.7,0,1.5-0.1,2.1-0.3c0.2,1.3,0.8,2.6,1.9,3.7c1.3,1.3,2.9,2,4.7,2c0.8,0,1.6-0.1,2.4-0.4
				c0.2,1.3,0.9,2.5,1.9,3.5c1.3,1.3,2.9,2,4.7,2c1,0,2-0.2,2.9-0.7c0.3,1.2,0.9,2.4,1.8,3.3c1.3,1.3,3,2,4.7,2c1.7,0,3.4-0.7,4.7-2
				l2-2l5.3,5.3c1.3,1.3,2.9,2,4.7,2h0c1.8,0,3.5-0.7,4.7-2c2.1-2.1,2.5-5.2,1.3-7.7c1.2-0.3,2.4-0.9,3.3-1.8c1.3-1.3,2-2.9,2-4.7
				c0-1-0.2-2-0.7-2.9c1.2-0.3,2.3-0.9,3.3-1.8c1.3-1.3,2-2.9,2-4.7c0-1-0.2-2-0.7-2.9c1.2-0.3,2.3-0.9,3.3-1.8
				c2.6-2.6,2.6-6.9,0-9.5l-1.5-1.5l13.4-13.4C-628.8,46.8-628.8,45.7-629.4,45L-629.4,45z M-703.9,80.5c-0.9,0-1.7-0.3-2.3-0.9
				c-1.3-1.3-1.3-3.3,0-4.6v0l9.4-9.4c0.6-0.6,1.4-0.9,2.3-0.9c0.9,0,1.7,0.3,2.3,0.9c0.6,0.6,0.9,1.4,0.9,2.3s-0.3,1.7-0.9,2.3
				l-7.7,7.7l-1.7,1.7C-702.2,80.2-703,80.5-703.9,80.5L-703.9,80.5z M-692.8,84.9c-0.6,0.6-1.4,0.9-2.3,0.9c-0.9,0-1.7-0.3-2.3-0.9
				c-1.3-1.3-1.3-3.3,0-4.6c0,0,0,0,0,0l7.7-7.7c1.3-1.3,3.3-1.3,4.6,0s1.3,3.3,0,4.6l-5.7,5.7L-692.8,84.9z M-683.8,89.9
				c-0.6,0.6-1.4,0.9-2.3,0.9c-0.9,0-1.7-0.3-2.3-0.9c-1.3-1.3-1.3-3.3,0-4.6c0,0,0,0,0,0l5.7-5.7c1.3-1.3,3.3-1.3,4.6,0
				c0.6,0.6,0.9,1.4,0.9,2.3c0,0.9-0.3,1.7-0.9,2.3l-3.3,3.3L-683.8,89.9z M-674.4,94.5c-0.6,0.6-1.4,0.9-2.3,0.9
				c-0.9,0-1.7-0.3-2.3-0.9c-1.3-1.3-1.3-3.3,0-4.6l3.3-3.3c1.3-1.3,3.3-1.3,4.6,0s1.3,3.3,0,4.6L-674.4,94.5z M-643.8,69.3
				c-1.3,1.3-3.3,1.3-4.6,0l-2.5-2.5c-0.7-0.7-1.8-0.7-2.5,0c-0.7,0.7-0.7,1.8,0,2.5l2.5,2.5l2.5,2.5c1.3,1.3,1.3,3.3,0,4.6
				s-3.3,1.3-4.6,0l-2.5-2.5c-0.7-0.7-1.8-0.7-2.5,0c-0.7,0.7-0.7,1.8,0,2.5l2.5,2.5l2.5,2.5c1.3,1.3,1.3,3.3,0,4.6
				c-1.3,1.3-3.3,1.3-4.6,0l-2.5-2.5c-0.7-0.7-1.8-0.7-2.5,0c-0.7,0.7-0.7,1.8,0,2.5l2.5,2.5l2.5,2.5c0.6,0.6,0.9,1.4,0.9,2.3
				s-0.3,1.7-0.9,2.3c-0.6,0.6-1.4,0.9-2.3,0.9c-0.9,0-1.7-0.3-2.3-0.9l-5.5-5.5c1.5-2.6,1.1-5.9-1.1-8.1c-1.4-1.4-3.2-2-5.1-2
				c0-0.1,0-0.2,0-0.3c0-1.8-0.7-3.5-2-4.7c-1.4-1.4-3.2-2-5.1-2c0-0.1,0-0.2,0-0.3c0-1.8-0.7-3.5-2-4.7c-1.4-1.4-3.2-2-5.1-2
				c0-0.1,0-0.2,0-0.3c0-1.8-0.7-3.5-2-4.7c-2.6-2.6-6.9-2.6-9.5,0l-5.5,5.5c-1.5-2.9-1.2-3.8-0.2-6.6c0.4-1.1,0.9-2.6,1.4-4.5
				c0.2-0.6,0-1.2-0.5-1.7l-10-10l22.1-22.1l18,18c0.7,0.7,1.8,0.7,2.5,0c0.6-0.6,1.4-0.9,2.3-0.9s1.7,0.3,2.3,0.9l23,23
				C-642.6,66-642.6,68.1-643.8,69.3L-643.8,69.3z M-645.3,58.4l-19.1-19.1c-1.3-1.3-3.1-2-4.8-2l13.6-13.6l22.5,22.5L-645.3,58.4z"
				/>
			<path d="M-661,70.8c-0.7-0.7-1.8-0.7-2.5,0c-0.7,0.7-0.7,1.8,0,2.5c0.3,0.3,0.8,0.5,1.2,0.5s0.9-0.2,1.2-0.5
				C-660.3,72.6-660.3,71.5-661,70.8L-661,70.8z"/>
		</g>
	</g>
	<g>
		<g>
			<path d="M-273.5,64.9h-1.1V54.6c0-1.6-0.8-3.1-2-3.9v-1.4c0-2-1.7-3.7-3.7-3.7h-0.9l3.3-4.8c1.1-1.6,0.7-3.8-0.9-4.9L-301,20.8
				c-0.8-0.5-1.7-0.7-2.6-0.6c-0.9,0.2-1.7,0.7-2.3,1.5l-19.1,28.1h-5.3l1.3-13c0-0.1,0.1-0.3,0.2-0.3c1.7-0.6,3.1-1.8,4-3.3
				c0.1-0.1,0.2-0.2,0.4-0.2l8.3,0.8c0.6,0.1,1.1-0.4,1.2-1c0.1-0.6-0.4-1.1-1-1.2l-8.3-0.8c-1-0.1-1.9,0.4-2.4,1.2
				c-0.7,1.1-1.8,2-3,2.4c-0.9,0.3-1.5,1.2-1.6,2.1l-1.3,13.2h-1.4l2-20.6c0.1-0.7,0.7-1.3,1.5-1.2l16.9,1.7c0.6,0.1,1.1-0.4,1.2-1
				c0.1-0.6-0.4-1.1-1-1.2l-16.9-1.7c-1.9-0.2-3.7,1.2-3.9,3.2l-1.6,16.6h-2.8c-2,0-3.7,1.7-3.7,3.7v1c-1.7,0.8-2.8,2.4-2.8,4.4
				v37.1c0,2.7,2.2,4.8,4.8,4.8h60.7c2.7,0,4.8-2.2,4.8-4.8V81.4h1.1c1.3,0,2.4-1.1,2.4-2.4V67.4C-271.1,66-272.1,64.9-273.5,64.9z
				 M-280.4,47.8L-280.4,47.8c0.8,0,1.5,0.7,1.5,1.5v0.6c-0.2,0-0.4,0-0.6,0h-4.6l1.4-2H-280.4z M-304.1,22.9
				c0.2-0.3,0.5-0.5,0.9-0.6c0.1,0,0.2,0,0.3,0c0.3,0,0.5,0.1,0.8,0.2l22.2,15.1c0.6,0.4,0.8,1.3,0.4,1.9l-7,10.2h-1.7l3.4-5
				c0.6-0.8,0.6-1.8,0.1-2.7c-0.6-1.1-0.9-2.5-0.7-3.8c0.1-1-0.3-1.9-1.1-2.4l-11.5-7.8c-0.8-0.5-1.8-0.6-2.7-0.1
				c-1.1,0.6-2.5,0.9-3.8,0.7c-1-0.1-1.9,0.3-2.5,1.1l-13.7,20.1h-1.7L-304.1,22.9z M-303.7,41.4c-4.7,0-8.6,3.7-8.9,8.4h-5.5
				l12.8-18.8c0,0,0,0,0,0c0.1-0.1,0.2-0.2,0.3-0.2c0,0,0,0,0,0c1.8,0.2,3.6-0.1,5.1-0.9c0.1-0.1,0.3-0.1,0.4,0l11.5,7.8
				c0.1,0.1,0.2,0.2,0.2,0.4c-0.2,1.8,0.1,3.6,1,5.1c0.1,0.1,0.1,0.3,0,0.4l-4.2,6.2h-3.7C-295,45.1-298.9,41.4-303.7,41.4z
				 M-296.9,49.8h-13.5c0.3-3.5,3.2-6.2,6.8-6.2C-300.1,43.6-297.2,46.3-296.9,49.8z M-340,49.3c0-0.8,0.7-1.5,1.5-1.5h2.6l-0.2,2
				h-3.9V49.3z M-342.8,54.6c0-1.5,1.2-2.7,2.7-2.7h60.7c1.5,0,2.7,1.2,2.7,2.7v3h-66V54.6z M-276.8,91.7c0,1.5-1.2,2.7-2.7,2.7
				h-60.7c-1.5,0-2.7-1.2-2.7-2.7v-3h5.9c0.6,0,1.1-0.5,1.1-1.1s-0.5-1.1-1.1-1.1h-5.9V59.8h66v5.1h-10.3h0c-3.3,0-6.1,1.9-7.4,4.7
				c0,0,0,0,0,0c0,0,0,0,0,0.1c-0.2,0.3-0.3,0.7-0.4,1.1c0,0,0,0,0,0c-0.2,0.8-0.4,1.6-0.4,2.4c0,4.6,3.7,8.3,8.3,8.3h0h10.3v5.1
				H-330c-0.6,0-1.1,0.5-1.1,1.1c0,0.6,0.5,1.1,1.1,1.1h53.2V91.7z M-273.2,79c0,0.1-0.1,0.3-0.3,0.3h-13.7c-2.3,0-4.3-1.3-5.3-3.2
				c0-0.1-0.1-0.2-0.1-0.3c-0.1-0.2-0.2-0.4-0.2-0.5c-0.2-0.7-0.4-1.4-0.4-2.1c0-0.7,0.1-1.4,0.4-2.1c0.1-0.2,0.1-0.4,0.2-0.5
				c0-0.1,0.1-0.2,0.1-0.3c1-1.9,3-3.2,5.3-3.2h13.7c0.1,0,0.3,0.1,0.3,0.3V79L-273.2,79z"/>
		</g>
	</g>
	<g>
		<g>
			<path d="M-286.9,68.7c-2.4,0-4.4,2-4.4,4.4c0,2.4,2,4.4,4.4,4.4s4.4-2,4.4-4.4C-282.5,70.7-284.5,68.7-286.9,68.7z M-286.9,75.4
				c-1.2,0-2.2-1-2.2-2.2c0-1.2,1-2.2,2.2-2.2c1.2,0,2.2,1,2.2,2.2C-284.7,74.4-285.7,75.4-286.9,75.4z"/>
		</g>
	</g>
	<g>
		<g>
			<path d="M78.8,45.5c-0.4-0.5-1.2-0.6-1.8-0.2l-12.5,9.9l-16.1-6.7c-0.4-0.2-0.8-0.1-1.2,0.2L30,61c-0.5,0.4-0.7,1.2-0.3,1.7
				c0.2,0.4,0.6,0.5,1,0.5c0.2,0,0.5-0.1,0.7-0.2l16.7-11.9l16.2,6.7c0.4,0.2,0.9,0.1,1.2-0.2l13-10.3C79.1,46.9,79.2,46,78.8,45.5z
				"/>
		</g>
	</g>
	<g>
		<g>
			<path d="M96.8,87.7h-5.7V52.1c0-0.7-0.5-1.2-1.2-1.2H78.6c-0.7,0-1.2,0.5-1.2,1.2v35.7h-4.2V64.4c0-0.7-0.5-1.2-1.2-1.2H60.6
				c-0.7,0-1.2,0.5-1.2,1.2v23.3h-4.2V62.5c0-0.7-0.5-1.2-1.2-1.2H42.6c-0.7,0-1.2,0.5-1.2,1.2v25.2h-4.2V69.8
				c0-0.7-0.5-1.2-1.2-1.2H24.6c-0.7,0-1.2,0.5-1.2,1.2v17.9h-5.8c-0.7,0-1.2,0.5-1.2,1.2s0.5,1.2,1.2,1.2h6.9h11.3h6.8h11.3h6.6
				h11.3h6.6h11.3h6.9c0.7,0,1.2-0.5,1.2-1.2C98.1,88.3,97.5,87.7,96.8,87.7z M34.7,87.7h-8.9V71h8.9V87.7z M52.7,87.7h-8.9v-24h8.9
				V87.7z M70.6,87.7h-8.9V65.6h8.9V87.7z M88.7,87.7h-8.9V53.3h8.9V87.7z"/>
		</g>
	</g>
	<g>
		<g>
			<path d="M-710.4,263.9h-3.9v49.3h40.7l47.6-7v-34.4l-1.3-0.2l-1.8-0.3c-1.4-0.2-2.3-0.4-2.3-0.4s-0.4,0-2.4-0.5l-39.8-6.7h-1.7
				 M-683.1,263.9h-19.5 M-677.9,263.9h-2.6 M-705.2,263.9h-2.6 M-702.6,310.6h-9.1v-44.1h9.1v2.6h-6.5V308h6.5V310.6z M-687,305.4
				h-2.6v-9.1h-2.6V308h5.2v2.6h-13V308h5.2v-11.7h-2.6v9.1h-2.6v-2.6h-2.6v2.6h-3.9v-33.8h3.9v2.6h2.6v-2.6h2.6v10.4h2.6v-13h-5.2
				v-2.6h13v2.6h-5.2v13h2.6v-10.4h2.6v2.6h2.6v-2.6h3.9v33.8h-3.9v-2.6h-2.6V305.4L-687,305.4z M-628.6,304l-44.1,6.5v-6.3h-2.6
				v6.5h-9.1V308h6.5v-38.9h-6.5v-2.6h9.1v29.9h2.6v-29.7l44.1,7.4V304L-628.6,304z"/>
		</g>
	</g>
	<g>
		<g>
			<rect x="-675.3" y="298.9" width="2.6" height="2.6"/>
		</g>
	</g>
	<g>
		<g>
			<rect x="-702.6" y="276.9" width="2.6" height="2.6"/>
		</g>
	</g>
	<g>
		<g>
			<path d="M-684.4,284.6v-2.6h-2.6v2.6h-13v-2.6h-2.6v2.6h-1.3v7.8h1.3v2.6h2.6v-2.6h13v2.6h2.6v-2.6h1.3v-7.8H-684.4z
				 M-685.7,289.8h-15.6v-2.6h15.6V289.8z"/>
		</g>
	</g>
	<g>
		<g>
			<rect x="-702.6" y="297.6" width="2.6" height="2.6"/>
		</g>
	</g>
	<g>
		<g>
			<rect x="-687" y="276.9" width="2.6" height="2.6"/>
		</g>
	</g>
	<g>
		<g>
			<rect x="-687" y="297.6" width="2.6" height="2.6"/>
		</g>
	</g>
	<g>
		<g>
			<rect x="-667.6" y="271.7" width="2.6" height="33.8"/>
		</g>
	</g>
	<g>
		<g>
			<rect x="-661.1" y="273" width="2.6" height="31.2"/>
		</g>
	</g>
	<g>
		<g>
			<rect x="-654.6" y="274.3" width="2.6" height="28.6"/>
		</g>
	</g>
	<g>
		<g>
			<rect x="-648.1" y="275.6" width="2.6" height="26"/>
		</g>
	</g>
	<g>
		<g>
			<rect x="-641.6" y="276.9" width="2.6" height="23.4"/>
		</g>
	</g>
	<g>
		<g>
			<rect x="-635.1" y="278.2" width="2.6" height="20.8"/>
		</g>
	</g>
	<path d="M-263.3,288.6h-9.7c-0.9,0-1.6,0.7-1.6,1.6v1.4h-10.2c-0.2,0-0.4,0-0.6,0.1l-13.1,5.4c-1.5,0.6-2.7,1.8-3.3,3.3
		c-0.6,1.5-0.6,3.2,0,4.7l0,0.1c0.4,0.9,0.9,1.7,1.6,2.3c-2,0.5-4.1,0.6-6.1,0.1l-12.9-2.9c-1.6-0.4-3.2-0.1-4.5,0.8
		c-1.4,0.9-2.3,2.2-2.6,3.8c-0.7,3.1,1.3,6.2,4.4,7l15.3,3.9c1.3,0.3,2.6,0.5,3.9,0.5c2,0,3.9-0.4,5.8-1.1l19.5-7.6h2.8v0.9
		c0,0.9,0.7,1.6,1.6,1.6h9.7c0.9,0,1.6-0.7,1.6-1.6v-22.6C-261.6,289.4-262.4,288.6-263.3,288.6z M-277.7,308.7
		c-0.2,0-0.4,0-0.6,0.1l-19.8,7.8c-2.5,1-5.1,1.1-7.7,0.5l-15.3-3.9c-1.4-0.4-2.3-1.7-2-3.1c0.1-0.7,0.6-1.3,1.2-1.7
		c0.4-0.3,0.9-0.4,1.4-0.4c0.2,0,0.4,0,0.6,0.1l12.9,2.9c3.1,0.7,6.3,0.5,9.3-0.7l3.7-1.4c0.1,0,0.2-0.1,0.2-0.1
		c3.3-1.3,7.5-2.9,8.4-3.2l0.2-0.1c0.8-0.3,1.3-1.3,0.9-2.1c-0.3-0.8-1.3-1.3-2.1-0.9c0,0-0.1,0-0.2,0.1l-8.6,3.3
		c-1.5,0.5-3-0.2-3.6-1.7l0-0.1c-0.3-0.7-0.3-1.5,0-2.2c0.3-0.7,0.8-1.2,1.5-1.5l12.8-5.3h9.9v13.8H-277.7z M-264.9,311.2h-6.4
		v-19.3h6.4V311.2z"/>
	<path d="M-329.7,288h-3v-15.3h0.5c1.2,0,2.4-0.3,3.5-0.8c0.1,0,0.1-0.1,0.1-0.1l10.6-6.9c1.5-0.7,3.3-0.6,4.6,0.4l0.8,0.6
		c0,0.1-0.1,0.1-0.1,0.2c-0.2,0.3-0.4,0.6-0.6,0.9c-1.1,1.9-1.9,4-2.1,6.2c-1.1,0.1-2.2,0.6-3,1.4c-0.9,0.9-1.4,2.2-1.4,3.5
		c0,2.7,2.2,4.9,4.9,4.9h12.1c0.7,0,1.3,0.3,1.8,0.7c0.5,0.5,0.7,1.1,0.7,1.8c0,1-0.6,1.9-1.5,2.3c-0.1,0-0.2,0.1-0.3,0.1
		c0,0,0,0,0,0c-0.2,0.1-0.5,0.1-0.7,0.1h-13.8c-0.9,0-1.6,0.7-1.6,1.6s0.7,1.6,1.6,1.6h13.8c0.4,0,0.8,0,1.2-0.1
		c0.7,0.1,1.4,0.1,2.1,0.1c8.9,0,16.1-7.2,16.1-16.1c0-8.9-7.2-16.1-16.1-16.1c-4.1,0-8,1.6-11,4.3l-1-0.7c-2.3-1.7-5.5-2-8.1-0.7
		c-0.1,0-0.1,0.1-0.1,0.1l-10.6,6.9c-0.6,0.3-1.3,0.4-1.9,0.4h-0.5v-0.6c0-0.9-0.7-1.6-1.6-1.6h-9.7c-0.9,0-1.6,0.7-1.6,1.6v22.6
		c0,0.9,0.7,1.6,1.6,1.6h9.7c0.9,0,1.6-0.7,1.6-1.6v-0.1h3c0.9,0,1.6-0.7,1.6-1.6S-328.8,288-329.7,288z M-316.6,278
		c0-0.4,0.2-0.9,0.5-1.2c0.2-0.2,0.4-0.3,0.6-0.4c0.1,1.1,0.3,2.2,0.6,3.2C-315.8,279.6-316.6,278.9-316.6,278z M-286.6,275.1
		c0,6.4-4.7,11.8-10.9,12.7c0.3-0.7,0.5-1.6,0.5-2.4c0-1-0.3-2-0.7-2.8c0.7-0.1,1.4-0.4,1.9-1c0.7-0.6,1-1.5,1-2.4v-2.4
		c0-1.9-1.5-3.4-3.4-3.4h-2.4c-0.1,0-0.2-0.1-0.2-0.2v-2.3c0-0.1,0.1-0.2,0.2-0.2h1.2h0h0h1.2c0.1,0,0.2,0.1,0.2,0.2
		c0,0.9,0.7,1.6,1.6,1.6c0.9,0,1.6-0.7,1.6-1.6c0-1.7-1.3-3.2-3-3.4V267c0-0.9-0.7-1.6-1.6-1.6s-1.6,0.7-1.6,1.6v0.6
		c-1.7,0.2-3,1.7-3,3.4v2.3c0,1.9,1.5,3.4,3.4,3.4h2.4c0.1,0,0.2,0.1,0.2,0.2v2.4c0,0,0,0.1,0,0.1c0,0-0.1,0-0.1,0h-2.4
		c-0.1,0-0.2-0.1-0.2-0.2V279c0-0.9-0.7-1.6-1.6-1.6s-1.6,0.7-1.6,1.6v0.2c0,0.1,0,0.3,0,0.4h-7.4c-0.6-1.4-0.8-3-0.8-4.6
		c0-2.4,0.7-4.8,2-6.8c0.4-0.6,0.8-1.1,1.2-1.7c2.4-2.8,6-4.4,9.6-4.4C-292.3,262.2-286.6,268-286.6,275.1z M-336,289.7h-6.4v-19.3
		h6.4V289.7z"/>
	<path d="M-321.8,288.7c-0.4-0.6-1.1-0.9-1.8-0.7c-0.7,0.2-1.1,0.8-1.2,1.4c-0.1,0.7,0.3,1.3,1,1.6c0.6,0.3,1.4,0.1,1.8-0.3
		C-321.5,290.2-321.4,289.3-321.8,288.7z"/>
	<g>
		<g>
			<path d="M64,259.3c-17.5,0-31.7,14.2-31.7,31.7s14.2,31.7,31.7,31.7s31.7-14.2,31.7-31.7C95.6,273.5,81.5,259.3,64,259.3z
				 M64,320.5c-16.3,0-29.5-13.2-29.5-29.5c0-16.3,13.2-29.5,29.5-29.5s29.5,13.2,29.5,29.5C93.5,307.2,80.3,320.5,64,320.5z"/>
		</g>
	</g>
	<g>
		<g>
			<path d="M64,264.6c-14.6,0-26.4,11.8-26.4,26.4c0,14.6,11.8,26.4,26.4,26.4s26.4-11.8,26.4-26.4C90.4,276.4,78.6,264.6,64,264.6z
				 M64,315.2c-13.4,0-24.3-10.9-24.3-24.3c0-13.4,10.9-24.3,24.3-24.3s24.3,10.9,24.3,24.3C88.3,304.3,77.4,315.2,64,315.2z"/>
		</g>
	</g>
	<g>
		<g>
			<rect x="63" y="269.8" width="2.1" height="2.1"/>
		</g>
	</g>
	<g>
		<g>
			<rect x="63" y="309.9" width="2.1" height="2.1"/>
		</g>
	</g>
	<g>
		<g>
			<rect x="52.9" y="272.5" transform="matrix(0.866 -0.5001 0.5001 0.866 -129.5858 63.6726)" width="2.1" height="2.1"/>
		</g>
	</g>
	<g>
		<g>
			<rect x="73" y="307.2" transform="matrix(0.866 -0.5001 0.5001 0.866 -144.2603 78.3488)" width="2.1" height="2.1"/>
		</g>
	</g>
	<g>
		<g>
			<rect x="45.6" y="279.9" transform="matrix(0.5 -0.866 0.866 0.5 -219.9497 180.8527)" width="2.1" height="2.1"/>
		</g>
	</g>
	<g>
		<g>
			<rect x="80.3" y="299.9" transform="matrix(0.5 -0.866 0.866 0.5 -219.9548 220.9417)" width="2.1" height="2.1"/>
		</g>
	</g>
	<g>
		<g>
			<rect x="42.9" y="289.9" width="2.1" height="2.1"/>
		</g>
	</g>
	<g>
		<g>
			<rect x="83" y="289.9" width="2.1" height="2.1"/>
		</g>
	</g>
	<g>
		<g>
			<rect x="45.6" y="299.9" transform="matrix(0.8661 -0.4999 0.4999 0.8661 -144.1996 63.6226)" width="2.1" height="2.1"/>
		</g>
	</g>
	<g>
		<g>
			<rect x="80.3" y="279.9" transform="matrix(0.866 -0.5 0.5 0.866 -129.5571 78.3207)" width="2.1" height="2.1"/>
		</g>
	</g>
	<g>
		<g>
			<rect x="52.9" y="307.2" transform="matrix(0.5001 -0.866 0.866 0.5001 -239.9816 200.8507)" width="2.1" height="2.1"/>
		</g>
	</g>
	<g>
		<g>
			<rect x="73" y="272.5" transform="matrix(0.5001 -0.866 0.866 0.5001 -199.8973 200.8607)" width="2.1" height="2.1"/>
		</g>
	</g>
	<g>
		<g>
			<path d="M63,274.1v16.3l-10,6l1.1,1.8l10.6-6.3c0.3-0.2,0.5-0.5,0.5-0.9v-16.9H63z"/>
		</g>
	</g>
	<g>
		<g>
			<g>
				<path d="M-688.2,557.2c-1,0-1.7,0.8-1.7,1.7s0.8,1.7,1.7,1.7h0c1,0,1.7-0.8,1.7-1.7S-687.2,557.2-688.2,557.2z"/>
				<path d="M-621.5,528.8c0.2-0.9-0.3-1.8-1.1-2.1c-4.1-1.4-9.1-4.5-9.1-11.4v-3.7c0-5.5-0.9-9.6-2.9-12.5
					c-2.3-3.5-6.2-5.2-11.4-5.2c-5.2,0-9,1.8-11.4,5.2c-1.9,2.9-2.9,7-2.9,12.5v3.7c0,6.9-4.9,10-9.1,11.4c-0.9,0.3-1.4,1.2-1.1,2.1
					c0.9,3.6,2.3,5.7,4.8,6.9c-0.5,0.5-1,1.1-1.4,1.7c-2.6-3.9-7.5-5.2-11.7-6.4c-0.8-0.2-1.5-0.4-2.3-0.6v-1.2
					c4.7-2.5,7.9-7.5,7.9-13.2v-6.9c0-8.3-6.7-15-15-15c-8.3,0-15,6.7-15,15v6.9c0,5.7,3.2,10.6,7.9,13.2v1.2
					c-0.7,0.2-1.5,0.4-2.2,0.6c-5.9,1.6-13.3,3.6-13.4,12.6c0,0,0,0,0,0V559c0,1,0.8,1.7,1.7,1.7h13.2c1,0,1.7-0.8,1.7-1.7
					c0-1-0.8-1.7-1.7-1.7h-2.1v-7.1c0-1-0.8-1.7-1.7-1.7c-1,0-1.7,0.8-1.7,1.7v7.1h-5.9v-13.5c0.1-6,4.2-7.5,10.9-9.3
					c0.6-0.2,1.1-0.3,1.7-0.5c0.9,2.8,3.6,4.9,6.8,4.9c3.2,0,5.8-2.1,6.8-4.9c0.6,0.2,1.1,0.3,1.7,0.5c6.7,1.8,10.8,3.3,10.9,9.3
					v13.5h-5.9v-7.1c0-1-0.8-1.7-1.7-1.7s-1.7,0.8-1.7,1.7v7.1h-2.1c-1,0-1.7,0.8-1.7,1.7c0,1,0.8,1.7,1.7,1.7h26.5
					c1,0,1.7-0.8,1.7-1.7c0-1-0.8-1.7-1.7-1.7h-2.1v-7.1c0-1-0.8-1.7-1.7-1.7s-1.7,0.8-1.7,1.7v7.1h-5.9v-13.5
					c0.1-6,4.2-7.5,10.9-9.3c0.6-0.2,1.1-0.3,1.7-0.5c0.9,2.8,3.6,4.9,6.8,4.9c3.2,0,5.8-2.1,6.8-4.9c0.6,0.2,1.1,0.3,1.7,0.5
					c6.7,1.8,10.8,3.3,10.9,9.3v13.5h-5.9v-7.1c0-1-0.8-1.7-1.7-1.7s-1.7,0.8-1.7,1.7v7.1h-2.1c-1,0-1.7,0.8-1.7,1.7
					c0,1,0.8,1.7,1.7,1.7h13.2c1,0,1.7-0.8,1.7-1.7v-15.3c0,0,0,0,0,0c-0.1-3.7-1.3-6.2-3.2-8C-623.8,534.5-622.4,532.4-621.5,528.8
					L-621.5,528.8z M-699.7,509.1c0-6.3,5.2-11.5,11.5-11.5c6.3,0,11.5,5.2,11.5,11.5v1.8c-4.6,0.2-10.4-0.4-14.7-3.3
					c-0.8-0.5-1.8-0.4-2.4,0.4c-1.5,1.9-3.3,2.4-5.9,2.7V509.1z M-684.5,531.7c0,2-1.6,3.6-3.6,3.6c-2,0-3.6-1.6-3.6-3.6v-1.1
					c1.2,0.3,2.4,0.5,3.6,0.5c1.3,0,2.5-0.2,3.6-0.4V531.7z M-688.2,527.6c-6.3,0-11.5-5.2-11.5-11.5v-1.8c2.8-0.3,5.5-0.8,7.7-2.9
					c4.8,2.7,10.6,3.3,15.3,3.1v1.6C-676.7,522.4-681.8,527.6-688.2,527.6L-688.2,527.6z M-654.5,501.1c1.7-2.5,4.4-3.7,8.5-3.7
					c4,0,6.8,1.2,8.5,3.7c1.4,2,2.1,5,2.3,9.1c-3.2,0.6-7.1,0.1-9.2-4.1c-0.6-1.3-2.5-1.3-3.1,0c-2.1,4.2-5.9,4.6-9.2,4.1
					C-656.6,506.1-655.9,503.1-654.5,501.1z M-653.2,530.4c-0.7,0.2-1.5,0.4-2.2,0.6c-2.1,0.6-4.4,1.2-6.5,2.2
					c-2.7-0.5-3.9-1.3-4.7-3.8c2.8-1.2,6.3-3.3,8.3-7.1c1.3,2.2,3.1,4,5.3,5.3L-653.2,530.4L-653.2,530.4z M-642.4,531.7
					c0,2-1.6,3.6-3.6,3.6c-2,0-3.6-1.6-3.6-3.6v-2.6c1.2,0.3,2.4,0.5,3.6,0.5c1.3,0,2.5-0.2,3.6-0.5V531.7z M-646,526.1
					c-5.9,0-10.8-4.8-10.8-10.8v-1.5c0.7,0.1,1.5,0.2,2.2,0.2c3.5,0,6.5-1.3,8.6-3.8c2.1,2.5,5.1,3.8,8.6,3.8c0.7,0,1.4-0.1,2.2-0.2
					v1.5C-635.3,521.2-640.1,526.1-646,526.1z M-630.1,533.2c-2.1-1-4.4-1.6-6.5-2.2c-0.8-0.2-1.5-0.4-2.2-0.6v-2.8
					c2.2-1.3,4-3.1,5.2-5.3c2,3.8,5.4,5.9,8.3,7.1C-626.2,531.8-627.4,532.7-630.1,533.2L-630.1,533.2z"/>
				<path d="M-646,557.2c-1,0-1.7,0.8-1.7,1.7s0.8,1.7,1.7,1.7h0c1,0,1.7-0.8,1.7-1.7S-645.1,557.2-646,557.2z"/>
			</g>
		</g>
	</g>
	<path d="M-295.4,551.8h-2.7v-13.1c0-0.7-0.6-1.3-1.3-1.3s-1.3,0.6-1.3,1.3v13.1h-34.7v-26.7h11.1c0.7,0,1.3-0.6,1.3-1.3
		s-0.6-1.3-1.3-1.3h-12.4c-0.7,0-1.3,0.6-1.3,1.3v28h-2.7c-0.7,0-1.3,0.6-1.3,1.3v2.7c0,3.7,3,6.7,6.7,6.7h34.7c3.7,0,6.7-3,6.7-6.7
		v-2.7C-294.1,552.4-294.7,551.8-295.4,551.8z M-296.8,555.8c0,2.2-1.8,4-4,4h-2.7v-1.3c0-0.7-0.6-1.3-1.3-1.3s-1.3,0.6-1.3,1.3v1.3
		h-24v-1.3c0-0.7-0.6-1.3-1.3-1.3s-1.3,0.6-1.3,1.3v1.3h-2.7c-2.2,0-4-1.8-4-4v-1.3h42.7V555.8z"/>
	<path d="M-272.8,490.5h2.7c0.7,0,1.3-0.6,1.3-1.3s-0.6-1.3-1.3-1.3h-2.7c-2.2,0-4,1.8-4,4v1.3h-1.3c-0.7,0-1.3,0.6-1.3,1.3
		s0.6,1.3,1.3,1.3h1.3v4c0,0.7,0.6,1.3,1.3,1.3s1.3-0.6,1.3-1.3v-4h1.3c0.7,0,1.3-0.6,1.3-1.3s-0.6-1.3-1.3-1.3h-1.3v-1.3
		C-274.1,491.1-273.5,490.5-272.8,490.5z"/>
	<path d="M-266.1,482.5h-16c-2.2,0-4,1.8-4,4v2.7c0,0.7,0.6,1.3,1.3,1.3s1.3-0.6,1.3-1.3v-2.7c0-0.7,0.6-1.3,1.3-1.3h16
		c0.7,0,1.3,0.6,1.3,1.3v16c0,0.7-0.6,1.3-1.3,1.3h-16c-0.7,0-1.3-0.6-1.3-1.3v-8c0-0.7-0.6-1.3-1.3-1.3s-1.3,0.6-1.3,1.3v8
		c0,2.2,1.8,4,4,4h16c2.2,0,4-1.8,4-4v-16C-262.1,484.3-263.9,482.5-266.1,482.5z"/>
	<path d="M-279.4,535.8c0,2.9,2.4,5.3,5.3,5.3c2.9,0,5.3-2.4,5.3-5.3s-2.4-5.3-5.3-5.3C-277.1,530.5-279.4,532.9-279.4,535.8z
		 M-271.4,535.8c0,1.5-1.2,2.7-2.7,2.7c-1.5,0-2.7-1.2-2.7-2.7s1.2-2.7,2.7-2.7C-272.6,533.1-271.4,534.3-271.4,535.8z"/>
	<path d="M-266.1,523.8h-16c-2.2,0-4,1.8-4,4v16c0,2.2,1.8,4,4,4h16c2.2,0,4-1.8,4-4v-2.7c0-0.7-0.6-1.3-1.3-1.3s-1.3,0.6-1.3,1.3
		v2.7c0,0.7-0.6,1.3-1.3,1.3h-16c-0.7,0-1.3-0.6-1.3-1.3v-16c0-0.7,0.6-1.3,1.3-1.3h16c0.7,0,1.3,0.6,1.3,1.3v8
		c0,0.7,0.6,1.3,1.3,1.3s1.3-0.6,1.3-1.3v-8C-262.1,525.6-263.9,523.8-266.1,523.8z"/>
	<path d="M-312.2,498.3c0.2,0.1,0.5,0.2,0.7,0.2c0.2,0,0.4-0.1,0.6-0.1l8-4c0.7-0.3,0.9-1.1,0.6-1.8c-0.1-0.2-0.3-0.5-0.6-0.6l-8-4
		c-0.7-0.3-1.5-0.1-1.8,0.6c-0.1,0.2-0.1,0.4-0.1,0.6v8C-312.8,497.6-312.5,498-312.2,498.3z M-310.1,491.3l3.7,1.8l-3.7,1.8V491.3z
		"/>
	<path d="M-308.8,505.1c6.6,0,12-5.4,12-12s-5.4-12-12-12s-12,5.4-12,12S-315.4,505.1-308.8,505.1z M-308.8,483.8
		c5.2,0,9.3,4.2,9.3,9.3s-4.2,9.3-9.3,9.3s-9.3-4.2-9.3-9.3S-313.9,483.8-308.8,483.8z"/>
	<path d="M-295.4,510.5c0.4,0,0.8-0.2,1.1-0.5l4-5.3c0.4-0.6,0.3-1.4-0.3-1.9c-0.6-0.4-1.4-0.3-1.9,0.3l-4,5.3
		c-0.4,0.6-0.3,1.4,0.3,1.9C-296,510.4-295.7,510.5-295.4,510.5z"/>
	<path d="M-292.5,515.3c0.3,0.3,0.6,0.5,1.1,0.5c0.3,0,0.6-0.1,0.8-0.3l5.3-4c0.6-0.4,0.7-1.3,0.3-1.9c-0.4-0.6-1.3-0.7-1.9-0.3
		l-5.3,4C-292.8,513.8-293,514.7-292.5,515.3L-292.5,515.3z"/>
	<path d="M-279.4,518.2c-0.1-0.7-0.8-1.2-1.5-1.1c0,0,0,0-0.1,0l-6.7,1.3c-0.7,0.1-1.3,0.7-1.2,1.5c0.1,0.7,0.7,1.3,1.5,1.2h0.3
		l6.7-1.3C-279.8,519.7-279.3,519-279.4,518.2C-279.4,518.2-279.4,518.2-279.4,518.2z"/>
	<path d="M-340.8,518.5h16c0.7,0,1.3-0.6,1.3-1.3v-21.3c0-0.7-0.6-1.3-1.3-1.3h-16c-0.7,0-1.3,0.6-1.3,1.3v21.3
		C-342.1,517.9-341.5,518.5-340.8,518.5z M-339.5,497.1h13.3v18.7h-13.3V497.1z"/>
	<path d="M-330.1,499.8h-2.7c-0.7,0-1.3,0.6-1.3,1.3s0.6,1.3,1.3,1.3h2.7c0.7,0,1.3-0.6,1.3-1.3S-329.4,499.8-330.1,499.8z"/>
	<path d="M-330.1,505.1h-5.3c-0.7,0-1.3,0.6-1.3,1.3s0.6,1.3,1.3,1.3h5.3c0.7,0,1.3-0.6,1.3-1.3S-329.4,505.1-330.1,505.1z"/>
	<path d="M-330.1,510.5h-5.3c-0.7,0-1.3,0.6-1.3,1.3s0.6,1.3,1.3,1.3h5.3c0.7,0,1.3-0.6,1.3-1.3S-329.4,510.5-330.1,510.5z"/>
	<path d="M-296.6,518.1c-0.4-0.6-1.2-0.9-1.8-0.5c-0.6,0.4-0.9,1.2-0.5,1.8l5.9,10.2l-21.3,8c0,0,0,0-0.1,0h-0.1l-3.5,2l-2.3,1.3
		c-0.6,0.4-1.3,0.5-2,0.3c-0.7-0.2-1.3-0.6-1.6-1.2l-2.7-4.6c-0.7-1.3-0.2-2.8,1-3.5l4.6-2.7l3.3,5.8c0.2,0.4,0.7,0.7,1.2,0.7
		c0.7,0,1.3-0.6,1.3-1.3c0-0.2-0.1-0.5-0.2-0.7l-3.4-5.9l16.7-13.8l0.5,0.9c0.4,0.6,1.2,0.9,1.8,0.5c0.6-0.4,0.9-1.2,0.5-1.8
		l-1.3-2.3c-0.2-0.3-0.5-0.6-0.9-0.6c-0.4-0.1-0.8,0-1.1,0.3l-18.7,15.4l-5.7,3.3c-2.1,1.2-3.1,3.7-2.5,6l-1.3,0.8
		c-1.9,1.1-2.6,3.5-1.5,5.5c0.5,0.9,1.4,1.6,2.4,1.9c0.3,0.1,0.7,0.1,1,0.1c0.7,0,1.4-0.2,2-0.5l1.3-0.8c0.6,0.7,1.4,1.1,2.3,1.4
		c0.5,0.1,0.9,0.2,1.4,0.2c0.9,0,1.9-0.2,2.7-0.7l1.2-0.7l2.7,4.6c1.1,1.9,3.5,2.6,5.5,1.5c1.9-1.1,2.6-3.5,1.5-5.5c0,0,0,0,0,0
		l-2.4-4.2l20-7.5c0.4-0.1,0.7-0.4,0.8-0.8c0.1-0.4,0.1-0.8-0.1-1.1L-296.6,518.1z M-328.1,540.9c-0.3,0.2-0.7,0.2-1,0.1
		c-0.3-0.1-0.6-0.3-0.8-0.6c-0.2-0.3-0.2-0.7-0.1-1c0.1-0.3,0.3-0.6,0.6-0.8l1.2-0.7l1.3,2.3L-328.1,540.9z M-310.6,544.6
		c0.2,0.3,0.2,0.7,0.1,1c-0.1,0.3-0.3,0.6-0.6,0.8c-0.6,0.4-1.4,0.2-1.8-0.5l-2.7-4.6l2.2-1.3h0.1L-310.6,544.6z"/>
	<g>
		<g>
			<path d="M86.3,555.4l-3-8.9c-1-3.1-3.7-5.4-6.9-6l-8.5-1.6v-0.7c1.5-0.9,2.8-2,3.8-3.4h2.6c2.1,0,3.8-1.7,3.8-3.8v-15.3
				c0-9.2-7.4-16.6-16.6-16.6s-16.6,7.4-16.6,16.6v8.9c0,2.5,1.8,4.5,4.1,5c0.7,3.7,3,6.8,6.1,8.6v0.7l-8.5,1.6
				c-3.2,0.6-5.8,2.9-6.9,6l-0.5,1.5l-4.3-4.3c-0.5-0.5-0.5-1.3,0-1.8l5-5l-9.5-9.5l-5.7,5.7c-1.7,1.7-2.6,3.9-2.6,6.3
				c0,2.4,0.9,4.6,2.6,6.3L42,563c1.7,1.7,3.9,2.6,6.3,2.6c2.4,0,4.6-0.9,6.3-2.6l6.2-5.7l-1.9-1.9H86.3z M75.5,531.2
				c0,0.7-0.6,1.3-1.3,1.3h-1.1c0.4-0.8,0.7-1.7,0.8-2.7c0.5-0.1,1-0.3,1.5-0.6V531.2z M74.3,527v-4.4c0.8,0.4,1.3,1.3,1.3,2.2
				C75.5,525.7,75,526.5,74.3,527z M48.7,527c-0.8-0.4-1.3-1.3-1.3-2.2c0-0.9,0.5-1.8,1.3-2.2V527z M48.7,518.4v1.5
				c-0.5,0.1-0.9,0.3-1.3,0.5v-4.5c0-7.7,6.3-14,14-14s14,6.3,14,14v4.5c-0.4-0.2-0.8-0.4-1.3-0.5v-1.5H73c-3.8,0-7.3-1.5-10-4.1
				l-1.5-1.5l-1.5,1.5c-2.7,2.7-6.2,4.1-10,4.1H48.7z M51.3,527.3v-6.4c3.8-0.3,7.4-1.9,10.2-4.5c2.8,2.7,6.4,4.3,10.2,4.5v6.4
				c0,1.9-0.5,3.6-1.4,5.1h-8.8v2.6h6.7c-1.8,1.6-4.2,2.6-6.7,2.6C55.9,537.6,51.3,533,51.3,527.3z M65.3,539.5L65.3,539.5l-3.8,3.9
				l-3.8-3.8v-0.1c1.2,0.4,2.5,0.6,3.8,0.6C62.8,540.1,64.1,539.9,65.3,539.5z M42.1,547.4c0.7-2.2,2.6-3.8,4.9-4.3l8.9-1.6l5.5,5.5
				l5.5-5.5l8.9,1.6c2.3,0.4,4.2,2.1,4.9,4.3l1.8,5.5H56.3l-5-5l-5.5,5c-0.5,0.5-1.3,0.5-1.8,0l-2.8-2.8L42.1,547.4z M30.4,531
				l5.9,5.9l-1.4,1.4l-5.9-5.9L30.4,531z M52.8,561.2c-1.2,1.2-2.8,1.9-4.5,1.9s-3.3-0.7-4.5-1.9L26.5,544c-1.2-1.2-1.9-2.8-1.9-4.5
				c0-1.7,0.7-3.3,1.9-4.5l0.7-0.7l5.9,5.9l0,0c-1.5,1.5-1.5,3.9,0,5.4l9.2,9.2c0.7,0.7,1.7,1.1,2.7,1.1c1,0,2-0.4,2.7-1.1l0.1-0.1
				l5.9,5.9L52.8,561.2z M55.4,558.8l-5.9-5.9l1.7-1.5l5.9,5.9L55.4,558.8z"/>
		</g>
	</g>
	<g>
		<g>
			<path d="M97.3,486.5H79.4c-2.1,0-3.8,1.7-3.8,3.8v10.2c0,2.1,1.7,3.8,3.8,3.8h3.4l-1.3,7.7l12.3-7.7h3.5c2.1,0,3.8-1.7,3.8-3.8
				v-10.2C101.1,488.2,99.4,486.5,97.3,486.5z M98.5,500.5c0,0.7-0.6,1.3-1.3,1.3h-4.2l-8.1,5.1l0.9-5.1h-6.4
				c-0.7,0-1.3-0.6-1.3-1.3v-10.2c0-0.7,0.6-1.3,1.3-1.3h17.9c0.7,0,1.3,0.6,1.3,1.3V500.5z"/>
		</g>
	</g>
	<g>
		<g>
			<rect x="80.7" y="491.6" width="15.3" height="2.6"/>
		</g>
	</g>
	<g>
		<g>
			<rect x="80.7" y="496.7" width="10.2" height="2.6"/>
		</g>
	</g>
	<g>
		<g>
			<rect x="93.4" y="496.7" width="2.6" height="2.6"/>
		</g>
	</g>
	<g>
		<g>
			<path d="M61.5,490.3c-16.7,0-31.1,11.5-34.8,27.6l-2.4-4l-2.2,1.3l4.5,7.5l7.5-4.5l-1.3-2.2l-3.5,2.1
				c3.6-14.7,16.9-25.2,32.2-25.2c3.4,0,6.7,0.5,9.8,1.5l0.8-2.4C68.7,490.8,65.1,490.3,61.5,490.3z"/>
		</g>
	</g>
	<g>
		<g>
			<path d="M100.5,514.7l-7.5-4.5l-4.5,7.5l2.2,1.3l2.2-3.7c1.2,3.4,1.8,7,1.8,10.7c0,7.6-2.6,15-7.4,20.9l2,1.6
				c5.1-6.3,8-14.3,8-22.5c0-3.9-0.6-7.7-1.9-11.4l3.8,2.3L100.5,514.7z"/>
		</g>
	</g>
</g>
<g>
	<g>
		<path d="M90.9,22.5c-6.6,0-11.7,5.3-11.7,11.8s5.3,11.7,11.7,11.7s11.8-5.3,11.8-11.8S97.4,22.5,90.9,22.5z M90.9,43.5
			c-5.1,0-9.2-4.1-9.2-9.2s4.2-9.2,9.2-9.2c5.1,0,9.2,4.1,9.2,9.2S96,43.5,90.9,43.5z"/>
	</g>
</g>
<g>
	<g>
		<path d="M94.6,36.1c-0.1-0.2-0.1-0.4-0.2-0.6c-0.1-0.2-0.2-0.4-0.3-0.6c-0.2-0.2-0.2-0.3-0.4-0.5c-0.2-0.2-0.3-0.3-0.6-0.4
			c-0.2-0.2-0.4-0.2-0.6-0.3c-0.2-0.1-0.4-0.2-0.6-0.3c-0.2-0.1-0.5-0.2-0.6-0.2c-0.1,0-0.2-0.1-0.3-0.2s-0.2-0.1-0.3-0.2
			c-0.1-0.1-0.2-0.1-0.3-0.2c-0.1-0.1-0.2-0.2-0.2-0.2c-0.1-0.1-0.2-0.2-0.2-0.3c-0.1-0.1-0.1-0.2-0.1-0.3c0-0.2,0-0.2,0-0.4
			c0-0.1,0.1-0.2,0.1-0.3c0.1-0.1,0.1-0.2,0.2-0.3c0.1-0.1,0.2-0.2,0.2-0.2c0.1-0.1,0.2-0.2,0.4-0.2c0.2-0.1,0.2-0.1,0.4-0.1
			c0.1,0,0.2,0,0.2,0c0.1,0,0.2,0,0.2,0c0.2,0,0.2,0,0.4,0.1c0.2,0,0.3,0.1,0.4,0.1s0.2,0.1,0.3,0.1c0.2,0,0.2,0.1,0.3,0.1l0.4,0.2
			l0.1-0.5l0.2-1.3v-0.3l-0.3-0.1c-0.1,0-0.2-0.1-0.3-0.1s-0.2-0.1-0.3-0.1c-0.1,0-0.2-0.1-0.4-0.1s-0.2-0.1-0.4-0.1h-0.1V27v-0.4
			h-0.4h-1.1h-0.4V27v1.2h-0.1c-0.2,0.1-0.5,0.2-0.7,0.3c-0.2,0.1-0.4,0.2-0.6,0.4c-0.2,0.2-0.3,0.3-0.5,0.6
			c-0.2,0.2-0.2,0.4-0.3,0.6c-0.1,0.2-0.2,0.5-0.2,0.7c-0.1,0.2-0.1,0.6-0.1,0.8c0,0.2,0,0.4,0.1,0.6s0.1,0.4,0.2,0.6
			c0.1,0.2,0.2,0.4,0.3,0.6c0.2,0.2,0.2,0.3,0.4,0.5c0.2,0.2,0.3,0.3,0.6,0.4c0.2,0.2,0.4,0.2,0.6,0.3c0.2,0.1,0.5,0.2,0.6,0.3
			c0.2,0.1,0.5,0.2,0.6,0.2c0.1,0,0.2,0.1,0.3,0.2s0.2,0.1,0.3,0.2s0.2,0.2,0.2,0.2c0.1,0.1,0.2,0.2,0.2,0.2s0.1,0.2,0.2,0.3
			c0,0.1,0.1,0.2,0.1,0.4c0,0.2,0,0.2,0,0.4c0,0.1-0.1,0.2-0.2,0.3s-0.2,0.2-0.2,0.2s-0.2,0.2-0.3,0.2c-0.1,0.1-0.2,0.1-0.3,0.2
			c-0.1,0-0.2,0.1-0.4,0.1c-0.1,0-0.2,0-0.3,0c-0.1,0-0.2,0-0.3,0c-0.2,0-0.3,0-0.4,0c-0.2,0-0.3-0.1-0.4-0.1
			c-0.2,0-0.3-0.1-0.5-0.2c-0.2-0.1-0.3-0.1-0.5-0.2c-0.1,0-0.2-0.1-0.2-0.1c-0.1,0-0.2-0.1-0.2-0.1l-0.5-0.2l-0.1,0.6l-0.2,1.5v0.2
			l0.2,0.1c0.3-0.1,0.5,0,0.7,0.1c0.2,0.1,0.4,0.2,0.6,0.2c0.2,0.1,0.4,0.1,0.6,0.2c0.2,0.1,0.4,0.1,0.6,0.1h0.2v1.2v0.4h0.4h1.1H92
			v-0.4v-1.3h0.1c0.2-0.1,0.5-0.2,0.7-0.3c0.2-0.1,0.4-0.2,0.6-0.4c0.2-0.2,0.3-0.3,0.5-0.6c0.2-0.2,0.2-0.4,0.4-0.6
			c0.1-0.2,0.2-0.5,0.2-0.7c0.1-0.2,0.1-0.5,0.1-0.8C94.7,36.5,94.7,36.4,94.6,36.1z"/>
	</g>
</g>
</svg>
