<?xml version="1.0" encoding="utf-8"?>
<!-- Generator: Adobe Illustrator 24.2.1, SVG Export Plug-In . SVG Version: 6.00 Build 0)  -->
<svg version="1.1" id="Capa_1" xmlns="http://www.w3.org/2000/svg" xmlns:xlink="http://www.w3.org/1999/xlink" x="0px" y="0px"
	 viewBox="0 0 119.3 119.3" style="enable-background:new 0 0 119.3 119.3;" xml:space="preserve">
<style type="text/css">
	.st0{opacity:0.3;}
	.st1{fill:#FFC107;}
</style>
<g>
	<g class="st0">
		<path class="st1" d="M91.2-128.1c-6,4-12.7,7.4-20,8c-7.2,0.6-15-2-19.2-7.9c-4.3-6-4.5-14.8-10.5-19.2
			c-7.9-5.9-21.6-0.4-27.7-8.3c-3.7-4.8-1.9-11.7,0.2-17.4c2.6-6.8,5.5-13.4,8.8-19.8c0.8-1.7,1.8-3.4,3.4-4.4
			c4.2-2.7,9.3,1,13.8,3.2c7.6,3.6,17.2,2.4,23.6-3.1c5.3-4.6,9.2-12.1,16.1-12.4c3.1-0.2,6.1,1.3,8.7,3
			c11.3,7.6,17.9,21.6,16.5,35.1c-0.5,4.7-1.9,9.2-3.2,13.7c-2.9,9.7-5.9,19.4-9.8,28.7"/>
	</g>
	<g class="st0">
		<path class="st1" d="M89.9,97c-6,4-12.7,7.4-20,8s-15-2-19.2-7.9c-4.3-6-4.5-14.8-10.5-19.2c-7.9-5.9-21.6-0.4-27.7-8.3
			c-3.7-4.8-1.9-11.7,0.2-17.4c2.6-6.8,5.5-13.4,8.8-19.8c0.8-1.7,1.8-3.4,3.4-4.4c4.2-2.7,9.3,1,13.8,3.2
			c7.6,3.6,17.2,2.4,23.6-3.1c5.3-4.6,9.2-12.1,16.1-12.4c3.1-0.2,6.1,1.3,8.7,3c11.3,7.6,17.9,21.6,16.5,35.1
			c-0.5,4.7-1.9,9.2-3.2,13.7c-2.9,9.7-5.9,19.4-9.8,28.7"/>
	</g>
	<g class="st0">
		<path class="st1" d="M99.2,335.1c-6,4-12.7,7.4-20,8c-7.2,0.6-15-2-19.2-7.9c-4.3-6-4.5-14.8-10.5-19.2
			c-7.9-5.9-21.6-0.4-27.7-8.3c-3.7-4.8-1.9-11.7,0.2-17.4c2.6-6.8,5.5-13.4,8.8-19.8c0.8-1.7,1.8-3.4,3.4-4.4
			c4.2-2.7,9.3,1,13.8,3.2c7.6,3.6,17.2,2.4,23.6-3.1c5.3-4.6,9.2-12.1,16.1-12.4c3.1-0.2,6.1,1.3,8.7,3
			c11.3,7.6,17.9,21.6,16.5,35.1c-0.5,4.7-1.9,9.2-3.2,13.7c-2.9,9.7-5.9,19.4-9.8,28.7"/>
	</g>
	<g class="st0">
		<path class="st1" d="M479.9,70.8c-1.4,7.1-3.8,14.2-8.5,19.8c-4.7,5.5-12,9.2-19.2,8c-7.3-1.3-13.7-7.3-21-6.2
			c-9.8,1.5-15.6,15-25.4,13.7c-6-0.8-9.6-6.9-12.1-12.4c-3-6.6-5.6-13.4-7.8-20.2c-0.6-1.8-1.1-3.7-0.7-5.5c1-4.8,7.3-5.8,12-7.5
			c7.9-2.8,13.8-10.5,14.4-18.9c0.5-6.9-2-15,2.6-20.2c2.1-2.3,5.2-3.4,8.3-4c13.3-2.7,27.9,2.6,36.5,13.2c3,3.7,5.2,7.8,7.4,12
			c4.8,8.9,9.6,17.8,13.4,27.2"/>
	</g>
	<g class="st0">
		<path class="st1" d="M479.9,303.5c-1.4,7.1-3.8,14.2-8.5,19.8s-12,9.2-19.2,8c-7.3-1.3-13.7-7.3-21-6.2
			c-9.8,1.5-15.6,15-25.4,13.7c-6-0.8-9.6-6.9-12.1-12.4c-3-6.6-5.6-13.4-7.8-20.2c-0.6-1.8-1.1-3.7-0.7-5.5c1-4.8,7.3-5.8,12-7.5
			c7.9-2.8,13.8-10.5,14.4-18.9c0.5-6.9-2-15,2.6-20.2c2.1-2.3,5.2-3.4,8.3-4c13.3-2.7,27.9,2.6,36.5,13.2c3,3.7,5.2,7.8,7.4,12
			c4.8,8.9,9.6,17.8,13.4,27.2"/>
	</g>
	<g class="st0">
		<path class="st1" d="M842.6,306.5c-1.4,7.1-3.8,14.2-8.5,19.8s-12,9.2-19.2,8c-7.3-1.3-13.7-7.3-21-6.2
			c-9.8,1.5-15.6,15-25.4,13.7c-6-0.8-9.6-6.9-12.1-12.4c-3-6.6-5.6-13.4-7.8-20.2c-0.6-1.8-1.1-3.7-0.7-5.5c1-4.8,7.3-5.8,12-7.5
			c7.9-2.8,13.8-10.5,14.4-18.9c0.5-6.9-2-15,2.6-20.2c2.1-2.3,5.2-3.4,8.3-4c13.3-2.7,27.9,2.6,36.5,13.2c3,3.7,5.2,7.8,7.4,12
			c4.8,8.9,9.6,17.8,13.4,27.2"/>
	</g>
	<g class="st0">
		<path class="st1" d="M803.5,24.4c5.8,1.1,11.5,3.1,16,6.9c4.5,3.8,7.4,9.8,6.5,15.6c-1,5.9-5.9,11.1-5,17
			c1.2,7.9,12.2,12.7,11.1,20.6c-0.6,4.9-5.6,7.8-10.1,9.8c-5.3,2.4-10.8,4.5-16.4,6.3c-1.4,0.5-3,0.9-4.4,0.6
			c-3.9-0.8-4.7-5.9-6.1-9.7c-2.2-6.4-8.5-11.2-15.3-11.7c-5.6-0.4-12.2,1.7-16.4-2.1c-1.9-1.7-2.8-4.3-3.3-6.7
			c-2.1-10.8,2.1-22.7,10.7-29.6c3-2.4,6.3-4.2,9.7-6c7.2-3.9,14.5-7.7,22.1-10.9"/>
	</g>
	<g class="st0">
		<path class="st1" d="M433.9-209.7c6.6,1.3,13.2,3.5,18.3,7.9c5.1,4.4,8.4,11.4,7.2,18.3c-1.2,7-6.9,13.2-6,20.2
			c1.3,9.3,13.8,14.8,12.5,24.1c-0.8,5.8-6.5,9.3-11.7,11.7c-6.2,2.9-12.5,5.5-19,7.7c-1.7,0.6-3.4,1.1-5.1,0.8
			c-4.5-1-5.4-6.9-6.8-11.4c-2.5-7.5-9.7-13.1-17.5-13.6c-6.5-0.4-14,2.1-18.8-2.3c-2.2-2-3.1-5-3.7-7.9c-2.3-12.7,2.8-26.8,12.7-35
			c3.4-2.9,7.4-5,11.2-7.2c8.4-4.7,16.7-9.3,25.5-13.1"/>
	</g>
	<g class="st0">
		<path class="st1" d="M749.4-162c-0.8-6.7-0.7-13.7,2-19.9c2.7-6.2,8.4-11.5,15.3-12.3c7-0.9,14.7,2.7,21-0.3
			c8.5-4,10-17.6,19.3-19.2c5.7-1,10.8,3.5,14.7,7.7c4.6,5,8.9,10.3,13,15.8c1,1.4,2.1,2.9,2.3,4.7c0.4,4.6-5,7.2-8.8,9.9
			c-6.5,4.6-9.6,13.1-7.8,20.7c1.5,6.3,6.2,12.8,3.4,18.6c-1.3,2.6-3.8,4.5-6.5,5.9c-11.4,6-26.4,5.4-37.2-1.7
			c-3.8-2.4-7-5.5-10.2-8.6c-6.9-6.6-13.9-13.2-20.1-20.4"/>
	</g>
	<g>
		<g>
			<path d="M104.9-183.2l-25-25c-0.7-0.7-1.8-0.7-2.5,0l-16.9,16.9l-16.9-16.9c-0.3-0.3-0.8-0.5-1.2-0.5c-0.5,0-0.9,0.2-1.2,0.5
				l-24.6,24.6c-0.7,0.7-0.7,1.8,0,2.5l10.5,10.5c-0.4,1.3-0.7,2.4-1,3.3c-1.3,3.9-1.6,5.5,0.9,10.3l-1.4,1.4v0
				c-2.6,2.6-2.6,6.9,0,9.5c1.3,1.3,2.9,2,4.7,2c0.7,0,1.5-0.1,2.1-0.3c0.2,1.3,0.8,2.6,1.9,3.7c1.3,1.3,2.9,2,4.7,2
				c0.8,0,1.6-0.1,2.4-0.4c0.2,1.3,0.9,2.5,1.9,3.5c1.3,1.3,2.9,2,4.7,2c1,0,2-0.2,2.9-0.7c0.3,1.2,0.9,2.4,1.8,3.3
				c1.3,1.3,3,2,4.7,2c1.7,0,3.4-0.7,4.7-2l2-2l5.3,5.3c1.3,1.3,2.9,2,4.7,2h0c1.8,0,3.5-0.7,4.7-2c2.1-2.1,2.5-5.2,1.3-7.7
				c1.2-0.3,2.4-0.9,3.3-1.8c1.3-1.3,2-2.9,2-4.7c0-1-0.2-2-0.7-2.9c1.2-0.3,2.3-0.9,3.3-1.8c1.3-1.3,2-2.9,2-4.7c0-1-0.2-2-0.7-2.9
				c1.2-0.3,2.3-0.9,3.3-1.8c2.6-2.6,2.6-6.9,0-9.5l-1.5-1.5l13.4-13.4C105.5-181.4,105.5-182.5,104.9-183.2L104.9-183.2z
				 M30.5-147.7c-0.9,0-1.7-0.3-2.3-0.9c-1.3-1.3-1.3-3.3,0-4.6v0l9.4-9.4c0.6-0.6,1.4-0.9,2.3-0.9s1.7,0.3,2.3,0.9
				c0.6,0.6,0.9,1.4,0.9,2.3c0,0.9-0.3,1.7-0.9,2.3l-7.7,7.7l-1.7,1.7C32.1-148,31.3-147.7,30.5-147.7L30.5-147.7z M41.5-143.4
				c-0.6,0.6-1.4,0.9-2.3,0.9c-0.9,0-1.7-0.3-2.3-0.9c-1.3-1.3-1.3-3.3,0-4.6c0,0,0,0,0,0l7.7-7.7c1.3-1.3,3.3-1.3,4.6,0
				c1.3,1.3,1.3,3.3,0,4.6l-5.7,5.7L41.5-143.4z M50.5-138.3c-0.6,0.6-1.4,0.9-2.3,0.9c-0.9,0-1.7-0.3-2.3-0.9
				c-1.3-1.3-1.3-3.3,0-4.6c0,0,0,0,0,0l5.7-5.7c1.3-1.3,3.3-1.3,4.6,0c0.6,0.6,0.9,1.4,0.9,2.3c0,0.9-0.3,1.7-0.9,2.3l-3.3,3.3
				L50.5-138.3z M59.9-133.8c-0.6,0.6-1.4,0.9-2.3,0.9c-0.9,0-1.7-0.3-2.3-0.9c-1.3-1.3-1.3-3.3,0-4.6l3.3-3.3
				c1.3-1.3,3.3-1.3,4.6,0c1.3,1.3,1.3,3.3,0,4.6L59.9-133.8z M90.5-158.9c-1.3,1.3-3.3,1.3-4.6,0l-2.5-2.5c-0.7-0.7-1.8-0.7-2.5,0
				c-0.7,0.7-0.7,1.8,0,2.5l2.5,2.5l2.5,2.5c1.3,1.3,1.3,3.3,0,4.6c-1.3,1.3-3.3,1.3-4.6,0l-2.5-2.5c-0.7-0.7-1.8-0.7-2.5,0
				c-0.7,0.7-0.7,1.8,0,2.5l2.5,2.5l2.5,2.5c1.3,1.3,1.3,3.3,0,4.6c-1.3,1.3-3.3,1.3-4.6,0l-2.5-2.5c-0.7-0.7-1.8-0.7-2.5,0
				c-0.7,0.7-0.7,1.8,0,2.5l2.5,2.5l2.5,2.5c0.6,0.6,0.9,1.4,0.9,2.3s-0.3,1.7-0.9,2.3c-0.6,0.6-1.4,0.9-2.3,0.9
				c-0.9,0-1.7-0.3-2.3-0.9l-5.5-5.5c1.5-2.6,1.1-5.9-1.1-8.1c-1.4-1.4-3.2-2-5.1-2c0-0.1,0-0.2,0-0.3c0-1.8-0.7-3.5-2-4.7
				c-1.4-1.4-3.2-2-5.1-2c0-0.1,0-0.2,0-0.3c0-1.8-0.7-3.5-2-4.7c-1.4-1.4-3.2-2-5.1-2c0-0.1,0-0.2,0-0.3c0-1.8-0.7-3.5-2-4.7
				c-2.6-2.6-6.9-2.6-9.5,0l-5.5,5.5c-1.5-2.9-1.2-3.8-0.2-6.6c0.4-1.1,0.9-2.6,1.4-4.5c0.2-0.6,0-1.2-0.5-1.7l-10-10l22.1-22.1
				l18,18c0.7,0.7,1.8,0.7,2.5,0c0.6-0.6,1.4-0.9,2.3-0.9s1.7,0.3,2.3,0.9l23,23C91.7-162.2,91.7-160.2,90.5-158.9L90.5-158.9z
				 M89-169.8L69.9-189c-1.3-1.3-3.1-2-4.8-2l13.6-13.6l22.5,22.5L89-169.8z"/>
			<path d="M73.3-157.4c-0.7-0.7-1.8-0.7-2.5,0c-0.7,0.7-0.7,1.8,0,2.5c0.3,0.3,0.8,0.5,1.2,0.5c0.4,0,0.9-0.2,1.2-0.5
				C74-155.7,74-156.8,73.3-157.4L73.3-157.4z"/>
		</g>
	</g>
	<g>
		<g>
			<path d="M460.8-163.3h-1.1v-10.3c0-1.6-0.8-3.1-2-3.9v-1.4c0-2-1.7-3.7-3.7-3.7h-0.9l3.3-4.8c1.1-1.6,0.7-3.8-0.9-4.9l-22.2-15.1
				c-0.8-0.5-1.7-0.7-2.6-0.6c-0.9,0.2-1.7,0.7-2.3,1.5l-19.1,28.1h-5.3l1.3-13c0-0.1,0.1-0.3,0.2-0.3c1.7-0.6,3.1-1.8,4-3.3
				c0.1-0.1,0.2-0.2,0.4-0.2l8.3,0.8c0.6,0.1,1.1-0.4,1.2-1c0.1-0.6-0.4-1.1-1-1.2l-8.3-0.8c-1-0.1-1.9,0.4-2.4,1.2
				c-0.7,1.1-1.8,2-3,2.4c-0.9,0.3-1.5,1.2-1.6,2.1l-1.3,13.2h-1.4l2-20.6c0.1-0.7,0.7-1.3,1.5-1.2l16.9,1.7c0.6,0.1,1.1-0.4,1.2-1
				c0.1-0.6-0.4-1.1-1-1.2l-16.9-1.7c-1.9-0.2-3.7,1.2-3.9,3.2l-1.6,16.6h-2.8c-2,0-3.7,1.7-3.7,3.7v1c-1.7,0.8-2.8,2.4-2.8,4.4
				v37.1c0,2.7,2.2,4.8,4.8,4.8h60.7c2.7,0,4.8-2.2,4.8-4.8v-10.3h1.1c1.3,0,2.4-1.1,2.4-2.4v-11.6
				C463.3-162.2,462.2-163.3,460.8-163.3z M453.9-180.5L453.9-180.5c0.8,0,1.5,0.7,1.5,1.5v0.6c-0.2,0-0.4,0-0.6,0h-4.6l1.4-2H453.9
				z M430.2-205.3c0.2-0.3,0.5-0.5,0.9-0.6c0.1,0,0.2,0,0.3,0c0.3,0,0.5,0.1,0.8,0.2l22.2,15.1c0.6,0.4,0.8,1.3,0.4,1.9l-7,10.2
				h-1.7l3.4-5c0.6-0.8,0.6-1.8,0.1-2.7c-0.6-1.1-0.9-2.5-0.7-3.8c0.1-1-0.3-1.9-1.1-2.4l-11.5-7.8c-0.8-0.5-1.8-0.6-2.7-0.1
				c-1.1,0.6-2.5,0.9-3.8,0.7c-1-0.1-1.9,0.3-2.5,1.1l-13.7,20.1h-1.7L430.2-205.3z M430.6-186.8c-4.7,0-8.6,3.7-8.9,8.4h-5.5
				l12.8-18.8c0,0,0,0,0,0c0.1-0.1,0.2-0.2,0.3-0.2c0,0,0,0,0,0c1.8,0.2,3.6-0.1,5.1-0.9c0.1-0.1,0.3-0.1,0.4,0l11.5,7.8
				c0.1,0.1,0.2,0.2,0.2,0.4c-0.2,1.8,0.1,3.6,1,5.1c0.1,0.1,0.1,0.3,0,0.4l-4.2,6.2h-3.7C439.3-183.1,435.4-186.8,430.6-186.8z
				 M437.4-178.5h-13.5c0.3-3.5,3.2-6.2,6.8-6.2C434.2-184.6,437.1-181.9,437.4-178.5z M394.3-179c0-0.8,0.7-1.5,1.5-1.5h2.6l-0.2,2
				h-3.9V-179z M391.5-173.6c0-1.5,1.2-2.7,2.7-2.7h60.7c1.5,0,2.7,1.2,2.7,2.7v3h-66V-173.6z M457.5-136.5c0,1.5-1.2,2.7-2.7,2.7
				h-60.7c-1.5,0-2.7-1.2-2.7-2.7v-3h5.9c0.6,0,1.1-0.5,1.1-1.1c0-0.6-0.5-1.1-1.1-1.1h-5.9v-26.7h66v5.1h-10.3h0
				c-3.3,0-6.1,1.9-7.4,4.7c0,0,0,0,0,0c0,0,0,0,0,0.1c-0.2,0.3-0.3,0.7-0.4,1.1c0,0,0,0,0,0c-0.2,0.8-0.4,1.6-0.4,2.4
				c0,4.6,3.7,8.3,8.3,8.3h0h10.3v5.1h-53.2c-0.6,0-1.1,0.5-1.1,1.1s0.5,1.1,1.1,1.1h53.2V-136.5z M461.1-149.3
				c0,0.1-0.1,0.3-0.3,0.3h-13.7c-2.3,0-4.3-1.3-5.3-3.2c0-0.1-0.1-0.2-0.1-0.3c-0.1-0.2-0.2-0.4-0.2-0.5c-0.2-0.7-0.4-1.4-0.4-2.1
				c0-0.7,0.1-1.4,0.4-2.1c0.1-0.2,0.1-0.4,0.2-0.5c0-0.1,0.1-0.2,0.1-0.3c1-1.9,3-3.2,5.3-3.2h13.7c0.1,0,0.3,0.1,0.3,0.3V-149.3
				L461.1-149.3z"/>
		</g>
	</g>
	<g>
		<g>
			<path d="M447.4-159.5c-2.4,0-4.4,2-4.4,4.4c0,2.4,2,4.4,4.4,4.4s4.4-2,4.4-4.4C451.8-157.5,449.8-159.5,447.4-159.5z
				 M447.4-152.8c-1.2,0-2.2-1-2.2-2.2s1-2.2,2.2-2.2c1.2,0,2.2,1,2.2,2.2S448.6-152.8,447.4-152.8z"/>
		</g>
	</g>
	<g>
		<g>
			<path d="M813.1-182.7c-0.4-0.5-1.2-0.6-1.8-0.2l-12.5,9.9l-16.1-6.7c-0.4-0.2-0.8-0.1-1.2,0.2l-17.3,12.3
				c-0.5,0.4-0.7,1.2-0.3,1.7c0.2,0.4,0.6,0.5,1,0.5c0.2,0,0.5-0.1,0.7-0.2l16.7-11.9l16.2,6.7c0.4,0.2,0.9,0.1,1.2-0.2l13-10.3
				C813.4-181.3,813.5-182.2,813.1-182.7z"/>
		</g>
	</g>
	<g>
		<g>
			<path d="M831.1-140.5h-5.7v-35.7c0-0.7-0.5-1.2-1.2-1.2h-11.3c-0.7,0-1.2,0.5-1.2,1.2v35.7h-4.2v-23.3c0-0.7-0.5-1.2-1.2-1.2
				h-11.4c-0.7,0-1.2,0.5-1.2,1.2v23.3h-4.2v-25.2c0-0.7-0.5-1.2-1.2-1.2h-11.3c-0.7,0-1.2,0.5-1.2,1.2v25.2h-4.2v-17.9
				c0-0.7-0.5-1.2-1.2-1.2h-11.4c-0.7,0-1.2,0.5-1.2,1.2v17.9h-5.8c-0.7,0-1.2,0.5-1.2,1.2c0,0.7,0.5,1.2,1.2,1.2h6.9h11.3h6.8h11.3
				h6.6h11.3h6.6h11.3h6.9c0.7,0,1.2-0.5,1.2-1.2C832.4-140,831.8-140.5,831.1-140.5z M769-140.5h-8.9v-16.7h8.9V-140.5z M787-140.5
				h-8.9v-24h8.9V-140.5z M805-140.5h-8.9v-22.1h8.9V-140.5z M823-140.5h-8.9v-34.4h8.9V-140.5z"/>
		</g>
	</g>
	<g>
		<g>
			<path d="M23.9,35.6H20V85h40.7l47.6-7V43.6l-1.3-0.2l-1.8-0.3c-1.4-0.2-2.3-0.4-2.3-0.4s-0.4,0-2.4-0.5l-39.8-6.7H59 M51.2,35.6
				H31.7 M56.4,35.6h-2.6 M29.1,35.6h-2.6 M31.7,82.4h-9.1V38.2h9.1v2.6h-6.5v38.9h6.5V82.4z M47.3,77.2h-2.6v-9.1h-2.6v11.7h5.2
				v2.6h-13v-2.6h5.2V68.1h-2.6v9.1h-2.6v-2.6h-2.6v2.6h-3.9V43.4h3.9V46h2.6v-2.6h2.6v10.4h2.6v-13h-5.2v-2.6h13v2.6h-5.2v13h2.6
				V43.4h2.6V46h2.6v-2.6h3.9v33.8h-3.9v-2.6h-2.6L47.3,77.2L47.3,77.2z M105.7,75.7l-44.1,6.5v-6.3H59v6.5h-9.1v-2.6h6.5V40.8h-6.5
				v-2.6H59v29.9h2.6V38.4l44.1,7.4L105.7,75.7L105.7,75.7z"/>
		</g>
	</g>
	<g>
		<g>
			<rect x="59" y="70.7" width="2.6" height="2.6"/>
		</g>
	</g>
	<g>
		<g>
			<rect x="31.7" y="48.6" width="2.6" height="2.6"/>
		</g>
	</g>
	<g>
		<g>
			<path d="M49.9,56.4v-2.6h-2.6v2.6h-13v-2.6h-2.6v2.6h-1.3v7.8h1.3v2.6h2.6v-2.6h13v2.6h2.6v-2.6h1.3v-7.8H49.9z M48.6,61.6H33V59
				h15.6V61.6z"/>
		</g>
	</g>
	<g>
		<g>
			<rect x="31.7" y="69.4" width="2.6" height="2.6"/>
		</g>
	</g>
	<g>
		<g>
			<rect x="47.3" y="48.6" width="2.6" height="2.6"/>
		</g>
	</g>
	<g>
		<g>
			<rect x="47.3" y="69.4" width="2.6" height="2.6"/>
		</g>
	</g>
	<g>
		<g>
			<rect x="66.8" y="43.4" width="2.6" height="33.8"/>
		</g>
	</g>
	<g>
		<g>
			<rect x="73.2" y="44.7" width="2.6" height="31.2"/>
		</g>
	</g>
	<g>
		<g>
			<rect x="79.7" y="46" width="2.6" height="28.6"/>
		</g>
	</g>
	<g>
		<g>
			<rect x="86.2" y="47.3" width="2.6" height="26"/>
		</g>
	</g>
	<g>
		<g>
			<rect x="92.7" y="48.6" width="2.6" height="23.4"/>
		</g>
	</g>
	<g>
		<g>
			<rect x="99.2" y="49.9" width="2.6" height="20.8"/>
		</g>
	</g>
	<path d="M471,60.4h-9.7c-0.9,0-1.6,0.7-1.6,1.6v1.4h-10.2c-0.2,0-0.4,0-0.6,0.1L435.7,69c-1.5,0.6-2.7,1.8-3.3,3.3
		c-0.6,1.5-0.6,3.2,0,4.7l0,0.1c0.4,0.9,0.9,1.7,1.6,2.3c-2,0.5-4.1,0.6-6.1,0.1l-12.9-2.9c-1.6-0.4-3.2-0.1-4.5,0.8
		c-1.4,0.9-2.3,2.2-2.6,3.8c-0.7,3.1,1.3,6.2,4.4,7l15.3,3.9c1.3,0.3,2.6,0.5,3.9,0.5c2,0,3.9-0.4,5.8-1.1l19.5-7.6h2.8v0.9
		c0,0.9,0.7,1.6,1.6,1.6h9.7c0.9,0,1.6-0.7,1.6-1.6V62.1C472.7,61.1,471.9,60.4,471,60.4z M456.6,80.5c-0.2,0-0.4,0-0.6,0.1
		l-19.8,7.8c-2.5,1-5.1,1.1-7.7,0.5l-15.3-3.9c-1.4-0.4-2.3-1.7-2-3.1c0.1-0.7,0.6-1.3,1.2-1.7c0.4-0.3,0.9-0.4,1.4-0.4
		c0.2,0,0.4,0,0.6,0.1l12.9,2.9c3.1,0.7,6.3,0.5,9.3-0.7l3.7-1.4c0.1,0,0.2-0.1,0.2-0.1c3.3-1.3,7.5-2.9,8.4-3.2l0.2-0.1
		c0.8-0.3,1.3-1.3,0.9-2.1c-0.3-0.8-1.3-1.3-2.1-0.9c0,0-0.1,0-0.2,0.1l-8.6,3.3c-1.5,0.5-3-0.2-3.6-1.7l0-0.1
		c-0.3-0.7-0.3-1.5,0-2.2c0.3-0.7,0.8-1.2,1.5-1.5l12.8-5.3h9.9v13.8H456.6z M469.4,83h-6.4V63.7h6.4V83z"/>
	<path d="M404.6,59.7h-3V44.4h0.5c1.2,0,2.4-0.3,3.5-0.8c0.1,0,0.1-0.1,0.1-0.1l10.6-6.9c1.5-0.7,3.3-0.6,4.6,0.4l0.8,0.6
		c0,0.1-0.1,0.1-0.1,0.2c-0.2,0.3-0.4,0.6-0.6,0.9c-1.1,1.9-1.9,4-2.1,6.2c-1.1,0.1-2.2,0.6-3,1.4c-0.9,0.9-1.4,2.2-1.4,3.5
		c0,2.7,2.2,4.9,4.9,4.9h12.1c0.7,0,1.3,0.3,1.8,0.7c0.5,0.5,0.7,1.1,0.7,1.8c0,1-0.6,1.9-1.5,2.3c-0.1,0-0.2,0.1-0.3,0.1
		c0,0,0,0,0,0c-0.2,0.1-0.5,0.1-0.7,0.1h-13.8c-0.9,0-1.6,0.7-1.6,1.6s0.7,1.6,1.6,1.6h13.8c0.4,0,0.8,0,1.2-0.1
		c0.7,0.1,1.4,0.1,2.1,0.1c8.9,0,16.1-7.2,16.1-16.1c0-8.9-7.2-16.1-16.1-16.1c-4.1,0-8,1.6-11,4.3l-1-0.7c-2.3-1.7-5.5-2-8.1-0.7
		c-0.1,0-0.1,0.1-0.1,0.1L404,40.7c-0.6,0.3-1.3,0.4-1.9,0.4h-0.5v-0.6c0-0.9-0.7-1.6-1.6-1.6h-9.7c-0.9,0-1.6,0.7-1.6,1.6v22.6
		c0,0.9,0.7,1.6,1.6,1.6h9.7c0.9,0,1.6-0.7,1.6-1.6V63h3c0.9,0,1.6-0.7,1.6-1.6S405.5,59.7,404.6,59.7z M417.7,49.7
		c0-0.4,0.2-0.9,0.5-1.2c0.2-0.2,0.4-0.3,0.6-0.4c0.1,1.1,0.3,2.2,0.6,3.2C418.5,51.4,417.7,50.7,417.7,49.7z M447.7,46.9
		c0,6.4-4.7,11.8-10.9,12.7c0.3-0.7,0.5-1.6,0.5-2.4c0-1-0.3-2-0.7-2.8c0.7-0.1,1.4-0.4,1.9-1c0.7-0.6,1-1.5,1-2.4v-2.4
		c0-1.9-1.5-3.4-3.4-3.4h-2.4c-0.1,0-0.2-0.1-0.2-0.2v-2.3c0-0.1,0.1-0.2,0.2-0.2h1.2h0h0h1.2c0.1,0,0.2,0.1,0.2,0.2
		c0,0.9,0.7,1.6,1.6,1.6c0.9,0,1.6-0.7,1.6-1.6c0-1.7-1.3-3.2-3-3.4v-0.6c0-0.9-0.7-1.6-1.6-1.6s-1.6,0.7-1.6,1.6v0.6
		c-1.7,0.2-3,1.7-3,3.4V45c0,1.9,1.5,3.4,3.4,3.4h2.4c0.1,0,0.2,0.1,0.2,0.2V51c0,0,0,0.1,0,0.1c0,0-0.1,0-0.1,0h-2.4
		c-0.1,0-0.2-0.1-0.2-0.2v-0.2c0-0.9-0.7-1.6-1.6-1.6s-1.6,0.7-1.6,1.6V51c0,0.1,0,0.3,0,0.4h-7.4c-0.6-1.4-0.8-3-0.8-4.6
		c0-2.4,0.7-4.8,2-6.8c0.4-0.6,0.8-1.1,1.2-1.7c2.4-2.8,6-4.4,9.6-4.4C442,34,447.7,39.8,447.7,46.9z M398.4,61.4h-6.4V42.2h6.4
		V61.4z"/>
	<path d="M412.5,60.5c-0.4-0.6-1.1-0.9-1.8-0.7c-0.7,0.2-1.1,0.8-1.2,1.4c-0.1,0.7,0.3,1.3,1,1.6c0.6,0.3,1.4,0.1,1.8-0.3
		C412.8,62,412.9,61.1,412.5,60.5z"/>
	<g>
		<g>
			<path d="M798.3,31.1c-17.5,0-31.7,14.2-31.7,31.7s14.2,31.7,31.7,31.7c17.5,0,31.7-14.2,31.7-31.7
				C830,45.2,815.8,31.1,798.3,31.1z M798.3,92.2c-16.3,0-29.5-13.2-29.5-29.5s13.2-29.5,29.5-29.5c16.3,0,29.5,13.2,29.5,29.5
				C827.8,79,814.6,92.2,798.3,92.2z"/>
		</g>
	</g>
	<g>
		<g>
			<path d="M798.3,36.3c-14.6,0-26.4,11.8-26.4,26.4s11.8,26.4,26.4,26.4c14.6,0,26.4-11.8,26.4-26.4
				C824.7,48.1,812.9,36.3,798.3,36.3z M798.3,87c-13.4,0-24.3-10.9-24.3-24.3s10.9-24.3,24.3-24.3c13.4,0,24.3,10.9,24.3,24.3
				C822.6,76.1,811.7,87,798.3,87z"/>
		</g>
	</g>
	<g>
		<g>
			<rect x="797.3" y="41.6" width="2.1" height="2.1"/>
		</g>
	</g>
	<g>
		<g>
			<rect x="797.3" y="81.7" width="2.1" height="2.1"/>
		</g>
	</g>
	<g>
		<g>
			<rect x="787.2" y="44.3" transform="matrix(0.866 -0.5001 0.5001 0.866 82.9919 400.3286)" width="2.1" height="2.1"/>
		</g>
	</g>
	<g>
		<g>
			<rect x="807.3" y="79" transform="matrix(0.866 -0.5001 0.5001 0.866 68.3173 415.0048)" width="2.1" height="2.1"/>
		</g>
	</g>
	<g>
		<g>
			<rect x="779.9" y="51.6" transform="matrix(0.5 -0.866 0.866 0.5 344.8476 702.6671)" width="2.1" height="2.1"/>
		</g>
	</g>
	<g>
		<g>
			<rect x="814.6" y="71.7" transform="matrix(0.5 -0.866 0.866 0.5 344.8426 742.7562)" width="2.1" height="2.1"/>
		</g>
	</g>
	<g>
		<g>
			<rect x="777.2" y="61.7" width="2.1" height="2.1"/>
		</g>
	</g>
	<g>
		<g>
			<rect x="817.3" y="61.7" width="2.1" height="2.1"/>
		</g>
	</g>
	<g>
		<g>
			<rect x="779.9" y="71.7" transform="matrix(0.8661 -0.4999 0.4999 0.8661 68.2237 400.136)" width="2.1" height="2.1"/>
		</g>
	</g>
	<g>
		<g>
			<rect x="814.6" y="51.6" transform="matrix(0.866 -0.5 0.5 0.866 82.9433 414.9055)" width="2.1" height="2.1"/>
		</g>
	</g>
	<g>
		<g>
			<rect x="787.2" y="79" transform="matrix(0.5001 -0.866 0.866 0.5001 324.7132 722.642)" width="2.1" height="2.1"/>
		</g>
	</g>
	<g>
		<g>
			<rect x="807.3" y="44.3" transform="matrix(0.5001 -0.866 0.866 0.5001 364.7975 722.652)" width="2.1" height="2.1"/>
		</g>
	</g>
	<g>
		<g>
			<path d="M797.3,45.8v16.3l-10,6l1.1,1.8l10.6-6.3c0.3-0.2,0.5-0.5,0.5-0.9V45.8H797.3z"/>
		</g>
	</g>
	<g>
		<g>
			<g>
				<path d="M46.1,329c-1,0-1.7,0.8-1.7,1.7s0.8,1.7,1.7,1.7h0c1,0,1.7-0.8,1.7-1.7S47.1,329,46.1,329z"/>
				<path d="M112.8,300.5c0.2-0.9-0.3-1.8-1.1-2.1c-4.1-1.4-9.1-4.5-9.1-11.4v-3.7c0-5.5-0.9-9.6-2.9-12.5
					c-2.3-3.5-6.2-5.2-11.4-5.2c-5.2,0-9,1.8-11.4,5.2c-1.9,2.9-2.9,7-2.9,12.5v3.7c0,6.9-4.9,10-9.1,11.4c-0.9,0.3-1.4,1.2-1.1,2.1
					c0.9,3.6,2.3,5.7,4.8,6.9c-0.5,0.5-1,1.1-1.4,1.7c-2.6-3.9-7.5-5.2-11.7-6.4c-0.8-0.2-1.5-0.4-2.3-0.6V301
					c4.7-2.5,7.9-7.5,7.9-13.2v-6.9c0-8.3-6.7-15-15-15c-8.3,0-15,6.7-15,15v6.9c0,5.7,3.2,10.6,7.9,13.2v1.2
					c-0.7,0.2-1.5,0.4-2.2,0.6c-5.9,1.6-13.3,3.6-13.4,12.6c0,0,0,0,0,0v15.3c0,1,0.8,1.7,1.7,1.7h13.2c1,0,1.7-0.8,1.7-1.7
					s-0.8-1.7-1.7-1.7h-2.1v-7.1c0-1-0.8-1.7-1.7-1.7c-1,0-1.7,0.8-1.7,1.7v7.1h-5.9v-13.5c0.1-6,4.2-7.5,10.9-9.3
					c0.6-0.2,1.1-0.3,1.7-0.5c0.9,2.8,3.6,4.9,6.8,4.9c3.2,0,5.8-2.1,6.8-4.9c0.6,0.2,1.1,0.3,1.7,0.5c6.7,1.8,10.8,3.3,10.9,9.3
					V329h-5.9v-7.1c0-1-0.8-1.7-1.7-1.7c-1,0-1.7,0.8-1.7,1.7v7.1H54c-1,0-1.7,0.8-1.7,1.7s0.8,1.7,1.7,1.7h26.5
					c1,0,1.7-0.8,1.7-1.7s-0.8-1.7-1.7-1.7h-2.1v-7.1c0-1-0.8-1.7-1.7-1.7s-1.7,0.8-1.7,1.7v7.1H69v-13.5c0.1-6,4.2-7.5,10.9-9.3
					c0.6-0.2,1.1-0.3,1.7-0.5c0.9,2.8,3.6,4.9,6.8,4.9c3.2,0,5.8-2.1,6.8-4.9c0.6,0.2,1.1,0.3,1.7,0.5c6.7,1.8,10.8,3.3,10.9,9.3
					V329h-5.9v-7.1c0-1-0.8-1.7-1.7-1.7c-1,0-1.7,0.8-1.7,1.7v7.1h-2.1c-1,0-1.7,0.8-1.7,1.7s0.8,1.7,1.7,1.7h13.2
					c1,0,1.7-0.8,1.7-1.7v-15.3c0,0,0,0,0,0c-0.1-3.7-1.3-6.2-3.2-8C110.5,306.3,111.9,304.2,112.8,300.5L112.8,300.5z M34.6,280.9
					c0-6.3,5.2-11.5,11.5-11.5c6.3,0,11.5,5.2,11.5,11.5v1.8c-4.6,0.2-10.4-0.4-14.7-3.3c-0.8-0.5-1.8-0.4-2.4,0.4
					c-1.5,1.9-3.3,2.4-5.9,2.7V280.9z M49.8,303.5c0,2-1.6,3.6-3.6,3.6c-2,0-3.6-1.6-3.6-3.6v-1.1c1.2,0.3,2.4,0.5,3.6,0.5
					c1.3,0,2.5-0.2,3.6-0.4V303.5z M46.1,299.3c-6.3,0-11.5-5.2-11.5-11.5V286c2.8-0.3,5.5-0.8,7.7-2.9c4.8,2.7,10.6,3.3,15.3,3.1
					v1.6C57.6,294.2,52.5,299.3,46.1,299.3L46.1,299.3z M79.8,272.9c1.7-2.5,4.4-3.7,8.5-3.7c4,0,6.8,1.2,8.5,3.7
					c1.4,2,2.1,5,2.3,9.1c-3.2,0.6-7.1,0.1-9.2-4.1c-0.6-1.3-2.5-1.3-3.1,0c-2.1,4.2-5.9,4.6-9.2,4.1
					C77.7,277.9,78.4,274.9,79.8,272.9z M81.2,302.2c-0.7,0.2-1.5,0.4-2.2,0.6c-2.1,0.6-4.4,1.2-6.5,2.2c-2.7-0.5-3.9-1.3-4.7-3.8
					c2.8-1.2,6.3-3.3,8.3-7.1c1.3,2.2,3.1,4,5.3,5.3L81.2,302.2L81.2,302.2z M91.9,303.5c0,2-1.6,3.6-3.6,3.6c-2,0-3.6-1.6-3.6-3.6
					v-2.6c1.2,0.3,2.4,0.5,3.6,0.5c1.3,0,2.5-0.2,3.6-0.5V303.5z M88.3,297.8c-5.9,0-10.8-4.8-10.8-10.8v-1.5
					c0.7,0.1,1.5,0.2,2.2,0.2c3.5,0,6.5-1.3,8.6-3.8c2.1,2.5,5.1,3.8,8.6,3.8c0.7,0,1.4-0.1,2.2-0.2v1.5
					C99,293,94.2,297.8,88.3,297.8z M104.2,305c-2.1-1-4.4-1.6-6.5-2.2c-0.8-0.2-1.5-0.4-2.2-0.6v-2.8c2.2-1.3,4-3.1,5.2-5.3
					c2,3.8,5.4,5.9,8.3,7.1C108.1,303.6,106.9,304.5,104.2,305L104.2,305z"/>
				<path d="M88.3,329c-1,0-1.7,0.8-1.7,1.7s0.8,1.7,1.7,1.7h0c1,0,1.7-0.8,1.7-1.7S89.3,329,88.3,329z"/>
			</g>
		</g>
	</g>
	<path d="M438.9,323.6h-2.7v-13.1c0-0.7-0.6-1.3-1.3-1.3c-0.7,0-1.3,0.6-1.3,1.3v13.1h-34.7v-26.7H410c0.7,0,1.3-0.6,1.3-1.3
		s-0.6-1.3-1.3-1.3h-12.4c-0.7,0-1.3,0.6-1.3,1.3v28h-2.7c-0.7,0-1.3,0.6-1.3,1.3v2.7c0,3.7,3,6.7,6.7,6.7h34.7c3.7,0,6.7-3,6.7-6.7
		v-2.7C440.2,324.2,439.6,323.6,438.9,323.6z M437.5,327.6c0,2.2-1.8,4-4,4h-2.7v-1.3c0-0.7-0.6-1.3-1.3-1.3s-1.3,0.6-1.3,1.3v1.3
		h-24v-1.3c0-0.7-0.6-1.3-1.3-1.3s-1.3,0.6-1.3,1.3v1.3h-2.7c-2.2,0-4-1.8-4-4v-1.3h42.7V327.6z"/>
	<path d="M461.5,262.2h2.7c0.7,0,1.3-0.6,1.3-1.3s-0.6-1.3-1.3-1.3h-2.7c-2.2,0-4,1.8-4,4v1.3h-1.3c-0.7,0-1.3,0.6-1.3,1.3
		c0,0.7,0.6,1.3,1.3,1.3h1.3v4c0,0.7,0.6,1.3,1.3,1.3s1.3-0.6,1.3-1.3v-4h1.3c0.7,0,1.3-0.6,1.3-1.3c0-0.7-0.6-1.3-1.3-1.3h-1.3
		v-1.3C460.2,262.8,460.8,262.2,461.5,262.2z"/>
	<path d="M468.2,254.2h-16c-2.2,0-4,1.8-4,4v2.7c0,0.7,0.6,1.3,1.3,1.3s1.3-0.6,1.3-1.3v-2.7c0-0.7,0.6-1.3,1.3-1.3h16
		c0.7,0,1.3,0.6,1.3,1.3v16c0,0.7-0.6,1.3-1.3,1.3h-16c-0.7,0-1.3-0.6-1.3-1.3v-8c0-0.7-0.6-1.3-1.3-1.3s-1.3,0.6-1.3,1.3v8
		c0,2.2,1.8,4,4,4h16c2.2,0,4-1.8,4-4v-16C472.2,256,470.4,254.2,468.2,254.2z"/>
	<path d="M454.9,307.6c0,2.9,2.4,5.3,5.3,5.3s5.3-2.4,5.3-5.3c0-2.9-2.4-5.3-5.3-5.3S454.9,304.6,454.9,307.6z M462.9,307.6
		c0,1.5-1.2,2.7-2.7,2.7s-2.7-1.2-2.7-2.7c0-1.5,1.2-2.7,2.7-2.7S462.9,306.1,462.9,307.6z"/>
	<path d="M468.2,295.6h-16c-2.2,0-4,1.8-4,4v16c0,2.2,1.8,4,4,4h16c2.2,0,4-1.8,4-4v-2.7c0-0.7-0.6-1.3-1.3-1.3
		c-0.7,0-1.3,0.6-1.3,1.3v2.7c0,0.7-0.6,1.3-1.3,1.3h-16c-0.7,0-1.3-0.6-1.3-1.3v-16c0-0.7,0.6-1.3,1.3-1.3h16
		c0.7,0,1.3,0.6,1.3,1.3v8c0,0.7,0.6,1.3,1.3,1.3c0.7,0,1.3-0.6,1.3-1.3v-8C472.2,297.4,470.4,295.6,468.2,295.6z"/>
	<path d="M422.2,270c0.2,0.1,0.5,0.2,0.7,0.2c0.2,0,0.4-0.1,0.6-0.1l8-4c0.7-0.3,0.9-1.1,0.6-1.8c-0.1-0.2-0.3-0.5-0.6-0.6l-8-4
		c-0.7-0.3-1.5-0.1-1.8,0.6c-0.1,0.2-0.1,0.4-0.1,0.6v8C421.5,269.4,421.8,269.8,422.2,270z M424.2,263.1l3.7,1.8l-3.7,1.8V263.1z"
		/>
	<path d="M425.5,276.9c6.6,0,12-5.4,12-12s-5.4-12-12-12s-12,5.4-12,12S418.9,276.9,425.5,276.9z M425.5,255.6
		c5.2,0,9.3,4.2,9.3,9.3c0,5.2-4.2,9.3-9.3,9.3c-5.2,0-9.3-4.2-9.3-9.3C416.2,259.8,420.4,255.6,425.5,255.6z"/>
	<path d="M438.9,282.2c0.4,0,0.8-0.2,1.1-0.5l4-5.3c0.4-0.6,0.3-1.4-0.3-1.9c-0.6-0.4-1.4-0.3-1.9,0.3l-4,5.3
		c-0.4,0.6-0.3,1.4,0.3,1.9C438.3,282.2,438.6,282.2,438.9,282.2z"/>
	<path d="M441.8,287c0.3,0.3,0.6,0.5,1.1,0.5c0.3,0,0.6-0.1,0.8-0.3l5.3-4c0.6-0.4,0.7-1.3,0.3-1.9s-1.3-0.7-1.9-0.3l-5.3,4
		C441.5,285.6,441.4,286.5,441.8,287L441.8,287z"/>
	<path d="M454.9,290c-0.1-0.7-0.8-1.2-1.5-1.1c0,0,0,0-0.1,0l-6.7,1.3c-0.7,0.1-1.3,0.7-1.2,1.5s0.7,1.3,1.5,1.2h0.3l6.7-1.3
		C454.5,291.5,455,290.8,454.9,290C454.9,290,454.9,290,454.9,290z"/>
	<path d="M393.5,290.2h16c0.7,0,1.3-0.6,1.3-1.3v-21.3c0-0.7-0.6-1.3-1.3-1.3h-16c-0.7,0-1.3,0.6-1.3,1.3v21.3
		C392.2,289.6,392.8,290.2,393.5,290.2z M394.9,268.9h13.3v18.7h-13.3V268.9z"/>
	<path d="M404.2,271.6h-2.7c-0.7,0-1.3,0.6-1.3,1.3s0.6,1.3,1.3,1.3h2.7c0.7,0,1.3-0.6,1.3-1.3S404.9,271.6,404.2,271.6z"/>
	<path d="M404.2,276.9h-5.3c-0.7,0-1.3,0.6-1.3,1.3s0.6,1.3,1.3,1.3h5.3c0.7,0,1.3-0.6,1.3-1.3S404.9,276.9,404.2,276.9z"/>
	<path d="M404.2,282.2h-5.3c-0.7,0-1.3,0.6-1.3,1.3c0,0.7,0.6,1.3,1.3,1.3h5.3c0.7,0,1.3-0.6,1.3-1.3
		C405.5,282.8,404.9,282.2,404.2,282.2z"/>
	<path d="M437.7,289.8c-0.4-0.6-1.2-0.9-1.8-0.5c-0.6,0.4-0.9,1.2-0.5,1.8l5.9,10.2l-21.3,8c0,0,0,0-0.1,0h-0.1l-3.5,2l-2.3,1.3
		c-0.6,0.4-1.3,0.5-2,0.3c-0.7-0.2-1.3-0.6-1.6-1.2l-2.7-4.6c-0.7-1.3-0.2-2.8,1-3.5l4.6-2.7l3.3,5.8c0.2,0.4,0.7,0.7,1.2,0.7
		c0.7,0,1.3-0.6,1.3-1.3c0-0.2-0.1-0.5-0.2-0.7l-3.4-5.9l16.7-13.8l0.5,0.9c0.4,0.6,1.2,0.9,1.8,0.5c0.6-0.4,0.9-1.2,0.5-1.8
		l-1.3-2.3c-0.2-0.3-0.5-0.6-0.9-0.6c-0.4-0.1-0.8,0-1.1,0.3L413,297.9l-5.7,3.3c-2.1,1.2-3.1,3.7-2.5,6l-1.3,0.8
		c-1.9,1.1-2.6,3.5-1.5,5.5c0.5,0.9,1.4,1.6,2.4,1.9c0.3,0.1,0.7,0.1,1,0.1c0.7,0,1.4-0.2,2-0.5l1.3-0.8c0.6,0.7,1.4,1.1,2.3,1.4
		c0.5,0.1,0.9,0.2,1.4,0.2c0.9,0,1.9-0.2,2.7-0.7l1.2-0.7l2.7,4.6c1.1,1.9,3.5,2.6,5.5,1.5c1.9-1.1,2.6-3.5,1.5-5.5c0,0,0,0,0,0
		l-2.4-4.2l20-7.5c0.4-0.1,0.7-0.4,0.8-0.8c0.1-0.4,0.1-0.8-0.1-1.1L437.7,289.8z M406.2,312.6c-0.3,0.2-0.7,0.2-1,0.1
		c-0.3-0.1-0.6-0.3-0.8-0.6c-0.2-0.3-0.2-0.7-0.1-1c0.1-0.3,0.3-0.6,0.6-0.8l1.2-0.7l1.3,2.3L406.2,312.6z M423.7,316.4
		c0.2,0.3,0.2,0.7,0.1,1c-0.1,0.3-0.3,0.6-0.6,0.8c-0.6,0.4-1.4,0.2-1.8-0.5l-2.7-4.6l2.2-1.3h0.1L423.7,316.4z"/>
	<g>
		<g>
			<path d="M820.6,327.2l-3-8.9c-1-3.1-3.7-5.4-6.9-6l-8.5-1.6v-0.7c1.5-0.9,2.8-2,3.8-3.4h2.6c2.1,0,3.8-1.7,3.8-3.8v-15.3
				c0-9.2-7.4-16.6-16.6-16.6s-16.6,7.4-16.6,16.6v8.9c0,2.5,1.8,4.5,4.1,5c0.7,3.7,3,6.8,6.1,8.6v0.7l-8.5,1.6
				c-3.2,0.6-5.8,2.9-6.9,6l-0.5,1.5l-4.3-4.3c-0.5-0.5-0.5-1.3,0-1.8l5-5l-9.5-9.5l-5.7,5.7c-1.7,1.7-2.6,3.9-2.6,6.3
				s0.9,4.6,2.6,6.3l17.3,17.3c1.7,1.7,3.9,2.6,6.3,2.6c2.4,0,4.6-0.9,6.3-2.6l6.2-5.7l-1.9-1.9H820.6z M809.9,302.9
				c0,0.7-0.6,1.3-1.3,1.3h-1.1c0.4-0.8,0.7-1.7,0.8-2.7c0.5-0.1,1-0.3,1.5-0.6V302.9z M808.6,298.8v-4.4c0.8,0.4,1.3,1.3,1.3,2.2
				C809.9,297.5,809.3,298.3,808.6,298.8z M783,298.8c-0.8-0.4-1.3-1.3-1.3-2.2c0-0.9,0.5-1.8,1.3-2.2V298.8z M783,290.2v1.5
				c-0.5,0.1-0.9,0.3-1.3,0.5v-4.5c0-7.7,6.3-14,14-14s14,6.3,14,14v4.5c-0.4-0.2-0.8-0.4-1.3-0.5v-1.5h-1.3c-3.8,0-7.3-1.5-10-4.1
				l-1.5-1.5l-1.5,1.5c-2.7,2.7-6.2,4.1-10,4.1H783z M785.6,299.1v-6.4c3.8-0.3,7.4-1.9,10.2-4.5c2.8,2.7,6.4,4.3,10.2,4.5v6.4
				c0,1.9-0.5,3.6-1.4,5.1h-8.8v2.6h6.7c-1.8,1.6-4.2,2.6-6.7,2.6C790.2,309.3,785.6,304.7,785.6,299.1z M799.6,311.3L799.6,311.3
				l-3.8,3.9l-3.8-3.8v-0.1c1.2,0.4,2.5,0.6,3.8,0.6S798.4,311.7,799.6,311.3z M776.4,319.1c0.7-2.2,2.6-3.8,4.9-4.3l8.9-1.6
				l5.5,5.5l5.5-5.5l8.9,1.6c2.3,0.4,4.2,2.1,4.9,4.3l1.8,5.5h-26.4l-5-5l-5.5,5c-0.5,0.5-1.3,0.5-1.8,0l-2.8-2.8L776.4,319.1z
				 M764.7,302.8l5.9,5.9l-1.4,1.4l-5.9-5.9L764.7,302.8z M787.1,333c-1.2,1.2-2.8,1.9-4.5,1.9c-1.7,0-3.3-0.7-4.5-1.9l-17.3-17.3
				c-1.2-1.2-1.9-2.8-1.9-4.5c0-1.7,0.7-3.3,1.9-4.5l0.7-0.7l5.9,5.9l0,0c-1.5,1.5-1.5,3.9,0,5.4l9.2,9.2c0.7,0.7,1.7,1.1,2.7,1.1
				c1,0,2-0.4,2.7-1.1l0.1-0.1l5.9,5.9L787.1,333z M789.7,330.6l-5.9-5.9l1.7-1.5l5.9,5.9L789.7,330.6z"/>
		</g>
	</g>
	<g>
		<g>
			<path d="M831.6,258.2h-17.9c-2.1,0-3.8,1.7-3.8,3.8v10.2c0,2.1,1.7,3.8,3.8,3.8h3.4l-1.3,7.7l12.3-7.7h3.5c2.1,0,3.8-1.7,3.8-3.8
				v-10.2C835.4,260,833.7,258.2,831.6,258.2z M832.8,272.3c0,0.7-0.6,1.3-1.3,1.3h-4.2l-8.1,5.1l0.9-5.1h-6.4
				c-0.7,0-1.3-0.6-1.3-1.3v-10.2c0-0.7,0.6-1.3,1.3-1.3h17.9c0.7,0,1.3,0.6,1.3,1.3V272.3z"/>
		</g>
	</g>
	<g>
		<g>
			<rect x="815" y="263.3" width="15.3" height="2.6"/>
		</g>
	</g>
	<g>
		<g>
			<rect x="815" y="268.5" width="10.2" height="2.6"/>
		</g>
	</g>
	<g>
		<g>
			<rect x="827.7" y="268.5" width="2.6" height="2.6"/>
		</g>
	</g>
	<g>
		<g>
			<path d="M795.8,262.1c-16.7,0-31.1,11.5-34.8,27.6l-2.4-4l-2.2,1.3l4.5,7.5l7.5-4.5l-1.3-2.2l-3.5,2.1
				c3.6-14.7,16.9-25.2,32.2-25.2c3.4,0,6.7,0.5,9.8,1.5l0.8-2.4C803,262.6,799.4,262.1,795.8,262.1z"/>
		</g>
	</g>
	<g>
		<g>
			<path d="M834.8,286.5l-7.5-4.5l-4.5,7.5l2.2,1.3l2.2-3.7c1.2,3.4,1.8,7,1.8,10.7c0,7.6-2.6,15-7.4,20.9l2,1.6
				c5.1-6.3,8-14.3,8-22.5c0-3.9-0.6-7.7-1.9-11.4l3.8,2.3L834.8,286.5z"/>
		</g>
	</g>
</g>
<g>
	<g>
		<path d="M825.2-205.7c-6.6,0-11.7,5.3-11.7,11.8c0,6.6,5.3,11.7,11.7,11.7S837-187.4,837-194C837-200.5,831.8-205.7,825.2-205.7z
			 M825.2-184.7c-5.1,0-9.2-4.1-9.2-9.2s4.2-9.2,9.2-9.2c5.1,0,9.2,4.1,9.2,9.2S830.3-184.7,825.2-184.7z"/>
	</g>
</g>
<g>
	<g>
		<path d="M828.9-192.1c-0.1-0.2-0.1-0.4-0.2-0.6c-0.1-0.2-0.2-0.4-0.3-0.6c-0.2-0.2-0.2-0.3-0.4-0.5c-0.2-0.2-0.3-0.3-0.6-0.4
			c-0.2-0.2-0.4-0.2-0.6-0.3c-0.2-0.1-0.4-0.2-0.6-0.3s-0.5-0.2-0.6-0.2c-0.1,0-0.2-0.1-0.3-0.2s-0.2-0.1-0.3-0.2s-0.2-0.1-0.3-0.2
			c-0.1-0.1-0.2-0.2-0.2-0.2s-0.2-0.2-0.2-0.3c-0.1-0.1-0.1-0.2-0.1-0.3c0-0.2,0-0.2,0-0.4c0-0.1,0.1-0.2,0.1-0.3
			c0.1-0.1,0.1-0.2,0.2-0.3s0.2-0.2,0.2-0.2c0.1-0.1,0.2-0.2,0.4-0.2c0.2-0.1,0.2-0.1,0.4-0.1c0.1,0,0.2,0,0.2,0s0.2,0,0.2,0
			c0.2,0,0.2,0,0.4,0.1c0.2,0,0.3,0.1,0.4,0.1c0.1,0,0.2,0.1,0.3,0.1c0.2,0,0.2,0.1,0.3,0.1l0.4,0.2l0.1-0.5l0.2-1.3v-0.3l-0.3-0.1
			c-0.1,0-0.2-0.1-0.3-0.1c-0.1,0-0.2-0.1-0.3-0.1c-0.1,0-0.2-0.1-0.4-0.1c-0.2,0-0.2-0.1-0.4-0.1h-0.1v-1.1v-0.4h-0.4h-1.1h-0.4
			v0.4v1.2h-0.1c-0.2,0.1-0.5,0.2-0.7,0.3c-0.2,0.1-0.4,0.2-0.6,0.4c-0.2,0.2-0.3,0.3-0.5,0.6c-0.2,0.2-0.2,0.4-0.3,0.6
			c-0.1,0.2-0.2,0.5-0.2,0.7c-0.1,0.2-0.1,0.6-0.1,0.8s0,0.4,0.1,0.6c0.1,0.2,0.1,0.4,0.2,0.6c0.1,0.2,0.2,0.4,0.3,0.6
			c0.2,0.2,0.2,0.3,0.4,0.5c0.2,0.2,0.3,0.3,0.6,0.4c0.2,0.2,0.4,0.2,0.6,0.3c0.2,0.1,0.5,0.2,0.6,0.3c0.2,0.1,0.5,0.2,0.6,0.2
			c0.1,0,0.2,0.1,0.3,0.2c0.1,0.1,0.2,0.1,0.3,0.2c0.1,0.1,0.2,0.2,0.2,0.2c0.1,0.1,0.2,0.2,0.2,0.2c0.1,0.1,0.1,0.2,0.2,0.3
			c0,0.1,0.1,0.2,0.1,0.4c0,0.2,0,0.2,0,0.4c0,0.1-0.1,0.2-0.2,0.3c-0.1,0.1-0.2,0.2-0.2,0.2s-0.2,0.2-0.3,0.2
			c-0.1,0.1-0.2,0.1-0.3,0.2c-0.1,0-0.2,0.1-0.4,0.1c-0.1,0-0.2,0-0.3,0c-0.1,0-0.2,0-0.3,0c-0.2,0-0.3,0-0.4,0
			c-0.2,0-0.3-0.1-0.4-0.1c-0.2,0-0.3-0.1-0.5-0.2c-0.2-0.1-0.3-0.1-0.5-0.2c-0.1,0-0.2-0.1-0.2-0.1s-0.2-0.1-0.2-0.1l-0.5-0.2
			l-0.1,0.6l-0.2,1.5v0.2l0.2,0.1c0.3-0.1,0.5,0,0.7,0.1c0.2,0.1,0.4,0.2,0.6,0.2c0.2,0.1,0.4,0.1,0.6,0.2s0.4,0.1,0.6,0.1h0.2v1.2
			v0.4h0.4h1.1h0.4v-0.4v-1.3h0.1c0.2-0.1,0.5-0.2,0.7-0.3c0.2-0.1,0.4-0.2,0.6-0.4c0.2-0.2,0.3-0.3,0.5-0.6
			c0.2-0.2,0.2-0.4,0.4-0.6c0.1-0.2,0.2-0.5,0.2-0.7s0.1-0.5,0.1-0.8C829-191.7,829-191.9,828.9-192.1z"/>
	</g>
</g>
</svg>
