<?xml version="1.0" encoding="utf-8"?>
<!-- Generator: Adobe Illustrator 24.2.1, SVG Export Plug-In . SVG Version: 6.00 Build 0)  -->
<svg version="1.1" id="Capa_1" xmlns="http://www.w3.org/2000/svg" xmlns:xlink="http://www.w3.org/1999/xlink" x="0px" y="0px"
	 viewBox="0 0 119.3 119.3" style="enable-background:new 0 0 119.3 119.3;" xml:space="preserve">
<style type="text/css">
	.st0{opacity:0.3;}
	.st1{fill:#FFC107;}
</style>
<g>
	<g class="st0">
		<path class="st1" d="M-282.2-128.1c-6,4-12.7,7.4-20,8s-15-2-19.2-7.9c-4.3-6-4.5-14.8-10.5-19.2c-7.9-5.9-21.6-0.4-27.7-8.3
			c-3.7-4.8-1.9-11.7,0.2-17.4c2.6-6.8,5.5-13.4,8.8-19.8c0.8-1.7,1.8-3.4,3.4-4.4c4.2-2.7,9.3,1,13.8,3.2
			c7.6,3.6,17.2,2.4,23.6-3.1c5.3-4.6,9.2-12.1,16.1-12.4c3.1-0.2,6.1,1.3,8.7,3c11.3,7.6,17.9,21.6,16.5,35.1
			c-0.5,4.7-1.9,9.2-3.2,13.7c-2.9,9.7-5.9,19.4-9.8,28.7"/>
	</g>
	<g class="st0">
		<path class="st1" d="M-283.5,97c-6,4-12.7,7.4-20,8s-15-2-19.2-7.9c-4.3-6-4.5-14.8-10.5-19.2c-7.9-5.9-21.6-0.4-27.7-8.3
			c-3.7-4.8-1.9-11.7,0.2-17.4c2.6-6.8,5.5-13.4,8.8-19.8c0.8-1.7,1.8-3.4,3.4-4.4c4.2-2.7,9.3,1,13.8,3.2
			c7.6,3.6,17.2,2.4,23.6-3.1c5.3-4.6,9.2-12.1,16.1-12.4c3.1-0.2,6.1,1.3,8.7,3c11.3,7.6,17.9,21.6,16.5,35.1
			c-0.5,4.7-1.9,9.2-3.2,13.7c-2.9,9.7-5.9,19.4-9.8,28.7"/>
	</g>
	<g class="st0">
		<path class="st1" d="M-274.2,335.1c-6,4-12.7,7.4-20,8c-7.2,0.6-15-2-19.2-7.9c-4.3-6-4.5-14.8-10.5-19.2
			c-7.9-5.9-21.6-0.4-27.7-8.3c-3.7-4.8-1.9-11.7,0.2-17.4c2.6-6.8,5.5-13.4,8.8-19.8c0.8-1.7,1.8-3.4,3.4-4.4
			c4.2-2.7,9.3,1,13.8,3.2c7.6,3.6,17.2,2.4,23.6-3.1c5.3-4.6,9.2-12.1,16.1-12.4c3.1-0.2,6.1,1.3,8.7,3
			c11.3,7.6,17.9,21.6,16.5,35.1c-0.5,4.7-1.9,9.2-3.2,13.7c-2.9,9.7-5.9,19.4-9.8,28.7"/>
	</g>
	<g class="st0">
		<path class="st1" d="M106.5,70.8c-1.4,7.1-3.8,14.2-8.5,19.8c-4.7,5.5-12,9.2-19.2,8c-7.3-1.3-13.7-7.3-21-6.2
			c-9.8,1.5-15.6,15-25.4,13.7c-6-0.8-9.6-6.9-12.1-12.4c-3-6.6-5.6-13.4-7.8-20.2c-0.6-1.8-1.1-3.7-0.7-5.5c1-4.8,7.3-5.8,12-7.5
			c7.9-2.8,13.8-10.5,14.4-18.9c0.5-6.9-2-15,2.6-20.2c2.1-2.3,5.2-3.4,8.3-4c13.3-2.7,27.9,2.6,36.5,13.2c3,3.7,5.2,7.8,7.4,12
			c4.8,8.9,9.6,17.8,13.4,27.2"/>
	</g>
	<g class="st0">
		<path class="st1" d="M106.5,303.5c-1.4,7.1-3.8,14.2-8.5,19.8s-12,9.2-19.2,8c-7.3-1.3-13.7-7.3-21-6.2
			c-9.8,1.5-15.6,15-25.4,13.7c-6-0.8-9.6-6.9-12.1-12.4c-3-6.6-5.6-13.4-7.8-20.2c-0.6-1.8-1.1-3.7-0.7-5.5c1-4.8,7.3-5.8,12-7.5
			c7.9-2.8,13.8-10.5,14.4-18.9c0.5-6.9-2-15,2.6-20.2c2.1-2.3,5.2-3.4,8.3-4c13.3-2.7,27.9,2.6,36.5,13.2c3,3.7,5.2,7.8,7.4,12
			c4.8,8.9,9.6,17.8,13.4,27.2"/>
	</g>
	<g class="st0">
		<path class="st1" d="M469.3,306.5c-1.4,7.1-3.8,14.2-8.5,19.8c-4.7,5.5-12,9.2-19.2,8c-7.3-1.3-13.7-7.3-21-6.2
			c-9.8,1.5-15.6,15-25.4,13.7c-6-0.8-9.6-6.9-12.1-12.4c-3-6.6-5.6-13.4-7.8-20.2c-0.6-1.8-1.1-3.7-0.7-5.5c1-4.8,7.3-5.8,12-7.5
			c7.9-2.8,13.8-10.5,14.4-18.9c0.5-6.9-2-15,2.6-20.2c2.1-2.3,5.2-3.4,8.3-4c13.3-2.7,27.9,2.6,36.5,13.2c3,3.7,5.2,7.8,7.4,12
			c4.8,8.9,9.6,17.8,13.4,27.2"/>
	</g>
	<g class="st0">
		<path class="st1" d="M430.2,24.4c5.8,1.1,11.5,3.1,16,6.9c4.5,3.8,7.4,9.8,6.5,15.6c-1,5.9-5.9,11.1-5,17
			c1.2,7.9,12.2,12.7,11.1,20.6c-0.6,4.9-5.6,7.8-10.1,9.8c-5.3,2.4-10.8,4.5-16.4,6.3c-1.4,0.5-3,0.9-4.4,0.6
			c-3.9-0.8-4.7-5.9-6.1-9.7c-2.2-6.4-8.5-11.2-15.3-11.7c-5.6-0.4-12.2,1.7-16.4-2.1c-1.9-1.7-2.8-4.3-3.3-6.7
			c-2.1-10.8,2.1-22.7,10.7-29.6c3-2.4,6.3-4.2,9.7-6c7.2-3.9,14.5-7.7,22.1-10.9"/>
	</g>
	<g class="st0">
		<path class="st1" d="M60.6-209.7c6.6,1.3,13.2,3.5,18.3,7.9c5.1,4.4,8.4,11.4,7.2,18.3c-1.2,7-6.9,13.2-6,20.2
			c1.3,9.3,13.8,14.8,12.5,24.1c-0.8,5.8-6.5,9.3-11.7,11.7c-6.2,2.9-12.5,5.5-19,7.7c-1.7,0.6-3.4,1.1-5.1,0.8
			c-4.5-1-5.4-6.9-6.8-11.4c-2.5-7.5-9.7-13.1-17.5-13.6c-6.5-0.4-14,2.1-18.8-2.3c-2.2-2-3.1-5-3.7-7.9c-2.3-12.7,2.8-26.8,12.7-35
			c3.4-2.9,7.4-5,11.2-7.2c8.4-4.7,16.7-9.3,25.5-13.1"/>
	</g>
	<g class="st0">
		<path class="st1" d="M376-162c-0.8-6.7-0.7-13.7,2-19.9c2.7-6.2,8.4-11.5,15.3-12.3c7-0.9,14.7,2.7,21-0.3
			c8.5-4,10-17.6,19.3-19.2c5.7-1,10.8,3.5,14.7,7.7c4.6,5,8.9,10.3,13,15.8c1,1.4,2.1,2.9,2.3,4.7c0.4,4.6-5,7.2-8.8,9.9
			c-6.5,4.6-9.6,13.1-7.8,20.7c1.5,6.3,6.2,12.8,3.4,18.6c-1.3,2.6-3.8,4.5-6.5,5.9c-11.4,6-26.4,5.4-37.2-1.7
			c-3.8-2.4-7-5.5-10.2-8.6c-6.9-6.6-13.9-13.2-20.1-20.4"/>
	</g>
	<g>
		<g>
			<path d="M-268.5-183.2l-25-25c-0.7-0.7-1.8-0.7-2.5,0l-16.9,16.9l-16.9-16.9c-0.3-0.3-0.8-0.5-1.2-0.5c-0.5,0-0.9,0.2-1.2,0.5
				l-24.6,24.6c-0.7,0.7-0.7,1.8,0,2.5l10.5,10.5c-0.4,1.3-0.7,2.4-1,3.3c-1.3,3.9-1.6,5.5,0.9,10.3l-1.4,1.4v0
				c-2.6,2.6-2.6,6.9,0,9.5c1.3,1.3,2.9,2,4.7,2c0.7,0,1.5-0.1,2.1-0.3c0.2,1.3,0.8,2.6,1.9,3.7c1.3,1.3,2.9,2,4.7,2
				c0.8,0,1.6-0.1,2.4-0.4c0.2,1.3,0.9,2.5,1.9,3.5c1.3,1.3,2.9,2,4.7,2c1,0,2-0.2,2.9-0.7c0.3,1.2,0.9,2.4,1.8,3.3
				c1.3,1.3,3,2,4.7,2c1.7,0,3.4-0.7,4.7-2l2-2l5.3,5.3c1.3,1.3,2.9,2,4.7,2h0c1.8,0,3.5-0.7,4.7-2c2.1-2.1,2.5-5.2,1.3-7.7
				c1.2-0.3,2.4-0.9,3.3-1.8c1.3-1.3,2-2.9,2-4.7c0-1-0.2-2-0.7-2.9c1.2-0.3,2.3-0.9,3.3-1.8c1.3-1.3,2-2.9,2-4.7c0-1-0.2-2-0.7-2.9
				c1.2-0.3,2.3-0.9,3.3-1.8c2.6-2.6,2.6-6.9,0-9.5l-1.5-1.5l13.4-13.4C-267.8-181.4-267.8-182.5-268.5-183.2L-268.5-183.2z
				 M-342.9-147.7c-0.9,0-1.7-0.3-2.3-0.9c-1.3-1.3-1.3-3.3,0-4.6v0l9.4-9.4c0.6-0.6,1.4-0.9,2.3-0.9s1.7,0.3,2.3,0.9
				c0.6,0.6,0.9,1.4,0.9,2.3c0,0.9-0.3,1.7-0.9,2.3l-7.7,7.7l-1.7,1.7C-341.2-148-342.1-147.7-342.9-147.7L-342.9-147.7z
				 M-331.9-143.4c-0.6,0.6-1.4,0.9-2.3,0.9c-0.9,0-1.7-0.3-2.3-0.9c-1.3-1.3-1.3-3.3,0-4.6c0,0,0,0,0,0l7.7-7.7
				c1.3-1.3,3.3-1.3,4.6,0c1.3,1.3,1.3,3.3,0,4.6l-5.7,5.7L-331.9-143.4z M-322.9-138.3c-0.6,0.6-1.4,0.9-2.3,0.9
				c-0.9,0-1.7-0.3-2.3-0.9c-1.3-1.3-1.3-3.3,0-4.6c0,0,0,0,0,0l5.7-5.7c1.3-1.3,3.3-1.3,4.6,0c0.6,0.6,0.9,1.4,0.9,2.3
				c0,0.9-0.3,1.7-0.9,2.3l-3.3,3.3L-322.9-138.3z M-313.4-133.8c-0.6,0.6-1.4,0.9-2.3,0.9s-1.7-0.3-2.3-0.9c-1.3-1.3-1.3-3.3,0-4.6
				l3.3-3.3c1.3-1.3,3.3-1.3,4.6,0c1.3,1.3,1.3,3.3,0,4.6L-313.4-133.8z M-282.9-158.9c-1.3,1.3-3.3,1.3-4.6,0l-2.5-2.5
				c-0.7-0.7-1.8-0.7-2.5,0c-0.7,0.7-0.7,1.8,0,2.5l2.5,2.5l2.5,2.5c1.3,1.3,1.3,3.3,0,4.6c-1.3,1.3-3.3,1.3-4.6,0l-2.5-2.5
				c-0.7-0.7-1.8-0.7-2.5,0c-0.7,0.7-0.7,1.8,0,2.5l2.5,2.5l2.5,2.5c1.3,1.3,1.3,3.3,0,4.6c-1.3,1.3-3.3,1.3-4.6,0l-2.5-2.5
				c-0.7-0.7-1.8-0.7-2.5,0c-0.7,0.7-0.7,1.8,0,2.5l2.5,2.5l2.5,2.5c0.6,0.6,0.9,1.4,0.9,2.3s-0.3,1.7-0.9,2.3
				c-0.6,0.6-1.4,0.9-2.3,0.9c-0.9,0-1.7-0.3-2.3-0.9l-5.5-5.5c1.5-2.6,1.1-5.9-1.1-8.1c-1.4-1.4-3.2-2-5.1-2c0-0.1,0-0.2,0-0.3
				c0-1.8-0.7-3.5-2-4.7c-1.4-1.4-3.2-2-5.1-2c0-0.1,0-0.2,0-0.3c0-1.8-0.7-3.5-2-4.7c-1.4-1.4-3.2-2-5.1-2c0-0.1,0-0.2,0-0.3
				c0-1.8-0.7-3.5-2-4.7c-2.6-2.6-6.9-2.6-9.5,0l-5.5,5.5c-1.5-2.9-1.2-3.8-0.2-6.6c0.4-1.1,0.9-2.6,1.4-4.5c0.2-0.6,0-1.2-0.5-1.7
				l-10-10l22.1-22.1l18,18c0.7,0.7,1.8,0.7,2.5,0c0.6-0.6,1.4-0.9,2.3-0.9c0.9,0,1.7,0.3,2.3,0.9l23,23
				C-281.6-162.2-281.6-160.2-282.9-158.9L-282.9-158.9z M-284.3-169.8l-19.1-19.1c-1.3-1.3-3.1-2-4.8-2l13.6-13.6l22.5,22.5
				L-284.3-169.8z"/>
			<path d="M-300-157.4c-0.7-0.7-1.8-0.7-2.5,0c-0.7,0.7-0.7,1.8,0,2.5c0.3,0.3,0.8,0.5,1.2,0.5s0.9-0.2,1.2-0.5
				C-299.3-155.7-299.3-156.8-300-157.4L-300-157.4z"/>
		</g>
	</g>
	<g>
		<g>
			<path d="M87.4-163.3h-1.1v-10.3c0-1.6-0.8-3.1-2-3.9v-1.4c0-2-1.7-3.7-3.7-3.7h-0.9l3.3-4.8c1.1-1.6,0.7-3.8-0.9-4.9l-22.2-15.1
				c-0.8-0.5-1.7-0.7-2.6-0.6c-0.9,0.2-1.7,0.7-2.3,1.5l-19.1,28.1h-5.3l1.3-13c0-0.1,0.1-0.3,0.2-0.3c1.7-0.6,3.1-1.8,4-3.3
				c0.1-0.1,0.2-0.2,0.4-0.2l8.3,0.8c0.6,0.1,1.1-0.4,1.2-1c0.1-0.6-0.4-1.1-1-1.2l-8.3-0.8c-1-0.1-1.9,0.4-2.4,1.2
				c-0.7,1.1-1.8,2-3,2.4c-0.9,0.3-1.5,1.2-1.6,2.1l-1.3,13.2H27l2-20.6c0.1-0.7,0.7-1.3,1.5-1.2l16.9,1.7c0.6,0.1,1.1-0.4,1.2-1
				c0.1-0.6-0.4-1.1-1-1.2l-16.9-1.7c-1.9-0.2-3.7,1.2-3.9,3.2l-1.6,16.6h-2.8c-2,0-3.7,1.7-3.7,3.7v1c-1.7,0.8-2.8,2.4-2.8,4.4
				v37.1c0,2.7,2.2,4.8,4.8,4.8h60.7c2.7,0,4.8-2.2,4.8-4.8v-10.3h1.1c1.3,0,2.4-1.1,2.4-2.4v-11.6
				C89.9-162.2,88.8-163.3,87.4-163.3z M80.6-180.5L80.6-180.5c0.8,0,1.5,0.7,1.5,1.5v0.6c-0.2,0-0.4,0-0.6,0h-4.6l1.4-2H80.6z
				 M56.8-205.3c0.2-0.3,0.5-0.5,0.9-0.6c0.1,0,0.2,0,0.3,0c0.3,0,0.5,0.1,0.8,0.2l22.2,15.1c0.6,0.4,0.8,1.3,0.4,1.9l-7,10.2h-1.7
				l3.4-5c0.6-0.8,0.6-1.8,0.1-2.7c-0.6-1.1-0.9-2.5-0.7-3.8c0.1-1-0.3-1.9-1.1-2.4l-11.5-7.8c-0.8-0.5-1.8-0.6-2.7-0.1
				c-1.1,0.6-2.5,0.9-3.8,0.7c-1-0.1-1.9,0.3-2.5,1.1l-13.7,20.1h-1.7L56.8-205.3z M57.3-186.8c-4.7,0-8.6,3.7-8.9,8.4h-5.5
				l12.8-18.8c0,0,0,0,0,0c0.1-0.1,0.2-0.2,0.3-0.2c0,0,0,0,0,0c1.8,0.2,3.6-0.1,5.1-0.9c0.1-0.1,0.3-0.1,0.4,0l11.5,7.8
				c0.1,0.1,0.2,0.2,0.2,0.4c-0.2,1.8,0.1,3.6,1,5.1c0.1,0.1,0.1,0.3,0,0.4l-4.2,6.2h-3.7C65.9-183.1,62-186.8,57.3-186.8z
				 M64-178.5H50.5c0.3-3.5,3.2-6.2,6.8-6.2C60.8-184.6,63.7-181.9,64-178.5z M20.9-179c0-0.8,0.7-1.5,1.5-1.5H25l-0.2,2h-3.9V-179z
				 M18.1-173.6c0-1.5,1.2-2.7,2.7-2.7h60.7c1.5,0,2.7,1.2,2.7,2.7v3h-66V-173.6z M84.1-136.5c0,1.5-1.2,2.7-2.7,2.7H20.8
				c-1.5,0-2.7-1.2-2.7-2.7v-3H24c0.6,0,1.1-0.5,1.1-1.1c0-0.6-0.5-1.1-1.1-1.1h-5.9v-26.7h66v5.1H73.8h0c-3.3,0-6.1,1.9-7.4,4.7
				c0,0,0,0,0,0c0,0,0,0,0,0.1c-0.2,0.3-0.3,0.7-0.4,1.1c0,0,0,0,0,0c-0.2,0.8-0.4,1.6-0.4,2.4c0,4.6,3.7,8.3,8.3,8.3h0h10.3v5.1
				H30.9c-0.6,0-1.1,0.5-1.1,1.1s0.5,1.1,1.1,1.1h53.2V-136.5z M87.7-149.3c0,0.1-0.1,0.3-0.3,0.3H73.8c-2.3,0-4.3-1.3-5.3-3.2
				c0-0.1-0.1-0.2-0.1-0.3c-0.1-0.2-0.2-0.4-0.2-0.5c-0.2-0.7-0.4-1.4-0.4-2.1c0-0.7,0.1-1.4,0.4-2.1c0.1-0.2,0.1-0.4,0.2-0.5
				c0-0.1,0.1-0.2,0.1-0.3c1-1.9,3-3.2,5.3-3.2h13.7c0.1,0,0.3,0.1,0.3,0.3V-149.3L87.7-149.3z"/>
		</g>
	</g>
	<g>
		<g>
			<path d="M74-159.5c-2.4,0-4.4,2-4.4,4.4c0,2.4,2,4.4,4.4,4.4c2.4,0,4.4-2,4.4-4.4C78.5-157.5,76.5-159.5,74-159.5z M74-152.8
				c-1.2,0-2.2-1-2.2-2.2s1-2.2,2.2-2.2s2.2,1,2.2,2.2S75.3-152.8,74-152.8z"/>
		</g>
	</g>
	<g>
		<g>
			<path d="M439.7-182.7c-0.4-0.5-1.2-0.6-1.8-0.2l-12.5,9.9l-16.1-6.7c-0.4-0.2-0.8-0.1-1.2,0.2L391-167.2
				c-0.5,0.4-0.7,1.2-0.3,1.7c0.2,0.4,0.6,0.5,1,0.5c0.2,0,0.5-0.1,0.7-0.2l16.7-11.9l16.2,6.7c0.4,0.2,0.9,0.1,1.2-0.2l13-10.3
				C440.1-181.3,440.1-182.2,439.7-182.7z"/>
		</g>
	</g>
	<g>
		<g>
			<path d="M457.8-140.5h-5.7v-35.7c0-0.7-0.5-1.2-1.2-1.2h-11.3c-0.7,0-1.2,0.5-1.2,1.2v35.7h-4.2v-23.3c0-0.7-0.5-1.2-1.2-1.2
				h-11.4c-0.7,0-1.2,0.5-1.2,1.2v23.3h-4.2v-25.2c0-0.7-0.5-1.2-1.2-1.2h-11.3c-0.7,0-1.2,0.5-1.2,1.2v25.2h-4.2v-17.9
				c0-0.7-0.5-1.2-1.2-1.2h-11.4c-0.7,0-1.2,0.5-1.2,1.2v17.9h-5.8c-0.7,0-1.2,0.5-1.2,1.2c0,0.7,0.5,1.2,1.2,1.2h6.9h11.3h6.8h11.3
				h6.6h11.3h6.6h11.3h6.9c0.7,0,1.2-0.5,1.2-1.2C459-140,458.5-140.5,457.8-140.5z M395.6-140.5h-8.9v-16.7h8.9V-140.5z
				 M413.6-140.5h-8.9v-24h8.9V-140.5z M431.6-140.5h-8.9v-22.1h8.9V-140.5z M449.6-140.5h-8.9v-34.4h8.9V-140.5z"/>
		</g>
	</g>
	<g>
		<g>
			<path d="M-349.5,35.6h-3.9V85h40.7l47.6-7V43.6l-1.3-0.2l-1.8-0.3c-1.4-0.2-2.3-0.4-2.3-0.4s-0.4,0-2.4-0.5l-39.8-6.7h-1.7
				 M-322.2,35.6h-19.5 M-317,35.6h-2.6 M-344.3,35.6h-2.6 M-341.7,82.4h-9.1V38.2h9.1v2.6h-6.5v38.9h6.5V82.4z M-326.1,77.2h-2.6
				v-9.1h-2.6v11.7h5.2v2.6h-13v-2.6h5.2V68.1h-2.6v9.1h-2.6v-2.6h-2.6v2.6h-3.9V43.4h3.9V46h2.6v-2.6h2.6v10.4h2.6v-13h-5.2v-2.6
				h13v2.6h-5.2v13h2.6V43.4h2.6V46h2.6v-2.6h3.9v33.8h-3.9v-2.6h-2.6V77.2L-326.1,77.2z M-267.7,75.7l-44.1,6.5v-6.3h-2.6v6.5h-9.1
				v-2.6h6.5V40.8h-6.5v-2.6h9.1v29.9h2.6V38.4l44.1,7.4L-267.7,75.7L-267.7,75.7z"/>
		</g>
	</g>
	<g>
		<g>
			<rect x="-314.4" y="70.7" width="2.6" height="2.6"/>
		</g>
	</g>
	<g>
		<g>
			<rect x="-341.7" y="48.6" width="2.6" height="2.6"/>
		</g>
	</g>
	<g>
		<g>
			<path d="M-323.5,56.4v-2.6h-2.6v2.6h-13v-2.6h-2.6v2.6h-1.3v7.8h1.3v2.6h2.6v-2.6h13v2.6h2.6v-2.6h1.3v-7.8H-323.5z M-324.8,61.6
				h-15.6V59h15.6V61.6z"/>
		</g>
	</g>
	<g>
		<g>
			<rect x="-341.7" y="69.4" width="2.6" height="2.6"/>
		</g>
	</g>
	<g>
		<g>
			<rect x="-326.1" y="48.6" width="2.6" height="2.6"/>
		</g>
	</g>
	<g>
		<g>
			<rect x="-326.1" y="69.4" width="2.6" height="2.6"/>
		</g>
	</g>
	<g>
		<g>
			<rect x="-306.6" y="43.4" width="2.6" height="33.8"/>
		</g>
	</g>
	<g>
		<g>
			<rect x="-300.1" y="44.7" width="2.6" height="31.2"/>
		</g>
	</g>
	<g>
		<g>
			<rect x="-293.6" y="46" width="2.6" height="28.6"/>
		</g>
	</g>
	<g>
		<g>
			<rect x="-287.1" y="47.3" width="2.6" height="26"/>
		</g>
	</g>
	<g>
		<g>
			<rect x="-280.6" y="48.6" width="2.6" height="23.4"/>
		</g>
	</g>
	<g>
		<g>
			<rect x="-274.2" y="49.9" width="2.6" height="20.8"/>
		</g>
	</g>
	<path d="M97.7,60.4h-9.7c-0.9,0-1.6,0.7-1.6,1.6v1.4H76.1c-0.2,0-0.4,0-0.6,0.1L62.4,69c-1.5,0.6-2.7,1.8-3.3,3.3
		c-0.6,1.5-0.6,3.2,0,4.7l0,0.1c0.4,0.9,0.9,1.7,1.6,2.3c-2,0.5-4.1,0.6-6.1,0.1l-12.9-2.9c-1.6-0.4-3.2-0.1-4.5,0.8
		c-1.4,0.9-2.3,2.2-2.6,3.8c-0.7,3.1,1.3,6.2,4.4,7L54.3,92c1.3,0.3,2.6,0.5,3.9,0.5c2,0,3.9-0.4,5.8-1.1l19.5-7.6h2.8v0.9
		c0,0.9,0.7,1.6,1.6,1.6h9.7c0.9,0,1.6-0.7,1.6-1.6V62.1C99.3,61.1,98.6,60.4,97.7,60.4z M83.2,80.5c-0.2,0-0.4,0-0.6,0.1l-19.8,7.8
		c-2.5,1-5.1,1.1-7.7,0.5l-15.3-3.9c-1.4-0.4-2.3-1.7-2-3.1c0.1-0.7,0.6-1.3,1.2-1.7c0.4-0.3,0.9-0.4,1.4-0.4c0.2,0,0.4,0,0.6,0.1
		l12.9,2.9c3.1,0.7,6.3,0.5,9.3-0.7l3.7-1.4c0.1,0,0.2-0.1,0.2-0.1c3.3-1.3,7.5-2.9,8.4-3.2l0.2-0.1c0.8-0.3,1.3-1.3,0.9-2.1
		c-0.3-0.8-1.3-1.3-2.1-0.9c0,0-0.1,0-0.2,0.1l-8.6,3.3c-1.5,0.5-3-0.2-3.6-1.7l0-0.1c-0.3-0.7-0.3-1.5,0-2.2
		c0.3-0.7,0.8-1.2,1.5-1.5l12.8-5.3h9.9v13.8H83.2z M96,83h-6.4V63.7H96V83z"/>
	<path d="M31.2,59.7h-3V44.4h0.5c1.2,0,2.4-0.3,3.5-0.8c0.1,0,0.1-0.1,0.1-0.1L43,36.5c1.5-0.7,3.3-0.6,4.6,0.4l0.8,0.6
		c0,0.1-0.1,0.1-0.1,0.2c-0.2,0.3-0.4,0.6-0.6,0.9c-1.1,1.9-1.9,4-2.1,6.2c-1.1,0.1-2.2,0.6-3,1.4c-0.9,0.9-1.4,2.2-1.4,3.5
		c0,2.7,2.2,4.9,4.9,4.9h12.1c0.7,0,1.3,0.3,1.8,0.7c0.5,0.5,0.7,1.1,0.7,1.8c0,1-0.6,1.9-1.5,2.3c-0.1,0-0.2,0.1-0.3,0.1
		c0,0,0,0,0,0c-0.2,0.1-0.5,0.1-0.7,0.1H44.4c-0.9,0-1.6,0.7-1.6,1.6s0.7,1.6,1.6,1.6h13.8c0.4,0,0.8,0,1.2-0.1
		c0.7,0.1,1.4,0.1,2.1,0.1c8.9,0,16.1-7.2,16.1-16.1c0-8.9-7.2-16.1-16.1-16.1c-4.1,0-8,1.6-11,4.3l-1-0.7c-2.3-1.7-5.5-2-8.1-0.7
		c-0.1,0-0.1,0.1-0.1,0.1l-10.6,6.9c-0.6,0.3-1.3,0.4-1.9,0.4h-0.5v-0.6c0-0.9-0.7-1.6-1.6-1.6h-9.7c-0.9,0-1.6,0.7-1.6,1.6v22.6
		c0,0.9,0.7,1.6,1.6,1.6h9.7c0.9,0,1.6-0.7,1.6-1.6V63h3c0.9,0,1.6-0.7,1.6-1.6S32.2,59.7,31.2,59.7z M44.4,49.7
		c0-0.4,0.2-0.9,0.5-1.2c0.2-0.2,0.4-0.3,0.6-0.4c0.1,1.1,0.3,2.2,0.6,3.2C45.1,51.4,44.4,50.7,44.4,49.7z M74.4,46.9
		c0,6.4-4.7,11.8-10.9,12.7c0.3-0.7,0.5-1.6,0.5-2.4c0-1-0.3-2-0.7-2.8c0.7-0.1,1.4-0.4,1.9-1c0.7-0.6,1-1.5,1-2.4v-2.4
		c0-1.9-1.5-3.4-3.4-3.4h-2.4c-0.1,0-0.2-0.1-0.2-0.2v-2.3c0-0.1,0.1-0.2,0.2-0.2h1.2h0h0h1.2c0.1,0,0.2,0.1,0.2,0.2
		c0,0.9,0.7,1.6,1.6,1.6c0.9,0,1.6-0.7,1.6-1.6c0-1.7-1.3-3.2-3-3.4v-0.6c0-0.9-0.7-1.6-1.6-1.6s-1.6,0.7-1.6,1.6v0.6
		c-1.7,0.2-3,1.7-3,3.4V45c0,1.9,1.5,3.4,3.4,3.4h2.4c0.1,0,0.2,0.1,0.2,0.2V51c0,0,0,0.1,0,0.1c0,0-0.1,0-0.1,0h-2.4
		c-0.1,0-0.2-0.1-0.2-0.2v-0.2c0-0.9-0.7-1.6-1.6-1.6s-1.6,0.7-1.6,1.6V51c0,0.1,0,0.3,0,0.4h-7.4c-0.6-1.4-0.8-3-0.8-4.6
		c0-2.4,0.7-4.8,2-6.8c0.4-0.6,0.8-1.1,1.2-1.7c2.4-2.8,6-4.4,9.6-4.4C68.6,34,74.4,39.8,74.4,46.9z M25,61.4h-6.4V42.2H25V61.4z"/>
	<path d="M39.1,60.5c-0.4-0.6-1.1-0.9-1.8-0.7c-0.7,0.2-1.1,0.8-1.2,1.4c-0.1,0.7,0.3,1.3,1,1.6c0.6,0.3,1.4,0.1,1.8-0.3
		C39.5,62,39.6,61.1,39.1,60.5z"/>
	<g>
		<g>
			<path d="M425,31.1c-17.5,0-31.7,14.2-31.7,31.7s14.2,31.7,31.7,31.7s31.7-14.2,31.7-31.7C456.6,45.2,442.4,31.1,425,31.1z
				 M425,92.2c-16.3,0-29.5-13.2-29.5-29.5s13.2-29.5,29.5-29.5c16.3,0,29.5,13.2,29.5,29.5C454.5,79,441.3,92.2,425,92.2z"/>
		</g>
	</g>
	<g>
		<g>
			<path d="M425,36.3c-14.6,0-26.4,11.8-26.4,26.4s11.8,26.4,26.4,26.4c14.6,0,26.4-11.8,26.4-26.4C451.3,48.1,439.5,36.3,425,36.3z
				 M425,87c-13.4,0-24.3-10.9-24.3-24.3s10.9-24.3,24.3-24.3c13.4,0,24.3,10.9,24.3,24.3C449.2,76.1,438.4,87,425,87z"/>
		</g>
	</g>
	<g>
		<g>
			<rect x="423.9" y="41.6" width="2.1" height="2.1"/>
		</g>
	</g>
	<g>
		<g>
			<rect x="423.9" y="81.7" width="2.1" height="2.1"/>
		</g>
	</g>
	<g>
		<g>
			<rect x="413.9" y="44.3" transform="matrix(0.866 -0.5001 0.5001 0.866 32.9424 213.5972)" width="2.1" height="2.1"/>
		</g>
	</g>
	<g>
		<g>
			<rect x="433.9" y="79" transform="matrix(0.866 -0.5001 0.5001 0.866 18.2678 228.2734)" width="2.1" height="2.1"/>
		</g>
	</g>
	<g>
		<g>
			<rect x="406.5" y="51.6" transform="matrix(0.5 -0.866 0.866 0.5 158.1687 379.3249)" width="2.1" height="2.1"/>
		</g>
	</g>
	<g>
		<g>
			<rect x="441.3" y="71.7" transform="matrix(0.5 -0.866 0.866 0.5 158.1636 419.4139)" width="2.1" height="2.1"/>
		</g>
	</g>
	<g>
		<g>
			<rect x="403.9" y="61.7" width="2.1" height="2.1"/>
		</g>
	</g>
	<g>
		<g>
			<rect x="443.9" y="61.7" width="2.1" height="2.1"/>
		</g>
	</g>
	<g>
		<g>
			<rect x="406.5" y="71.7" transform="matrix(0.8661 -0.4999 0.4999 0.8661 18.2252 213.493)" width="2.1" height="2.1"/>
		</g>
	</g>
	<g>
		<g>
			<rect x="441.3" y="51.6" transform="matrix(0.866 -0.5 0.5 0.866 32.9194 228.2183)" width="2.1" height="2.1"/>
		</g>
	</g>
	<g>
		<g>
			<rect x="413.9" y="79" transform="matrix(0.5001 -0.866 0.866 0.5001 138.0784 399.3253)" width="2.1" height="2.1"/>
		</g>
	</g>
	<g>
		<g>
			<rect x="433.9" y="44.3" transform="matrix(0.5001 -0.866 0.866 0.5001 178.1627 399.3353)" width="2.1" height="2.1"/>
		</g>
	</g>
	<g>
		<g>
			<path d="M423.9,45.8v16.3l-10,6l1.1,1.8l10.6-6.3c0.3-0.2,0.5-0.5,0.5-0.9V45.8H423.9z"/>
		</g>
	</g>
	<g>
		<g>
			<g>
				<path d="M-327.2,329c-1,0-1.7,0.8-1.7,1.7s0.8,1.7,1.7,1.7h0c1,0,1.7-0.8,1.7-1.7S-326.3,329-327.2,329z"/>
				<path d="M-260.6,300.5c0.2-0.9-0.3-1.8-1.1-2.1c-4.1-1.4-9.1-4.5-9.1-11.4v-3.7c0-5.5-0.9-9.6-2.9-12.5
					c-2.3-3.5-6.2-5.2-11.4-5.2c-5.2,0-9,1.8-11.4,5.2c-1.9,2.9-2.9,7-2.9,12.5v3.7c0,6.9-4.9,10-9.1,11.4c-0.9,0.3-1.4,1.2-1.1,2.1
					c0.9,3.6,2.3,5.7,4.8,6.9c-0.5,0.5-1,1.1-1.4,1.7c-2.6-3.9-7.5-5.2-11.7-6.4c-0.8-0.2-1.5-0.4-2.3-0.6V301
					c4.7-2.5,7.9-7.5,7.9-13.2v-6.9c0-8.3-6.7-15-15-15c-8.3,0-15,6.7-15,15v6.9c0,5.7,3.2,10.6,7.9,13.2v1.2
					c-0.7,0.2-1.5,0.4-2.2,0.6c-5.9,1.6-13.3,3.6-13.4,12.6c0,0,0,0,0,0v15.3c0,1,0.8,1.7,1.7,1.7h13.2c1,0,1.7-0.8,1.7-1.7
					s-0.8-1.7-1.7-1.7h-2.1v-7.1c0-1-0.8-1.7-1.7-1.7c-1,0-1.7,0.8-1.7,1.7v7.1h-5.9v-13.5c0.1-6,4.2-7.5,10.9-9.3
					c0.6-0.2,1.1-0.3,1.7-0.5c0.9,2.8,3.6,4.9,6.8,4.9c3.2,0,5.8-2.1,6.8-4.9c0.6,0.2,1.1,0.3,1.7,0.5c6.7,1.8,10.8,3.3,10.9,9.3
					V329h-5.9v-7.1c0-1-0.8-1.7-1.7-1.7c-1,0-1.7,0.8-1.7,1.7v7.1h-2.1c-1,0-1.7,0.8-1.7,1.7s0.8,1.7,1.7,1.7h26.5
					c1,0,1.7-0.8,1.7-1.7s-0.8-1.7-1.7-1.7h-2.1v-7.1c0-1-0.8-1.7-1.7-1.7c-1,0-1.7,0.8-1.7,1.7v7.1h-5.9v-13.5
					c0.1-6,4.2-7.5,10.9-9.3c0.6-0.2,1.1-0.3,1.7-0.5c0.9,2.8,3.6,4.9,6.8,4.9c3.2,0,5.8-2.1,6.8-4.9c0.6,0.2,1.1,0.3,1.7,0.5
					c6.7,1.8,10.8,3.3,10.9,9.3V329h-5.9v-7.1c0-1-0.8-1.7-1.7-1.7c-1,0-1.7,0.8-1.7,1.7v7.1h-2.1c-1,0-1.7,0.8-1.7,1.7
					s0.8,1.7,1.7,1.7h13.2c1,0,1.7-0.8,1.7-1.7v-15.3c0,0,0,0,0,0c-0.1-3.7-1.3-6.2-3.2-8C-262.9,306.3-261.5,304.2-260.6,300.5
					L-260.6,300.5z M-338.7,280.9c0-6.3,5.2-11.5,11.5-11.5c6.3,0,11.5,5.2,11.5,11.5v1.8c-4.6,0.2-10.4-0.4-14.7-3.3
					c-0.8-0.5-1.8-0.4-2.4,0.4c-1.5,1.9-3.3,2.4-5.9,2.7V280.9z M-323.6,303.5c0,2-1.6,3.6-3.6,3.6c-2,0-3.6-1.6-3.6-3.6v-1.1
					c1.2,0.3,2.4,0.5,3.6,0.5c1.3,0,2.5-0.2,3.6-0.4V303.5z M-327.2,299.3c-6.3,0-11.5-5.2-11.5-11.5V286c2.8-0.3,5.5-0.8,7.7-2.9
					c4.8,2.7,10.6,3.3,15.3,3.1v1.6C-315.8,294.2-320.9,299.3-327.2,299.3L-327.2,299.3z M-293.5,272.9c1.7-2.5,4.4-3.7,8.5-3.7
					c4,0,6.8,1.2,8.5,3.7c1.4,2,2.1,5,2.3,9.1c-3.2,0.6-7.1,0.1-9.2-4.1c-0.6-1.3-2.5-1.3-3.1,0c-2.1,4.2-5.9,4.6-9.2,4.1
					C-295.7,277.9-294.9,274.9-293.5,272.9z M-292.2,302.2c-0.7,0.2-1.5,0.4-2.2,0.6c-2.1,0.6-4.4,1.2-6.5,2.2
					c-2.7-0.5-3.9-1.3-4.7-3.8c2.8-1.2,6.3-3.3,8.3-7.1c1.3,2.2,3.1,4,5.3,5.3L-292.2,302.2L-292.2,302.2z M-281.4,303.5
					c0,2-1.6,3.6-3.6,3.6c-2,0-3.6-1.6-3.6-3.6v-2.6c1.2,0.3,2.4,0.5,3.6,0.5c1.3,0,2.5-0.2,3.6-0.5V303.5z M-285.1,297.8
					c-5.9,0-10.8-4.8-10.8-10.8v-1.5c0.7,0.1,1.5,0.2,2.2,0.2c3.5,0,6.5-1.3,8.6-3.8c2.1,2.5,5.1,3.8,8.6,3.8c0.7,0,1.4-0.1,2.2-0.2
					v1.5C-274.3,293-279.1,297.8-285.1,297.8z M-269.2,305c-2.1-1-4.4-1.6-6.5-2.2c-0.8-0.2-1.5-0.4-2.2-0.6v-2.8
					c2.2-1.3,4-3.1,5.2-5.3c2,3.8,5.4,5.9,8.3,7.1C-265.3,303.6-266.4,304.5-269.2,305L-269.2,305z"/>
				<path d="M-285.1,329c-1,0-1.7,0.8-1.7,1.7s0.8,1.7,1.7,1.7h0c1,0,1.7-0.8,1.7-1.7S-284.1,329-285.1,329z"/>
			</g>
		</g>
	</g>
	<path d="M65.5,323.6h-2.7v-13.1c0-0.7-0.6-1.3-1.3-1.3s-1.3,0.6-1.3,1.3v13.1H25.5v-26.7h11.1c0.7,0,1.3-0.6,1.3-1.3
		s-0.6-1.3-1.3-1.3H24.2c-0.7,0-1.3,0.6-1.3,1.3v28h-2.7c-0.7,0-1.3,0.6-1.3,1.3v2.7c0,3.7,3,6.7,6.7,6.7h34.7c3.7,0,6.7-3,6.7-6.7
		v-2.7C66.8,324.2,66.2,323.6,65.5,323.6z M64.2,327.6c0,2.2-1.8,4-4,4h-2.7v-1.3c0-0.7-0.6-1.3-1.3-1.3c-0.7,0-1.3,0.6-1.3,1.3v1.3
		h-24v-1.3c0-0.7-0.6-1.3-1.3-1.3s-1.3,0.6-1.3,1.3v1.3h-2.7c-2.2,0-4-1.8-4-4v-1.3h42.7V327.6z"/>
	<path d="M88.2,262.2h2.7c0.7,0,1.3-0.6,1.3-1.3s-0.6-1.3-1.3-1.3h-2.7c-2.2,0-4,1.8-4,4v1.3h-1.3c-0.7,0-1.3,0.6-1.3,1.3
		c0,0.7,0.6,1.3,1.3,1.3h1.3v4c0,0.7,0.6,1.3,1.3,1.3c0.7,0,1.3-0.6,1.3-1.3v-4h1.3c0.7,0,1.3-0.6,1.3-1.3c0-0.7-0.6-1.3-1.3-1.3
		h-1.3v-1.3C86.8,262.8,87.4,262.2,88.2,262.2z"/>
	<path d="M94.8,254.2h-16c-2.2,0-4,1.8-4,4v2.7c0,0.7,0.6,1.3,1.3,1.3s1.3-0.6,1.3-1.3v-2.7c0-0.7,0.6-1.3,1.3-1.3h16
		c0.7,0,1.3,0.6,1.3,1.3v16c0,0.7-0.6,1.3-1.3,1.3h-16c-0.7,0-1.3-0.6-1.3-1.3v-8c0-0.7-0.6-1.3-1.3-1.3s-1.3,0.6-1.3,1.3v8
		c0,2.2,1.8,4,4,4h16c2.2,0,4-1.8,4-4v-16C98.8,256,97,254.2,94.8,254.2z"/>
	<path d="M81.5,307.6c0,2.9,2.4,5.3,5.3,5.3c2.9,0,5.3-2.4,5.3-5.3c0-2.9-2.4-5.3-5.3-5.3C83.9,302.2,81.5,304.6,81.5,307.6z
		 M89.5,307.6c0,1.5-1.2,2.7-2.7,2.7c-1.5,0-2.7-1.2-2.7-2.7c0-1.5,1.2-2.7,2.7-2.7C88.3,304.9,89.5,306.1,89.5,307.6z"/>
	<path d="M94.8,295.6h-16c-2.2,0-4,1.8-4,4v16c0,2.2,1.8,4,4,4h16c2.2,0,4-1.8,4-4v-2.7c0-0.7-0.6-1.3-1.3-1.3s-1.3,0.6-1.3,1.3v2.7
		c0,0.7-0.6,1.3-1.3,1.3h-16c-0.7,0-1.3-0.6-1.3-1.3v-16c0-0.7,0.6-1.3,1.3-1.3h16c0.7,0,1.3,0.6,1.3,1.3v8c0,0.7,0.6,1.3,1.3,1.3
		s1.3-0.6,1.3-1.3v-8C98.8,297.4,97,295.6,94.8,295.6z"/>
	<path d="M48.8,270c0.2,0.1,0.5,0.2,0.7,0.2c0.2,0,0.4-0.1,0.6-0.1l8-4c0.7-0.3,0.9-1.1,0.6-1.8c-0.1-0.2-0.3-0.5-0.6-0.6l-8-4
		c-0.7-0.3-1.5-0.1-1.8,0.6c-0.1,0.2-0.1,0.4-0.1,0.6v8C48.2,269.4,48.4,269.8,48.8,270z M50.8,263.1l3.7,1.8l-3.7,1.8V263.1z"/>
	<path d="M52.2,276.9c6.6,0,12-5.4,12-12s-5.4-12-12-12s-12,5.4-12,12S45.5,276.9,52.2,276.9z M52.2,255.6c5.2,0,9.3,4.2,9.3,9.3
		c0,5.2-4.2,9.3-9.3,9.3s-9.3-4.2-9.3-9.3C42.8,259.8,47,255.6,52.2,255.6z"/>
	<path d="M65.5,282.2c0.4,0,0.8-0.2,1.1-0.5l4-5.3c0.4-0.6,0.3-1.4-0.3-1.9c-0.6-0.4-1.4-0.3-1.9,0.3l-4,5.3
		c-0.4,0.6-0.3,1.4,0.3,1.9C64.9,282.2,65.2,282.2,65.5,282.2z"/>
	<path d="M68.4,287c0.3,0.3,0.6,0.5,1.1,0.5c0.3,0,0.6-0.1,0.8-0.3l5.3-4c0.6-0.4,0.7-1.3,0.3-1.9c-0.4-0.6-1.3-0.7-1.9-0.3l-5.3,4
		C68.1,285.6,68,286.5,68.4,287L68.4,287z"/>
	<path d="M81.5,290c-0.1-0.7-0.8-1.2-1.5-1.1c0,0,0,0-0.1,0l-6.7,1.3c-0.7,0.1-1.3,0.7-1.2,1.5s0.7,1.3,1.5,1.2h0.3l6.7-1.3
		C81.2,291.5,81.6,290.8,81.5,290C81.5,290,81.5,290,81.5,290z"/>
	<path d="M20.2,290.2h16c0.7,0,1.3-0.6,1.3-1.3v-21.3c0-0.7-0.6-1.3-1.3-1.3h-16c-0.7,0-1.3,0.6-1.3,1.3v21.3
		C18.8,289.6,19.4,290.2,20.2,290.2z M21.5,268.9h13.3v18.7H21.5V268.9z"/>
	<path d="M30.8,271.6h-2.7c-0.7,0-1.3,0.6-1.3,1.3s0.6,1.3,1.3,1.3h2.7c0.7,0,1.3-0.6,1.3-1.3S31.6,271.6,30.8,271.6z"/>
	<path d="M30.8,276.9h-5.3c-0.7,0-1.3,0.6-1.3,1.3s0.6,1.3,1.3,1.3h5.3c0.7,0,1.3-0.6,1.3-1.3S31.6,276.9,30.8,276.9z"/>
	<path d="M30.8,282.2h-5.3c-0.7,0-1.3,0.6-1.3,1.3c0,0.7,0.6,1.3,1.3,1.3h5.3c0.7,0,1.3-0.6,1.3-1.3
		C32.2,282.8,31.6,282.2,30.8,282.2z"/>
	<path d="M64.3,289.8c-0.4-0.6-1.2-0.9-1.8-0.5c-0.6,0.4-0.9,1.2-0.5,1.8l5.9,10.2l-21.3,8c0,0,0,0-0.1,0h-0.1l-3.5,2l-2.3,1.3
		c-0.6,0.4-1.3,0.5-2,0.3c-0.7-0.2-1.3-0.6-1.6-1.2l-2.7-4.6c-0.7-1.3-0.2-2.8,1-3.5l4.6-2.7l3.3,5.8c0.2,0.4,0.7,0.7,1.2,0.7
		c0.7,0,1.3-0.6,1.3-1.3c0-0.2-0.1-0.5-0.2-0.7l-3.4-5.9l16.7-13.8l0.5,0.9c0.4,0.6,1.2,0.9,1.8,0.5c0.6-0.4,0.9-1.2,0.5-1.8
		l-1.3-2.3c-0.2-0.3-0.5-0.6-0.9-0.6c-0.4-0.1-0.8,0-1.1,0.3l-18.7,15.4l-5.7,3.3c-2.1,1.2-3.1,3.7-2.5,6l-1.3,0.8
		c-1.9,1.1-2.6,3.5-1.5,5.5c0.5,0.9,1.4,1.6,2.4,1.9c0.3,0.1,0.7,0.1,1,0.1c0.7,0,1.4-0.2,2-0.5l1.3-0.8c0.6,0.7,1.4,1.1,2.3,1.4
		c0.5,0.1,0.9,0.2,1.4,0.2c0.9,0,1.9-0.2,2.7-0.7l1.2-0.7l2.7,4.6c1.1,1.9,3.5,2.6,5.5,1.5c1.9-1.1,2.6-3.5,1.5-5.5c0,0,0,0,0,0
		l-2.4-4.2l20-7.5c0.4-0.1,0.7-0.4,0.8-0.8c0.1-0.4,0.1-0.8-0.1-1.1L64.3,289.8z M32.8,312.6c-0.3,0.2-0.7,0.2-1,0.1
		c-0.3-0.1-0.6-0.3-0.8-0.6c-0.2-0.3-0.2-0.7-0.1-1c0.1-0.3,0.3-0.6,0.6-0.8l1.2-0.7L34,312L32.8,312.6z M50.4,316.4
		c0.2,0.3,0.2,0.7,0.1,1c-0.1,0.3-0.3,0.6-0.6,0.8c-0.6,0.4-1.4,0.2-1.8-0.5l-2.7-4.6l2.2-1.3h0.1L50.4,316.4z"/>
	<g>
		<g>
			<path d="M447.2,327.2l-3-8.9c-1-3.1-3.7-5.4-6.9-6l-8.5-1.6v-0.7c1.5-0.9,2.8-2,3.8-3.4h2.6c2.1,0,3.8-1.7,3.8-3.8v-15.3
				c0-9.2-7.4-16.6-16.6-16.6c-9.2,0-16.6,7.4-16.6,16.6v8.9c0,2.5,1.8,4.5,4.1,5c0.7,3.7,3,6.8,6.1,8.6v0.7l-8.5,1.6
				c-3.2,0.6-5.8,2.9-6.9,6l-0.5,1.5l-4.3-4.3c-0.5-0.5-0.5-1.3,0-1.8l5-5l-9.5-9.5l-5.7,5.7c-1.7,1.7-2.6,3.9-2.6,6.3
				s0.9,4.6,2.6,6.3l17.3,17.3c1.7,1.7,3.9,2.6,6.3,2.6c2.4,0,4.6-0.9,6.3-2.6l6.2-5.7l-1.9-1.9H447.2z M436.5,302.9
				c0,0.7-0.6,1.3-1.3,1.3h-1.1c0.4-0.8,0.7-1.7,0.8-2.7c0.5-0.1,1-0.3,1.5-0.6V302.9z M435.2,298.8v-4.4c0.8,0.4,1.3,1.3,1.3,2.2
				C436.5,297.5,436,298.3,435.2,298.8z M409.7,298.8c-0.8-0.4-1.3-1.3-1.3-2.2c0-0.9,0.5-1.8,1.3-2.2V298.8z M409.7,290.2v1.5
				c-0.5,0.1-0.9,0.3-1.3,0.5v-4.5c0-7.7,6.3-14,14-14c7.7,0,14,6.3,14,14v4.5c-0.4-0.2-0.8-0.4-1.3-0.5v-1.5h-1.3
				c-3.8,0-7.3-1.5-10-4.1l-1.5-1.5l-1.5,1.5c-2.7,2.7-6.2,4.1-10,4.1H409.7z M412.2,299.1v-6.4c3.8-0.3,7.4-1.9,10.2-4.5
				c2.8,2.7,6.4,4.3,10.2,4.5v6.4c0,1.9-0.5,3.6-1.4,5.1h-8.8v2.6h6.7c-1.8,1.6-4.2,2.6-6.7,2.6
				C416.8,309.3,412.2,304.7,412.2,299.1z M426.3,311.3L426.3,311.3l-3.8,3.9l-3.8-3.8v-0.1c1.2,0.4,2.5,0.6,3.8,0.6
				C423.8,311.9,425.1,311.7,426.3,311.3z M403.1,319.1c0.7-2.2,2.6-3.8,4.9-4.3l8.9-1.6l5.5,5.5l5.5-5.5l8.9,1.6
				c2.3,0.4,4.2,2.1,4.9,4.3l1.8,5.5h-26.4l-5-5l-5.5,5c-0.5,0.5-1.3,0.5-1.8,0l-2.8-2.8L403.1,319.1z M391.4,302.8l5.9,5.9
				l-1.4,1.4l-5.9-5.9L391.4,302.8z M413.7,333c-1.2,1.2-2.8,1.9-4.5,1.9s-3.3-0.7-4.5-1.9l-17.3-17.3c-1.2-1.2-1.9-2.8-1.9-4.5
				c0-1.7,0.7-3.3,1.9-4.5l0.7-0.7l5.9,5.9l0,0c-1.5,1.5-1.5,3.9,0,5.4l9.2,9.2c0.7,0.7,1.7,1.1,2.7,1.1s2-0.4,2.7-1.1l0.1-0.1
				l5.9,5.9L413.7,333z M416.4,330.6l-5.9-5.9l1.7-1.5l5.9,5.9L416.4,330.6z"/>
		</g>
	</g>
	<g>
		<g>
			<path d="M458.2,258.2h-17.9c-2.1,0-3.8,1.7-3.8,3.8v10.2c0,2.1,1.7,3.8,3.8,3.8h3.4l-1.3,7.7l12.3-7.7h3.5c2.1,0,3.8-1.7,3.8-3.8
				v-10.2C462,260,460.3,258.2,458.2,258.2z M459.5,272.3c0,0.7-0.6,1.3-1.3,1.3H454l-8.1,5.1l0.9-5.1h-6.4c-0.7,0-1.3-0.6-1.3-1.3
				v-10.2c0-0.7,0.6-1.3,1.3-1.3h17.9c0.7,0,1.3,0.6,1.3,1.3V272.3z"/>
		</g>
	</g>
	<g>
		<g>
			<rect x="441.6" y="263.3" width="15.3" height="2.6"/>
		</g>
	</g>
	<g>
		<g>
			<rect x="441.6" y="268.5" width="10.2" height="2.6"/>
		</g>
	</g>
	<g>
		<g>
			<rect x="454.4" y="268.5" width="2.6" height="2.6"/>
		</g>
	</g>
	<g>
		<g>
			<path d="M422.4,262.1c-16.7,0-31.1,11.5-34.8,27.6l-2.4-4L383,287l4.5,7.5l7.5-4.5l-1.3-2.2l-3.5,2.1
				c3.6-14.7,16.9-25.2,32.2-25.2c3.4,0,6.7,0.5,9.8,1.5l0.8-2.4C429.6,262.6,426.1,262.1,422.4,262.1z"/>
		</g>
	</g>
	<g>
		<g>
			<path d="M461.4,286.5l-7.5-4.5l-4.5,7.5l2.2,1.3l2.2-3.7c1.2,3.4,1.8,7,1.8,10.7c0,7.6-2.6,15-7.4,20.9l2,1.6
				c5.1-6.3,8-14.3,8-22.5c0-3.9-0.6-7.7-1.9-11.4l3.8,2.3L461.4,286.5z"/>
		</g>
	</g>
</g>
<g>
	<g>
		<path d="M451.8-205.7c-6.6,0-11.7,5.3-11.7,11.8c0,6.6,5.3,11.7,11.7,11.7c6.5,0,11.8-5.3,11.8-11.8
			C463.7-200.5,458.4-205.7,451.8-205.7z M451.8-184.7c-5.1,0-9.2-4.1-9.2-9.2s4.2-9.2,9.2-9.2c5.1,0,9.2,4.1,9.2,9.2
			S456.9-184.7,451.8-184.7z"/>
	</g>
</g>
<g>
	<g>
		<path d="M455.6-192.1c-0.1-0.2-0.1-0.4-0.2-0.6c-0.1-0.2-0.2-0.4-0.3-0.6s-0.2-0.3-0.4-0.5c-0.2-0.2-0.3-0.3-0.6-0.4
			c-0.2-0.2-0.4-0.2-0.6-0.3c-0.2-0.1-0.4-0.2-0.6-0.3c-0.2-0.1-0.5-0.2-0.6-0.2c-0.1,0-0.2-0.1-0.3-0.2c-0.1-0.1-0.2-0.1-0.3-0.2
			c-0.1-0.1-0.2-0.1-0.3-0.2c-0.1-0.1-0.2-0.2-0.2-0.2c-0.1-0.1-0.2-0.2-0.2-0.3c-0.1-0.1-0.1-0.2-0.1-0.3c0-0.2,0-0.2,0-0.4
			c0-0.1,0.1-0.2,0.1-0.3c0.1-0.1,0.1-0.2,0.2-0.3c0.1-0.1,0.2-0.2,0.2-0.2c0.1-0.1,0.2-0.2,0.4-0.2c0.2-0.1,0.2-0.1,0.4-0.1
			c0.1,0,0.2,0,0.2,0s0.2,0,0.2,0c0.2,0,0.2,0,0.4,0.1c0.2,0,0.3,0.1,0.4,0.1c0.1,0,0.2,0.1,0.3,0.1c0.2,0,0.2,0.1,0.3,0.1l0.4,0.2
			l0.1-0.5l0.2-1.3v-0.3l-0.3-0.1c-0.1,0-0.2-0.1-0.3-0.1c-0.1,0-0.2-0.1-0.3-0.1c-0.1,0-0.2-0.1-0.4-0.1s-0.2-0.1-0.4-0.1h-0.1
			v-1.1v-0.4h-0.4h-1.1h-0.4v0.4v1.2h-0.1c-0.2,0.1-0.5,0.2-0.7,0.3c-0.2,0.1-0.4,0.2-0.6,0.4c-0.2,0.2-0.3,0.3-0.5,0.6
			c-0.2,0.2-0.2,0.4-0.3,0.6c-0.1,0.2-0.2,0.5-0.2,0.7c-0.1,0.2-0.1,0.6-0.1,0.8s0,0.4,0.1,0.6c0.1,0.2,0.1,0.4,0.2,0.6
			c0.1,0.2,0.2,0.4,0.3,0.6c0.2,0.2,0.2,0.3,0.4,0.5c0.2,0.2,0.3,0.3,0.6,0.4c0.2,0.2,0.4,0.2,0.6,0.3c0.2,0.1,0.5,0.2,0.6,0.3
			c0.2,0.1,0.5,0.2,0.6,0.2c0.1,0,0.2,0.1,0.3,0.2c0.1,0.1,0.2,0.1,0.3,0.2c0.1,0.1,0.2,0.2,0.2,0.2c0.1,0.1,0.2,0.2,0.2,0.2
			c0.1,0.1,0.1,0.2,0.2,0.3c0,0.1,0.1,0.2,0.1,0.4c0,0.2,0,0.2,0,0.4c0,0.1-0.1,0.2-0.2,0.3c-0.1,0.1-0.2,0.2-0.2,0.2
			c-0.1,0.1-0.2,0.2-0.3,0.2c-0.1,0.1-0.2,0.1-0.3,0.2c-0.1,0-0.2,0.1-0.4,0.1c-0.1,0-0.2,0-0.3,0c-0.1,0-0.2,0-0.3,0
			c-0.2,0-0.3,0-0.4,0c-0.2,0-0.3-0.1-0.4-0.1c-0.2,0-0.3-0.1-0.5-0.2s-0.3-0.1-0.5-0.2c-0.1,0-0.2-0.1-0.2-0.1
			c-0.1,0-0.2-0.1-0.2-0.1l-0.5-0.2l-0.1,0.6l-0.2,1.5v0.2l0.2,0.1c0.3-0.1,0.5,0,0.7,0.1c0.2,0.1,0.4,0.2,0.6,0.2
			c0.2,0.1,0.4,0.1,0.6,0.2c0.2,0.1,0.4,0.1,0.6,0.1h0.2v1.2v0.4h0.4h1.1h0.4v-0.4v-1.3h0.1c0.2-0.1,0.5-0.2,0.7-0.3
			c0.2-0.1,0.4-0.2,0.6-0.4c0.2-0.2,0.3-0.3,0.5-0.6c0.2-0.2,0.2-0.4,0.4-0.6c0.1-0.2,0.2-0.5,0.2-0.7c0.1-0.2,0.1-0.5,0.1-0.8
			C455.6-191.7,455.6-191.9,455.6-192.1z"/>
	</g>
</g>
</svg>
