<?xml version="1.0" encoding="utf-8"?>
<!-- Generator: Adobe Illustrator 24.2.1, SVG Export Plug-In . SVG Version: 6.00 Build 0)  -->
<svg version="1.1" id="Capa_1" xmlns="http://www.w3.org/2000/svg" xmlns:xlink="http://www.w3.org/1999/xlink" x="0px" y="0px"
	 viewBox="0 0 119.3 119.3" style="enable-background:new 0 0 119.3 119.3;" xml:space="preserve">
<style type="text/css">
	.st0{opacity:0.3;}
	.st1{fill:#FFC107;}
</style>
<g>
	<g class="st0">
		<path class="st1" d="M-645.4-130.1c-6,4-12.7,7.4-20,8s-15-2-19.2-7.9c-4.3-6-4.5-14.8-10.5-19.2c-7.9-5.9-21.6-0.4-27.7-8.3
			c-3.7-4.8-1.9-11.7,0.2-17.4c2.6-6.8,5.5-13.4,8.8-19.8c0.8-1.7,1.8-3.4,3.4-4.4c4.2-2.7,9.3,1,13.8,3.2
			c7.6,3.6,17.2,2.4,23.6-3.1c5.3-4.6,9.2-12.1,16.1-12.4c3.1-0.2,6.1,1.3,8.7,3c11.3,7.6,17.9,21.6,16.5,35.1
			c-0.5,4.7-1.9,9.2-3.2,13.7c-2.9,9.7-5.9,19.4-9.8,28.7"/>
	</g>
	<g class="st0">
		<path class="st1" d="M-646.7,95c-6,4-12.7,7.4-20,8s-15-2-19.2-7.9c-4.3-6-4.5-14.8-10.5-19.2c-7.9-5.9-21.6-0.4-27.7-8.3
			c-3.7-4.8-1.9-11.7,0.2-17.4c2.6-6.8,5.5-13.4,8.8-19.8c0.8-1.7,1.8-3.4,3.4-4.4c4.2-2.7,9.3,1,13.8,3.2
			c7.6,3.6,17.2,2.4,23.6-3.1c5.3-4.6,9.2-12.1,16.1-12.4c3.1-0.2,6.1,1.3,8.7,3c11.3,7.6,17.9,21.6,16.5,35.1
			c-0.5,4.7-1.9,9.2-3.2,13.7c-2.9,9.7-5.9,19.4-9.8,28.7"/>
	</g>
	<g class="st0">
		<path class="st1" d="M-637.4,333.1c-6,4-12.7,7.4-20,8c-7.2,0.6-15-2-19.2-7.9c-4.3-6-4.5-14.8-10.5-19.2
			c-7.9-5.9-21.6-0.4-27.7-8.3c-3.7-4.8-1.9-11.7,0.2-17.4c2.6-6.8,5.5-13.4,8.8-19.8c0.8-1.7,1.8-3.4,3.4-4.4
			c4.2-2.7,9.3,1,13.8,3.2c7.6,3.6,17.2,2.4,23.6-3.1c5.3-4.6,9.2-12.1,16.1-12.4c3.1-0.2,6.1,1.3,8.7,3
			c11.3,7.6,17.9,21.6,16.5,35.1c-0.5,4.7-1.9,9.2-3.2,13.7c-2.9,9.7-5.9,19.4-9.8,28.7"/>
	</g>
	<g class="st0">
		<path class="st1" d="M-256.7,68.8c-1.4,7.1-3.8,14.2-8.5,19.8c-4.7,5.5-12,9.2-19.2,8c-7.3-1.3-13.7-7.3-21-6.2
			c-9.8,1.5-15.6,15-25.4,13.7c-6-0.8-9.6-6.9-12.1-12.4c-3-6.6-5.6-13.4-7.8-20.2c-0.6-1.8-1.1-3.7-0.7-5.5c1-4.8,7.3-5.8,12-7.5
			c7.9-2.8,13.8-10.5,14.4-18.9c0.5-6.9-2-15,2.6-20.2c2.1-2.3,5.2-3.4,8.3-4c13.3-2.7,27.9,2.6,36.5,13.2c3,3.7,5.2,7.8,7.4,12
			c4.8,8.9,9.6,17.8,13.4,27.2"/>
	</g>
	<g class="st0">
		<path class="st1" d="M-256.7,301.5c-1.4,7.1-3.8,14.2-8.5,19.8s-12,9.2-19.2,8c-7.3-1.3-13.7-7.3-21-6.2
			c-9.8,1.5-15.6,15-25.4,13.7c-6-0.8-9.6-6.9-12.1-12.4c-3-6.6-5.6-13.4-7.8-20.2c-0.6-1.8-1.1-3.7-0.7-5.5c1-4.8,7.3-5.8,12-7.5
			c7.9-2.8,13.8-10.5,14.4-18.9c0.5-6.9-2-15,2.6-20.2c2.1-2.3,5.2-3.4,8.3-4c13.3-2.7,27.9,2.6,36.5,13.2c3,3.7,5.2,7.8,7.4,12
			c4.8,8.9,9.6,17.8,13.4,27.2"/>
	</g>
	<g class="st0">
		<path class="st1" d="M106.1,304.5c-1.4,7.1-3.8,14.2-8.5,19.8c-4.7,5.5-12,9.2-19.2,8c-7.3-1.3-13.7-7.3-21-6.2
			c-9.8,1.5-15.6,15-25.4,13.7c-6-0.8-9.6-6.9-12.1-12.4c-3-6.6-5.6-13.4-7.8-20.2c-0.6-1.8-1.1-3.7-0.7-5.5c1-4.8,7.3-5.8,12-7.5
			c7.9-2.8,13.8-10.5,14.4-18.9c0.5-6.9-2-15,2.6-20.2c2.1-2.3,5.2-3.4,8.3-4c13.3-2.7,27.9,2.6,36.5,13.2c3,3.7,5.2,7.8,7.4,12
			c4.8,8.9,9.6,17.8,13.4,27.2"/>
	</g>
	<g class="st0">
		<path class="st1" d="M67,22.4c5.8,1.1,11.5,3.1,16,6.9c4.5,3.8,7.4,9.8,6.5,15.6c-1,5.9-5.9,11.1-5,17
			c1.2,7.9,12.2,12.7,11.1,20.6c-0.6,4.9-5.6,7.8-10.1,9.8c-5.3,2.4-10.8,4.5-16.4,6.3c-1.4,0.5-3,0.9-4.4,0.6
			c-3.9-0.8-4.7-5.9-6.1-9.7c-2.2-6.4-8.5-11.2-15.3-11.7c-5.6-0.4-12.2,1.7-16.4-2.1c-1.9-1.7-2.8-4.3-3.3-6.7
			c-2.1-10.8,2.1-22.7,10.7-29.6c3-2.4,6.3-4.2,9.7-6c7.2-3.9,14.5-7.7,22.1-10.9"/>
	</g>
	<g class="st0">
		<path class="st1" d="M-302.6-211.7c6.6,1.3,13.2,3.5,18.3,7.9c5.1,4.4,8.4,11.4,7.2,18.3c-1.2,7-6.9,13.2-6,20.2
			c1.3,9.3,13.8,14.8,12.5,24.1c-0.8,5.8-6.5,9.3-11.7,11.7c-6.2,2.9-12.5,5.5-19,7.7c-1.7,0.6-3.4,1.1-5.1,0.8
			c-4.5-1-5.4-6.9-6.8-11.4c-2.5-7.5-9.7-13.1-17.5-13.6c-6.5-0.4-14,2.1-18.8-2.3c-2.2-2-3.1-5-3.7-7.9c-2.3-12.7,2.8-26.8,12.7-35
			c3.4-2.9,7.4-5,11.2-7.2c8.4-4.7,16.7-9.3,25.5-13.1"/>
	</g>
	<g class="st0">
		<path class="st1" d="M12.8-164c-0.8-6.7-0.7-13.7,2-19.9c2.7-6.2,8.4-11.5,15.3-12.3c7-0.9,14.7,2.7,21-0.3
			c8.5-4,10-17.6,19.3-19.2c5.7-1,10.8,3.5,14.7,7.7c4.6,5,8.9,10.3,13,15.8c1,1.4,2.1,2.9,2.3,4.7c0.4,4.6-5,7.2-8.8,9.9
			c-6.5,4.6-9.6,13.1-7.8,20.7c1.5,6.3,6.2,12.8,3.4,18.6c-1.3,2.6-3.8,4.5-6.5,5.9c-11.4,6-26.4,5.4-37.2-1.7
			c-3.8-2.4-7-5.5-10.2-8.6c-6.9-6.6-13.9-13.2-20.1-20.4"/>
	</g>
	<g>
		<g>
			<path d="M-631.7-185.2l-25-25c-0.7-0.7-1.8-0.7-2.5,0l-16.9,16.9l-16.9-16.9c-0.3-0.3-0.8-0.5-1.2-0.5s-0.9,0.2-1.2,0.5
				l-24.6,24.6c-0.7,0.7-0.7,1.8,0,2.5l10.5,10.5c-0.4,1.3-0.7,2.4-1,3.3c-1.3,3.9-1.6,5.5,0.9,10.3l-1.4,1.4v0
				c-2.6,2.6-2.6,6.9,0,9.5c1.3,1.3,2.9,2,4.7,2c0.7,0,1.5-0.1,2.1-0.3c0.2,1.3,0.8,2.6,1.9,3.7c1.3,1.3,2.9,2,4.7,2
				c0.8,0,1.6-0.1,2.4-0.4c0.2,1.3,0.9,2.5,1.9,3.5c1.3,1.3,2.9,2,4.7,2c1,0,2-0.2,2.9-0.7c0.3,1.2,0.9,2.4,1.8,3.3
				c1.3,1.3,3,2,4.7,2c1.7,0,3.4-0.7,4.7-2l2-2l5.3,5.3c1.3,1.3,2.9,2,4.7,2h0c1.8,0,3.5-0.7,4.7-2c2.1-2.1,2.5-5.2,1.3-7.7
				c1.2-0.3,2.4-0.9,3.3-1.8c1.3-1.3,2-2.9,2-4.7c0-1-0.2-2-0.7-2.9c1.2-0.3,2.3-0.9,3.3-1.8c1.3-1.3,2-2.9,2-4.7c0-1-0.2-2-0.7-2.9
				c1.2-0.3,2.3-0.9,3.3-1.8c2.6-2.6,2.6-6.9,0-9.5l-1.5-1.5l13.4-13.4C-631-183.4-631-184.5-631.7-185.2L-631.7-185.2z
				 M-706.1-149.7c-0.9,0-1.7-0.3-2.3-0.9c-1.3-1.3-1.3-3.3,0-4.6v0l9.4-9.4c0.6-0.6,1.4-0.9,2.3-0.9c0.9,0,1.7,0.3,2.3,0.9
				c0.6,0.6,0.9,1.4,0.9,2.3c0,0.9-0.3,1.7-0.9,2.3l-7.7,7.7l-1.7,1.7C-704.4-150-705.3-149.7-706.1-149.7L-706.1-149.7z
				 M-695.1-145.4c-0.6,0.6-1.4,0.9-2.3,0.9c-0.9,0-1.7-0.3-2.3-0.9c-1.3-1.3-1.3-3.3,0-4.6c0,0,0,0,0,0l7.7-7.7
				c1.3-1.3,3.3-1.3,4.6,0c1.3,1.3,1.3,3.3,0,4.6l-5.7,5.7L-695.1-145.4z M-686.1-140.3c-0.6,0.6-1.4,0.9-2.3,0.9
				c-0.9,0-1.7-0.3-2.3-0.9c-1.3-1.3-1.3-3.3,0-4.6c0,0,0,0,0,0l5.7-5.7c1.3-1.3,3.3-1.3,4.6,0c0.6,0.6,0.9,1.4,0.9,2.3
				c0,0.9-0.3,1.7-0.9,2.3l-3.3,3.3L-686.1-140.3z M-676.6-135.8c-0.6,0.6-1.4,0.9-2.3,0.9c-0.9,0-1.7-0.3-2.3-0.9
				c-1.3-1.3-1.3-3.3,0-4.6l3.3-3.3c1.3-1.3,3.3-1.3,4.6,0c1.3,1.3,1.3,3.3,0,4.6L-676.6-135.8z M-646.1-160.9
				c-1.3,1.3-3.3,1.3-4.6,0l-2.5-2.5c-0.7-0.7-1.8-0.7-2.5,0c-0.7,0.7-0.7,1.8,0,2.5l2.5,2.5l2.5,2.5c1.3,1.3,1.3,3.3,0,4.6
				c-1.3,1.3-3.3,1.3-4.6,0l-2.5-2.5c-0.7-0.7-1.8-0.7-2.5,0c-0.7,0.7-0.7,1.8,0,2.5l2.5,2.5l2.5,2.5c1.3,1.3,1.3,3.3,0,4.6
				c-1.3,1.3-3.3,1.3-4.6,0l-2.5-2.5c-0.7-0.7-1.8-0.7-2.5,0c-0.7,0.7-0.7,1.8,0,2.5l2.5,2.5l2.5,2.5c0.6,0.6,0.9,1.4,0.9,2.3
				s-0.3,1.7-0.9,2.3c-0.6,0.6-1.4,0.9-2.3,0.9c-0.9,0-1.7-0.3-2.3-0.9l-5.5-5.5c1.5-2.6,1.1-5.9-1.1-8.1c-1.4-1.4-3.2-2-5.1-2
				c0-0.1,0-0.2,0-0.3c0-1.8-0.7-3.5-2-4.7c-1.4-1.4-3.2-2-5.1-2c0-0.1,0-0.2,0-0.3c0-1.8-0.7-3.5-2-4.7c-1.4-1.4-3.2-2-5.1-2
				c0-0.1,0-0.2,0-0.3c0-1.8-0.7-3.5-2-4.7c-2.6-2.6-6.9-2.6-9.5,0l-5.5,5.5c-1.5-2.9-1.2-3.8-0.2-6.6c0.4-1.1,0.9-2.6,1.4-4.5
				c0.2-0.6,0-1.2-0.5-1.7l-10-10l22.1-22.1l18,18c0.7,0.7,1.8,0.7,2.5,0c0.6-0.6,1.4-0.9,2.3-0.9s1.7,0.3,2.3,0.9l23,23
				C-644.8-164.2-644.8-162.2-646.1-160.9L-646.1-160.9z M-647.6-171.8l-19.1-19.1c-1.3-1.3-3.1-2-4.8-2l13.6-13.6l22.5,22.5
				L-647.6-171.8z"/>
			<path d="M-663.2-159.4c-0.7-0.7-1.8-0.7-2.5,0c-0.7,0.7-0.7,1.8,0,2.5c0.3,0.3,0.8,0.5,1.2,0.5s0.9-0.2,1.2-0.5
				C-662.5-157.7-662.5-158.8-663.2-159.4L-663.2-159.4z"/>
		</g>
	</g>
	<g>
		<g>
			<path d="M-275.8-165.3h-1.1v-10.3c0-1.6-0.8-3.1-2-3.9v-1.4c0-2-1.7-3.7-3.7-3.7h-0.9l3.3-4.8c1.1-1.6,0.7-3.8-0.9-4.9
				l-22.2-15.1c-0.8-0.5-1.7-0.7-2.6-0.6c-0.9,0.2-1.7,0.7-2.3,1.5l-19.1,28.1h-5.3l1.3-13c0-0.1,0.1-0.3,0.2-0.3
				c1.7-0.6,3.1-1.8,4-3.3c0.1-0.1,0.2-0.2,0.4-0.2l8.3,0.8c0.6,0.1,1.1-0.4,1.2-1c0.1-0.6-0.4-1.1-1-1.2l-8.3-0.8
				c-1-0.1-1.9,0.4-2.4,1.2c-0.7,1.1-1.8,2-3,2.4c-0.9,0.3-1.5,1.2-1.6,2.1l-1.3,13.2h-1.4l2-20.6c0.1-0.7,0.7-1.3,1.5-1.2l16.9,1.7
				c0.6,0.1,1.1-0.4,1.2-1c0.1-0.6-0.4-1.1-1-1.2l-16.9-1.7c-1.9-0.2-3.7,1.2-3.9,3.2l-1.6,16.6h-2.8c-2,0-3.7,1.7-3.7,3.7v1
				c-1.7,0.8-2.8,2.4-2.8,4.4v37.1c0,2.7,2.2,4.8,4.8,4.8h60.7c2.7,0,4.8-2.2,4.8-4.8v-10.3h1.1c1.3,0,2.4-1.1,2.4-2.4v-11.6
				C-273.3-164.2-274.4-165.3-275.8-165.3z M-282.6-182.5L-282.6-182.5c0.8,0,1.5,0.7,1.5,1.5v0.6c-0.2,0-0.4,0-0.6,0h-4.6l1.4-2
				H-282.6z M-306.4-207.3c0.2-0.3,0.5-0.5,0.9-0.6c0.1,0,0.2,0,0.3,0c0.3,0,0.5,0.1,0.8,0.2l22.2,15.1c0.6,0.4,0.8,1.3,0.4,1.9
				l-7,10.2h-1.7l3.4-5c0.6-0.8,0.6-1.8,0.1-2.7c-0.6-1.1-0.9-2.5-0.7-3.8c0.1-1-0.3-1.9-1.1-2.4l-11.5-7.8
				c-0.8-0.5-1.8-0.6-2.7-0.1c-1.1,0.6-2.5,0.9-3.8,0.7c-1-0.1-1.9,0.3-2.5,1.1l-13.7,20.1h-1.7L-306.4-207.3z M-305.9-188.8
				c-4.7,0-8.6,3.7-8.9,8.4h-5.5l12.8-18.8c0,0,0,0,0,0c0.1-0.1,0.2-0.2,0.3-0.2c0,0,0,0,0,0c1.8,0.2,3.6-0.1,5.1-0.9
				c0.1-0.1,0.3-0.1,0.4,0l11.5,7.8c0.1,0.1,0.2,0.2,0.2,0.4c-0.2,1.8,0.1,3.6,1,5.1c0.1,0.1,0.1,0.3,0,0.4l-4.2,6.2h-3.7
				C-297.3-185.1-301.2-188.8-305.9-188.8z M-299.2-180.5h-13.5c0.3-3.5,3.2-6.2,6.8-6.2C-302.4-186.6-299.5-183.9-299.2-180.5z
				 M-342.3-181c0-0.8,0.7-1.5,1.5-1.5h2.6l-0.2,2h-3.9V-181z M-345.1-175.6c0-1.5,1.2-2.7,2.7-2.7h60.7c1.5,0,2.7,1.2,2.7,2.7v3
				h-66V-175.6z M-279.1-138.5c0,1.5-1.2,2.7-2.7,2.7h-60.7c-1.5,0-2.7-1.2-2.7-2.7v-3h5.9c0.6,0,1.1-0.5,1.1-1.1
				c0-0.6-0.5-1.1-1.1-1.1h-5.9v-26.7h66v5.1h-10.3h0c-3.3,0-6.1,1.9-7.4,4.7c0,0,0,0,0,0c0,0,0,0,0,0.1c-0.2,0.3-0.3,0.7-0.4,1.1
				c0,0,0,0,0,0c-0.2,0.8-0.4,1.6-0.4,2.4c0,4.6,3.7,8.3,8.3,8.3h0h10.3v5.1h-53.2c-0.6,0-1.1,0.5-1.1,1.1s0.5,1.1,1.1,1.1h53.2
				V-138.5z M-275.5-151.3c0,0.1-0.1,0.3-0.3,0.3h-13.7c-2.3,0-4.3-1.3-5.3-3.2c0-0.1-0.1-0.2-0.1-0.3c-0.1-0.2-0.2-0.4-0.2-0.5
				c-0.2-0.7-0.4-1.4-0.4-2.1c0-0.7,0.1-1.4,0.4-2.1c0.1-0.2,0.1-0.4,0.2-0.5c0-0.1,0.1-0.2,0.1-0.3c1-1.9,3-3.2,5.3-3.2h13.7
				c0.1,0,0.3,0.1,0.3,0.3V-151.3L-275.5-151.3z"/>
		</g>
	</g>
	<g>
		<g>
			<path d="M-289.2-161.5c-2.4,0-4.4,2-4.4,4.4c0,2.4,2,4.4,4.4,4.4s4.4-2,4.4-4.4C-284.8-159.5-286.7-161.5-289.2-161.5z
				 M-289.2-154.8c-1.2,0-2.2-1-2.2-2.2s1-2.2,2.2-2.2c1.2,0,2.2,1,2.2,2.2S-287.9-154.8-289.2-154.8z"/>
		</g>
	</g>
	<g>
		<g>
			<path d="M76.5-184.7c-0.4-0.5-1.2-0.6-1.8-0.2L62.3-175l-16.1-6.7c-0.4-0.2-0.8-0.1-1.2,0.2l-17.3,12.3c-0.5,0.4-0.7,1.2-0.3,1.7
				c0.2,0.4,0.6,0.5,1,0.5c0.2,0,0.5-0.1,0.7-0.2l16.7-11.9l16.2,6.7c0.4,0.2,0.9,0.1,1.2-0.2l13-10.3
				C76.9-183.3,76.9-184.2,76.5-184.7z"/>
		</g>
	</g>
	<g>
		<g>
			<path d="M94.6-142.5h-5.7v-35.7c0-0.7-0.5-1.2-1.2-1.2H76.3c-0.7,0-1.2,0.5-1.2,1.2v35.7h-4.2v-23.3c0-0.7-0.5-1.2-1.2-1.2H58.3
				c-0.7,0-1.2,0.5-1.2,1.2v23.3h-4.2v-25.2c0-0.7-0.5-1.2-1.2-1.2H40.3c-0.7,0-1.2,0.5-1.2,1.2v25.2h-4.2v-17.9
				c0-0.7-0.5-1.2-1.2-1.2H22.3c-0.7,0-1.2,0.5-1.2,1.2v17.9h-5.8c-0.7,0-1.2,0.5-1.2,1.2c0,0.7,0.5,1.2,1.2,1.2h6.9h11.3h6.8h11.3
				h6.6h11.3h6.6h11.3h6.9c0.7,0,1.2-0.5,1.2-1.2C95.8-142,95.3-142.5,94.6-142.5z M32.4-142.5h-8.9v-16.7h8.9V-142.5z M50.4-142.5
				h-8.9v-24h8.9V-142.5z M68.4-142.5h-8.9v-22.1h8.9V-142.5z M86.4-142.5h-8.9v-34.4h8.9V-142.5z"/>
		</g>
	</g>
	<g>
		<g>
			<path d="M-712.7,33.6h-3.9V83h40.7l47.6-7V41.6l-1.3-0.2l-1.8-0.3c-1.4-0.2-2.3-0.4-2.3-0.4s-0.4,0-2.4-0.5l-39.8-6.7h-1.7
				 M-685.4,33.6h-19.5 M-680.2,33.6h-2.6 M-707.5,33.6h-2.6 M-704.9,80.4h-9.1V36.2h9.1v2.6h-6.5v38.9h6.5V80.4z M-689.3,75.2h-2.6
				v-9.1h-2.6v11.7h5.2v2.6h-13v-2.6h5.2V66.1h-2.6v9.1h-2.6v-2.6h-2.6v2.6h-3.9V41.4h3.9V44h2.6v-2.6h2.6v10.4h2.6v-13h-5.2v-2.6
				h13v2.6h-5.2v13h2.6V41.4h2.6V44h2.6v-2.6h3.9v33.8h-3.9v-2.6h-2.6V75.2L-689.3,75.2z M-630.9,73.7l-44.1,6.5v-6.3h-2.6v6.5h-9.1
				v-2.6h6.5V38.8h-6.5v-2.6h9.1v29.9h2.6V36.4l44.1,7.4V73.7L-630.9,73.7z"/>
		</g>
	</g>
	<g>
		<g>
			<rect x="-677.6" y="68.7" width="2.6" height="2.6"/>
		</g>
	</g>
	<g>
		<g>
			<rect x="-704.9" y="46.6" width="2.6" height="2.6"/>
		</g>
	</g>
	<g>
		<g>
			<path d="M-686.7,54.4v-2.6h-2.6v2.6h-13v-2.6h-2.6v2.6h-1.3v7.8h1.3v2.6h2.6v-2.6h13v2.6h2.6v-2.6h1.3v-7.8H-686.7z M-688,59.6
				h-15.6V57h15.6V59.6z"/>
		</g>
	</g>
	<g>
		<g>
			<rect x="-704.9" y="67.4" width="2.6" height="2.6"/>
		</g>
	</g>
	<g>
		<g>
			<rect x="-689.3" y="46.6" width="2.6" height="2.6"/>
		</g>
	</g>
	<g>
		<g>
			<rect x="-689.3" y="67.4" width="2.6" height="2.6"/>
		</g>
	</g>
	<g>
		<g>
			<rect x="-669.8" y="41.4" width="2.6" height="33.8"/>
		</g>
	</g>
	<g>
		<g>
			<rect x="-663.3" y="42.7" width="2.6" height="31.2"/>
		</g>
	</g>
	<g>
		<g>
			<rect x="-656.8" y="44" width="2.6" height="28.6"/>
		</g>
	</g>
	<g>
		<g>
			<rect x="-650.3" y="45.3" width="2.6" height="26"/>
		</g>
	</g>
	<g>
		<g>
			<rect x="-643.8" y="46.6" width="2.6" height="23.4"/>
		</g>
	</g>
	<g>
		<g>
			<rect x="-637.4" y="47.9" width="2.6" height="20.8"/>
		</g>
	</g>
	<path d="M-265.6,58.4h-9.7c-0.9,0-1.6,0.7-1.6,1.6v1.4h-10.2c-0.2,0-0.4,0-0.6,0.1l-13.1,5.4c-1.5,0.6-2.7,1.8-3.3,3.3
		c-0.6,1.5-0.6,3.2,0,4.7l0,0.1c0.4,0.9,0.9,1.7,1.6,2.3c-2,0.5-4.1,0.6-6.1,0.1l-12.9-2.9c-1.6-0.4-3.2-0.1-4.5,0.8
		c-1.4,0.9-2.3,2.2-2.6,3.8c-0.7,3.1,1.3,6.2,4.4,7l15.3,3.9c1.3,0.3,2.6,0.5,3.9,0.5c2,0,3.9-0.4,5.8-1.1l19.5-7.6h2.8v0.9
		c0,0.9,0.7,1.6,1.6,1.6h9.7c0.9,0,1.6-0.7,1.6-1.6V60.1C-263.9,59.1-264.6,58.4-265.6,58.4z M-280,78.5c-0.2,0-0.4,0-0.6,0.1
		l-19.8,7.8c-2.5,1-5.1,1.1-7.7,0.5l-15.3-3.9c-1.4-0.4-2.3-1.7-2-3.1c0.1-0.7,0.6-1.3,1.2-1.7c0.4-0.3,0.9-0.4,1.4-0.4
		c0.2,0,0.4,0,0.6,0.1l12.9,2.9c3.1,0.7,6.3,0.5,9.3-0.7l3.7-1.4c0.1,0,0.2-0.1,0.2-0.1c3.3-1.3,7.5-2.9,8.4-3.2l0.2-0.1
		c0.8-0.3,1.3-1.3,0.9-2.1c-0.3-0.8-1.3-1.3-2.1-0.9c0,0-0.1,0-0.2,0.1l-8.6,3.3c-1.5,0.5-3-0.2-3.6-1.7l0-0.1
		c-0.3-0.7-0.3-1.5,0-2.2c0.3-0.7,0.8-1.2,1.5-1.5l12.8-5.3h9.9v13.8H-280z M-267.2,81h-6.4V61.7h6.4V81z"/>
	<path d="M-332,57.7h-3V42.4h0.5c1.2,0,2.4-0.3,3.5-0.8c0.1,0,0.1-0.1,0.1-0.1l10.6-6.9c1.5-0.7,3.3-0.6,4.6,0.4l0.8,0.6
		c0,0.1-0.1,0.1-0.1,0.2c-0.2,0.3-0.4,0.6-0.6,0.9c-1.1,1.9-1.9,4-2.1,6.2c-1.1,0.1-2.2,0.6-3,1.4c-0.9,0.9-1.4,2.2-1.4,3.5
		c0,2.7,2.2,4.9,4.9,4.9h12.1c0.7,0,1.3,0.3,1.8,0.7c0.5,0.5,0.7,1.1,0.7,1.8c0,1-0.6,1.9-1.5,2.3c-0.1,0-0.2,0.1-0.3,0.1
		c0,0,0,0,0,0c-0.2,0.1-0.5,0.1-0.7,0.1h-13.8c-0.9,0-1.6,0.7-1.6,1.6s0.7,1.6,1.6,1.6h13.8c0.4,0,0.8,0,1.2-0.1
		c0.7,0.1,1.4,0.1,2.1,0.1c8.9,0,16.1-7.2,16.1-16.1c0-8.9-7.2-16.1-16.1-16.1c-4.1,0-8,1.6-11,4.3l-1-0.7c-2.3-1.7-5.5-2-8.1-0.7
		c-0.1,0-0.1,0.1-0.1,0.1l-10.6,6.9c-0.6,0.3-1.3,0.4-1.9,0.4h-0.5v-0.6c0-0.9-0.7-1.6-1.6-1.6h-9.7c-0.9,0-1.6,0.7-1.6,1.6v22.6
		c0,0.9,0.7,1.6,1.6,1.6h9.7c0.9,0,1.6-0.7,1.6-1.6V61h3c0.9,0,1.6-0.7,1.6-1.6S-331.1,57.7-332,57.7z M-318.8,47.7
		c0-0.4,0.2-0.9,0.5-1.2c0.2-0.2,0.4-0.3,0.6-0.4c0.1,1.1,0.3,2.2,0.6,3.2C-318.1,49.4-318.8,48.7-318.8,47.7z M-288.8,44.9
		c0,6.4-4.7,11.8-10.9,12.7c0.3-0.7,0.5-1.6,0.5-2.4c0-1-0.3-2-0.7-2.8c0.7-0.1,1.4-0.4,1.9-1c0.7-0.6,1-1.5,1-2.4v-2.4
		c0-1.9-1.5-3.4-3.4-3.4h-2.4c-0.1,0-0.2-0.1-0.2-0.2v-2.3c0-0.1,0.1-0.2,0.2-0.2h1.2h0h0h1.2c0.1,0,0.2,0.1,0.2,0.2
		c0,0.9,0.7,1.6,1.6,1.6c0.9,0,1.6-0.7,1.6-1.6c0-1.7-1.3-3.2-3-3.4v-0.6c0-0.9-0.7-1.6-1.6-1.6c-0.9,0-1.6,0.7-1.6,1.6v0.6
		c-1.7,0.2-3,1.7-3,3.4V43c0,1.9,1.5,3.4,3.4,3.4h2.4c0.1,0,0.2,0.1,0.2,0.2V49c0,0,0,0.1,0,0.1c0,0-0.1,0-0.1,0h-2.4
		c-0.1,0-0.2-0.1-0.2-0.2v-0.2c0-0.9-0.7-1.6-1.6-1.6s-1.6,0.7-1.6,1.6V49c0,0.1,0,0.3,0,0.4h-7.4c-0.6-1.4-0.8-3-0.8-4.6
		c0-2.4,0.7-4.8,2-6.8c0.4-0.6,0.8-1.1,1.2-1.7c2.4-2.8,6-4.4,9.6-4.4C-294.6,32-288.8,37.8-288.8,44.9z M-338.2,59.4h-6.4V40.2h6.4
		V59.4z"/>
	<path d="M-324.1,58.5c-0.4-0.6-1.1-0.9-1.8-0.7c-0.7,0.2-1.1,0.8-1.2,1.4c-0.1,0.7,0.3,1.3,1,1.6c0.6,0.3,1.4,0.1,1.8-0.3
		C-323.7,60-323.6,59.1-324.1,58.5z"/>
	<g>
		<g>
			<path d="M61.7,29.1c-17.5,0-31.7,14.2-31.7,31.7s14.2,31.7,31.7,31.7s31.7-14.2,31.7-31.7C93.4,43.2,79.2,29.1,61.7,29.1z
				 M61.7,90.2c-16.3,0-29.5-13.2-29.5-29.5s13.2-29.5,29.5-29.5s29.5,13.2,29.5,29.5C91.3,77,78.1,90.2,61.7,90.2z"/>
		</g>
	</g>
	<g>
		<g>
			<path d="M61.7,34.3c-14.6,0-26.4,11.8-26.4,26.4s11.8,26.4,26.4,26.4s26.4-11.8,26.4-26.4C88.1,46.1,76.3,34.3,61.7,34.3z
				 M61.7,85c-13.4,0-24.3-10.9-24.3-24.3s10.9-24.3,24.3-24.3S86,47.3,86,60.7C86,74.1,75.1,85,61.7,85z"/>
		</g>
	</g>
	<g>
		<g>
			<rect x="60.7" y="39.6" width="2.1" height="2.1"/>
		</g>
	</g>
	<g>
		<g>
			<rect x="60.7" y="79.7" width="2.1" height="2.1"/>
		</g>
	</g>
	<g>
		<g>
			<rect x="50.7" y="42.3" transform="matrix(0.866 -0.5001 0.5001 0.866 -14.7448 31.6793)" width="2.1" height="2.1"/>
		</g>
	</g>
	<g>
		<g>
			<rect x="70.7" y="77" transform="matrix(0.866 -0.5001 0.5001 0.866 -29.4194 46.3555)" width="2.1" height="2.1"/>
		</g>
	</g>
	<g>
		<g>
			<rect x="43.3" y="49.6" transform="matrix(0.5 -0.866 0.866 0.5 -21.6981 63.7819)" width="2.1" height="2.1"/>
		</g>
	</g>
	<g>
		<g>
			<rect x="78" y="69.7" transform="matrix(0.5 -0.866 0.866 0.5 -21.7032 103.8709)" width="2.1" height="2.1"/>
		</g>
	</g>
	<g>
		<g>
			<rect x="40.6" y="59.7" width="2.1" height="2.1"/>
		</g>
	</g>
	<g>
		<g>
			<rect x="80.7" y="59.7" width="2.1" height="2.1"/>
		</g>
	</g>
	<g>
		<g>
			<rect x="43.3" y="69.7" transform="matrix(0.8661 -0.4999 0.4999 0.8661 -29.4129 31.6613)" width="2.1" height="2.1"/>
		</g>
	</g>
	<g>
		<g>
			<rect x="78" y="49.6" transform="matrix(0.866 -0.5 0.5 0.866 -14.7433 46.3435)" width="2.1" height="2.1"/>
		</g>
	</g>
	<g>
		<g>
			<rect x="50.7" y="77" transform="matrix(0.5001 -0.866 0.866 0.5001 -41.7455 83.8074)" width="2.1" height="2.1"/>
		</g>
	</g>
	<g>
		<g>
			<rect x="70.7" y="42.3" transform="matrix(0.5001 -0.866 0.866 0.5001 -1.6612 83.8174)" width="2.1" height="2.1"/>
		</g>
	</g>
	<g>
		<g>
			<path d="M60.7,43.8v16.3l-10,6l1.1,1.8l10.6-6.3c0.3-0.2,0.5-0.5,0.5-0.9V43.8H60.7z"/>
		</g>
	</g>
	<g>
		<g>
			<g>
				<path d="M-690.5,327c-1,0-1.7,0.8-1.7,1.7s0.8,1.7,1.7,1.7h0c1,0,1.7-0.8,1.7-1.7S-689.5,327-690.5,327z"/>
				<path d="M-623.8,298.5c0.2-0.9-0.3-1.8-1.1-2.1c-4.1-1.4-9.1-4.5-9.1-11.4v-3.7c0-5.5-0.9-9.6-2.9-12.5
					c-2.3-3.5-6.2-5.2-11.4-5.2c-5.2,0-9,1.8-11.4,5.2c-1.9,2.9-2.9,7-2.9,12.5v3.7c0,6.9-4.9,10-9.1,11.4c-0.9,0.3-1.4,1.2-1.1,2.1
					c0.9,3.6,2.3,5.7,4.8,6.9c-0.5,0.5-1,1.1-1.4,1.7c-2.6-3.9-7.5-5.2-11.7-6.4c-0.8-0.2-1.5-0.4-2.3-0.6V299
					c4.7-2.5,7.9-7.5,7.9-13.2v-6.9c0-8.3-6.7-15-15-15c-8.3,0-15,6.7-15,15v6.9c0,5.7,3.2,10.6,7.9,13.2v1.2
					c-0.7,0.2-1.5,0.4-2.2,0.6c-5.9,1.6-13.3,3.6-13.4,12.6c0,0,0,0,0,0v15.3c0,1,0.8,1.7,1.7,1.7h13.2c1,0,1.7-0.8,1.7-1.7
					s-0.8-1.7-1.7-1.7h-2.1v-7.1c0-1-0.8-1.7-1.7-1.7c-1,0-1.7,0.8-1.7,1.7v7.1h-5.9v-13.5c0.1-6,4.2-7.5,10.9-9.3
					c0.6-0.2,1.1-0.3,1.7-0.5c0.9,2.8,3.6,4.9,6.8,4.9c3.2,0,5.8-2.1,6.8-4.9c0.6,0.2,1.1,0.3,1.7,0.5c6.7,1.8,10.8,3.3,10.9,9.3
					V327h-5.9v-7.1c0-1-0.8-1.7-1.7-1.7s-1.7,0.8-1.7,1.7v7.1h-2.1c-1,0-1.7,0.8-1.7,1.7s0.8,1.7,1.7,1.7h26.5c1,0,1.7-0.8,1.7-1.7
					s-0.8-1.7-1.7-1.7h-2.1v-7.1c0-1-0.8-1.7-1.7-1.7s-1.7,0.8-1.7,1.7v7.1h-5.9v-13.5c0.1-6,4.2-7.5,10.9-9.3
					c0.6-0.2,1.1-0.3,1.7-0.5c0.9,2.8,3.6,4.9,6.8,4.9c3.2,0,5.8-2.1,6.8-4.9c0.6,0.2,1.1,0.3,1.7,0.5c6.7,1.8,10.8,3.3,10.9,9.3
					V327h-5.9v-7.1c0-1-0.8-1.7-1.7-1.7s-1.7,0.8-1.7,1.7v7.1h-2.1c-1,0-1.7,0.8-1.7,1.7s0.8,1.7,1.7,1.7h13.2c1,0,1.7-0.8,1.7-1.7
					v-15.3c0,0,0,0,0,0c-0.1-3.7-1.3-6.2-3.2-8C-626.1,304.3-624.7,302.2-623.8,298.5L-623.8,298.5z M-701.9,278.9
					c0-6.3,5.2-11.5,11.5-11.5c6.3,0,11.5,5.2,11.5,11.5v1.8c-4.6,0.2-10.4-0.4-14.7-3.3c-0.8-0.5-1.8-0.4-2.4,0.4
					c-1.5,1.9-3.3,2.4-5.9,2.7V278.9z M-686.8,301.5c0,2-1.6,3.6-3.6,3.6c-2,0-3.6-1.6-3.6-3.6v-1.1c1.2,0.3,2.4,0.5,3.6,0.5
					c1.3,0,2.5-0.2,3.6-0.4V301.5z M-690.4,297.3c-6.3,0-11.5-5.2-11.5-11.5V284c2.8-0.3,5.5-0.8,7.7-2.9c4.8,2.7,10.6,3.3,15.3,3.1
					v1.6C-679,292.2-684.1,297.3-690.4,297.3L-690.4,297.3z M-656.7,270.9c1.7-2.5,4.4-3.7,8.5-3.7c4,0,6.8,1.2,8.5,3.7
					c1.4,2,2.1,5,2.3,9.1c-3.2,0.6-7.1,0.1-9.2-4.1c-0.6-1.3-2.5-1.3-3.1,0c-2.1,4.2-5.9,4.6-9.2,4.1
					C-658.9,275.9-658.1,272.9-656.7,270.9z M-655.4,300.2c-0.7,0.2-1.5,0.4-2.2,0.6c-2.1,0.6-4.4,1.2-6.5,2.2
					c-2.7-0.5-3.9-1.3-4.7-3.8c2.8-1.2,6.3-3.3,8.3-7.1c1.3,2.2,3.1,4,5.3,5.3L-655.4,300.2L-655.4,300.2z M-644.6,301.5
					c0,2-1.6,3.6-3.6,3.6c-2,0-3.6-1.6-3.6-3.6v-2.6c1.2,0.3,2.4,0.5,3.6,0.5c1.3,0,2.5-0.2,3.6-0.5V301.5z M-648.3,295.8
					c-5.9,0-10.8-4.8-10.8-10.8v-1.5c0.7,0.1,1.5,0.2,2.2,0.2c3.5,0,6.5-1.3,8.6-3.8c2.1,2.5,5.1,3.8,8.6,3.8c0.7,0,1.4-0.1,2.2-0.2
					v1.5C-637.5,291-642.4,295.8-648.3,295.8z M-632.4,303c-2.1-1-4.4-1.6-6.5-2.2c-0.8-0.2-1.5-0.4-2.2-0.6v-2.8
					c2.2-1.3,4-3.1,5.2-5.3c2,3.8,5.4,5.9,8.3,7.1C-628.5,301.6-629.6,302.5-632.4,303L-632.4,303z"/>
				<path d="M-648.3,327c-1,0-1.7,0.8-1.7,1.7s0.8,1.7,1.7,1.7h0c1,0,1.7-0.8,1.7-1.7S-647.3,327-648.3,327z"/>
			</g>
		</g>
	</g>
	<path d="M-297.7,321.6h-2.7v-13.1c0-0.7-0.6-1.3-1.3-1.3s-1.3,0.6-1.3,1.3v13.1h-34.7v-26.7h11.1c0.7,0,1.3-0.6,1.3-1.3
		s-0.6-1.3-1.3-1.3H-339c-0.7,0-1.3,0.6-1.3,1.3v28h-2.7c-0.7,0-1.3,0.6-1.3,1.3v2.7c0,3.7,3,6.7,6.7,6.7h34.7c3.7,0,6.7-3,6.7-6.7
		v-2.7C-296.4,322.2-297,321.6-297.7,321.6z M-299,325.6c0,2.2-1.8,4-4,4h-2.7v-1.3c0-0.7-0.6-1.3-1.3-1.3s-1.3,0.6-1.3,1.3v1.3h-24
		v-1.3c0-0.7-0.6-1.3-1.3-1.3s-1.3,0.6-1.3,1.3v1.3h-2.7c-2.2,0-4-1.8-4-4v-1.3h42.7V325.6z"/>
	<path d="M-275,260.2h2.7c0.7,0,1.3-0.6,1.3-1.3s-0.6-1.3-1.3-1.3h-2.7c-2.2,0-4,1.8-4,4v1.3h-1.3c-0.7,0-1.3,0.6-1.3,1.3
		c0,0.7,0.6,1.3,1.3,1.3h1.3v4c0,0.7,0.6,1.3,1.3,1.3c0.7,0,1.3-0.6,1.3-1.3v-4h1.3c0.7,0,1.3-0.6,1.3-1.3c0-0.7-0.6-1.3-1.3-1.3
		h-1.3v-1.3C-276.4,260.8-275.8,260.2-275,260.2z"/>
	<path d="M-268.4,252.2h-16c-2.2,0-4,1.8-4,4v2.7c0,0.7,0.6,1.3,1.3,1.3s1.3-0.6,1.3-1.3v-2.7c0-0.7,0.6-1.3,1.3-1.3h16
		c0.7,0,1.3,0.6,1.3,1.3v16c0,0.7-0.6,1.3-1.3,1.3h-16c-0.7,0-1.3-0.6-1.3-1.3v-8c0-0.7-0.6-1.3-1.3-1.3s-1.3,0.6-1.3,1.3v8
		c0,2.2,1.8,4,4,4h16c2.2,0,4-1.8,4-4v-16C-264.4,254-266.2,252.2-268.4,252.2z"/>
	<path d="M-281.7,305.6c0,2.9,2.4,5.3,5.3,5.3c2.9,0,5.3-2.4,5.3-5.3c0-2.9-2.4-5.3-5.3-5.3C-279.3,300.2-281.7,302.6-281.7,305.6z
		 M-273.7,305.6c0,1.5-1.2,2.7-2.7,2.7c-1.5,0-2.7-1.2-2.7-2.7c0-1.5,1.2-2.7,2.7-2.7C-274.9,302.9-273.7,304.1-273.7,305.6z"/>
	<path d="M-268.4,293.6h-16c-2.2,0-4,1.8-4,4v16c0,2.2,1.8,4,4,4h16c2.2,0,4-1.8,4-4v-2.7c0-0.7-0.6-1.3-1.3-1.3s-1.3,0.6-1.3,1.3
		v2.7c0,0.7-0.6,1.3-1.3,1.3h-16c-0.7,0-1.3-0.6-1.3-1.3v-16c0-0.7,0.6-1.3,1.3-1.3h16c0.7,0,1.3,0.6,1.3,1.3v8
		c0,0.7,0.6,1.3,1.3,1.3s1.3-0.6,1.3-1.3v-8C-264.4,295.4-266.2,293.6-268.4,293.6z"/>
	<path d="M-314.4,268c0.2,0.1,0.5,0.2,0.7,0.2c0.2,0,0.4-0.1,0.6-0.1l8-4c0.7-0.3,0.9-1.1,0.6-1.8c-0.1-0.2-0.3-0.5-0.6-0.6l-8-4
		c-0.7-0.3-1.5-0.1-1.8,0.6c-0.1,0.2-0.1,0.4-0.1,0.6v8C-315,267.4-314.8,267.8-314.4,268z M-312.4,261.1l3.7,1.8l-3.7,1.8V261.1z"
		/>
	<path d="M-311,274.9c6.6,0,12-5.4,12-12s-5.4-12-12-12s-12,5.4-12,12S-317.7,274.9-311,274.9z M-311,253.6c5.2,0,9.3,4.2,9.3,9.3
		c0,5.2-4.2,9.3-9.3,9.3s-9.3-4.2-9.3-9.3C-320.4,257.8-316.2,253.6-311,253.6z"/>
	<path d="M-297.7,280.2c0.4,0,0.8-0.2,1.1-0.5l4-5.3c0.4-0.6,0.3-1.4-0.3-1.9c-0.6-0.4-1.4-0.3-1.9,0.3l-4,5.3
		c-0.4,0.6-0.3,1.4,0.3,1.9C-298.3,280.2-298,280.2-297.7,280.2z"/>
	<path d="M-294.8,285c0.3,0.3,0.6,0.5,1.1,0.5c0.3,0,0.6-0.1,0.8-0.3l5.3-4c0.6-0.4,0.7-1.3,0.3-1.9c-0.4-0.6-1.3-0.7-1.9-0.3
		l-5.3,4C-295.1,283.6-295.2,284.5-294.8,285L-294.8,285z"/>
	<path d="M-281.7,288c-0.1-0.7-0.8-1.2-1.5-1.1c0,0,0,0-0.1,0l-6.7,1.3c-0.7,0.1-1.3,0.7-1.2,1.5c0.1,0.7,0.7,1.3,1.5,1.2h0.3
		l6.7-1.3C-282,289.5-281.6,288.8-281.7,288C-281.7,288-281.7,288-281.7,288z"/>
	<path d="M-343,288.2h16c0.7,0,1.3-0.6,1.3-1.3v-21.3c0-0.7-0.6-1.3-1.3-1.3h-16c-0.7,0-1.3,0.6-1.3,1.3v21.3
		C-344.4,287.6-343.8,288.2-343,288.2z M-341.7,266.9h13.3v18.7h-13.3V266.9z"/>
	<path d="M-332.4,269.6h-2.7c-0.7,0-1.3,0.6-1.3,1.3s0.6,1.3,1.3,1.3h2.7c0.7,0,1.3-0.6,1.3-1.3S-331.6,269.6-332.4,269.6z"/>
	<path d="M-332.4,274.9h-5.3c-0.7,0-1.3,0.6-1.3,1.3s0.6,1.3,1.3,1.3h5.3c0.7,0,1.3-0.6,1.3-1.3S-331.6,274.9-332.4,274.9z"/>
	<path d="M-332.4,280.2h-5.3c-0.7,0-1.3,0.6-1.3,1.3c0,0.7,0.6,1.3,1.3,1.3h5.3c0.7,0,1.3-0.6,1.3-1.3
		C-331,280.8-331.6,280.2-332.4,280.2z"/>
	<path d="M-298.9,287.8c-0.4-0.6-1.2-0.9-1.8-0.5c-0.6,0.4-0.9,1.2-0.5,1.8l5.9,10.2l-21.3,8c0,0,0,0-0.1,0h-0.1l-3.5,2l-2.3,1.3
		c-0.6,0.4-1.3,0.5-2,0.3c-0.7-0.2-1.3-0.6-1.6-1.2l-2.7-4.6c-0.7-1.3-0.2-2.8,1-3.5l4.6-2.7l3.3,5.8c0.2,0.4,0.7,0.7,1.2,0.7
		c0.7,0,1.3-0.6,1.3-1.3c0-0.2-0.1-0.5-0.2-0.7l-3.4-5.9l16.7-13.8l0.5,0.9c0.4,0.6,1.2,0.9,1.8,0.5c0.6-0.4,0.9-1.2,0.5-1.8
		l-1.3-2.3c-0.2-0.3-0.5-0.6-0.9-0.6c-0.4-0.1-0.8,0-1.1,0.3l-18.7,15.4l-5.7,3.3c-2.1,1.2-3.1,3.7-2.5,6l-1.3,0.8
		c-1.9,1.1-2.6,3.5-1.5,5.5c0.5,0.9,1.4,1.6,2.4,1.9c0.3,0.1,0.7,0.1,1,0.1c0.7,0,1.4-0.2,2-0.5l1.3-0.8c0.6,0.7,1.4,1.1,2.3,1.4
		c0.5,0.1,0.9,0.2,1.4,0.2c0.9,0,1.9-0.2,2.7-0.7l1.2-0.7l2.7,4.6c1.1,1.9,3.5,2.6,5.5,1.5c1.9-1.1,2.6-3.5,1.5-5.5c0,0,0,0,0,0
		l-2.4-4.2l20-7.5c0.4-0.1,0.7-0.4,0.8-0.8c0.1-0.4,0.1-0.8-0.1-1.1L-298.9,287.8z M-330.4,310.6c-0.3,0.2-0.7,0.2-1,0.1
		c-0.3-0.1-0.6-0.3-0.8-0.6c-0.2-0.3-0.2-0.7-0.1-1c0.1-0.3,0.3-0.6,0.6-0.8l1.2-0.7l1.3,2.3L-330.4,310.6z M-312.8,314.4
		c0.2,0.3,0.2,0.7,0.1,1c-0.1,0.3-0.3,0.6-0.6,0.8c-0.6,0.4-1.4,0.2-1.8-0.5l-2.7-4.6l2.2-1.3h0.1L-312.8,314.4z"/>
	<g>
		<g>
			<path d="M84,325.2l-3-8.9c-1-3.1-3.7-5.4-6.9-6l-8.5-1.6v-0.7c1.5-0.9,2.8-2,3.8-3.4H72c2.1,0,3.8-1.7,3.8-3.8v-15.3
				c0-9.2-7.4-16.6-16.6-16.6s-16.6,7.4-16.6,16.6v8.9c0,2.5,1.8,4.5,4.1,5c0.7,3.7,3,6.8,6.1,8.6v0.7l-8.5,1.6
				c-3.2,0.6-5.8,2.9-6.9,6l-0.5,1.5l-4.3-4.3c-0.5-0.5-0.5-1.3,0-1.8l5-5l-9.5-9.5l-5.7,5.7c-1.7,1.7-2.6,3.9-2.6,6.3
				s0.9,4.6,2.6,6.3l17.3,17.3c1.7,1.7,3.9,2.6,6.3,2.6c2.4,0,4.6-0.9,6.3-2.6l6.2-5.7l-1.9-1.9H84z M73.3,300.9
				c0,0.7-0.6,1.3-1.3,1.3h-1.1c0.4-0.8,0.7-1.7,0.8-2.7c0.5-0.1,1-0.3,1.5-0.6V300.9z M72,296.8v-4.4c0.8,0.4,1.3,1.3,1.3,2.2
				C73.3,295.5,72.8,296.3,72,296.8z M46.5,296.8c-0.8-0.4-1.3-1.3-1.3-2.2c0-0.9,0.5-1.8,1.3-2.2V296.8z M46.5,288.2v1.5
				c-0.5,0.1-0.9,0.3-1.3,0.5v-4.5c0-7.7,6.3-14,14-14s14,6.3,14,14v4.5c-0.4-0.2-0.8-0.4-1.3-0.5v-1.5h-1.3c-3.8,0-7.3-1.5-10-4.1
				l-1.5-1.5l-1.5,1.5c-2.7,2.7-6.2,4.1-10,4.1H46.5z M49,297.1v-6.4c3.8-0.3,7.4-1.9,10.2-4.5c2.8,2.7,6.4,4.3,10.2,4.5v6.4
				c0,1.9-0.5,3.6-1.4,5.1h-8.8v2.6H66c-1.8,1.6-4.2,2.6-6.7,2.6C53.6,307.3,49,302.7,49,297.1z M63.1,309.3L63.1,309.3l-3.8,3.9
				l-3.8-3.8v-0.1c1.2,0.4,2.5,0.6,3.8,0.6C60.6,309.9,61.9,309.7,63.1,309.3z M39.9,317.1c0.7-2.2,2.6-3.8,4.9-4.3l8.9-1.6l5.5,5.5
				l5.5-5.5l8.9,1.6c2.3,0.4,4.2,2.1,4.9,4.3l1.8,5.5H54l-5-5l-5.5,5c-0.5,0.5-1.3,0.5-1.8,0l-2.8-2.8L39.9,317.1z M28.1,300.8
				l5.9,5.9l-1.4,1.4l-5.9-5.9L28.1,300.8z M50.5,331c-1.2,1.2-2.8,1.9-4.5,1.9s-3.3-0.7-4.5-1.9l-17.3-17.3
				c-1.2-1.2-1.9-2.8-1.9-4.5c0-1.7,0.7-3.3,1.9-4.5L25,304l5.9,5.9l0,0c-1.5,1.5-1.5,3.9,0,5.4l9.2,9.2c0.7,0.7,1.7,1.1,2.7,1.1
				s2-0.4,2.7-1.1l0.1-0.1l5.9,5.9L50.5,331z M53.2,328.6l-5.9-5.9l1.7-1.5l5.9,5.9L53.2,328.6z"/>
		</g>
	</g>
	<g>
		<g>
			<path d="M95,256.2H77.1c-2.1,0-3.8,1.7-3.8,3.8v10.2c0,2.1,1.7,3.8,3.8,3.8h3.4l-1.3,7.7l12.3-7.7H95c2.1,0,3.8-1.7,3.8-3.8
				v-10.2C98.8,258,97.1,256.2,95,256.2z M96.3,270.3c0,0.7-0.6,1.3-1.3,1.3h-4.2l-8.1,5.1l0.9-5.1h-6.4c-0.7,0-1.3-0.6-1.3-1.3
				v-10.2c0-0.7,0.6-1.3,1.3-1.3H95c0.7,0,1.3,0.6,1.3,1.3V270.3z"/>
		</g>
	</g>
	<g>
		<g>
			<rect x="78.4" y="261.3" width="15.3" height="2.6"/>
		</g>
	</g>
	<g>
		<g>
			<rect x="78.4" y="266.5" width="10.2" height="2.6"/>
		</g>
	</g>
	<g>
		<g>
			<rect x="91.2" y="266.5" width="2.6" height="2.6"/>
		</g>
	</g>
	<g>
		<g>
			<path d="M59.2,260.1c-16.7,0-31.1,11.5-34.8,27.6l-2.4-4l-2.2,1.3l4.5,7.5l7.5-4.5l-1.3-2.2l-3.5,2.1
				c3.6-14.7,16.9-25.2,32.2-25.2c3.4,0,6.7,0.5,9.8,1.5l0.8-2.4C66.4,260.6,62.8,260.1,59.2,260.1z"/>
		</g>
	</g>
	<g>
		<g>
			<path d="M98.2,284.5l-7.5-4.5l-4.5,7.5l2.2,1.3l2.2-3.7c1.2,3.4,1.8,7,1.8,10.7c0,7.6-2.6,15-7.4,20.9l2,1.6
				c5.1-6.3,8-14.3,8-22.5c0-3.9-0.6-7.7-1.9-11.4l3.8,2.3L98.2,284.5z"/>
		</g>
	</g>
</g>
<g>
	<g>
		<path d="M451.8-205.7c-6.6,0-11.7,5.3-11.7,11.8c0,6.6,5.3,11.7,11.7,11.7c6.5,0,11.8-5.3,11.8-11.8
			C463.7-200.5,458.4-205.7,451.8-205.7z M451.8-184.7c-5.1,0-9.2-4.1-9.2-9.2s4.2-9.2,9.2-9.2c5.1,0,9.2,4.1,9.2,9.2
			S456.9-184.7,451.8-184.7z"/>
	</g>
</g>
<g>
	<g>
		<path d="M455.6-192.1c-0.1-0.2-0.1-0.4-0.2-0.6c-0.1-0.2-0.2-0.4-0.3-0.6s-0.2-0.3-0.4-0.5c-0.2-0.2-0.3-0.3-0.6-0.4
			c-0.2-0.2-0.4-0.2-0.6-0.3c-0.2-0.1-0.4-0.2-0.6-0.3c-0.2-0.1-0.5-0.2-0.6-0.2c-0.1,0-0.2-0.1-0.3-0.2c-0.1-0.1-0.2-0.1-0.3-0.2
			c-0.1-0.1-0.2-0.1-0.3-0.2c-0.1-0.1-0.2-0.2-0.2-0.2c-0.1-0.1-0.2-0.2-0.2-0.3c-0.1-0.1-0.1-0.2-0.1-0.3c0-0.2,0-0.2,0-0.4
			c0-0.1,0.1-0.2,0.1-0.3c0.1-0.1,0.1-0.2,0.2-0.3c0.1-0.1,0.2-0.2,0.2-0.2c0.1-0.1,0.2-0.2,0.4-0.2c0.2-0.1,0.2-0.1,0.4-0.1
			c0.1,0,0.2,0,0.2,0s0.2,0,0.2,0c0.2,0,0.2,0,0.4,0.1c0.2,0,0.3,0.1,0.4,0.1c0.1,0,0.2,0.1,0.3,0.1c0.2,0,0.2,0.1,0.3,0.1l0.4,0.2
			l0.1-0.5l0.2-1.3v-0.3l-0.3-0.1c-0.1,0-0.2-0.1-0.3-0.1c-0.1,0-0.2-0.1-0.3-0.1c-0.1,0-0.2-0.1-0.4-0.1s-0.2-0.1-0.4-0.1h-0.1
			v-1.1v-0.4h-0.4h-1.1h-0.4v0.4v1.2h-0.1c-0.2,0.1-0.5,0.2-0.7,0.3c-0.2,0.1-0.4,0.2-0.6,0.4c-0.2,0.2-0.3,0.3-0.5,0.6
			c-0.2,0.2-0.2,0.4-0.3,0.6c-0.1,0.2-0.2,0.5-0.2,0.7c-0.1,0.2-0.1,0.6-0.1,0.8s0,0.4,0.1,0.6c0.1,0.2,0.1,0.4,0.2,0.6
			c0.1,0.2,0.2,0.4,0.3,0.6c0.2,0.2,0.2,0.3,0.4,0.5c0.2,0.2,0.3,0.3,0.6,0.4c0.2,0.2,0.4,0.2,0.6,0.3c0.2,0.1,0.5,0.2,0.6,0.3
			c0.2,0.1,0.5,0.2,0.6,0.2c0.1,0,0.2,0.1,0.3,0.2c0.1,0.1,0.2,0.1,0.3,0.2c0.1,0.1,0.2,0.2,0.2,0.2c0.1,0.1,0.2,0.2,0.2,0.2
			c0.1,0.1,0.1,0.2,0.2,0.3c0,0.1,0.1,0.2,0.1,0.4c0,0.2,0,0.2,0,0.4c0,0.1-0.1,0.2-0.2,0.3c-0.1,0.1-0.2,0.2-0.2,0.2
			c-0.1,0.1-0.2,0.2-0.3,0.2c-0.1,0.1-0.2,0.1-0.3,0.2c-0.1,0-0.2,0.1-0.4,0.1c-0.1,0-0.2,0-0.3,0c-0.1,0-0.2,0-0.3,0
			c-0.2,0-0.3,0-0.4,0c-0.2,0-0.3-0.1-0.4-0.1c-0.2,0-0.3-0.1-0.5-0.2s-0.3-0.1-0.5-0.2c-0.1,0-0.2-0.1-0.2-0.1
			c-0.1,0-0.2-0.1-0.2-0.1l-0.5-0.2l-0.1,0.6l-0.2,1.5v0.2l0.2,0.1c0.3-0.1,0.5,0,0.7,0.1c0.2,0.1,0.4,0.2,0.6,0.2
			c0.2,0.1,0.4,0.1,0.6,0.2c0.2,0.1,0.4,0.1,0.6,0.1h0.2v1.2v0.4h0.4h1.1h0.4v-0.4v-1.3h0.1c0.2-0.1,0.5-0.2,0.7-0.3
			c0.2-0.1,0.4-0.2,0.6-0.4c0.2-0.2,0.3-0.3,0.5-0.6c0.2-0.2,0.2-0.4,0.4-0.6c0.1-0.2,0.2-0.5,0.2-0.7c0.1-0.2,0.1-0.5,0.1-0.8
			C455.6-191.7,455.6-191.9,455.6-192.1z"/>
	</g>
</g>
</svg>
