<?xml version="1.0" encoding="utf-8"?>
<!-- Generator: Adobe Illustrator 24.2.1, SVG Export Plug-In . SVG Version: 6.00 Build 0)  -->
<svg version="1.1" id="Capa_1" xmlns="http://www.w3.org/2000/svg" xmlns:xlink="http://www.w3.org/1999/xlink" x="0px" y="0px"
	 viewBox="0 0 119.3 119.3" style="enable-background:new 0 0 119.3 119.3;" xml:space="preserve">
<style type="text/css">
	.st0{opacity:0.3;}
	.st1{fill:#FFC107;}
</style>
<g>
	<g class="st0">
		<path class="st1" d="M82.7-367.1c-6,4-12.7,7.4-20,8c-7.2,0.6-15-2-19.2-7.9c-4.3-6-4.5-14.8-10.5-19.2
			c-7.9-5.9-21.6-0.4-27.7-8.3c-3.7-4.8-1.9-11.7,0.2-17.4c2.6-6.8,5.5-13.4,8.8-19.8c0.8-1.7,1.8-3.4,3.4-4.4
			c4.2-2.7,9.3,1,13.8,3.2c7.6,3.6,17.2,2.4,23.6-3.1c5.3-4.6,9.2-12.1,16.1-12.4c3.1-0.2,6.1,1.3,8.7,3
			c11.3,7.6,17.9,21.6,16.5,35.1c-0.5,4.7-1.9,9.2-3.2,13.7c-2.9,9.7-5.9,19.4-9.8,28.7"/>
	</g>
	<g class="st0">
		<path class="st1" d="M81.5-142.1c-6,4-12.7,7.4-20,8s-15-2-19.2-7.9c-4.3-6-4.5-14.8-10.5-19.2c-7.9-5.9-21.6-0.4-27.7-8.3
			c-3.7-4.8-1.9-11.7,0.2-17.4c2.6-6.8,5.5-13.4,8.8-19.8c0.8-1.7,1.8-3.4,3.4-4.4c4.2-2.7,9.3,1,13.8,3.2
			c7.6,3.6,17.2,2.4,23.6-3.1c5.3-4.6,9.2-12.1,16.1-12.4c3.1-0.2,6.1,1.3,8.7,3c11.3,7.6,17.9,21.6,16.5,35.1
			c-0.5,4.7-1.9,9.2-3.2,13.7c-2.9,9.7-5.9,19.4-9.8,28.7"/>
	</g>
	<g class="st0">
		<path class="st1" d="M90.7,96c-6,4-12.7,7.4-20,8c-7.2,0.6-15-2-19.2-7.9c-4.3-6-4.5-14.8-10.5-19.2c-7.9-5.9-21.6-0.4-27.7-8.3
			c-3.7-4.8-1.9-11.7,0.2-17.4c2.6-6.8,5.5-13.4,8.8-19.8c0.8-1.7,1.8-3.4,3.4-4.4c4.2-2.7,9.3,1,13.8,3.2
			c7.6,3.6,17.2,2.4,23.6-3.1c5.3-4.6,9.2-12.1,16.1-12.4c3.1-0.2,6.1,1.3,8.7,3c11.3,7.6,17.9,21.6,16.5,35.1
			c-0.5,4.7-1.9,9.2-3.2,13.7c-2.9,9.7-5.9,19.4-9.8,28.7"/>
	</g>
	<g class="st0">
		<path class="st1" d="M471.4-168.3c-1.4,7.1-3.8,14.2-8.5,19.8c-4.7,5.5-12,9.2-19.2,8c-7.3-1.3-13.7-7.3-21-6.2
			c-9.8,1.5-15.6,15-25.4,13.7c-6-0.8-9.6-6.9-12.1-12.4c-3-6.6-5.6-13.4-7.8-20.2c-0.6-1.8-1.1-3.7-0.7-5.5c1-4.8,7.3-5.8,12-7.5
			c7.9-2.8,13.8-10.5,14.4-18.9c0.5-6.9-2-15,2.6-20.2c2.1-2.3,5.2-3.4,8.3-4c13.3-2.7,27.9,2.6,36.5,13.2c3,3.7,5.2,7.8,7.4,12
			c4.8,8.9,9.6,17.8,13.4,27.2"/>
	</g>
	<g class="st0">
		<path class="st1" d="M471.4,64.4c-1.4,7.1-3.8,14.2-8.5,19.8s-12,9.2-19.2,8c-7.3-1.3-13.7-7.3-21-6.2c-9.8,1.5-15.6,15-25.4,13.7
			c-6-0.8-9.6-6.9-12.1-12.4c-3-6.6-5.6-13.4-7.8-20.2c-0.6-1.8-1.1-3.7-0.7-5.5c1-4.8,7.3-5.8,12-7.5c7.9-2.8,13.8-10.5,14.4-18.9
			c0.5-6.9-2-15,2.6-20.2c2.1-2.3,5.2-3.4,8.3-4c13.3-2.7,27.9,2.6,36.5,13.2c3,3.7,5.2,7.8,7.4,12c4.8,8.9,9.6,17.8,13.4,27.2"/>
	</g>
	<g class="st0">
		<path class="st1" d="M834.2,67.4c-1.4,7.1-3.8,14.2-8.5,19.8c-4.7,5.5-12,9.2-19.2,8c-7.3-1.3-13.7-7.3-21-6.2
			c-9.8,1.5-15.6,15-25.4,13.7c-6-0.8-9.6-6.9-12.1-12.4c-3-6.6-5.6-13.4-7.8-20.2c-0.6-1.8-1.1-3.7-0.7-5.5c1-4.8,7.3-5.8,12-7.5
			c7.9-2.8,13.8-10.5,14.4-18.9c0.5-6.9-2-15,2.6-20.2c2.1-2.3,5.2-3.4,8.3-4c13.3-2.7,27.9,2.6,36.5,13.2c3,3.7,5.2,7.8,7.4,12
			c4.8,8.9,9.6,17.8,13.4,27.2"/>
	</g>
	<g class="st0">
		<path class="st1" d="M795.1-214.6c5.8,1.1,11.5,3.1,16,6.9s7.4,9.8,6.5,15.6c-1,5.9-5.9,11.1-5,17c1.2,7.9,12.2,12.7,11.1,20.6
			c-0.6,4.9-5.6,7.8-10.1,9.8c-5.3,2.4-10.8,4.5-16.4,6.3c-1.4,0.5-3,0.9-4.4,0.6c-3.9-0.9-4.7-5.9-6.1-9.7
			c-2.2-6.4-8.5-11.2-15.3-11.7c-5.6-0.4-12.2,1.7-16.4-2.1c-1.9-1.7-2.8-4.3-3.3-6.7c-2.1-10.8,2.1-22.7,10.7-29.6
			c3-2.4,6.3-4.2,9.7-6c7.2-3.9,14.5-7.7,22.1-10.9"/>
	</g>
	<g class="st0">
		<path class="st1" d="M425.5-448.8c6.6,1.3,13.2,3.5,18.3,7.9c5.1,4.4,8.4,11.4,7.2,18.3c-1.2,7-6.9,13.2-6,20.2
			c1.3,9.3,13.8,14.8,12.5,24.1c-0.8,5.8-6.5,9.3-11.7,11.7c-6.2,2.9-12.5,5.5-19,7.7c-1.7,0.6-3.4,1.1-5.1,0.8
			c-4.5-1-5.4-6.9-6.8-11.4c-2.5-7.5-9.7-13.1-17.5-13.6c-6.5-0.4-14,2.1-18.8-2.3c-2.2-2-3.1-5-3.7-7.9c-2.3-12.7,2.8-26.8,12.7-35
			c3.4-2.9,7.4-5,11.2-7.2c8.4-4.7,16.7-9.3,25.5-13.1"/>
	</g>
	<g class="st0">
		<path class="st1" d="M741-401.1c-0.8-6.7-0.7-13.7,2-19.9c2.7-6.2,8.4-11.5,15.3-12.3c7-0.9,14.7,2.7,21-0.3
			c8.5-4,10-17.6,19.3-19.2c5.7-1,10.8,3.5,14.7,7.7c4.6,5,8.9,10.3,13,15.8c1,1.4,2.1,2.9,2.3,4.7c0.4,4.6-5,7.2-8.8,9.9
			c-6.5,4.6-9.6,13.1-7.8,20.7c1.5,6.3,6.2,12.8,3.4,18.6c-1.3,2.6-3.8,4.5-6.5,5.9c-11.4,6-26.4,5.4-37.2-1.7
			c-3.8-2.4-7-5.5-10.2-8.6c-6.9-6.6-13.9-13.2-20.1-20.4"/>
	</g>
	<g>
		<g>
			<path d="M96.4-422.3l-25-25c-0.7-0.7-1.8-0.7-2.5,0l-16.9,16.9l-16.9-16.9c-0.3-0.3-0.8-0.5-1.2-0.5c-0.5,0-0.9,0.2-1.2,0.5
				L8.2-422.7c-0.7,0.7-0.7,1.8,0,2.5l10.5,10.5c-0.4,1.3-0.7,2.4-1,3.3c-1.3,3.9-1.6,5.5,0.9,10.3l-1.4,1.4v0
				c-2.6,2.6-2.6,6.9,0,9.5c1.3,1.3,2.9,2,4.7,2c0.7,0,1.5-0.1,2.1-0.3c0.2,1.3,0.8,2.6,1.9,3.7c1.3,1.3,2.9,2,4.7,2
				c0.8,0,1.6-0.1,2.4-0.4c0.2,1.3,0.9,2.5,1.9,3.5c1.3,1.3,2.9,2,4.7,2c1,0,2-0.2,2.9-0.7c0.3,1.2,0.9,2.4,1.8,3.3
				c1.3,1.3,3,2,4.7,2c1.7,0,3.4-0.7,4.7-2l2-2l5.3,5.3c1.3,1.3,2.9,2,4.7,2h0c1.8,0,3.5-0.7,4.7-2c2.1-2.1,2.5-5.2,1.3-7.7
				c1.2-0.3,2.4-0.9,3.3-1.8c1.3-1.3,2-2.9,2-4.7c0-1-0.2-2-0.7-2.9c1.2-0.3,2.3-0.9,3.3-1.8c1.3-1.3,2-2.9,2-4.7c0-1-0.2-2-0.7-2.9
				c1.2-0.3,2.3-0.9,3.3-1.8c2.6-2.6,2.6-6.9,0-9.5l-1.5-1.5l13.4-13.4C97.1-420.5,97.1-421.6,96.4-422.3L96.4-422.3z M22-386.8
				c-0.9,0-1.7-0.3-2.3-0.9c-1.3-1.3-1.3-3.3,0-4.6v0l9.4-9.4c0.6-0.6,1.4-0.9,2.3-0.9c0.9,0,1.7,0.3,2.3,0.9
				c0.6,0.6,0.9,1.4,0.9,2.3c0,0.9-0.3,1.7-0.9,2.3l-7.7,7.7l-1.7,1.7C23.7-387.1,22.9-386.8,22-386.8L22-386.8z M33-382.4
				c-0.6,0.6-1.4,0.9-2.3,0.9c-0.9,0-1.7-0.3-2.3-0.9c-1.3-1.3-1.3-3.3,0-4.6c0,0,0,0,0,0l7.7-7.7c1.3-1.3,3.3-1.3,4.6,0
				c1.3,1.3,1.3,3.3,0,4.6l-5.7,5.7L33-382.4z M42-377.4c-0.6,0.6-1.4,0.9-2.3,0.9c-0.9,0-1.7-0.3-2.3-0.9c-1.3-1.3-1.3-3.3,0-4.6
				c0,0,0,0,0,0l5.7-5.7c1.3-1.3,3.3-1.3,4.6,0c0.6,0.6,0.9,1.4,0.9,2.3c0,0.9-0.3,1.7-0.9,2.3l-3.3,3.3L42-377.4z M51.5-372.8
				c-0.6,0.6-1.4,0.9-2.3,0.9s-1.7-0.3-2.3-0.9c-1.3-1.3-1.3-3.3,0-4.6l3.3-3.3c1.3-1.3,3.3-1.3,4.6,0c1.3,1.3,1.3,3.3,0,4.6
				L51.5-372.8z M82-398c-1.3,1.3-3.3,1.3-4.6,0l-2.5-2.5c-0.7-0.7-1.8-0.7-2.5,0c-0.7,0.7-0.7,1.8,0,2.5l2.5,2.5l2.5,2.5
				c1.3,1.3,1.3,3.3,0,4.6c-1.3,1.3-3.3,1.3-4.6,0l-2.5-2.5c-0.7-0.7-1.8-0.7-2.5,0c-0.7,0.7-0.7,1.8,0,2.5l2.5,2.5l2.5,2.5
				c1.3,1.3,1.3,3.3,0,4.6s-3.3,1.3-4.6,0l-2.5-2.5c-0.7-0.7-1.8-0.7-2.5,0c-0.7,0.7-0.7,1.8,0,2.5l2.5,2.5l2.5,2.5
				c0.6,0.6,0.9,1.4,0.9,2.3c0,0.9-0.3,1.7-0.9,2.3c-0.6,0.6-1.4,0.9-2.3,0.9c-0.9,0-1.7-0.3-2.3-0.9l-5.5-5.5
				c1.5-2.6,1.1-5.9-1.1-8.1c-1.4-1.4-3.2-2-5.1-2c0-0.1,0-0.2,0-0.3c0-1.8-0.7-3.5-2-4.7c-1.4-1.4-3.2-2-5.1-2c0-0.1,0-0.2,0-0.3
				c0-1.8-0.7-3.5-2-4.7c-1.4-1.4-3.2-2-5.1-2c0-0.1,0-0.2,0-0.3c0-1.8-0.7-3.5-2-4.7c-2.6-2.6-6.9-2.6-9.5,0l-5.5,5.5
				c-1.5-2.9-1.2-3.8-0.2-6.6c0.4-1.1,0.9-2.6,1.4-4.5c0.2-0.6,0-1.2-0.5-1.7l-10-10L34-443.5l18,18c0.7,0.7,1.8,0.7,2.5,0
				c0.6-0.6,1.4-0.9,2.3-0.9s1.7,0.3,2.3,0.9l23,23C83.3-401.3,83.3-399.2,82-398L82-398z M80.6-408.9L61.5-428
				c-1.3-1.3-3.1-2-4.8-2l13.6-13.6l22.5,22.5L80.6-408.9z"/>
			<path d="M64.9-396.5c-0.7-0.7-1.8-0.7-2.5,0c-0.7,0.7-0.7,1.8,0,2.5c0.3,0.3,0.8,0.5,1.2,0.5s0.9-0.2,1.2-0.5
				C65.6-394.7,65.6-395.8,64.9-396.5L64.9-396.5z"/>
		</g>
	</g>
	<g>
		<g>
			<path d="M452.4-402.4h-1.1v-10.3c0-1.6-0.8-3.1-2-3.9v-1.4c0-2-1.7-3.7-3.7-3.7h-0.9l3.3-4.8c1.1-1.6,0.7-3.8-0.9-4.9l-22.2-15.1
				c-0.8-0.5-1.7-0.7-2.6-0.6c-0.9,0.2-1.7,0.7-2.3,1.5l-19.1,28.1h-5.3l1.3-13c0-0.1,0.1-0.3,0.2-0.3c1.7-0.6,3.1-1.8,4-3.3
				c0.1-0.1,0.2-0.2,0.4-0.2l8.3,0.8c0.6,0.1,1.1-0.4,1.2-1c0.1-0.6-0.4-1.1-1-1.2l-8.3-0.8c-1-0.1-1.9,0.4-2.4,1.2
				c-0.7,1.1-1.8,2-3,2.4c-0.9,0.3-1.5,1.2-1.6,2.1l-1.3,13.2h-1.4l2-20.6c0.1-0.7,0.7-1.3,1.5-1.2l16.9,1.7c0.6,0.1,1.1-0.4,1.2-1
				c0.1-0.6-0.4-1.1-1-1.2l-16.9-1.7c-1.9-0.2-3.7,1.2-3.9,3.2l-1.6,16.6h-2.8c-2,0-3.7,1.7-3.7,3.7v1c-1.7,0.8-2.8,2.4-2.8,4.4
				v37.1c0,2.7,2.2,4.8,4.8,4.8h60.7c2.7,0,4.8-2.2,4.8-4.8v-10.3h1.1c1.3,0,2.4-1.1,2.4-2.4v-11.6
				C454.8-401.3,453.7-402.4,452.4-402.4z M445.5-419.5L445.5-419.5c0.8,0,1.5,0.7,1.5,1.5v0.6c-0.2,0-0.4,0-0.6,0h-4.6l1.4-2H445.5
				z M421.7-444.3c0.2-0.3,0.5-0.5,0.9-0.6c0.1,0,0.2,0,0.3,0c0.3,0,0.5,0.1,0.8,0.2l22.2,15.1c0.6,0.4,0.8,1.3,0.4,1.9l-7,10.2
				h-1.7l3.4-5c0.6-0.8,0.6-1.8,0.1-2.7c-0.6-1.1-0.9-2.5-0.7-3.8c0.1-1-0.3-1.9-1.1-2.4l-11.5-7.8c-0.8-0.5-1.8-0.6-2.7-0.1
				c-1.1,0.6-2.5,0.9-3.8,0.7c-1-0.1-1.9,0.3-2.5,1.1l-13.7,20.1h-1.7L421.7-444.3z M422.2-425.9c-4.7,0-8.6,3.7-8.9,8.4h-5.5
				l12.8-18.8c0,0,0,0,0,0c0.1-0.1,0.2-0.2,0.3-0.2c0,0,0,0,0,0c1.8,0.2,3.6-0.1,5.1-0.9c0.1-0.1,0.3-0.1,0.4,0l11.5,7.8
				c0.1,0.1,0.2,0.2,0.2,0.4c-0.2,1.8,0.1,3.6,1,5.1c0.1,0.1,0.1,0.3,0,0.4l-4.2,6.2h-3.7C430.8-422.2,426.9-425.9,422.2-425.9z
				 M429-417.5h-13.5c0.3-3.5,3.2-6.2,6.8-6.2C425.7-423.7,428.6-421,429-417.5z M385.8-418c0-0.8,0.7-1.5,1.5-1.5h2.6l-0.2,2h-3.9
				V-418z M383-412.7c0-1.5,1.2-2.7,2.7-2.7h60.7c1.5,0,2.7,1.2,2.7,2.7v3h-66V-412.7z M449-375.6c0,1.5-1.2,2.7-2.7,2.7h-60.7
				c-1.5,0-2.7-1.2-2.7-2.7v-3h5.9c0.6,0,1.1-0.5,1.1-1.1c0-0.6-0.5-1.1-1.1-1.1H383v-26.7h66v5.1h-10.3h0c-3.3,0-6.1,1.9-7.4,4.7
				c0,0,0,0,0,0c0,0,0,0,0,0.1c-0.2,0.3-0.3,0.7-0.4,1.1c0,0,0,0,0,0c-0.2,0.8-0.4,1.6-0.4,2.4c0,4.6,3.7,8.3,8.3,8.3h0H449v5.1
				h-53.2c-0.6,0-1.1,0.5-1.1,1.1c0,0.6,0.5,1.1,1.1,1.1H449V-375.6z M452.6-388.3c0,0.1-0.1,0.3-0.3,0.3h-13.7
				c-2.3,0-4.3-1.3-5.3-3.2c0-0.1-0.1-0.2-0.1-0.3c-0.1-0.2-0.2-0.4-0.2-0.5c-0.2-0.7-0.4-1.4-0.4-2.1c0-0.7,0.1-1.4,0.4-2.1
				c0.1-0.2,0.1-0.4,0.2-0.5c0-0.1,0.1-0.2,0.1-0.3c1-1.9,3-3.2,5.3-3.2h13.7c0.1,0,0.3,0.1,0.3,0.3V-388.3L452.6-388.3z"/>
		</g>
	</g>
	<g>
		<g>
			<path d="M438.9-398.6c-2.4,0-4.4,2-4.4,4.4s2,4.4,4.4,4.4s4.4-2,4.4-4.4S441.4-398.6,438.9-398.6z M438.9-391.9
				c-1.2,0-2.2-1-2.2-2.2c0-1.2,1-2.2,2.2-2.2c1.2,0,2.2,1,2.2,2.2C441.2-392.9,440.2-391.9,438.9-391.9z"/>
		</g>
	</g>
	<g>
		<g>
			<path d="M804.7-421.8c-0.4-0.5-1.2-0.6-1.8-0.2l-12.5,9.9l-16.1-6.7c-0.4-0.2-0.8-0.1-1.2,0.2l-17.3,12.3
				c-0.5,0.4-0.7,1.2-0.3,1.7c0.2,0.4,0.6,0.5,1,0.5c0.2,0,0.5-0.1,0.7-0.2l16.7-11.9l16.2,6.7c0.4,0.2,0.9,0.1,1.2-0.2l13-10.3
				C805-420.4,805-421.2,804.7-421.8z"/>
		</g>
	</g>
	<g>
		<g>
			<path d="M822.7-379.6H817v-35.7c0-0.7-0.5-1.2-1.2-1.2h-11.3c-0.7,0-1.2,0.5-1.2,1.2v35.7H799v-23.3c0-0.7-0.5-1.2-1.2-1.2h-11.4
				c-0.7,0-1.2,0.5-1.2,1.2v23.3H781v-25.2c0-0.7-0.5-1.2-1.2-1.2h-11.3c-0.7,0-1.2,0.5-1.2,1.2v25.2h-4.2v-17.9
				c0-0.7-0.5-1.2-1.2-1.2h-11.4c-0.7,0-1.2,0.5-1.2,1.2v17.9h-5.8c-0.7,0-1.2,0.5-1.2,1.2c0,0.7,0.5,1.2,1.2,1.2h6.9h11.3h6.8h11.3
				h6.6h11.3h6.6h11.3h6.9c0.7,0,1.2-0.5,1.2-1.2C823.9-379,823.4-379.6,822.7-379.6z M760.5-379.6h-8.9v-16.7h8.9V-379.6z
				 M778.5-379.6h-8.9v-24h8.9V-379.6z M796.5-379.6h-8.9v-22.1h8.9V-379.6z M814.5-379.6h-8.9V-414h8.9V-379.6z"/>
		</g>
	</g>
	<g>
		<g>
			<path d="M15.5-203.4h-3.9v49.3h40.7l47.6-7v-34.4l-1.3-0.2l-1.8-0.3c-1.4-0.2-2.3-0.4-2.3-0.4s-0.4,0-2.4-0.5l-39.8-6.7h-1.7
				 M42.7-203.4H23.2 M47.9-203.4h-2.6 M20.6-203.4h-2.6 M23.2-156.7h-9.1v-44.1h9.1v2.6h-6.5v38.9h6.5V-156.7z M38.8-161.9h-2.6
				v-9.1h-2.6v11.7h5.2v2.6h-13v-2.6H31V-171h-2.6v9.1h-2.6v-2.6h-2.6v2.6h-3.9v-33.8h3.9v2.6h2.6v-2.6h2.6v10.4H31v-13h-5.2v-2.6
				h13v2.6h-5.2v13h2.6v-10.4h2.6v2.6h2.6v-2.6h3.9v33.8h-3.9v-2.6h-2.6V-161.9L38.8-161.9z M97.2-163.3l-44.1,6.5v-6.3h-2.6v6.5
				h-9.1v-2.6h6.5v-38.9h-6.5v-2.6h9.1v29.9h2.6v-29.7l44.1,7.4L97.2-163.3L97.2-163.3z"/>
		</g>
	</g>
	<g>
		<g>
			<rect x="50.5" y="-168.4" width="2.6" height="2.6"/>
		</g>
	</g>
	<g>
		<g>
			<rect x="23.2" y="-190.4" width="2.6" height="2.6"/>
		</g>
	</g>
	<g>
		<g>
			<path d="M41.4-182.6v-2.6h-2.6v2.6h-13v-2.6h-2.6v2.6h-1.3v7.8h1.3v2.6h2.6v-2.6h13v2.6h2.6v-2.6h1.3v-7.8H41.4z M40.1-177.5
				H24.5v-2.6h15.6V-177.5z"/>
		</g>
	</g>
	<g>
		<g>
			<rect x="23.2" y="-169.7" width="2.6" height="2.6"/>
		</g>
	</g>
	<g>
		<g>
			<rect x="38.8" y="-190.4" width="2.6" height="2.6"/>
		</g>
	</g>
	<g>
		<g>
			<rect x="38.8" y="-169.7" width="2.6" height="2.6"/>
		</g>
	</g>
	<g>
		<g>
			<rect x="58.3" y="-195.6" width="2.6" height="33.8"/>
		</g>
	</g>
	<g>
		<g>
			<rect x="64.8" y="-194.3" width="2.6" height="31.2"/>
		</g>
	</g>
	<g>
		<g>
			<rect x="71.3" y="-193" width="2.6" height="28.6"/>
		</g>
	</g>
	<g>
		<g>
			<rect x="77.8" y="-191.7" width="2.6" height="26"/>
		</g>
	</g>
	<g>
		<g>
			<rect x="84.3" y="-190.4" width="2.6" height="23.4"/>
		</g>
	</g>
	<g>
		<g>
			<rect x="90.8" y="-189.1" width="2.6" height="20.8"/>
		</g>
	</g>
	<path d="M462.6-178.7h-9.7c-0.9,0-1.6,0.7-1.6,1.6v1.4H441c-0.2,0-0.4,0-0.6,0.1l-13.1,5.4c-1.5,0.6-2.7,1.8-3.3,3.3
		c-0.6,1.5-0.6,3.2,0,4.7l0,0.1c0.4,0.9,0.9,1.7,1.6,2.3c-2,0.5-4.1,0.6-6.1,0.1l-12.9-2.9c-1.6-0.4-3.2-0.1-4.5,0.8
		c-1.4,0.9-2.3,2.2-2.6,3.8c-0.7,3.1,1.3,6.2,4.4,7l15.3,3.9c1.3,0.3,2.6,0.5,3.9,0.5c2,0,3.9-0.4,5.8-1.1l19.5-7.6h2.8v0.9
		c0,0.9,0.7,1.6,1.6,1.6h9.7c0.9,0,1.6-0.7,1.6-1.6V-177C464.2-177.9,463.5-178.7,462.6-178.7z M448.1-158.6c-0.2,0-0.4,0-0.6,0.1
		l-19.8,7.8c-2.5,1-5.1,1.1-7.7,0.5l-15.3-3.9c-1.4-0.4-2.3-1.7-2-3.1c0.1-0.7,0.6-1.3,1.2-1.7c0.4-0.3,0.9-0.4,1.4-0.4
		c0.2,0,0.4,0,0.6,0.1l12.9,2.9c3.1,0.7,6.3,0.5,9.3-0.7l3.7-1.4c0.1,0,0.2-0.1,0.2-0.1c3.3-1.3,7.5-2.9,8.4-3.2l0.2-0.1
		c0.8-0.3,1.3-1.3,0.9-2.1c-0.3-0.8-1.3-1.3-2.1-0.9c0,0-0.1,0-0.2,0.1l-8.6,3.3c-1.5,0.5-3-0.2-3.6-1.7l0-0.1
		c-0.3-0.7-0.3-1.5,0-2.2s0.8-1.2,1.5-1.5l12.8-5.3h9.9v13.8H448.1z M460.9-156.1h-6.4v-19.3h6.4V-156.1z"/>
	<path d="M396.2-179.3h-3v-15.3h0.5c1.2,0,2.4-0.3,3.5-0.8c0.1,0,0.1-0.1,0.1-0.1l10.6-6.9c1.5-0.7,3.3-0.6,4.6,0.4l0.8,0.6
		c0,0.1-0.1,0.1-0.1,0.2c-0.2,0.3-0.4,0.6-0.6,0.9c-1.1,1.9-1.9,4-2.1,6.2c-1.1,0.1-2.2,0.6-3,1.4c-0.9,0.9-1.4,2.2-1.4,3.5
		c0,2.7,2.2,4.9,4.9,4.9h12.1c0.7,0,1.3,0.3,1.8,0.7c0.5,0.5,0.7,1.1,0.7,1.8c0,1-0.6,1.9-1.5,2.3c-0.1,0-0.2,0.1-0.3,0.1
		c0,0,0,0,0,0c-0.2,0.1-0.5,0.1-0.7,0.1h-13.8c-0.9,0-1.6,0.7-1.6,1.6c0,0.9,0.7,1.6,1.6,1.6h13.8c0.4,0,0.8,0,1.2-0.1
		c0.7,0.1,1.4,0.1,2.1,0.1c8.9,0,16.1-7.2,16.1-16.1c0-8.9-7.2-16.1-16.1-16.1c-4.1,0-8,1.6-11,4.3l-1-0.7c-2.3-1.7-5.5-2-8.1-0.7
		c-0.1,0-0.1,0.1-0.1,0.1l-10.6,6.9c-0.6,0.3-1.3,0.4-1.9,0.4h-0.5v-0.6c0-0.9-0.7-1.6-1.6-1.6h-9.7c-0.9,0-1.6,0.7-1.6,1.6v22.6
		c0,0.9,0.7,1.6,1.6,1.6h9.7c0.9,0,1.6-0.7,1.6-1.6v-0.1h3c0.9,0,1.6-0.7,1.6-1.6C397.8-178.6,397.1-179.3,396.2-179.3z
		 M409.3-189.3c0-0.4,0.2-0.9,0.5-1.2c0.2-0.2,0.4-0.3,0.6-0.4c0.1,1.1,0.3,2.2,0.6,3.2C410-187.7,409.3-188.4,409.3-189.3z
		 M439.3-192.2c0,6.4-4.7,11.8-10.9,12.7c0.3-0.7,0.5-1.6,0.5-2.4c0-1-0.3-2-0.7-2.8c0.7-0.1,1.4-0.4,1.9-1c0.7-0.6,1-1.5,1-2.4
		v-2.4c0-1.9-1.5-3.4-3.4-3.4h-2.4c-0.1,0-0.2-0.1-0.2-0.2v-2.3c0-0.1,0.1-0.2,0.2-0.2h1.2h0h0h1.2c0.1,0,0.2,0.1,0.2,0.2
		c0,0.9,0.7,1.6,1.6,1.6c0.9,0,1.6-0.7,1.6-1.6c0-1.7-1.3-3.2-3-3.4v-0.6c0-0.9-0.7-1.6-1.6-1.6c-0.9,0-1.6,0.7-1.6,1.6v0.6
		c-1.7,0.2-3,1.7-3,3.4v2.3c0,1.9,1.5,3.4,3.4,3.4h2.4c0.1,0,0.2,0.1,0.2,0.2v2.4c0,0,0,0.1,0,0.1c0,0-0.1,0-0.1,0h-2.4
		c-0.1,0-0.2-0.1-0.2-0.2v-0.2c0-0.9-0.7-1.6-1.6-1.6s-1.6,0.7-1.6,1.6v0.2c0,0.1,0,0.3,0,0.4h-7.4c-0.6-1.4-0.8-3-0.8-4.6
		c0-2.4,0.7-4.8,2-6.8c0.4-0.6,0.8-1.1,1.2-1.7c2.4-2.8,6-4.4,9.6-4.4C433.5-205.1,439.3-199.3,439.3-192.2z M389.9-177.6h-6.4
		v-19.3h6.4V-177.6z"/>
	<path d="M404-178.6c-0.4-0.6-1.1-0.9-1.8-0.7c-0.7,0.2-1.1,0.8-1.2,1.4c-0.1,0.7,0.3,1.3,1,1.6c0.6,0.3,1.4,0.1,1.8-0.3
		C404.4-177.1,404.5-178,404-178.6z"/>
	<g>
		<g>
			<path d="M789.9-208c-17.5,0-31.7,14.2-31.7,31.7s14.2,31.7,31.7,31.7c17.5,0,31.7-14.2,31.7-31.7
				C821.5-193.8,807.3-208,789.9-208z M789.9-146.8c-16.3,0-29.5-13.2-29.5-29.5s13.2-29.5,29.5-29.5c16.3,0,29.5,13.2,29.5,29.5
				C819.4-160.1,806.2-146.8,789.9-146.8z"/>
		</g>
	</g>
	<g>
		<g>
			<path d="M789.9-202.7c-14.6,0-26.4,11.8-26.4,26.4s11.8,26.4,26.4,26.4s26.4-11.8,26.4-26.4C816.2-190.9,804.4-202.7,789.9-202.7
				z M789.9-152.1c-13.4,0-24.3-10.9-24.3-24.3s10.9-24.3,24.3-24.3s24.3,10.9,24.3,24.3C814.1-163,803.3-152.1,789.9-152.1z"/>
		</g>
	</g>
	<g>
		<g>
			<rect x="788.8" y="-197.5" width="2.1" height="2.1"/>
		</g>
	</g>
	<g>
		<g>
			<rect x="788.8" y="-157.4" width="2.1" height="2.1"/>
		</g>
	</g>
	<g>
		<g>
			<rect x="778.8" y="-194.8" transform="matrix(0.866 -0.5001 0.5001 0.866 201.4223 364.0518)" width="2.1" height="2.1"/>
		</g>
	</g>
	<g>
		<g>
			<rect x="798.8" y="-160.1" transform="matrix(0.866 -0.5001 0.5001 0.866 186.7477 378.728)" width="2.1" height="2.1"/>
		</g>
	</g>
	<g>
		<g>
			<rect x="771.4" y="-187.4" transform="matrix(0.5 -0.866 0.866 0.5 547.655 575.8116)" width="2.1" height="2.1"/>
		</g>
	</g>
	<g>
		<g>
			<rect x="806.2" y="-167.4" transform="matrix(0.5 -0.866 0.866 0.5 547.65 615.9006)" width="2.1" height="2.1"/>
		</g>
	</g>
	<g>
		<g>
			<rect x="768.8" y="-177.4" width="2.1" height="2.1"/>
		</g>
	</g>
	<g>
		<g>
			<rect x="808.9" y="-177.4" width="2.1" height="2.1"/>
		</g>
	</g>
	<g>
		<g>
			<rect x="771.4" y="-167.4" transform="matrix(0.8661 -0.4999 0.4999 0.8661 186.5987 363.8939)" width="2.1" height="2.1"/>
		</g>
	</g>
	<g>
		<g>
			<rect x="806.2" y="-187.4" transform="matrix(0.866 -0.5 0.5 0.866 201.3461 378.646)" width="2.1" height="2.1"/>
		</g>
	</g>
	<g>
		<g>
			<rect x="778.8" y="-160.1" transform="matrix(0.5001 -0.866 0.866 0.5001 527.5053 595.8154)" width="2.1" height="2.1"/>
		</g>
	</g>
	<g>
		<g>
			<rect x="798.8" y="-194.8" transform="matrix(0.5001 -0.866 0.866 0.5001 567.5896 595.8254)" width="2.1" height="2.1"/>
		</g>
	</g>
	<g>
		<g>
			<path d="M788.8-193.2v16.3l-10,6l1.1,1.8l10.6-6.3c0.3-0.2,0.5-0.5,0.5-0.9v-16.9H788.8z"/>
		</g>
	</g>
	<g>
		<g>
			<g>
				<path d="M37.7,89.9c-1,0-1.7,0.8-1.7,1.7s0.8,1.7,1.7,1.7h0c1,0,1.7-0.8,1.7-1.7S38.6,89.9,37.7,89.9z"/>
				<path d="M104.3,61.5c0.2-0.9-0.3-1.8-1.1-2.1C99,58,94.1,54.9,94.1,48v-3.7c0-5.5-0.9-9.6-2.9-12.5c-2.3-3.5-6.2-5.2-11.4-5.2
					c-5.2,0-9,1.8-11.4,5.2c-1.9,2.9-2.9,7-2.9,12.5V48c0,6.9-4.9,10-9.1,11.4c-0.9,0.3-1.4,1.2-1.1,2.1c0.9,3.6,2.3,5.7,4.8,6.9
					c-0.5,0.5-1,1.1-1.4,1.7c-2.6-3.9-7.5-5.2-11.7-6.4c-0.8-0.2-1.5-0.4-2.3-0.6v-1.2c4.7-2.5,7.9-7.5,7.9-13.2v-6.9
					c0-8.3-6.7-15-15-15c-8.3,0-15,6.7-15,15v6.9c0,5.7,3.2,10.6,7.9,13.2v1.2c-0.7,0.2-1.5,0.4-2.2,0.6
					c-5.9,1.6-13.3,3.6-13.4,12.6c0,0,0,0,0,0v15.3c0,1,0.8,1.7,1.7,1.7h13.2c1,0,1.7-0.8,1.7-1.7s-0.8-1.7-1.7-1.7h-2.1v-7.1
					c0-1-0.8-1.7-1.7-1.7c-1,0-1.7,0.8-1.7,1.7v7.1h-5.9V76.4c0.1-6,4.2-7.5,10.9-9.3c0.6-0.2,1.1-0.3,1.7-0.5
					c0.9,2.8,3.6,4.9,6.8,4.9c3.2,0,5.8-2.1,6.8-4.9c0.6,0.2,1.1,0.3,1.7,0.5c6.7,1.8,10.8,3.3,10.9,9.3v13.5h-5.9v-7.1
					c0-1-0.8-1.7-1.7-1.7s-1.7,0.8-1.7,1.7v7.1h-2.1c-1,0-1.7,0.8-1.7,1.7s0.8,1.7,1.7,1.7H72c1,0,1.7-0.8,1.7-1.7s-0.8-1.7-1.7-1.7
					h-2.1v-7.1c0-1-0.8-1.7-1.7-1.7s-1.7,0.8-1.7,1.7v7.1h-5.9V76.4c0.1-6,4.2-7.5,10.9-9.3c0.6-0.2,1.1-0.3,1.7-0.5
					c0.9,2.8,3.6,4.9,6.8,4.9c3.2,0,5.8-2.1,6.8-4.9c0.6,0.2,1.1,0.3,1.7,0.5c6.7,1.8,10.8,3.3,10.9,9.3v13.5h-5.9v-7.1
					c0-1-0.8-1.7-1.7-1.7s-1.7,0.8-1.7,1.7v7.1h-2.1c-1,0-1.7,0.8-1.7,1.7s0.8,1.7,1.7,1.7h13.2c1,0,1.7-0.8,1.7-1.7V76.4
					c0,0,0,0,0,0c-0.1-3.7-1.3-6.2-3.2-8C102,67.2,103.4,65.1,104.3,61.5L104.3,61.5z M26.2,41.8c0-6.3,5.2-11.5,11.5-11.5
					c6.3,0,11.5,5.2,11.5,11.5v1.8c-4.6,0.2-10.4-0.4-14.7-3.3c-0.8-0.5-1.8-0.4-2.4,0.4c-1.5,1.9-3.3,2.4-5.9,2.7V41.8z M41.3,64.4
					c0,2-1.6,3.6-3.6,3.6c-2,0-3.6-1.6-3.6-3.6v-1.1c1.2,0.3,2.4,0.5,3.6,0.5c1.3,0,2.5-0.2,3.6-0.4V64.4z M37.7,60.3
					c-6.3,0-11.5-5.2-11.5-11.5V47c2.8-0.3,5.5-0.8,7.7-2.9c4.8,2.7,10.6,3.3,15.3,3.1v1.6C49.2,55.1,44,60.3,37.7,60.3L37.7,60.3z
					 M71.4,33.8c1.7-2.5,4.4-3.7,8.5-3.7c4,0,6.8,1.2,8.5,3.7c1.4,2,2.1,5,2.3,9.1c-3.2,0.6-7.1,0.1-9.2-4.1c-0.6-1.3-2.5-1.3-3.1,0
					c-2.1,4.2-5.9,4.6-9.2,4.1C69.2,38.9,70,35.9,71.4,33.8z M72.7,63.1c-0.7,0.2-1.5,0.4-2.2,0.6c-2.1,0.6-4.4,1.2-6.5,2.2
					c-2.7-0.5-3.9-1.3-4.7-3.8c2.8-1.2,6.3-3.3,8.3-7.1c1.3,2.2,3.1,4,5.3,5.3L72.7,63.1L72.7,63.1z M83.5,64.4c0,2-1.6,3.6-3.6,3.6
					c-2,0-3.6-1.6-3.6-3.6v-2.6c1.2,0.3,2.4,0.5,3.6,0.5c1.3,0,2.5-0.2,3.6-0.5V64.4z M79.8,58.8c-5.9,0-10.8-4.8-10.8-10.8v-1.5
					c0.7,0.1,1.5,0.2,2.2,0.2c3.5,0,6.5-1.3,8.6-3.8c2.1,2.5,5.1,3.8,8.6,3.8c0.7,0,1.4-0.1,2.2-0.2V48
					C90.6,53.9,85.8,58.8,79.8,58.8z M95.7,65.9c-2.1-1-4.4-1.6-6.5-2.2c-0.8-0.2-1.5-0.4-2.2-0.6v-2.8c2.2-1.3,4-3.1,5.2-5.3
					c2,3.8,5.4,5.9,8.3,7.1C99.6,64.6,98.5,65.4,95.7,65.9L95.7,65.9z"/>
				<path d="M79.8,89.9c-1,0-1.7,0.8-1.7,1.7s0.8,1.7,1.7,1.7h0c1,0,1.7-0.8,1.7-1.7S80.8,89.9,79.8,89.9z"/>
			</g>
		</g>
	</g>
	<path d="M430.4,84.5h-2.7V71.4c0-0.7-0.6-1.3-1.3-1.3s-1.3,0.6-1.3,1.3v13.1h-34.7V57.8h11.1c0.7,0,1.3-0.6,1.3-1.3
		s-0.6-1.3-1.3-1.3h-12.4c-0.7,0-1.3,0.6-1.3,1.3v28h-2.7c-0.7,0-1.3,0.6-1.3,1.3v2.7c0,3.7,3,6.7,6.7,6.7h34.7c3.7,0,6.7-3,6.7-6.7
		v-2.7C431.7,85.1,431.1,84.5,430.4,84.5z M429.1,88.5c0,2.2-1.8,4-4,4h-2.7v-1.3c0-0.7-0.6-1.3-1.3-1.3s-1.3,0.6-1.3,1.3v1.3h-24
		v-1.3c0-0.7-0.6-1.3-1.3-1.3s-1.3,0.6-1.3,1.3v1.3h-2.7c-2.2,0-4-1.8-4-4v-1.3h42.7V88.5z"/>
	<path d="M453.1,23.2h2.7c0.7,0,1.3-0.6,1.3-1.3s-0.6-1.3-1.3-1.3h-2.7c-2.2,0-4,1.8-4,4v1.3h-1.3c-0.7,0-1.3,0.6-1.3,1.3
		s0.6,1.3,1.3,1.3h1.3v4c0,0.7,0.6,1.3,1.3,1.3c0.7,0,1.3-0.6,1.3-1.3v-4h1.3c0.7,0,1.3-0.6,1.3-1.3s-0.6-1.3-1.3-1.3h-1.3v-1.3
		C451.7,23.8,452.3,23.2,453.1,23.2z"/>
	<path d="M459.7,15.2h-16c-2.2,0-4,1.8-4,4v2.7c0,0.7,0.6,1.3,1.3,1.3s1.3-0.6,1.3-1.3v-2.7c0-0.7,0.6-1.3,1.3-1.3h16
		c0.7,0,1.3,0.6,1.3,1.3v16c0,0.7-0.6,1.3-1.3,1.3h-16c-0.7,0-1.3-0.6-1.3-1.3v-8c0-0.7-0.6-1.3-1.3-1.3s-1.3,0.6-1.3,1.3v8
		c0,2.2,1.8,4,4,4h16c2.2,0,4-1.8,4-4v-16C463.7,17,462,15.2,459.7,15.2z"/>
	<path d="M446.4,68.5c0,2.9,2.4,5.3,5.3,5.3c2.9,0,5.3-2.4,5.3-5.3s-2.4-5.3-5.3-5.3C448.8,63.2,446.4,65.6,446.4,68.5z M454.4,68.5
		c0,1.5-1.2,2.7-2.7,2.7c-1.5,0-2.7-1.2-2.7-2.7s1.2-2.7,2.7-2.7C453.2,65.8,454.4,67,454.4,68.5z"/>
	<path d="M459.7,56.5h-16c-2.2,0-4,1.8-4,4v16c0,2.2,1.8,4,4,4h16c2.2,0,4-1.8,4-4v-2.7c0-0.7-0.6-1.3-1.3-1.3s-1.3,0.6-1.3,1.3v2.7
		c0,0.7-0.6,1.3-1.3,1.3h-16c-0.7,0-1.3-0.6-1.3-1.3v-16c0-0.7,0.6-1.3,1.3-1.3h16c0.7,0,1.3,0.6,1.3,1.3v8c0,0.7,0.6,1.3,1.3,1.3
		s1.3-0.6,1.3-1.3v-8C463.7,58.3,462,56.5,459.7,56.5z"/>
	<path d="M413.7,31c0.2,0.1,0.5,0.2,0.7,0.2c0.2,0,0.4-0.1,0.6-0.1l8-4c0.7-0.3,0.9-1.1,0.6-1.8c-0.1-0.2-0.3-0.5-0.6-0.6l-8-4
		c-0.7-0.3-1.5-0.1-1.8,0.6c-0.1,0.2-0.1,0.4-0.1,0.6v8C413.1,30.3,413.3,30.7,413.7,31z M415.7,24l3.7,1.8l-3.7,1.8V24z"/>
	<path d="M417.1,37.8c6.6,0,12-5.4,12-12s-5.4-12-12-12s-12,5.4-12,12S410.4,37.8,417.1,37.8z M417.1,16.5c5.2,0,9.3,4.2,9.3,9.3
		s-4.2,9.3-9.3,9.3s-9.3-4.2-9.3-9.3S411.9,16.5,417.1,16.5z"/>
	<path d="M430.4,43.2c0.4,0,0.8-0.2,1.1-0.5l4-5.3c0.4-0.6,0.3-1.4-0.3-1.9c-0.6-0.4-1.4-0.3-1.9,0.3l-4,5.3
		c-0.4,0.6-0.3,1.4,0.3,1.9C429.8,43.1,430.1,43.2,430.4,43.2z"/>
	<path d="M433.3,48c0.3,0.3,0.6,0.5,1.1,0.5c0.3,0,0.6-0.1,0.8-0.3l5.3-4c0.6-0.4,0.7-1.3,0.3-1.9c-0.4-0.6-1.3-0.7-1.9-0.3l-5.3,4
		C433,46.6,432.9,47.4,433.3,48L433.3,48z"/>
	<path d="M446.4,50.9c-0.1-0.7-0.8-1.2-1.5-1.1c0,0,0,0-0.1,0l-6.7,1.3c-0.7,0.1-1.3,0.7-1.2,1.5c0.1,0.7,0.7,1.3,1.5,1.2h0.3
		l6.7-1.3C446.1,52.4,446.5,51.7,446.4,50.9C446.4,50.9,446.4,50.9,446.4,50.9z"/>
	<path d="M385.1,51.2h16c0.7,0,1.3-0.6,1.3-1.3V28.5c0-0.7-0.6-1.3-1.3-1.3h-16c-0.7,0-1.3,0.6-1.3,1.3v21.3
		C383.7,50.6,384.3,51.2,385.1,51.2z M386.4,29.8h13.3v18.7h-13.3V29.8z"/>
	<path d="M395.7,32.5h-2.7c-0.7,0-1.3,0.6-1.3,1.3c0,0.7,0.6,1.3,1.3,1.3h2.7c0.7,0,1.3-0.6,1.3-1.3
		C397.1,33.1,396.5,32.5,395.7,32.5z"/>
	<path d="M395.7,37.8h-5.3c-0.7,0-1.3,0.6-1.3,1.3s0.6,1.3,1.3,1.3h5.3c0.7,0,1.3-0.6,1.3-1.3S396.5,37.8,395.7,37.8z"/>
	<path d="M395.7,43.2h-5.3c-0.7,0-1.3,0.6-1.3,1.3s0.6,1.3,1.3,1.3h5.3c0.7,0,1.3-0.6,1.3-1.3S396.5,43.2,395.7,43.2z"/>
	<path d="M429.2,50.8c-0.4-0.6-1.2-0.9-1.8-0.5c-0.6,0.4-0.9,1.2-0.5,1.8l5.9,10.2l-21.3,8c0,0,0,0-0.1,0h-0.1l-3.5,2l-2.3,1.3
		c-0.6,0.4-1.3,0.5-2,0.3c-0.7-0.2-1.3-0.6-1.6-1.2l-2.7-4.6c-0.7-1.3-0.2-2.8,1-3.5l4.6-2.7l3.3,5.8c0.2,0.4,0.7,0.7,1.2,0.7
		c0.7,0,1.3-0.6,1.3-1.3c0-0.2-0.1-0.5-0.2-0.7l-3.4-5.9l16.7-13.8l0.5,0.9c0.4,0.6,1.2,0.9,1.8,0.5c0.6-0.4,0.9-1.2,0.5-1.8
		l-1.3-2.3c-0.2-0.3-0.5-0.6-0.9-0.6c-0.4-0.1-0.8,0-1.1,0.3l-18.7,15.4l-5.7,3.3c-2.1,1.2-3.1,3.7-2.5,6l-1.3,0.8
		c-1.9,1.1-2.6,3.5-1.5,5.5c0.5,0.9,1.4,1.6,2.4,1.9c0.3,0.1,0.7,0.1,1,0.1c0.7,0,1.4-0.2,2-0.5l1.3-0.8c0.6,0.7,1.4,1.1,2.3,1.4
		c0.5,0.1,0.9,0.2,1.4,0.2c0.9,0,1.9-0.2,2.7-0.7l1.2-0.7l2.7,4.6c1.1,1.9,3.5,2.6,5.5,1.5c1.9-1.1,2.6-3.5,1.5-5.5c0,0,0,0,0,0
		l-2.4-4.2l20-7.5c0.4-0.1,0.7-0.4,0.8-0.8c0.1-0.4,0.1-0.8-0.1-1.1L429.2,50.8z M397.7,73.6c-0.3,0.2-0.7,0.2-1,0.1
		c-0.3-0.1-0.6-0.3-0.8-0.6c-0.2-0.3-0.2-0.7-0.1-1c0.1-0.3,0.3-0.6,0.6-0.8l1.2-0.7l1.3,2.3L397.7,73.6z M415.3,77.3
		c0.2,0.3,0.2,0.7,0.1,1c-0.1,0.3-0.3,0.6-0.6,0.8c-0.6,0.4-1.4,0.2-1.8-0.5l-2.7-4.6l2.2-1.3h0.1L415.3,77.3z"/>
	<g>
		<g>
			<path d="M812.1,88.1l-3-8.9c-1-3.1-3.7-5.4-6.9-6l-8.5-1.6v-0.7c1.5-0.9,2.8-2,3.8-3.4h2.6c2.1,0,3.8-1.7,3.8-3.8V48.5
				c0-9.2-7.4-16.6-16.6-16.6c-9.2,0-16.6,7.4-16.6,16.6v8.9c0,2.5,1.8,4.5,4.1,5c0.7,3.7,3,6.8,6.1,8.6v0.7l-8.5,1.6
				c-3.2,0.6-5.8,2.9-6.9,6l-0.5,1.5l-4.3-4.3c-0.5-0.5-0.5-1.3,0-1.8l5-5l-9.5-9.5l-5.7,5.7c-1.7,1.7-2.6,3.9-2.6,6.3
				s0.9,4.6,2.6,6.3l17.3,17.3c1.7,1.7,3.9,2.6,6.3,2.6c2.4,0,4.6-0.9,6.3-2.6l6.2-5.7l-1.9-1.9H812.1z M801.4,63.9
				c0,0.7-0.6,1.3-1.3,1.3H799c0.4-0.8,0.7-1.7,0.8-2.7c0.5-0.1,1-0.3,1.5-0.6V63.9z M800.1,59.7v-4.4c0.8,0.4,1.3,1.3,1.3,2.2
				S800.9,59.2,800.1,59.7z M774.6,59.7c-0.8-0.4-1.3-1.3-1.3-2.2s0.5-1.8,1.3-2.2V59.7z M774.6,51.1v1.5c-0.5,0.1-0.9,0.3-1.3,0.5
				v-4.5c0-7.7,6.3-14,14-14s14,6.3,14,14v4.5c-0.4-0.2-0.8-0.4-1.3-0.5v-1.5h-1.3c-3.8,0-7.3-1.5-10-4.1l-1.5-1.5l-1.5,1.5
				c-2.7,2.7-6.2,4.1-10,4.1H774.6z M777.1,60v-6.4c3.8-0.3,7.4-1.9,10.2-4.5c2.8,2.7,6.4,4.3,10.2,4.5V60c0,1.9-0.5,3.6-1.4,5.1
				h-8.8v2.6h6.7c-1.8,1.6-4.2,2.6-6.7,2.6C781.7,70.3,777.1,65.7,777.1,60z M791.2,72.2L791.2,72.2l-3.8,3.9l-3.8-3.8v-0.1
				c1.2,0.4,2.5,0.6,3.8,0.6S790,72.6,791.2,72.2z M768,80.1c0.7-2.2,2.6-3.8,4.9-4.3l8.9-1.6l5.5,5.5l5.5-5.5l8.9,1.6
				c2.3,0.4,4.2,2.1,4.9,4.3l1.8,5.5h-26.4l-5-5l-5.5,5c-0.5,0.5-1.3,0.5-1.8,0l-2.8-2.8L768,80.1z M756.3,63.7l5.9,5.9l-1.4,1.4
				l-5.9-5.9L756.3,63.7z M778.7,93.9c-1.2,1.2-2.8,1.9-4.5,1.9c-1.7,0-3.3-0.7-4.5-1.9l-17.3-17.3c-1.2-1.2-1.9-2.8-1.9-4.5
				c0-1.7,0.7-3.3,1.9-4.5l0.7-0.7l5.9,5.9l0,0c-1.5,1.5-1.5,3.9,0,5.4l9.2,9.2c0.7,0.7,1.7,1.1,2.7,1.1c1,0,2-0.4,2.7-1.1l0.1-0.1
				l5.9,5.9L778.7,93.9z M781.3,91.5l-5.9-5.9l1.7-1.5L783,90L781.3,91.5z"/>
		</g>
	</g>
	<g>
		<g>
			<path d="M823.1,19.2h-17.9c-2.1,0-3.8,1.7-3.8,3.8v10.2c0,2.1,1.7,3.8,3.8,3.8h3.4l-1.3,7.7l12.3-7.7h3.5c2.1,0,3.8-1.7,3.8-3.8
				V23C826.9,20.9,825.2,19.2,823.1,19.2z M824.4,33.2c0,0.7-0.6,1.3-1.3,1.3h-4.2l-8.1,5.1l0.9-5.1h-6.4c-0.7,0-1.3-0.6-1.3-1.3V23
				c0-0.7,0.6-1.3,1.3-1.3h17.9c0.7,0,1.3,0.6,1.3,1.3V33.2z"/>
		</g>
	</g>
	<g>
		<g>
			<rect x="806.5" y="24.3" width="15.3" height="2.6"/>
		</g>
	</g>
	<g>
		<g>
			<rect x="806.5" y="29.4" width="10.2" height="2.6"/>
		</g>
	</g>
	<g>
		<g>
			<rect x="819.3" y="29.4" width="2.6" height="2.6"/>
		</g>
	</g>
	<g>
		<g>
			<path d="M787.4,23c-16.7,0-31.1,11.5-34.8,27.6l-2.4-4l-2.2,1.3l4.5,7.5l7.5-4.5l-1.3-2.2l-3.5,2.1c3.6-14.7,16.9-25.2,32.2-25.2
				c3.4,0,6.7,0.5,9.8,1.5l0.8-2.4C794.5,23.5,791,23,787.4,23z"/>
		</g>
	</g>
	<g>
		<g>
			<path d="M826.3,47.5l-7.5-4.5l-4.5,7.5l2.2,1.3l2.2-3.7c1.2,3.4,1.8,7,1.8,10.7c0,7.6-2.6,15-7.4,20.9l2,1.6
				c5.1-6.3,8-14.3,8-22.5c0-3.9-0.6-7.7-1.9-11.4l3.8,2.3L826.3,47.5z"/>
		</g>
	</g>
</g>
<g>
	<g>
		<path d="M451.8-205.7c-6.6,0-11.7,5.3-11.7,11.8c0,6.6,5.3,11.7,11.7,11.7c6.5,0,11.8-5.3,11.8-11.8
			C463.7-200.5,458.4-205.7,451.8-205.7z M451.8-184.7c-5.1,0-9.2-4.1-9.2-9.2s4.2-9.2,9.2-9.2c5.1,0,9.2,4.1,9.2,9.2
			S456.9-184.7,451.8-184.7z"/>
	</g>
</g>
<g>
	<g>
		<path d="M455.6-192.1c-0.1-0.2-0.1-0.4-0.2-0.6c-0.1-0.2-0.2-0.4-0.3-0.6s-0.2-0.3-0.4-0.5c-0.2-0.2-0.3-0.3-0.6-0.4
			c-0.2-0.2-0.4-0.2-0.6-0.3c-0.2-0.1-0.4-0.2-0.6-0.3c-0.2-0.1-0.5-0.2-0.6-0.2c-0.1,0-0.2-0.1-0.3-0.2c-0.1-0.1-0.2-0.1-0.3-0.2
			c-0.1-0.1-0.2-0.1-0.3-0.2c-0.1-0.1-0.2-0.2-0.2-0.2c-0.1-0.1-0.2-0.2-0.2-0.3c-0.1-0.1-0.1-0.2-0.1-0.3c0-0.2,0-0.2,0-0.4
			c0-0.1,0.1-0.2,0.1-0.3c0.1-0.1,0.1-0.2,0.2-0.3c0.1-0.1,0.2-0.2,0.2-0.2c0.1-0.1,0.2-0.2,0.4-0.2c0.2-0.1,0.2-0.1,0.4-0.1
			c0.1,0,0.2,0,0.2,0s0.2,0,0.2,0c0.2,0,0.2,0,0.4,0.1c0.2,0,0.3,0.1,0.4,0.1c0.1,0,0.2,0.1,0.3,0.1c0.2,0,0.2,0.1,0.3,0.1l0.4,0.2
			l0.1-0.5l0.2-1.3v-0.3l-0.3-0.1c-0.1,0-0.2-0.1-0.3-0.1c-0.1,0-0.2-0.1-0.3-0.1c-0.1,0-0.2-0.1-0.4-0.1s-0.2-0.1-0.4-0.1h-0.1
			v-1.1v-0.4h-0.4h-1.1h-0.4v0.4v1.2h-0.1c-0.2,0.1-0.5,0.2-0.7,0.3c-0.2,0.1-0.4,0.2-0.6,0.4c-0.2,0.2-0.3,0.3-0.5,0.6
			c-0.2,0.2-0.2,0.4-0.3,0.6c-0.1,0.2-0.2,0.5-0.2,0.7c-0.1,0.2-0.1,0.6-0.1,0.8s0,0.4,0.1,0.6c0.1,0.2,0.1,0.4,0.2,0.6
			c0.1,0.2,0.2,0.4,0.3,0.6c0.2,0.2,0.2,0.3,0.4,0.5c0.2,0.2,0.3,0.3,0.6,0.4c0.2,0.2,0.4,0.2,0.6,0.3c0.2,0.1,0.5,0.2,0.6,0.3
			c0.2,0.1,0.5,0.2,0.6,0.2c0.1,0,0.2,0.1,0.3,0.2c0.1,0.1,0.2,0.1,0.3,0.2c0.1,0.1,0.2,0.2,0.2,0.2c0.1,0.1,0.2,0.2,0.2,0.2
			c0.1,0.1,0.1,0.2,0.2,0.3c0,0.1,0.1,0.2,0.1,0.4c0,0.2,0,0.2,0,0.4c0,0.1-0.1,0.2-0.2,0.3c-0.1,0.1-0.2,0.2-0.2,0.2
			c-0.1,0.1-0.2,0.2-0.3,0.2c-0.1,0.1-0.2,0.1-0.3,0.2c-0.1,0-0.2,0.1-0.4,0.1c-0.1,0-0.2,0-0.3,0c-0.1,0-0.2,0-0.3,0
			c-0.2,0-0.3,0-0.4,0c-0.2,0-0.3-0.1-0.4-0.1c-0.2,0-0.3-0.1-0.5-0.2s-0.3-0.1-0.5-0.2c-0.1,0-0.2-0.1-0.2-0.1
			c-0.1,0-0.2-0.1-0.2-0.1l-0.5-0.2l-0.1,0.6l-0.2,1.5v0.2l0.2,0.1c0.3-0.1,0.5,0,0.7,0.1c0.2,0.1,0.4,0.2,0.6,0.2
			c0.2,0.1,0.4,0.1,0.6,0.2c0.2,0.1,0.4,0.1,0.6,0.1h0.2v1.2v0.4h0.4h1.1h0.4v-0.4v-1.3h0.1c0.2-0.1,0.5-0.2,0.7-0.3
			c0.2-0.1,0.4-0.2,0.6-0.4c0.2-0.2,0.3-0.3,0.5-0.6c0.2-0.2,0.2-0.4,0.4-0.6c0.1-0.2,0.2-0.5,0.2-0.7c0.1-0.2,0.1-0.5,0.1-0.8
			C455.6-191.7,455.6-191.9,455.6-192.1z"/>
	</g>
</g>
</svg>
