<?xml version="1.0" encoding="utf-8"?>
<!-- Generator: Adobe Illustrator 24.2.1, SVG Export Plug-In . SVG Version: 6.00 Build 0)  -->
<svg version="1.1" id="Capa_1" xmlns="http://www.w3.org/2000/svg" xmlns:xlink="http://www.w3.org/1999/xlink" x="0px" y="0px"
	 viewBox="0 0 119.3 119.3" style="enable-background:new 0 0 119.3 119.3;" xml:space="preserve">
<style type="text/css">
	.st0{opacity:0.3;}
	.st1{fill:#FFC107;}
</style>
<g>
	<g class="st0">
		<path class="st1" d="M-282.5-362.1c-6,4-12.7,7.4-20,8c-7.2,0.6-15-2-19.2-7.9c-4.3-6-4.5-14.8-10.5-19.2
			c-7.9-5.9-21.6-0.4-27.7-8.3c-3.7-4.8-1.9-11.7,0.2-17.4c2.6-6.8,5.5-13.4,8.8-19.8c0.8-1.7,1.8-3.4,3.4-4.4
			c4.2-2.7,9.3,1,13.8,3.2c7.6,3.6,17.2,2.4,23.6-3.1c5.3-4.6,9.2-12.1,16.1-12.4c3.1-0.2,6.1,1.3,8.7,3
			c11.3,7.6,17.9,21.6,16.5,35.1c-0.5,4.7-1.9,9.2-3.2,13.7c-2.9,9.7-5.9,19.4-9.8,28.7"/>
	</g>
	<g class="st0">
		<path class="st1" d="M-283.7-137.1c-6,4-12.7,7.4-20,8s-15-2-19.2-7.9c-4.3-6-4.5-14.8-10.5-19.2c-7.9-5.9-21.6-0.4-27.7-8.3
			c-3.7-4.8-1.9-11.7,0.2-17.4c2.6-6.8,5.5-13.4,8.8-19.8c0.8-1.7,1.8-3.4,3.4-4.4c4.2-2.7,9.3,1,13.8,3.2
			c7.6,3.6,17.2,2.4,23.6-3.1c5.3-4.6,9.2-12.1,16.1-12.4c3.1-0.2,6.1,1.3,8.7,3c11.3,7.6,17.9,21.6,16.5,35.1
			c-0.5,4.7-1.9,9.2-3.2,13.7c-2.9,9.7-5.9,19.4-9.8,28.7"/>
	</g>
	<g class="st0">
		<path class="st1" d="M-274.5,101c-6,4-12.7,7.4-20,8c-7.2,0.6-15-2-19.2-7.9c-4.3-6-4.5-14.8-10.5-19.2
			c-7.9-5.9-21.6-0.4-27.7-8.3c-3.7-4.8-1.9-11.7,0.2-17.4c2.6-6.8,5.5-13.4,8.8-19.8c0.8-1.7,1.8-3.4,3.4-4.4
			c4.2-2.7,9.3,1,13.8,3.2c7.6,3.6,17.2,2.4,23.6-3.1c5.3-4.6,9.2-12.1,16.1-12.4c3.1-0.2,6.1,1.3,8.7,3
			c11.3,7.6,17.9,21.6,16.5,35.1c-0.5,4.7-1.9,9.2-3.2,13.7c-2.9,9.7-5.9,19.4-9.8,28.7"/>
	</g>
	<g class="st0">
		<path class="st1" d="M106.2-163.3c-1.4,7.1-3.8,14.2-8.5,19.8c-4.7,5.5-12,9.2-19.2,8c-7.3-1.3-13.7-7.3-21-6.2
			c-9.8,1.5-15.6,15-25.4,13.7c-6-0.8-9.6-6.9-12.1-12.4c-3-6.6-5.6-13.4-7.8-20.2c-0.6-1.8-1.1-3.7-0.7-5.5c1-4.8,7.3-5.8,12-7.5
			c7.9-2.8,13.8-10.5,14.4-18.9c0.5-6.9-2-15,2.6-20.2c2.1-2.3,5.2-3.4,8.3-4c13.3-2.7,27.9,2.6,36.5,13.2c3,3.7,5.2,7.8,7.4,12
			c4.8,8.9,9.6,17.8,13.4,27.2"/>
	</g>
	<g class="st0">
		<path class="st1" d="M106.2,69.4c-1.4,7.1-3.8,14.2-8.5,19.8c-4.7,5.5-12,9.2-19.2,8c-7.3-1.3-13.7-7.3-21-6.2
			c-9.8,1.5-15.6,15-25.4,13.7c-6-0.8-9.6-6.9-12.1-12.4c-3-6.6-5.6-13.4-7.8-20.2c-0.6-1.8-1.1-3.7-0.7-5.5c1-4.8,7.3-5.8,12-7.5
			c7.9-2.8,13.8-10.5,14.4-18.9c0.5-6.9-2-15,2.6-20.2c2.1-2.3,5.2-3.4,8.3-4c13.3-2.7,27.9,2.6,36.5,13.2c3,3.7,5.2,7.8,7.4,12
			c4.8,8.9,9.6,17.8,13.4,27.2"/>
	</g>
	<g class="st0">
		<path class="st1" d="M469,72.4c-1.4,7.1-3.8,14.2-8.5,19.8c-4.7,5.5-12,9.2-19.2,8c-7.3-1.3-13.7-7.3-21-6.2
			c-9.8,1.5-15.6,15-25.4,13.7c-6-0.8-9.6-6.9-12.1-12.4c-3-6.6-5.6-13.4-7.8-20.2c-0.6-1.8-1.1-3.7-0.7-5.5c1-4.8,7.3-5.8,12-7.5
			c7.9-2.8,13.8-10.5,14.4-18.9c0.5-6.9-2-15,2.6-20.2c2.1-2.3,5.2-3.4,8.3-4c13.3-2.7,27.9,2.6,36.5,13.2c3,3.7,5.2,7.8,7.4,12
			c4.8,8.9,9.6,17.8,13.4,27.2"/>
	</g>
	<g class="st0">
		<path class="st1" d="M429.9-209.6c5.8,1.1,11.5,3.1,16,6.9c4.5,3.8,7.4,9.8,6.5,15.6c-1,5.9-5.9,11.1-5,17
			c1.2,7.9,12.2,12.7,11.1,20.6c-0.6,4.9-5.6,7.8-10.1,9.8c-5.3,2.4-10.8,4.5-16.4,6.3c-1.4,0.5-3,0.9-4.4,0.6
			c-3.9-0.9-4.7-5.9-6.1-9.7c-2.2-6.4-8.5-11.2-15.3-11.7c-5.6-0.4-12.2,1.7-16.4-2.1c-1.9-1.7-2.8-4.3-3.3-6.7
			c-2.1-10.8,2.1-22.7,10.7-29.6c3-2.4,6.3-4.2,9.7-6c7.2-3.9,14.5-7.7,22.1-10.9"/>
	</g>
	<g class="st0">
		<path class="st1" d="M60.3-443.8c6.6,1.3,13.2,3.5,18.3,7.9c5.1,4.4,8.4,11.4,7.2,18.3c-1.2,7-6.9,13.2-6,20.2
			c1.3,9.3,13.8,14.8,12.5,24.1c-0.8,5.8-6.5,9.3-11.7,11.7c-6.2,2.9-12.5,5.5-19,7.7c-1.7,0.6-3.4,1.1-5.1,0.8
			c-4.5-1-5.4-6.9-6.8-11.4c-2.5-7.5-9.7-13.1-17.5-13.6c-6.5-0.4-14,2.1-18.8-2.3c-2.2-2-3.1-5-3.7-7.9c-2.3-12.7,2.8-26.8,12.7-35
			c3.4-2.9,7.4-5,11.2-7.2c8.4-4.7,16.7-9.3,25.5-13.1"/>
	</g>
	<g class="st0">
		<path class="st1" d="M375.8-396.1c-0.8-6.7-0.7-13.7,2-19.9c2.7-6.2,8.4-11.5,15.3-12.3c7-0.9,14.7,2.7,21-0.3
			c8.5-4,10-17.6,19.3-19.2c5.7-1,10.8,3.5,14.7,7.7c4.6,5,8.9,10.3,13,15.8c1,1.4,2.1,2.9,2.3,4.7c0.4,4.6-5,7.2-8.8,9.9
			c-6.5,4.6-9.6,13.1-7.8,20.7c1.5,6.3,6.2,12.8,3.4,18.6c-1.3,2.6-3.8,4.5-6.5,5.9c-11.4,6-26.4,5.4-37.2-1.7
			c-3.8-2.4-7-5.5-10.2-8.6c-6.9-6.6-13.9-13.2-20.1-20.4"/>
	</g>
	<g>
		<g>
			<path d="M-268.8-417.3l-25-25c-0.7-0.7-1.8-0.7-2.5,0l-16.9,16.9l-16.9-16.9c-0.3-0.3-0.8-0.5-1.2-0.5c-0.5,0-0.9,0.2-1.2,0.5
				l-24.6,24.6c-0.7,0.7-0.7,1.8,0,2.5l10.5,10.5c-0.4,1.3-0.7,2.4-1,3.3c-1.3,3.9-1.6,5.5,0.9,10.3l-1.4,1.4v0
				c-2.6,2.6-2.6,6.9,0,9.5c1.3,1.3,2.9,2,4.7,2c0.7,0,1.5-0.1,2.1-0.3c0.2,1.3,0.8,2.6,1.9,3.7c1.3,1.3,2.9,2,4.7,2
				c0.8,0,1.6-0.1,2.4-0.4c0.2,1.3,0.9,2.5,1.9,3.5c1.3,1.3,2.9,2,4.7,2c1,0,2-0.2,2.9-0.7c0.3,1.2,0.9,2.4,1.8,3.3
				c1.3,1.3,3,2,4.7,2c1.7,0,3.4-0.7,4.7-2l2-2l5.3,5.3c1.3,1.3,2.9,2,4.7,2h0c1.8,0,3.5-0.7,4.7-2c2.1-2.1,2.5-5.2,1.3-7.7
				c1.2-0.3,2.4-0.9,3.3-1.8c1.3-1.3,2-2.9,2-4.7c0-1-0.2-2-0.7-2.9c1.2-0.3,2.3-0.9,3.3-1.8c1.3-1.3,2-2.9,2-4.7c0-1-0.2-2-0.7-2.9
				c1.2-0.3,2.3-0.9,3.3-1.8c2.6-2.6,2.6-6.9,0-9.5l-1.5-1.5l13.4-13.4C-268.1-415.5-268.1-416.6-268.8-417.3L-268.8-417.3z
				 M-343.2-381.8c-0.9,0-1.7-0.3-2.3-0.9c-1.3-1.3-1.3-3.3,0-4.6v0l9.4-9.4c0.6-0.6,1.4-0.9,2.3-0.9c0.9,0,1.7,0.3,2.3,0.9
				c0.6,0.6,0.9,1.4,0.9,2.3c0,0.9-0.3,1.7-0.9,2.3l-7.7,7.7l-1.7,1.7C-341.5-382.1-342.3-381.8-343.2-381.8L-343.2-381.8z
				 M-332.2-377.4c-0.6,0.6-1.4,0.9-2.3,0.9c-0.9,0-1.7-0.3-2.3-0.9c-1.3-1.3-1.3-3.3,0-4.6c0,0,0,0,0,0l7.7-7.7
				c1.3-1.3,3.3-1.3,4.6,0c1.3,1.3,1.3,3.3,0,4.6l-5.7,5.7L-332.2-377.4z M-323.2-372.4c-0.6,0.6-1.4,0.9-2.3,0.9
				c-0.9,0-1.7-0.3-2.3-0.9c-1.3-1.3-1.3-3.3,0-4.6c0,0,0,0,0,0l5.7-5.7c1.3-1.3,3.3-1.3,4.6,0c0.6,0.6,0.9,1.4,0.9,2.3
				c0,0.9-0.3,1.7-0.9,2.3l-3.3,3.3L-323.2-372.4z M-313.7-367.8c-0.6,0.6-1.4,0.9-2.3,0.9s-1.7-0.3-2.3-0.9c-1.3-1.3-1.3-3.3,0-4.6
				l3.3-3.3c1.3-1.3,3.3-1.3,4.6,0c1.3,1.3,1.3,3.3,0,4.6L-313.7-367.8z M-283.2-393c-1.3,1.3-3.3,1.3-4.6,0l-2.5-2.5
				c-0.7-0.7-1.8-0.7-2.5,0c-0.7,0.7-0.7,1.8,0,2.5l2.5,2.5l2.5,2.5c1.3,1.3,1.3,3.3,0,4.6c-1.3,1.3-3.3,1.3-4.6,0l-2.5-2.5
				c-0.7-0.7-1.8-0.7-2.5,0c-0.7,0.7-0.7,1.8,0,2.5l2.5,2.5l2.5,2.5c1.3,1.3,1.3,3.3,0,4.6c-1.3,1.3-3.3,1.3-4.6,0l-2.5-2.5
				c-0.7-0.7-1.8-0.7-2.5,0c-0.7,0.7-0.7,1.8,0,2.5l2.5,2.5l2.5,2.5c0.6,0.6,0.9,1.4,0.9,2.3c0,0.9-0.3,1.7-0.9,2.3
				c-0.6,0.6-1.4,0.9-2.3,0.9c-0.9,0-1.7-0.3-2.3-0.9l-5.5-5.5c1.5-2.6,1.1-5.9-1.1-8.1c-1.4-1.4-3.2-2-5.1-2c0-0.1,0-0.2,0-0.3
				c0-1.8-0.7-3.5-2-4.7c-1.4-1.4-3.2-2-5.1-2c0-0.1,0-0.2,0-0.3c0-1.8-0.7-3.5-2-4.7c-1.4-1.4-3.2-2-5.1-2c0-0.1,0-0.2,0-0.3
				c0-1.8-0.7-3.5-2-4.7c-2.6-2.6-6.9-2.6-9.5,0l-5.5,5.5c-1.5-2.9-1.2-3.8-0.2-6.6c0.4-1.1,0.9-2.6,1.4-4.5c0.2-0.6,0-1.2-0.5-1.7
				l-10-10l22.1-22.1l18,18c0.7,0.7,1.8,0.7,2.5,0c0.6-0.6,1.4-0.9,2.3-0.9c0.9,0,1.7,0.3,2.3,0.9l23,23
				C-281.9-396.3-281.9-394.2-283.2-393L-283.2-393z M-284.6-403.9l-19.1-19.1c-1.3-1.3-3.1-2-4.8-2l13.6-13.6l22.5,22.5
				L-284.6-403.9z"/>
			<path d="M-300.3-391.5c-0.7-0.7-1.8-0.7-2.5,0c-0.7,0.7-0.7,1.8,0,2.5c0.3,0.3,0.8,0.5,1.2,0.5s0.9-0.2,1.2-0.5
				C-299.6-389.7-299.6-390.8-300.3-391.5L-300.3-391.5z"/>
		</g>
	</g>
	<g>
		<g>
			<path d="M87.2-397.4H86v-10.3c0-1.6-0.8-3.1-2-3.9v-1.4c0-2-1.7-3.7-3.7-3.7h-0.9l3.3-4.8c1.1-1.6,0.7-3.8-0.9-4.9l-22.2-15.1
				c-0.8-0.5-1.7-0.7-2.6-0.6c-0.9,0.2-1.7,0.7-2.3,1.5l-19.1,28.1h-5.3l1.3-13c0-0.1,0.1-0.3,0.2-0.3c1.7-0.6,3.1-1.8,4-3.3
				c0.1-0.1,0.2-0.2,0.4-0.2l8.3,0.8c0.6,0.1,1.1-0.4,1.2-1c0.1-0.6-0.4-1.1-1-1.2l-8.3-0.8c-1-0.1-1.9,0.4-2.4,1.2
				c-0.7,1.1-1.8,2-3,2.4c-0.9,0.3-1.5,1.2-1.6,2.1l-1.3,13.2h-1.4l2-20.6c0.1-0.7,0.7-1.3,1.5-1.2l16.9,1.7c0.6,0.1,1.1-0.4,1.2-1
				c0.1-0.6-0.4-1.1-1-1.2l-16.9-1.7c-1.9-0.2-3.7,1.2-3.9,3.2l-1.6,16.6h-2.8c-2,0-3.7,1.7-3.7,3.7v1c-1.7,0.8-2.8,2.4-2.8,4.4
				v37.1c0,2.7,2.2,4.8,4.8,4.8h60.7c2.7,0,4.8-2.2,4.8-4.8v-10.3h1.1c1.3,0,2.4-1.1,2.4-2.4v-11.6
				C89.6-396.3,88.5-397.4,87.2-397.4z M80.3-414.5L80.3-414.5c0.8,0,1.5,0.7,1.5,1.5v0.6c-0.2,0-0.4,0-0.6,0h-4.6l1.4-2H80.3z
				 M56.5-439.3c0.2-0.3,0.5-0.5,0.9-0.6c0.1,0,0.2,0,0.3,0c0.3,0,0.5,0.1,0.8,0.2l22.2,15.1c0.6,0.4,0.8,1.3,0.4,1.9l-7,10.2h-1.7
				l3.4-5c0.6-0.8,0.6-1.8,0.1-2.7c-0.6-1.1-0.9-2.5-0.7-3.8c0.1-1-0.3-1.9-1.1-2.4l-11.5-7.8c-0.8-0.5-1.8-0.6-2.7-0.1
				c-1.1,0.6-2.5,0.9-3.8,0.7c-1-0.1-1.9,0.3-2.5,1.1l-13.7,20.1h-1.7L56.5-439.3z M57-420.9c-4.7,0-8.6,3.7-8.9,8.4h-5.5l12.8-18.8
				c0,0,0,0,0,0c0.1-0.1,0.2-0.2,0.3-0.2c0,0,0,0,0,0c1.8,0.2,3.6-0.1,5.1-0.9c0.1-0.1,0.3-0.1,0.4,0l11.5,7.8
				c0.1,0.1,0.2,0.2,0.2,0.4c-0.2,1.8,0.1,3.6,1,5.1c0.1,0.1,0.1,0.3,0,0.4l-4.2,6.2h-3.7C65.6-417.2,61.7-420.9,57-420.9z
				 M63.8-412.5H50.2c0.3-3.5,3.2-6.2,6.8-6.2C60.5-418.7,63.4-416,63.8-412.5z M20.6-413c0-0.8,0.7-1.5,1.5-1.5h2.6l-0.2,2h-3.9
				V-413z M17.8-407.7c0-1.5,1.2-2.7,2.7-2.7h60.7c1.5,0,2.7,1.2,2.7,2.7v3h-66V-407.7z M83.8-370.6c0,1.5-1.2,2.7-2.7,2.7H20.5
				c-1.5,0-2.7-1.2-2.7-2.7v-3h5.9c0.6,0,1.1-0.5,1.1-1.1c0-0.6-0.5-1.1-1.1-1.1h-5.9v-26.7h66v5.1H73.5h0c-3.3,0-6.1,1.9-7.4,4.7
				c0,0,0,0,0,0c0,0,0,0,0,0.1c-0.2,0.3-0.3,0.7-0.4,1.1c0,0,0,0,0,0c-0.2,0.8-0.4,1.6-0.4,2.4c0,4.6,3.7,8.3,8.3,8.3h0h10.3v5.1
				H30.7c-0.6,0-1.1,0.5-1.1,1.1c0,0.6,0.5,1.1,1.1,1.1h53.2V-370.6z M87.4-383.3c0,0.1-0.1,0.3-0.3,0.3H73.5
				c-2.3,0-4.3-1.3-5.3-3.2c0-0.1-0.1-0.2-0.1-0.3c-0.1-0.2-0.2-0.4-0.2-0.5c-0.2-0.7-0.4-1.4-0.4-2.1c0-0.7,0.1-1.4,0.4-2.1
				c0.1-0.2,0.1-0.4,0.2-0.5c0-0.1,0.1-0.2,0.1-0.3c1-1.9,3-3.2,5.3-3.2h13.7c0.1,0,0.3,0.1,0.3,0.3L87.4-383.3L87.4-383.3z"/>
		</g>
	</g>
	<g>
		<g>
			<path d="M73.8-393.6c-2.4,0-4.4,2-4.4,4.4s2,4.4,4.4,4.4s4.4-2,4.4-4.4S76.2-393.6,73.8-393.6z M73.8-386.9c-1.2,0-2.2-1-2.2-2.2
				c0-1.2,1-2.2,2.2-2.2s2.2,1,2.2,2.2C76-387.9,75-386.9,73.8-386.9z"/>
		</g>
	</g>
	<g>
		<g>
			<path d="M439.5-416.8c-0.4-0.5-1.2-0.6-1.8-0.2l-12.5,9.9l-16.1-6.7c-0.4-0.2-0.8-0.1-1.2,0.2l-17.3,12.3
				c-0.5,0.4-0.7,1.2-0.3,1.7c0.2,0.4,0.6,0.5,1,0.5c0.2,0,0.5-0.1,0.7-0.2l16.7-11.9l16.2,6.7c0.4,0.2,0.9,0.1,1.2-0.2l13-10.3
				C439.8-415.4,439.9-416.2,439.5-416.8z"/>
		</g>
	</g>
	<g>
		<g>
			<path d="M457.5-374.6h-5.7v-35.7c0-0.7-0.5-1.2-1.2-1.2h-11.3c-0.7,0-1.2,0.5-1.2,1.2v35.7h-4.2v-23.3c0-0.7-0.5-1.2-1.2-1.2
				h-11.4c-0.7,0-1.2,0.5-1.2,1.2v23.3h-4.2v-25.2c0-0.7-0.5-1.2-1.2-1.2h-11.3c-0.7,0-1.2,0.5-1.2,1.2v25.2h-4.2v-17.9
				c0-0.7-0.5-1.2-1.2-1.2h-11.4c-0.7,0-1.2,0.5-1.2,1.2v17.9h-5.8c-0.7,0-1.2,0.5-1.2,1.2c0,0.7,0.5,1.2,1.2,1.2h6.9h11.3h6.8h11.3
				h6.6h11.3h6.6h11.3h6.9c0.7,0,1.2-0.5,1.2-1.2C458.7-374,458.2-374.6,457.5-374.6z M395.3-374.6h-8.9v-16.7h8.9V-374.6z
				 M413.4-374.6h-8.9v-24h8.9V-374.6z M431.3-374.6h-8.9v-22.1h8.9V-374.6z M449.3-374.6h-8.9V-409h8.9V-374.6z"/>
		</g>
	</g>
	<g>
		<g>
			<path d="M-349.7-198.4h-3.9v49.3h40.7l47.6-7v-34.4l-1.3-0.2l-1.8-0.3c-1.4-0.2-2.3-0.4-2.3-0.4s-0.4,0-2.4-0.5l-39.8-6.7h-1.7
				 M-322.5-198.4h-19.5 M-317.3-198.4h-2.6 M-344.5-198.4h-2.6 M-341.9-151.7h-9.1v-44.1h9.1v2.6h-6.5v38.9h6.5V-151.7z
				 M-326.4-156.9h-2.6v-9.1h-2.6v11.7h5.2v2.6h-13v-2.6h5.2V-166h-2.6v9.1h-2.6v-2.6h-2.6v2.6h-3.9v-33.8h3.9v2.6h2.6v-2.6h2.6
				v10.4h2.6v-13h-5.2v-2.6h13v2.6h-5.2v13h2.6v-10.4h2.6v2.6h2.6v-2.6h3.9v33.8h-3.9v-2.6h-2.6L-326.4-156.9L-326.4-156.9z
				 M-267.9-158.3l-44.1,6.5v-6.3h-2.6v6.5h-9.1v-2.6h6.5v-38.9h-6.5v-2.6h9.1v29.9h2.6v-29.7l44.1,7.4L-267.9-158.3L-267.9-158.3z"
				/>
		</g>
	</g>
	<g>
		<g>
			<rect x="-314.7" y="-163.4" width="2.6" height="2.6"/>
		</g>
	</g>
	<g>
		<g>
			<rect x="-341.9" y="-185.4" width="2.6" height="2.6"/>
		</g>
	</g>
	<g>
		<g>
			<path d="M-323.8-177.6v-2.6h-2.6v2.6h-13v-2.6h-2.6v2.6h-1.3v7.8h1.3v2.6h2.6v-2.6h13v2.6h2.6v-2.6h1.3v-7.8H-323.8z
				 M-325.1-172.5h-15.6v-2.6h15.6V-172.5z"/>
		</g>
	</g>
	<g>
		<g>
			<rect x="-341.9" y="-164.7" width="2.6" height="2.6"/>
		</g>
	</g>
	<g>
		<g>
			<rect x="-326.4" y="-185.4" width="2.6" height="2.6"/>
		</g>
	</g>
	<g>
		<g>
			<rect x="-326.4" y="-164.7" width="2.6" height="2.6"/>
		</g>
	</g>
	<g>
		<g>
			<rect x="-306.9" y="-190.6" width="2.6" height="33.8"/>
		</g>
	</g>
	<g>
		<g>
			<rect x="-300.4" y="-189.3" width="2.6" height="31.2"/>
		</g>
	</g>
	<g>
		<g>
			<rect x="-293.9" y="-188" width="2.6" height="28.6"/>
		</g>
	</g>
	<g>
		<g>
			<rect x="-287.4" y="-186.7" width="2.6" height="26"/>
		</g>
	</g>
	<g>
		<g>
			<rect x="-280.9" y="-185.4" width="2.6" height="23.4"/>
		</g>
	</g>
	<g>
		<g>
			<rect x="-274.4" y="-184.1" width="2.6" height="20.8"/>
		</g>
	</g>
	<path d="M97.4-173.7h-9.7c-0.9,0-1.6,0.7-1.6,1.6v1.4H75.8c-0.2,0-0.4,0-0.6,0.1l-13.1,5.4c-1.5,0.6-2.7,1.8-3.3,3.3
		c-0.6,1.5-0.6,3.2,0,4.7l0,0.1c0.4,0.9,0.9,1.7,1.6,2.3c-2,0.5-4.1,0.6-6.1,0.1l-12.9-2.9c-1.6-0.4-3.2-0.1-4.5,0.8
		c-1.4,0.9-2.3,2.2-2.6,3.8c-0.7,3.1,1.3,6.2,4.4,7l15.3,3.9c1.3,0.3,2.6,0.5,3.9,0.5c2,0,3.9-0.4,5.8-1.1l19.5-7.6H86v0.9
		c0,0.9,0.7,1.6,1.6,1.6h9.7c0.9,0,1.6-0.7,1.6-1.6V-172C99-172.9,98.3-173.7,97.4-173.7z M82.9-153.6c-0.2,0-0.4,0-0.6,0.1
		l-19.8,7.8c-2.5,1-5.1,1.1-7.7,0.5l-15.3-3.9c-1.4-0.4-2.3-1.7-2-3.1c0.1-0.7,0.6-1.3,1.2-1.7c0.4-0.3,0.9-0.4,1.4-0.4
		c0.2,0,0.4,0,0.6,0.1l12.9,2.9c3.1,0.7,6.3,0.5,9.3-0.7l3.7-1.4c0.1,0,0.2-0.1,0.2-0.1c3.3-1.3,7.5-2.9,8.4-3.2l0.2-0.1
		c0.8-0.3,1.3-1.3,0.9-2.1c-0.3-0.8-1.3-1.3-2.1-0.9c0,0-0.1,0-0.2,0.1l-8.6,3.3c-1.5,0.5-3-0.2-3.6-1.7l0-0.1
		c-0.3-0.7-0.3-1.5,0-2.2s0.8-1.2,1.5-1.5l12.8-5.3H86v13.8H82.9z M95.7-151.1h-6.4v-19.3h6.4V-151.1z"/>
	<path d="M31-174.3h-3v-15.3h0.5c1.2,0,2.4-0.3,3.5-0.8c0.1,0,0.1-0.1,0.1-0.1l10.6-6.9c1.5-0.7,3.3-0.6,4.6,0.4l0.8,0.6
		c0,0.1-0.1,0.1-0.1,0.2c-0.2,0.3-0.4,0.6-0.6,0.9c-1.1,1.9-1.9,4-2.1,6.2c-1.1,0.1-2.2,0.6-3,1.4c-0.9,0.9-1.4,2.2-1.4,3.5
		c0,2.7,2.2,4.9,4.9,4.9h12.1c0.7,0,1.3,0.3,1.8,0.7c0.5,0.5,0.7,1.1,0.7,1.8c0,1-0.6,1.9-1.5,2.3c-0.1,0-0.2,0.1-0.3,0.1
		c0,0,0,0,0,0c-0.2,0.1-0.5,0.1-0.7,0.1H44.1c-0.9,0-1.6,0.7-1.6,1.6c0,0.9,0.7,1.6,1.6,1.6h13.8c0.4,0,0.8,0,1.2-0.1
		c0.7,0.1,1.4,0.1,2.1,0.1c8.9,0,16.1-7.2,16.1-16.1c0-8.9-7.2-16.1-16.1-16.1c-4.1,0-8,1.6-11,4.3l-1-0.7c-2.3-1.7-5.5-2-8.1-0.7
		c-0.1,0-0.1,0.1-0.1,0.1l-10.6,6.9c-0.6,0.3-1.3,0.4-1.9,0.4H28v-0.6c0-0.9-0.7-1.6-1.6-1.6h-9.7c-0.9,0-1.6,0.7-1.6,1.6v22.6
		c0,0.9,0.7,1.6,1.6,1.6h9.7c0.9,0,1.6-0.7,1.6-1.6v-0.1h3c0.9,0,1.6-0.7,1.6-1.6C32.6-173.6,31.9-174.3,31-174.3z M44.1-184.3
		c0-0.4,0.2-0.9,0.5-1.2c0.2-0.2,0.4-0.3,0.6-0.4c0.1,1.1,0.3,2.2,0.6,3.2C44.8-182.7,44.1-183.4,44.1-184.3z M74.1-187.2
		c0,6.4-4.7,11.8-10.9,12.7c0.3-0.7,0.5-1.6,0.5-2.4c0-1-0.3-2-0.7-2.8c0.7-0.1,1.4-0.4,1.9-1c0.7-0.6,1-1.5,1-2.4v-2.4
		c0-1.9-1.5-3.4-3.4-3.4H60c-0.1,0-0.2-0.1-0.2-0.2v-2.3c0-0.1,0.1-0.2,0.2-0.2h1.2h0h0h1.2c0.1,0,0.2,0.1,0.2,0.2
		c0,0.9,0.7,1.6,1.6,1.6c0.9,0,1.6-0.7,1.6-1.6c0-1.7-1.3-3.2-3-3.4v-0.6c0-0.9-0.7-1.6-1.6-1.6s-1.6,0.7-1.6,1.6v0.6
		c-1.7,0.2-3,1.7-3,3.4v2.3c0,1.9,1.5,3.4,3.4,3.4h2.4c0.1,0,0.2,0.1,0.2,0.2v2.4c0,0,0,0.1,0,0.1c0,0-0.1,0-0.1,0H60
		c-0.1,0-0.2-0.1-0.2-0.2v-0.2c0-0.9-0.7-1.6-1.6-1.6s-1.6,0.7-1.6,1.6v0.2c0,0.1,0,0.3,0,0.4h-7.4c-0.6-1.4-0.8-3-0.8-4.6
		c0-2.4,0.7-4.8,2-6.8c0.4-0.6,0.8-1.1,1.2-1.7c2.4-2.8,6-4.4,9.6-4.4C68.3-200.1,74.1-194.3,74.1-187.2z M24.7-172.6h-6.4v-19.3
		h6.4V-172.6z"/>
	<path d="M38.8-173.6c-0.4-0.6-1.1-0.9-1.8-0.7c-0.7,0.2-1.1,0.8-1.2,1.4c-0.1,0.7,0.3,1.3,1,1.6c0.6,0.3,1.4,0.1,1.8-0.3
		C39.2-172.1,39.3-173,38.8-173.6z"/>
	<g>
		<g>
			<path d="M424.7-203c-17.5,0-31.7,14.2-31.7,31.7s14.2,31.7,31.7,31.7s31.7-14.2,31.7-31.7C456.3-188.8,442.1-203,424.7-203z
				 M424.7-141.8c-16.3,0-29.5-13.2-29.5-29.5s13.2-29.5,29.5-29.5c16.3,0,29.5,13.2,29.5,29.5C454.2-155.1,441-141.8,424.7-141.8z"
				/>
		</g>
	</g>
	<g>
		<g>
			<path d="M424.7-197.7c-14.6,0-26.4,11.8-26.4,26.4s11.8,26.4,26.4,26.4c14.6,0,26.4-11.8,26.4-26.4
				C451-185.9,439.2-197.7,424.7-197.7z M424.7-147.1c-13.4,0-24.3-10.9-24.3-24.3s10.9-24.3,24.3-24.3c13.4,0,24.3,10.9,24.3,24.3
				C448.9-158,438.1-147.1,424.7-147.1z"/>
		</g>
	</g>
	<g>
		<g>
			<rect x="423.6" y="-192.5" width="2.1" height="2.1"/>
		</g>
	</g>
	<g>
		<g>
			<rect x="423.6" y="-152.4" width="2.1" height="2.1"/>
		</g>
	</g>
	<g>
		<g>
			<rect x="413.6" y="-189.8" transform="matrix(0.866 -0.5001 0.5001 0.866 149.968 182.0789)" width="2.1" height="2.1"/>
		</g>
	</g>
	<g>
		<g>
			<rect x="433.6" y="-155.1" transform="matrix(0.866 -0.5001 0.5001 0.866 135.2934 196.7551)" width="2.1" height="2.1"/>
		</g>
	</g>
	<g>
		<g>
			<rect x="406.3" y="-182.4" transform="matrix(0.5 -0.866 0.866 0.5 360.733 262.0484)" width="2.1" height="2.1"/>
		</g>
	</g>
	<g>
		<g>
			<rect x="441" y="-162.4" transform="matrix(0.5 -0.866 0.866 0.5 360.728 302.1375)" width="2.1" height="2.1"/>
		</g>
	</g>
	<g>
		<g>
			<rect x="403.6" y="-172.4" width="2.1" height="2.1"/>
		</g>
	</g>
	<g>
		<g>
			<rect x="443.7" y="-172.4" width="2.1" height="2.1"/>
		</g>
	</g>
	<g>
		<g>
			<rect x="406.3" y="-162.4" transform="matrix(0.8661 -0.4999 0.4999 0.8661 135.1954 182.0067)" width="2.1" height="2.1"/>
		</g>
	</g>
	<g>
		<g>
			<rect x="441" y="-182.4" transform="matrix(0.866 -0.5 0.5 0.866 149.9173 196.7159)" width="2.1" height="2.1"/>
		</g>
	</g>
	<g>
		<g>
			<rect x="413.6" y="-155.1" transform="matrix(0.5001 -0.866 0.866 0.5001 340.6268 282.0766)" width="2.1" height="2.1"/>
		</g>
	</g>
	<g>
		<g>
			<rect x="433.6" y="-189.8" transform="matrix(0.5001 -0.866 0.866 0.5001 380.7112 282.0866)" width="2.1" height="2.1"/>
		</g>
	</g>
	<g>
		<g>
			<path d="M423.6-188.2v16.3l-10,6l1.1,1.8l10.6-6.3c0.3-0.2,0.5-0.5,0.5-0.9v-16.9H423.6z"/>
		</g>
	</g>
	<g>
		<g>
			<g>
				<path d="M-327.5,94.9c-1,0-1.7,0.8-1.7,1.7s0.8,1.7,1.7,1.7h0c1,0,1.7-0.8,1.7-1.7S-326.6,94.9-327.5,94.9z"/>
				<path d="M-260.9,66.5c0.2-0.9-0.3-1.8-1.1-2.1c-4.1-1.4-9.1-4.5-9.1-11.4v-3.7c0-5.5-0.9-9.6-2.9-12.5
					c-2.3-3.5-6.2-5.2-11.4-5.2c-5.2,0-9,1.8-11.4,5.2c-1.9,2.9-2.9,7-2.9,12.5V53c0,6.9-4.9,10-9.1,11.4c-0.9,0.3-1.4,1.2-1.1,2.1
					c0.9,3.6,2.3,5.7,4.8,6.9c-0.5,0.5-1,1.1-1.4,1.7c-2.6-3.9-7.5-5.2-11.7-6.4c-0.8-0.2-1.5-0.4-2.3-0.6v-1.2
					c4.7-2.5,7.9-7.5,7.9-13.2v-6.9c0-8.3-6.7-15-15-15c-8.3,0-15,6.7-15,15v6.9c0,5.7,3.2,10.6,7.9,13.2v1.2
					c-0.7,0.2-1.5,0.4-2.2,0.6c-5.9,1.6-13.3,3.6-13.4,12.6c0,0,0,0,0,0v15.3c0,1,0.8,1.7,1.7,1.7h13.2c1,0,1.7-0.8,1.7-1.7
					s-0.8-1.7-1.7-1.7h-2.1v-7.1c0-1-0.8-1.7-1.7-1.7c-1,0-1.7,0.8-1.7,1.7v7.1h-5.9V81.4c0.1-6,4.2-7.5,10.9-9.3
					c0.6-0.2,1.1-0.3,1.7-0.5c0.9,2.8,3.6,4.9,6.8,4.9c3.2,0,5.8-2.1,6.8-4.9c0.6,0.2,1.1,0.3,1.7,0.5c6.7,1.8,10.8,3.3,10.9,9.3
					v13.5h-5.9v-7.1c0-1-0.8-1.7-1.7-1.7c-1,0-1.7,0.8-1.7,1.7v7.1h-2.1c-1,0-1.7,0.8-1.7,1.7s0.8,1.7,1.7,1.7h26.5
					c1,0,1.7-0.8,1.7-1.7s-0.8-1.7-1.7-1.7h-2.1v-7.1c0-1-0.8-1.7-1.7-1.7c-1,0-1.7,0.8-1.7,1.7v7.1h-5.9V81.4
					c0.1-6,4.2-7.5,10.9-9.3c0.6-0.2,1.1-0.3,1.7-0.5c0.9,2.8,3.6,4.9,6.8,4.9c3.2,0,5.8-2.1,6.8-4.9c0.6,0.2,1.1,0.3,1.7,0.5
					c6.7,1.8,10.8,3.3,10.9,9.3v13.5h-5.9v-7.1c0-1-0.8-1.7-1.7-1.7c-1,0-1.7,0.8-1.7,1.7v7.1h-2.1c-1,0-1.7,0.8-1.7,1.7
					s0.8,1.7,1.7,1.7h13.2c1,0,1.7-0.8,1.7-1.7V81.4c0,0,0,0,0,0c-0.1-3.7-1.3-6.2-3.2-8C-263.2,72.2-261.8,70.1-260.9,66.5
					L-260.9,66.5z M-339,46.8c0-6.3,5.2-11.5,11.5-11.5c6.3,0,11.5,5.2,11.5,11.5v1.8c-4.6,0.2-10.4-0.4-14.7-3.3
					c-0.8-0.5-1.8-0.4-2.4,0.4c-1.5,1.9-3.3,2.4-5.9,2.7V46.8z M-323.9,69.4c0,2-1.6,3.6-3.6,3.6c-2,0-3.6-1.6-3.6-3.6v-1.1
					c1.2,0.3,2.4,0.5,3.6,0.5c1.3,0,2.5-0.2,3.6-0.4V69.4z M-327.5,65.3c-6.3,0-11.5-5.2-11.5-11.5V52c2.8-0.3,5.5-0.8,7.7-2.9
					c4.8,2.7,10.6,3.3,15.3,3.1v1.6C-316,60.1-321.2,65.3-327.5,65.3L-327.5,65.3z M-293.8,38.8c1.7-2.5,4.4-3.7,8.5-3.7
					c4,0,6.8,1.2,8.5,3.7c1.4,2,2.1,5,2.3,9.1c-3.2,0.6-7.1,0.1-9.2-4.1c-0.6-1.3-2.5-1.3-3.1,0c-2.1,4.2-5.9,4.6-9.2,4.1
					C-296,43.9-295.2,40.9-293.8,38.8z M-292.5,68.1c-0.7,0.2-1.5,0.4-2.2,0.6c-2.1,0.6-4.4,1.2-6.5,2.2c-2.7-0.5-3.9-1.3-4.7-3.8
					c2.8-1.2,6.3-3.3,8.3-7.1c1.3,2.2,3.1,4,5.3,5.3L-292.5,68.1L-292.5,68.1z M-281.7,69.4c0,2-1.6,3.6-3.6,3.6
					c-2,0-3.6-1.6-3.6-3.6v-2.6c1.2,0.3,2.4,0.5,3.6,0.5c1.3,0,2.5-0.2,3.6-0.5V69.4z M-285.4,63.8c-5.9,0-10.8-4.8-10.8-10.8v-1.5
					c0.7,0.1,1.5,0.2,2.2,0.2c3.5,0,6.5-1.3,8.6-3.8c2.1,2.5,5.1,3.8,8.6,3.8c0.7,0,1.4-0.1,2.2-0.2V53
					C-274.6,58.9-279.4,63.8-285.4,63.8z M-269.5,70.9c-2.1-1-4.4-1.6-6.5-2.2c-0.8-0.2-1.5-0.4-2.2-0.6v-2.8c2.2-1.3,4-3.1,5.2-5.3
					c2,3.8,5.4,5.9,8.3,7.1C-265.5,69.6-266.7,70.4-269.5,70.9L-269.5,70.9z"/>
				<path d="M-285.4,94.9c-1,0-1.7,0.8-1.7,1.7s0.8,1.7,1.7,1.7h0c1,0,1.7-0.8,1.7-1.7S-284.4,94.9-285.4,94.9z"/>
			</g>
		</g>
	</g>
	<path d="M65.2,89.5h-2.7V76.4c0-0.7-0.6-1.3-1.3-1.3s-1.3,0.6-1.3,1.3v13.1H25.2V62.8h11.1c0.7,0,1.3-0.6,1.3-1.3s-0.6-1.3-1.3-1.3
		H23.9c-0.7,0-1.3,0.6-1.3,1.3v28h-2.7c-0.7,0-1.3,0.6-1.3,1.3v2.7c0,3.7,3,6.7,6.7,6.7h34.7c3.7,0,6.7-3,6.7-6.7v-2.7
		C66.5,90.1,66,89.5,65.2,89.5z M63.9,93.5c0,2.2-1.8,4-4,4h-2.7v-1.3c0-0.7-0.6-1.3-1.3-1.3s-1.3,0.6-1.3,1.3v1.3h-24v-1.3
		c0-0.7-0.6-1.3-1.3-1.3c-0.7,0-1.3,0.6-1.3,1.3v1.3h-2.7c-2.2,0-4-1.8-4-4v-1.3h42.7V93.5z"/>
	<path d="M87.9,28.2h2.7c0.7,0,1.3-0.6,1.3-1.3s-0.6-1.3-1.3-1.3h-2.7c-2.2,0-4,1.8-4,4v1.3h-1.3c-0.7,0-1.3,0.6-1.3,1.3
		c0,0.7,0.6,1.3,1.3,1.3h1.3v4c0,0.7,0.6,1.3,1.3,1.3c0.7,0,1.3-0.6,1.3-1.3v-4h1.3c0.7,0,1.3-0.6,1.3-1.3c0-0.7-0.6-1.3-1.3-1.3
		h-1.3v-1.3C86.6,28.8,87.1,28.2,87.9,28.2z"/>
	<path d="M94.6,20.2h-16c-2.2,0-4,1.8-4,4v2.7c0,0.7,0.6,1.3,1.3,1.3c0.7,0,1.3-0.6,1.3-1.3v-2.7c0-0.7,0.6-1.3,1.3-1.3h16
		c0.7,0,1.3,0.6,1.3,1.3v16c0,0.7-0.6,1.3-1.3,1.3h-16c-0.7,0-1.3-0.6-1.3-1.3v-8c0-0.7-0.6-1.3-1.3-1.3c-0.7,0-1.3,0.6-1.3,1.3v8
		c0,2.2,1.8,4,4,4h16c2.2,0,4-1.8,4-4v-16C98.6,22,96.8,20.2,94.6,20.2z"/>
	<path d="M81.2,73.5c0,2.9,2.4,5.3,5.3,5.3c2.9,0,5.3-2.4,5.3-5.3s-2.4-5.3-5.3-5.3C83.6,68.2,81.2,70.6,81.2,73.5z M89.2,73.5
		c0,1.5-1.2,2.7-2.7,2.7s-2.7-1.2-2.7-2.7s1.2-2.7,2.7-2.7S89.2,72,89.2,73.5z"/>
	<path d="M94.6,61.5h-16c-2.2,0-4,1.8-4,4v16c0,2.2,1.8,4,4,4h16c2.2,0,4-1.8,4-4v-2.7c0-0.7-0.6-1.3-1.3-1.3
		c-0.7,0-1.3,0.6-1.3,1.3v2.7c0,0.7-0.6,1.3-1.3,1.3h-16c-0.7,0-1.3-0.6-1.3-1.3v-16c0-0.7,0.6-1.3,1.3-1.3h16
		c0.7,0,1.3,0.6,1.3,1.3v8c0,0.7,0.6,1.3,1.3,1.3c0.7,0,1.3-0.6,1.3-1.3v-8C98.6,63.3,96.8,61.5,94.6,61.5z"/>
	<path d="M48.5,36c0.2,0.1,0.5,0.2,0.7,0.2c0.2,0,0.4-0.1,0.6-0.1l8-4c0.7-0.3,0.9-1.1,0.6-1.8c-0.1-0.2-0.3-0.5-0.6-0.6l-8-4
		c-0.7-0.3-1.5-0.1-1.8,0.6c-0.1,0.2-0.1,0.4-0.1,0.6v8C47.9,35.3,48.1,35.7,48.5,36z M50.5,29l3.7,1.8l-3.7,1.8V29z"/>
	<path d="M51.9,42.8c6.6,0,12-5.4,12-12s-5.4-12-12-12s-12,5.4-12,12S45.2,42.8,51.9,42.8z M51.9,21.5c5.2,0,9.3,4.2,9.3,9.3
		s-4.2,9.3-9.3,9.3s-9.3-4.2-9.3-9.3S46.7,21.5,51.9,21.5z"/>
	<path d="M65.2,48.2c0.4,0,0.8-0.2,1.1-0.5l4-5.3c0.4-0.6,0.3-1.4-0.3-1.9c-0.6-0.4-1.4-0.3-1.9,0.3l-4,5.3
		c-0.4,0.6-0.3,1.4,0.3,1.9C64.6,48.1,64.9,48.2,65.2,48.2z"/>
	<path d="M68.1,53c0.3,0.3,0.6,0.5,1.1,0.5c0.3,0,0.6-0.1,0.8-0.3l5.3-4c0.6-0.4,0.7-1.3,0.3-1.9c-0.4-0.6-1.3-0.7-1.9-0.3l-5.3,4
		C67.8,51.6,67.7,52.4,68.1,53L68.1,53z"/>
	<path d="M81.2,55.9c-0.1-0.7-0.8-1.2-1.5-1.1c0,0,0,0-0.1,0l-6.7,1.3c-0.7,0.1-1.3,0.7-1.2,1.5s0.7,1.3,1.5,1.2h0.3l6.7-1.3
		C80.9,57.4,81.4,56.7,81.2,55.9C81.2,55.9,81.2,55.9,81.2,55.9z"/>
	<path d="M19.9,56.2h16c0.7,0,1.3-0.6,1.3-1.3V33.5c0-0.7-0.6-1.3-1.3-1.3h-16c-0.7,0-1.3,0.6-1.3,1.3v21.3
		C18.5,55.6,19.1,56.2,19.9,56.2z M21.2,34.8h13.3v18.7H21.2V34.8z"/>
	<path d="M30.5,37.5h-2.7c-0.7,0-1.3,0.6-1.3,1.3c0,0.7,0.6,1.3,1.3,1.3h2.7c0.7,0,1.3-0.6,1.3-1.3C31.9,38.1,31.3,37.5,30.5,37.5z"
		/>
	<path d="M30.5,42.8h-5.3c-0.7,0-1.3,0.6-1.3,1.3s0.6,1.3,1.3,1.3h5.3c0.7,0,1.3-0.6,1.3-1.3S31.3,42.8,30.5,42.8z"/>
	<path d="M30.5,48.2h-5.3c-0.7,0-1.3,0.6-1.3,1.3s0.6,1.3,1.3,1.3h5.3c0.7,0,1.3-0.6,1.3-1.3S31.3,48.2,30.5,48.2z"/>
	<path d="M64,55.8c-0.4-0.6-1.2-0.9-1.8-0.5c-0.6,0.4-0.9,1.2-0.5,1.8l5.9,10.2l-21.3,8c0,0,0,0-0.1,0h-0.1l-3.5,2l-2.3,1.3
		c-0.6,0.4-1.3,0.5-2,0.3c-0.7-0.2-1.3-0.6-1.6-1.2L34,73c-0.7-1.3-0.2-2.8,1-3.5l4.6-2.7l3.3,5.8c0.2,0.4,0.7,0.7,1.2,0.7
		c0.7,0,1.3-0.6,1.3-1.3c0-0.2-0.1-0.5-0.2-0.7l-3.4-5.9l16.7-13.8l0.5,0.9c0.4,0.6,1.2,0.9,1.8,0.5c0.6-0.4,0.9-1.2,0.5-1.8
		l-1.3-2.3c-0.2-0.3-0.5-0.6-0.9-0.6c-0.4-0.1-0.8,0-1.1,0.3L39.4,63.9l-5.7,3.3c-2.1,1.2-3.1,3.7-2.5,6L29.9,74
		c-1.9,1.1-2.6,3.5-1.5,5.5c0.5,0.9,1.4,1.6,2.4,1.9c0.3,0.1,0.7,0.1,1,0.1c0.7,0,1.4-0.2,2-0.5l1.3-0.8c0.6,0.7,1.4,1.1,2.3,1.4
		c0.5,0.1,0.9,0.2,1.4,0.2c0.9,0,1.9-0.2,2.7-0.7l1.2-0.7l2.7,4.6c1.1,1.9,3.5,2.6,5.5,1.5c1.9-1.1,2.6-3.5,1.5-5.5c0,0,0,0,0,0
		L50,76.7l20-7.5c0.4-0.1,0.7-0.4,0.8-0.8c0.1-0.4,0.1-0.8-0.1-1.1L64,55.8z M32.5,78.6c-0.3,0.2-0.7,0.2-1,0.1
		c-0.3-0.1-0.6-0.3-0.8-0.6c-0.2-0.3-0.2-0.7-0.1-1c0.1-0.3,0.3-0.6,0.6-0.8l1.2-0.7l1.3,2.3L32.5,78.6z M50.1,82.3
		c0.2,0.3,0.2,0.7,0.1,1c-0.1,0.3-0.3,0.6-0.6,0.8c-0.6,0.4-1.4,0.2-1.8-0.5L45.1,79l2.2-1.3h0.1L50.1,82.3z"/>
	<g>
		<g>
			<path d="M446.9,93.1l-3-8.9c-1-3.1-3.7-5.4-6.9-6l-8.5-1.6v-0.7c1.5-0.9,2.8-2,3.8-3.4h2.6c2.1,0,3.8-1.7,3.8-3.8V53.5
				c0-9.2-7.4-16.6-16.6-16.6c-9.2,0-16.6,7.4-16.6,16.6v8.9c0,2.5,1.8,4.5,4.1,5c0.7,3.7,3,6.8,6.1,8.6v0.7l-8.5,1.6
				c-3.2,0.6-5.8,2.9-6.9,6l-0.5,1.5l-4.3-4.3c-0.5-0.5-0.5-1.3,0-1.8l5-5l-9.5-9.5l-5.7,5.7c-1.7,1.7-2.6,3.9-2.6,6.3
				s0.9,4.6,2.6,6.3l17.3,17.3c1.7,1.7,3.9,2.6,6.3,2.6c2.4,0,4.6-0.9,6.3-2.6l6.2-5.7l-1.9-1.9H446.9z M436.2,68.9
				c0,0.7-0.6,1.3-1.3,1.3h-1.1c0.4-0.8,0.7-1.7,0.8-2.7c0.5-0.1,1-0.3,1.5-0.6V68.9z M434.9,64.7v-4.4c0.8,0.4,1.3,1.3,1.3,2.2
				S435.7,64.2,434.9,64.7z M409.4,64.7c-0.8-0.4-1.3-1.3-1.3-2.2s0.5-1.8,1.3-2.2V64.7z M409.4,56.1v1.5c-0.5,0.1-0.9,0.3-1.3,0.5
				v-4.5c0-7.7,6.3-14,14-14c7.7,0,14,6.3,14,14v4.5c-0.4-0.2-0.8-0.4-1.3-0.5v-1.5h-1.3c-3.8,0-7.3-1.5-10-4.1l-1.5-1.5l-1.5,1.5
				c-2.7,2.7-6.2,4.1-10,4.1H409.4z M411.9,65v-6.4c3.8-0.3,7.4-1.9,10.2-4.5c2.8,2.7,6.4,4.3,10.2,4.5V65c0,1.9-0.5,3.6-1.4,5.1
				h-8.8v2.6h6.7c-1.8,1.6-4.2,2.6-6.7,2.6C416.5,75.3,411.9,70.7,411.9,65z M426,77.2L426,77.2l-3.8,3.9l-3.8-3.8v-0.1
				c1.2,0.4,2.5,0.6,3.8,0.6C423.5,77.8,424.8,77.6,426,77.2z M402.8,85.1c0.7-2.2,2.6-3.8,4.9-4.3l8.9-1.6l5.5,5.5l5.5-5.5l8.9,1.6
				c2.3,0.4,4.2,2.1,4.9,4.3l1.8,5.5H417l-5-5l-5.5,5c-0.5,0.5-1.3,0.5-1.8,0l-2.8-2.8L402.8,85.1z M391.1,68.7l5.9,5.9l-1.4,1.4
				l-5.9-5.9L391.1,68.7z M413.5,98.9c-1.2,1.2-2.8,1.9-4.5,1.9s-3.3-0.7-4.5-1.9l-17.3-17.3c-1.2-1.2-1.9-2.8-1.9-4.5
				c0-1.7,0.7-3.3,1.9-4.5l0.7-0.7l5.9,5.9l0,0c-1.5,1.5-1.5,3.9,0,5.4l9.2,9.2c0.7,0.7,1.7,1.1,2.7,1.1s2-0.4,2.7-1.1l0.1-0.1
				l5.9,5.9L413.5,98.9z M416.1,96.5l-5.9-5.9l1.7-1.5l5.9,5.9L416.1,96.5z"/>
		</g>
	</g>
	<g>
		<g>
			<path d="M457.9,24.2H440c-2.1,0-3.8,1.7-3.8,3.8v10.2c0,2.1,1.7,3.8,3.8,3.8h3.4l-1.3,7.7l12.3-7.7h3.5c2.1,0,3.8-1.7,3.8-3.8V28
				C461.7,25.9,460,24.2,457.9,24.2z M459.2,38.2c0,0.7-0.6,1.3-1.3,1.3h-4.2l-8.1,5.1l0.9-5.1H440c-0.7,0-1.3-0.6-1.3-1.3V28
				c0-0.7,0.6-1.3,1.3-1.3h17.9c0.7,0,1.3,0.6,1.3,1.3V38.2z"/>
		</g>
	</g>
	<g>
		<g>
			<rect x="441.3" y="29.3" width="15.3" height="2.6"/>
		</g>
	</g>
	<g>
		<g>
			<rect x="441.3" y="34.4" width="10.2" height="2.6"/>
		</g>
	</g>
	<g>
		<g>
			<rect x="454.1" y="34.4" width="2.6" height="2.6"/>
		</g>
	</g>
	<g>
		<g>
			<path d="M422.2,28c-16.7,0-31.1,11.5-34.8,27.6l-2.4-4l-2.2,1.3l4.5,7.5l7.5-4.5l-1.3-2.2l-3.5,2.1c3.6-14.7,16.9-25.2,32.2-25.2
				c3.4,0,6.7,0.5,9.8,1.5l0.8-2.4C429.3,28.5,425.8,28,422.2,28z"/>
		</g>
	</g>
	<g>
		<g>
			<path d="M461.1,52.5l-7.5-4.5l-4.5,7.5l2.2,1.3l2.2-3.7c1.2,3.4,1.8,7,1.8,10.7c0,7.6-2.6,15-7.4,20.9l2,1.6
				c5.1-6.3,8-14.3,8-22.5c0-3.9-0.6-7.7-1.9-11.4l3.8,2.3L461.1,52.5z"/>
		</g>
	</g>
</g>
<g>
	<g>
		<path d="M451.8-205.7c-6.6,0-11.7,5.3-11.7,11.8c0,6.6,5.3,11.7,11.7,11.7c6.5,0,11.8-5.3,11.8-11.8
			C463.7-200.5,458.4-205.7,451.8-205.7z M451.8-184.7c-5.1,0-9.2-4.1-9.2-9.2s4.2-9.2,9.2-9.2c5.1,0,9.2,4.1,9.2,9.2
			S456.9-184.7,451.8-184.7z"/>
	</g>
</g>
<g>
	<g>
		<path d="M455.6-192.1c-0.1-0.2-0.1-0.4-0.2-0.6c-0.1-0.2-0.2-0.4-0.3-0.6s-0.2-0.3-0.4-0.5c-0.2-0.2-0.3-0.3-0.6-0.4
			c-0.2-0.2-0.4-0.2-0.6-0.3c-0.2-0.1-0.4-0.2-0.6-0.3c-0.2-0.1-0.5-0.2-0.6-0.2c-0.1,0-0.2-0.1-0.3-0.2c-0.1-0.1-0.2-0.1-0.3-0.2
			c-0.1-0.1-0.2-0.1-0.3-0.2c-0.1-0.1-0.2-0.2-0.2-0.2c-0.1-0.1-0.2-0.2-0.2-0.3c-0.1-0.1-0.1-0.2-0.1-0.3c0-0.2,0-0.2,0-0.4
			c0-0.1,0.1-0.2,0.1-0.3c0.1-0.1,0.1-0.2,0.2-0.3c0.1-0.1,0.2-0.2,0.2-0.2c0.1-0.1,0.2-0.2,0.4-0.2c0.2-0.1,0.2-0.1,0.4-0.1
			c0.1,0,0.2,0,0.2,0s0.2,0,0.2,0c0.2,0,0.2,0,0.4,0.1c0.2,0,0.3,0.1,0.4,0.1c0.1,0,0.2,0.1,0.3,0.1c0.2,0,0.2,0.1,0.3,0.1l0.4,0.2
			l0.1-0.5l0.2-1.3v-0.3l-0.3-0.1c-0.1,0-0.2-0.1-0.3-0.1c-0.1,0-0.2-0.1-0.3-0.1c-0.1,0-0.2-0.1-0.4-0.1s-0.2-0.1-0.4-0.1h-0.1
			v-1.1v-0.4h-0.4h-1.1h-0.4v0.4v1.2h-0.1c-0.2,0.1-0.5,0.2-0.7,0.3c-0.2,0.1-0.4,0.2-0.6,0.4c-0.2,0.2-0.3,0.3-0.5,0.6
			c-0.2,0.2-0.2,0.4-0.3,0.6c-0.1,0.2-0.2,0.5-0.2,0.7c-0.1,0.2-0.1,0.6-0.1,0.8s0,0.4,0.1,0.6c0.1,0.2,0.1,0.4,0.2,0.6
			c0.1,0.2,0.2,0.4,0.3,0.6c0.2,0.2,0.2,0.3,0.4,0.5c0.2,0.2,0.3,0.3,0.6,0.4c0.2,0.2,0.4,0.2,0.6,0.3c0.2,0.1,0.5,0.2,0.6,0.3
			c0.2,0.1,0.5,0.2,0.6,0.2c0.1,0,0.2,0.1,0.3,0.2c0.1,0.1,0.2,0.1,0.3,0.2c0.1,0.1,0.2,0.2,0.2,0.2c0.1,0.1,0.2,0.2,0.2,0.2
			c0.1,0.1,0.1,0.2,0.2,0.3c0,0.1,0.1,0.2,0.1,0.4c0,0.2,0,0.2,0,0.4c0,0.1-0.1,0.2-0.2,0.3c-0.1,0.1-0.2,0.2-0.2,0.2
			c-0.1,0.1-0.2,0.2-0.3,0.2c-0.1,0.1-0.2,0.1-0.3,0.2c-0.1,0-0.2,0.1-0.4,0.1c-0.1,0-0.2,0-0.3,0c-0.1,0-0.2,0-0.3,0
			c-0.2,0-0.3,0-0.4,0c-0.2,0-0.3-0.1-0.4-0.1c-0.2,0-0.3-0.1-0.5-0.2s-0.3-0.1-0.5-0.2c-0.1,0-0.2-0.1-0.2-0.1
			c-0.1,0-0.2-0.1-0.2-0.1l-0.5-0.2l-0.1,0.6l-0.2,1.5v0.2l0.2,0.1c0.3-0.1,0.5,0,0.7,0.1c0.2,0.1,0.4,0.2,0.6,0.2
			c0.2,0.1,0.4,0.1,0.6,0.2c0.2,0.1,0.4,0.1,0.6,0.1h0.2v1.2v0.4h0.4h1.1h0.4v-0.4v-1.3h0.1c0.2-0.1,0.5-0.2,0.7-0.3
			c0.2-0.1,0.4-0.2,0.6-0.4c0.2-0.2,0.3-0.3,0.5-0.6c0.2-0.2,0.2-0.4,0.4-0.6c0.1-0.2,0.2-0.5,0.2-0.7c0.1-0.2,0.1-0.5,0.1-0.8
			C455.6-191.7,455.6-191.9,455.6-192.1z"/>
	</g>
</g>
</svg>
