<?xml version="1.0" encoding="utf-8"?>
<!-- Generator: Adobe Illustrator 24.2.1, SVG Export Plug-In . SVG Version: 6.00 Build 0)  -->
<svg version="1.1" id="Capa_1" xmlns="http://www.w3.org/2000/svg" xmlns:xlink="http://www.w3.org/1999/xlink" x="0px" y="0px"
	 viewBox="0 0 119.3 119.3" style="enable-background:new 0 0 119.3 119.3;" xml:space="preserve">
<style type="text/css">
	.st0{opacity:0.3;}
	.st1{fill:#FFC107;}
</style>
<g>
	<g class="st0">
		<path class="st1" d="M-643.4-364.1c-6,4-12.7,7.4-20,8c-7.2,0.6-15-2-19.2-7.9c-4.3-6-4.5-14.8-10.5-19.2
			c-7.9-5.9-21.6-0.4-27.7-8.3c-3.7-4.8-1.9-11.7,0.2-17.4c2.6-6.8,5.5-13.4,8.8-19.8c0.8-1.7,1.8-3.4,3.4-4.4
			c4.2-2.7,9.3,1,13.8,3.2c7.6,3.6,17.2,2.4,23.6-3.1c5.3-4.6,9.2-12.1,16.1-12.4c3.1-0.2,6.1,1.3,8.7,3
			c11.3,7.6,17.9,21.6,16.5,35.1c-0.5,4.7-1.9,9.2-3.2,13.7c-2.9,9.7-5.9,19.4-9.8,28.7"/>
	</g>
	<g class="st0">
		<path class="st1" d="M-644.7-139.1c-6,4-12.7,7.4-20,8s-15-2-19.2-7.9c-4.3-6-4.5-14.8-10.5-19.2c-7.9-5.9-21.6-0.4-27.7-8.3
			c-3.7-4.8-1.9-11.7,0.2-17.4c2.6-6.8,5.5-13.4,8.8-19.8c0.8-1.7,1.8-3.4,3.4-4.4c4.2-2.7,9.3,1,13.8,3.2
			c7.6,3.6,17.2,2.4,23.6-3.1c5.3-4.6,9.2-12.1,16.1-12.4c3.1-0.2,6.1,1.3,8.7,3c11.3,7.6,17.9,21.6,16.5,35.1
			c-0.5,4.7-1.9,9.2-3.2,13.7c-2.9,9.7-5.9,19.4-9.8,28.7"/>
	</g>
	<g class="st0">
		<path class="st1" d="M-635.4,99c-6,4-12.7,7.4-20,8s-15-2-19.2-7.9c-4.3-6-4.5-14.8-10.5-19.2c-7.9-5.9-21.6-0.4-27.7-8.3
			c-3.7-4.8-1.9-11.7,0.2-17.4c2.6-6.8,5.5-13.4,8.8-19.8c0.8-1.7,1.8-3.4,3.4-4.4c4.2-2.7,9.3,1,13.8,3.2
			c7.6,3.6,17.2,2.4,23.6-3.1c5.3-4.6,9.2-12.1,16.1-12.4c3.1-0.2,6.1,1.3,8.7,3c11.3,7.6,17.9,21.6,16.5,35.1
			c-0.5,4.7-1.9,9.2-3.2,13.7c-2.9,9.7-5.9,19.4-9.8,28.7"/>
	</g>
	<g class="st0">
		<path class="st1" d="M-254.7-165.3c-1.4,7.1-3.8,14.2-8.5,19.8c-4.7,5.5-12,9.2-19.2,8c-7.3-1.3-13.7-7.3-21-6.2
			c-9.8,1.5-15.6,15-25.4,13.7c-6-0.8-9.6-6.9-12.1-12.4c-3-6.6-5.6-13.4-7.8-20.2c-0.6-1.8-1.1-3.7-0.7-5.5c1-4.8,7.3-5.8,12-7.5
			c7.9-2.8,13.8-10.5,14.4-18.9c0.5-6.9-2-15,2.6-20.2c2.1-2.3,5.2-3.4,8.3-4c13.3-2.7,27.9,2.6,36.5,13.2c3,3.7,5.2,7.8,7.4,12
			c4.8,8.9,9.6,17.8,13.4,27.2"/>
	</g>
	<g class="st0">
		<path class="st1" d="M-254.7,67.4c-1.4,7.1-3.8,14.2-8.5,19.8s-12,9.2-19.2,8c-7.3-1.3-13.7-7.3-21-6.2
			c-9.8,1.5-15.6,15-25.4,13.7c-6-0.8-9.6-6.9-12.1-12.4c-3-6.6-5.6-13.4-7.8-20.2c-0.6-1.8-1.1-3.7-0.7-5.5c1-4.8,7.3-5.8,12-7.5
			c7.9-2.8,13.8-10.5,14.4-18.9c0.5-6.9-2-15,2.6-20.2c2.1-2.3,5.2-3.4,8.3-4c13.3-2.7,27.9,2.6,36.5,13.2c3,3.7,5.2,7.8,7.4,12
			c4.8,8.9,9.6,17.8,13.4,27.2"/>
	</g>
	<g class="st0">
		<path class="st1" d="M108.1,70.4c-1.4,7.1-3.8,14.2-8.5,19.8c-4.7,5.5-12,9.2-19.2,8c-7.3-1.3-13.7-7.3-21-6.2
			c-9.8,1.5-15.6,15-25.4,13.7c-6-0.8-9.6-6.9-12.1-12.4c-3-6.6-5.6-13.4-7.8-20.2c-0.6-1.8-1.1-3.7-0.7-5.5c1-4.8,7.3-5.8,12-7.5
			c7.9-2.8,13.8-10.5,14.4-18.9c0.5-6.9-2-15,2.6-20.2c2.1-2.3,5.2-3.4,8.3-4c13.3-2.7,27.9,2.6,36.5,13.2c3,3.7,5.2,7.8,7.4,12
			C99.4,51,104.2,60,108,69.3"/>
	</g>
	<g class="st0">
		<path class="st1" d="M69-211.6c5.8,1.1,11.5,3.1,16,6.9s7.4,9.8,6.5,15.6c-1,5.9-5.9,11.1-5,17c1.2,7.9,12.2,12.7,11.1,20.6
			c-0.6,4.9-5.6,7.8-10.1,9.8c-5.3,2.4-10.8,4.5-16.4,6.3c-1.4,0.5-3,0.9-4.4,0.6c-3.9-0.9-4.7-5.9-6.1-9.7
			c-2.2-6.4-8.5-11.2-15.3-11.7c-5.6-0.4-12.2,1.7-16.4-2.1c-1.9-1.7-2.8-4.3-3.3-6.7c-2.1-10.8,2.1-22.7,10.7-29.6
			c3-2.4,6.3-4.2,9.7-6c7.2-3.9,14.5-7.7,22.1-10.9"/>
	</g>
	<g class="st0">
		<path class="st1" d="M-300.6-445.8c6.6,1.3,13.2,3.5,18.3,7.9c5.1,4.4,8.4,11.4,7.2,18.3c-1.2,7-6.9,13.2-6,20.2
			c1.3,9.3,13.8,14.8,12.5,24.1c-0.8,5.8-6.5,9.3-11.7,11.7c-6.2,2.9-12.5,5.5-19,7.7c-1.7,0.6-3.4,1.1-5.1,0.8
			c-4.5-1-5.4-6.9-6.8-11.4c-2.5-7.5-9.7-13.1-17.5-13.6c-6.5-0.4-14,2.1-18.8-2.3c-2.2-2-3.1-5-3.7-7.9c-2.3-12.7,2.8-26.8,12.7-35
			c3.4-2.9,7.4-5,11.2-7.2c8.4-4.7,16.7-9.3,25.5-13.1"/>
	</g>
	<g class="st0">
		<path class="st1" d="M14.8-398.1c-0.8-6.7-0.7-13.7,2-19.9c2.7-6.2,8.4-11.5,15.3-12.3c7-0.9,14.7,2.7,21-0.3
			c8.5-4,10-17.6,19.3-19.2c5.7-1,10.8,3.5,14.7,7.7c4.6,5,8.9,10.3,13,15.8c1,1.4,2.1,2.9,2.3,4.7c0.4,4.6-5,7.2-8.8,9.9
			c-6.5,4.6-9.6,13.1-7.8,20.7c1.5,6.3,6.2,12.8,3.4,18.6c-1.3,2.6-3.8,4.5-6.5,5.9c-11.4,6-26.4,5.4-37.2-1.7
			c-3.8-2.4-7-5.5-10.2-8.6c-6.9-6.6-13.9-13.2-20.1-20.4"/>
	</g>
	<g>
		<g>
			<path d="M-629.7-419.3l-25-25c-0.7-0.7-1.8-0.7-2.5,0l-16.9,16.9l-16.9-16.9c-0.3-0.3-0.8-0.5-1.2-0.5s-0.9,0.2-1.2,0.5
				l-24.6,24.6c-0.7,0.7-0.7,1.8,0,2.5l10.5,10.5c-0.4,1.3-0.7,2.4-1,3.3c-1.3,3.9-1.6,5.5,0.9,10.3l-1.4,1.4v0
				c-2.6,2.6-2.6,6.9,0,9.5c1.3,1.3,2.9,2,4.7,2c0.7,0,1.5-0.1,2.1-0.3c0.2,1.3,0.8,2.6,1.9,3.7c1.3,1.3,2.9,2,4.7,2
				c0.8,0,1.6-0.1,2.4-0.4c0.2,1.3,0.9,2.5,1.9,3.5c1.3,1.3,2.9,2,4.7,2c1,0,2-0.2,2.9-0.7c0.3,1.2,0.9,2.4,1.8,3.3
				c1.3,1.3,3,2,4.7,2c1.7,0,3.4-0.7,4.7-2l2-2l5.3,5.3c1.3,1.3,2.9,2,4.7,2h0c1.8,0,3.5-0.7,4.7-2c2.1-2.1,2.5-5.2,1.3-7.7
				c1.2-0.3,2.4-0.9,3.3-1.8c1.3-1.3,2-2.9,2-4.7c0-1-0.2-2-0.7-2.9c1.2-0.3,2.3-0.9,3.3-1.8c1.3-1.3,2-2.9,2-4.7c0-1-0.2-2-0.7-2.9
				c1.2-0.3,2.3-0.9,3.3-1.8c2.6-2.6,2.6-6.9,0-9.5l-1.5-1.5l13.4-13.4C-629-417.5-629-418.6-629.7-419.3L-629.7-419.3z
				 M-704.1-383.8c-0.9,0-1.7-0.3-2.3-0.9c-1.3-1.3-1.3-3.3,0-4.6v0l9.4-9.4c0.6-0.6,1.4-0.9,2.3-0.9s1.7,0.3,2.3,0.9
				c0.6,0.6,0.9,1.4,0.9,2.3c0,0.9-0.3,1.7-0.9,2.3l-7.7,7.7l-1.7,1.7C-702.4-384.1-703.2-383.8-704.1-383.8L-704.1-383.8z
				 M-693.1-379.4c-0.6,0.6-1.4,0.9-2.3,0.9c-0.9,0-1.7-0.3-2.3-0.9c-1.3-1.3-1.3-3.3,0-4.6c0,0,0,0,0,0l7.7-7.7
				c1.3-1.3,3.3-1.3,4.6,0c1.3,1.3,1.3,3.3,0,4.6l-5.7,5.7L-693.1-379.4z M-684.1-374.4c-0.6,0.6-1.4,0.9-2.3,0.9
				c-0.9,0-1.7-0.3-2.3-0.9c-1.3-1.3-1.3-3.3,0-4.6c0,0,0,0,0,0l5.7-5.7c1.3-1.3,3.3-1.3,4.6,0c0.6,0.6,0.9,1.4,0.9,2.3
				c0,0.9-0.3,1.7-0.9,2.3l-3.3,3.3L-684.1-374.4z M-674.6-369.8c-0.6,0.6-1.4,0.9-2.3,0.9c-0.9,0-1.7-0.3-2.3-0.9
				c-1.3-1.3-1.3-3.3,0-4.6l3.3-3.3c1.3-1.3,3.3-1.3,4.6,0s1.3,3.3,0,4.6L-674.6-369.8z M-644.1-395c-1.3,1.3-3.3,1.3-4.6,0
				l-2.5-2.5c-0.7-0.7-1.8-0.7-2.5,0c-0.7,0.7-0.7,1.8,0,2.5l2.5,2.5l2.5,2.5c1.3,1.3,1.3,3.3,0,4.6c-1.3,1.3-3.3,1.3-4.6,0
				l-2.5-2.5c-0.7-0.7-1.8-0.7-2.5,0c-0.7,0.7-0.7,1.8,0,2.5l2.5,2.5l2.5,2.5c1.3,1.3,1.3,3.3,0,4.6s-3.3,1.3-4.6,0l-2.5-2.5
				c-0.7-0.7-1.8-0.7-2.5,0c-0.7,0.7-0.7,1.8,0,2.5l2.5,2.5l2.5,2.5c0.6,0.6,0.9,1.4,0.9,2.3c0,0.9-0.3,1.7-0.9,2.3
				c-0.6,0.6-1.4,0.9-2.3,0.9c-0.9,0-1.7-0.3-2.3-0.9l-5.5-5.5c1.5-2.6,1.1-5.9-1.1-8.1c-1.4-1.4-3.2-2-5.1-2c0-0.1,0-0.2,0-0.3
				c0-1.8-0.7-3.5-2-4.7c-1.4-1.4-3.2-2-5.1-2c0-0.1,0-0.2,0-0.3c0-1.8-0.7-3.5-2-4.7c-1.4-1.4-3.2-2-5.1-2c0-0.1,0-0.2,0-0.3
				c0-1.8-0.7-3.5-2-4.7c-2.6-2.6-6.9-2.6-9.5,0l-5.5,5.5c-1.5-2.9-1.2-3.8-0.2-6.6c0.4-1.1,0.9-2.6,1.4-4.5c0.2-0.6,0-1.2-0.5-1.7
				l-10-10l22.1-22.1l18,18c0.7,0.7,1.8,0.7,2.5,0c0.6-0.6,1.4-0.9,2.3-0.9c0.9,0,1.7,0.3,2.3,0.9l23,23
				C-642.8-398.3-642.8-396.2-644.1-395L-644.1-395z M-645.5-405.9l-19.1-19.1c-1.3-1.3-3.1-2-4.8-2l13.6-13.6l22.5,22.5
				L-645.5-405.9z"/>
			<path d="M-661.2-393.5c-0.7-0.7-1.8-0.7-2.5,0c-0.7,0.7-0.7,1.8,0,2.5c0.3,0.3,0.8,0.5,1.2,0.5c0.4,0,0.9-0.2,1.2-0.5
				C-660.5-391.7-660.5-392.8-661.2-393.5L-661.2-393.5z"/>
		</g>
	</g>
	<g>
		<g>
			<path d="M-273.7-399.4h-1.1v-10.3c0-1.6-0.8-3.1-2-3.9v-1.4c0-2-1.7-3.7-3.7-3.7h-0.9l3.3-4.8c1.1-1.6,0.7-3.8-0.9-4.9
				l-22.2-15.1c-0.8-0.5-1.7-0.7-2.6-0.6c-0.9,0.2-1.7,0.7-2.3,1.5l-19.1,28.1h-5.3l1.3-13c0-0.1,0.1-0.3,0.2-0.3
				c1.7-0.6,3.1-1.8,4-3.3c0.1-0.1,0.2-0.2,0.4-0.2l8.3,0.8c0.6,0.1,1.1-0.4,1.2-1c0.1-0.6-0.4-1.1-1-1.2l-8.3-0.8
				c-1-0.1-1.9,0.4-2.4,1.2c-0.7,1.1-1.8,2-3,2.4c-0.9,0.3-1.5,1.2-1.6,2.1l-1.3,13.2h-1.4l2-20.6c0.1-0.7,0.7-1.3,1.5-1.2l16.9,1.7
				c0.6,0.1,1.1-0.4,1.2-1c0.1-0.6-0.4-1.1-1-1.2l-16.9-1.7c-1.9-0.2-3.7,1.2-3.9,3.2l-1.6,16.6h-2.8c-2,0-3.7,1.7-3.7,3.7v1
				c-1.7,0.8-2.8,2.4-2.8,4.4v37.1c0,2.7,2.2,4.8,4.8,4.8h60.7c2.7,0,4.8-2.2,4.8-4.8v-10.3h1.1c1.3,0,2.4-1.1,2.4-2.4v-11.6
				C-271.3-398.3-272.4-399.4-273.7-399.4z M-280.6-416.5L-280.6-416.5c0.8,0,1.5,0.7,1.5,1.5v0.6c-0.2,0-0.4,0-0.6,0h-4.6l1.4-2
				H-280.6z M-304.4-441.3c0.2-0.3,0.5-0.5,0.9-0.6c0.1,0,0.2,0,0.3,0c0.3,0,0.5,0.1,0.8,0.2l22.2,15.1c0.6,0.4,0.8,1.3,0.4,1.9
				l-7,10.2h-1.7l3.4-5c0.6-0.8,0.6-1.8,0.1-2.7c-0.6-1.1-0.9-2.5-0.7-3.8c0.1-1-0.3-1.9-1.1-2.4l-11.5-7.8
				c-0.8-0.5-1.8-0.6-2.7-0.1c-1.1,0.6-2.5,0.9-3.8,0.7c-1-0.1-1.9,0.3-2.5,1.1l-13.7,20.1h-1.7L-304.4-441.3z M-303.9-422.9
				c-4.7,0-8.6,3.7-8.9,8.4h-5.5l12.8-18.8c0,0,0,0,0,0c0.1-0.1,0.2-0.2,0.3-0.2c0,0,0,0,0,0c1.8,0.2,3.6-0.1,5.1-0.9
				c0.1-0.1,0.3-0.1,0.4,0l11.5,7.8c0.1,0.1,0.2,0.2,0.2,0.4c-0.2,1.8,0.1,3.6,1,5.1c0.1,0.1,0.1,0.3,0,0.4l-4.2,6.2h-3.7
				C-295.3-419.2-299.2-422.9-303.9-422.9z M-297.2-414.5h-13.5c0.3-3.5,3.2-6.2,6.8-6.2C-300.4-420.7-297.5-418-297.2-414.5z
				 M-340.3-415c0-0.8,0.7-1.5,1.5-1.5h2.6l-0.2,2h-3.9V-415z M-343.1-409.7c0-1.5,1.2-2.7,2.7-2.7h60.7c1.5,0,2.7,1.2,2.7,2.7v3
				h-66V-409.7z M-277.1-372.6c0,1.5-1.2,2.7-2.7,2.7h-60.7c-1.5,0-2.7-1.2-2.7-2.7v-3h5.9c0.6,0,1.1-0.5,1.1-1.1
				c0-0.6-0.5-1.1-1.1-1.1h-5.9v-26.7h66v5.1h-10.3h0c-3.3,0-6.1,1.9-7.4,4.7c0,0,0,0,0,0c0,0,0,0,0,0.1c-0.2,0.3-0.3,0.7-0.4,1.1
				c0,0,0,0,0,0c-0.2,0.8-0.4,1.6-0.4,2.4c0,4.6,3.7,8.3,8.3,8.3h0h10.3v5.1h-53.2c-0.6,0-1.1,0.5-1.1,1.1c0,0.6,0.5,1.1,1.1,1.1
				h53.2V-372.6z M-273.5-385.3c0,0.1-0.1,0.3-0.3,0.3h-13.7c-2.3,0-4.3-1.3-5.3-3.2c0-0.1-0.1-0.2-0.1-0.3
				c-0.1-0.2-0.2-0.4-0.2-0.5c-0.2-0.7-0.4-1.4-0.4-2.1c0-0.7,0.1-1.4,0.4-2.1c0.1-0.2,0.1-0.4,0.2-0.5c0-0.1,0.1-0.2,0.1-0.3
				c1-1.9,3-3.2,5.3-3.2h13.7c0.1,0,0.3,0.1,0.3,0.3V-385.3L-273.5-385.3z"/>
		</g>
	</g>
	<g>
		<g>
			<path d="M-287.2-395.6c-2.4,0-4.4,2-4.4,4.4s2,4.4,4.4,4.4s4.4-2,4.4-4.4S-284.7-395.6-287.2-395.6z M-287.2-388.9
				c-1.2,0-2.2-1-2.2-2.2c0-1.2,1-2.2,2.2-2.2c1.2,0,2.2,1,2.2,2.2C-284.9-389.9-285.9-388.9-287.2-388.9z"/>
		</g>
	</g>
	<g>
		<g>
			<path d="M78.6-418.8c-0.4-0.5-1.2-0.6-1.8-0.2l-12.5,9.9l-16.1-6.7c-0.4-0.2-0.8-0.1-1.2,0.2l-17.3,12.3
				c-0.5,0.4-0.7,1.2-0.3,1.7c0.2,0.4,0.6,0.5,1,0.5c0.2,0,0.5-0.1,0.7-0.2l16.7-11.9l16.2,6.7c0.4,0.2,0.9,0.1,1.2-0.2l13-10.3
				C78.9-417.4,78.9-418.2,78.6-418.8z"/>
		</g>
	</g>
	<g>
		<g>
			<path d="M96.6-376.6h-5.7v-35.7c0-0.7-0.5-1.2-1.2-1.2H78.3c-0.7,0-1.2,0.5-1.2,1.2v35.7h-4.2v-23.3c0-0.7-0.5-1.2-1.2-1.2H60.3
				c-0.7,0-1.2,0.5-1.2,1.2v23.3h-4.2v-25.2c0-0.7-0.5-1.2-1.2-1.2H42.4c-0.7,0-1.2,0.5-1.2,1.2v25.2H37v-17.9
				c0-0.7-0.5-1.2-1.2-1.2H24.3c-0.7,0-1.2,0.5-1.2,1.2v17.9h-5.8c-0.7,0-1.2,0.5-1.2,1.2c0,0.7,0.5,1.2,1.2,1.2h6.9h11.3h6.8h11.3
				h6.6h11.3h6.6h11.3h6.9c0.7,0,1.2-0.5,1.2-1.2C97.8-376,97.3-376.6,96.6-376.6z M34.4-376.6h-8.9v-16.7h8.9V-376.6z M52.4-376.6
				h-8.9v-24h8.9V-376.6z M70.4-376.6h-8.9v-22.1h8.9V-376.6z M88.4-376.6h-8.9V-411h8.9V-376.6z"/>
		</g>
	</g>
	<g>
		<g>
			<path d="M-710.6-200.4h-3.9v49.3h40.7l47.6-7v-34.4l-1.3-0.2l-1.8-0.3c-1.4-0.2-2.3-0.4-2.3-0.4s-0.4,0-2.4-0.5l-39.8-6.7h-1.7
				 M-683.4-200.4h-19.5 M-678.2-200.4h-2.6 M-705.5-200.4h-2.6 M-702.9-153.7h-9.1v-44.1h9.1v2.6h-6.5v38.9h6.5V-153.7z
				 M-687.3-158.9h-2.6v-9.1h-2.6v11.7h5.2v2.6h-13v-2.6h5.2V-168h-2.6v9.1h-2.6v-2.6h-2.6v2.6h-3.9v-33.8h3.9v2.6h2.6v-2.6h2.6
				v10.4h2.6v-13h-5.2v-2.6h13v2.6h-5.2v13h2.6v-10.4h2.6v2.6h2.6v-2.6h3.9v33.8h-3.9v-2.6h-2.6V-158.9L-687.3-158.9z M-628.9-160.3
				l-44.1,6.5v-6.3h-2.6v6.5h-9.1v-2.6h6.5v-38.9h-6.5v-2.6h9.1v29.9h2.6v-29.7l44.1,7.4V-160.3L-628.9-160.3z"/>
		</g>
	</g>
	<g>
		<g>
			<rect x="-675.6" y="-165.4" width="2.6" height="2.6"/>
		</g>
	</g>
	<g>
		<g>
			<rect x="-702.9" y="-187.4" width="2.6" height="2.6"/>
		</g>
	</g>
	<g>
		<g>
			<path d="M-684.7-179.6v-2.6h-2.6v2.6h-13v-2.6h-2.6v2.6h-1.3v7.8h1.3v2.6h2.6v-2.6h13v2.6h2.6v-2.6h1.3v-7.8H-684.7z M-686-174.5
				h-15.6v-2.6h15.6V-174.5z"/>
		</g>
	</g>
	<g>
		<g>
			<rect x="-702.9" y="-166.7" width="2.6" height="2.6"/>
		</g>
	</g>
	<g>
		<g>
			<rect x="-687.3" y="-187.4" width="2.6" height="2.6"/>
		</g>
	</g>
	<g>
		<g>
			<rect x="-687.3" y="-166.7" width="2.6" height="2.6"/>
		</g>
	</g>
	<g>
		<g>
			<rect x="-667.8" y="-192.6" width="2.6" height="33.8"/>
		</g>
	</g>
	<g>
		<g>
			<rect x="-661.3" y="-191.3" width="2.6" height="31.2"/>
		</g>
	</g>
	<g>
		<g>
			<rect x="-654.8" y="-190" width="2.6" height="28.6"/>
		</g>
	</g>
	<g>
		<g>
			<rect x="-648.3" y="-188.7" width="2.6" height="26"/>
		</g>
	</g>
	<g>
		<g>
			<rect x="-641.8" y="-187.4" width="2.6" height="23.4"/>
		</g>
	</g>
	<g>
		<g>
			<rect x="-635.3" y="-186.1" width="2.6" height="20.8"/>
		</g>
	</g>
	<path d="M-263.5-175.7h-9.7c-0.9,0-1.6,0.7-1.6,1.6v1.4h-10.2c-0.2,0-0.4,0-0.6,0.1l-13.1,5.4c-1.5,0.6-2.7,1.8-3.3,3.3
		c-0.6,1.5-0.6,3.2,0,4.7l0,0.1c0.4,0.9,0.9,1.7,1.6,2.3c-2,0.5-4.1,0.6-6.1,0.1l-12.9-2.9c-1.6-0.4-3.2-0.1-4.5,0.8
		c-1.4,0.9-2.3,2.2-2.6,3.8c-0.7,3.1,1.3,6.2,4.4,7l15.3,3.9c1.3,0.3,2.6,0.5,3.9,0.5c2,0,3.9-0.4,5.8-1.1l19.5-7.6h2.8v0.9
		c0,0.9,0.7,1.6,1.6,1.6h9.7c0.9,0,1.6-0.7,1.6-1.6V-174C-261.9-174.9-262.6-175.7-263.5-175.7z M-278-155.6c-0.2,0-0.4,0-0.6,0.1
		l-19.8,7.8c-2.5,1-5.1,1.1-7.7,0.5l-15.3-3.9c-1.4-0.4-2.3-1.7-2-3.1c0.1-0.7,0.6-1.3,1.2-1.7c0.4-0.3,0.9-0.4,1.4-0.4
		c0.2,0,0.4,0,0.6,0.1l12.9,2.9c3.1,0.7,6.3,0.5,9.3-0.7l3.7-1.4c0.1,0,0.2-0.1,0.2-0.1c3.3-1.3,7.5-2.9,8.4-3.2l0.2-0.1
		c0.8-0.3,1.3-1.3,0.9-2.1c-0.3-0.8-1.3-1.3-2.1-0.9c0,0-0.1,0-0.2,0.1l-8.6,3.3c-1.5,0.5-3-0.2-3.6-1.7l0-0.1
		c-0.3-0.7-0.3-1.5,0-2.2s0.8-1.2,1.5-1.5l12.8-5.3h9.9v13.8H-278z M-265.2-153.1h-6.4v-19.3h6.4V-153.1z"/>
	<path d="M-329.9-176.3h-3v-15.3h0.5c1.2,0,2.4-0.3,3.5-0.8c0.1,0,0.1-0.1,0.1-0.1l10.6-6.9c1.5-0.7,3.3-0.6,4.6,0.4l0.8,0.6
		c0,0.1-0.1,0.1-0.1,0.2c-0.2,0.3-0.4,0.6-0.6,0.9c-1.1,1.9-1.9,4-2.1,6.2c-1.1,0.1-2.2,0.6-3,1.4c-0.9,0.9-1.4,2.2-1.4,3.5
		c0,2.7,2.2,4.9,4.9,4.9h12.1c0.7,0,1.3,0.3,1.8,0.7c0.5,0.5,0.7,1.1,0.7,1.8c0,1-0.6,1.9-1.5,2.3c-0.1,0-0.2,0.1-0.3,0.1
		c0,0,0,0,0,0c-0.2,0.1-0.5,0.1-0.7,0.1h-13.8c-0.9,0-1.6,0.7-1.6,1.6c0,0.9,0.7,1.6,1.6,1.6h13.8c0.4,0,0.8,0,1.2-0.1
		c0.7,0.1,1.4,0.1,2.1,0.1c8.9,0,16.1-7.2,16.1-16.1c0-8.9-7.2-16.1-16.1-16.1c-4.1,0-8,1.6-11,4.3l-1-0.7c-2.3-1.7-5.5-2-8.1-0.7
		c-0.1,0-0.1,0.1-0.1,0.1l-10.6,6.9c-0.6,0.3-1.3,0.4-1.9,0.4h-0.5v-0.6c0-0.9-0.7-1.6-1.6-1.6h-9.7c-0.9,0-1.6,0.7-1.6,1.6v22.6
		c0,0.9,0.7,1.6,1.6,1.6h9.7c0.9,0,1.6-0.7,1.6-1.6v-0.1h3c0.9,0,1.6-0.7,1.6-1.6C-328.3-175.6-329-176.3-329.9-176.3z
		 M-316.8-186.3c0-0.4,0.2-0.9,0.5-1.2c0.2-0.2,0.4-0.3,0.6-0.4c0.1,1.1,0.3,2.2,0.6,3.2C-316.1-184.7-316.8-185.4-316.8-186.3z
		 M-286.8-189.2c0,6.4-4.7,11.8-10.9,12.7c0.3-0.7,0.5-1.6,0.5-2.4c0-1-0.3-2-0.7-2.8c0.7-0.1,1.4-0.4,1.9-1c0.7-0.6,1-1.5,1-2.4
		v-2.4c0-1.9-1.5-3.4-3.4-3.4h-2.4c-0.1,0-0.2-0.1-0.2-0.2v-2.3c0-0.1,0.1-0.2,0.2-0.2h1.2h0h0h1.2c0.1,0,0.2,0.1,0.2,0.2
		c0,0.9,0.7,1.6,1.6,1.6c0.9,0,1.6-0.7,1.6-1.6c0-1.7-1.3-3.2-3-3.4v-0.6c0-0.9-0.7-1.6-1.6-1.6s-1.6,0.7-1.6,1.6v0.6
		c-1.7,0.2-3,1.7-3,3.4v2.3c0,1.9,1.5,3.4,3.4,3.4h2.4c0.1,0,0.2,0.1,0.2,0.2v2.4c0,0,0,0.1,0,0.1c0,0-0.1,0-0.1,0h-2.4
		c-0.1,0-0.2-0.1-0.2-0.2v-0.2c0-0.9-0.7-1.6-1.6-1.6s-1.6,0.7-1.6,1.6v0.2c0,0.1,0,0.3,0,0.4h-7.4c-0.6-1.4-0.8-3-0.8-4.6
		c0-2.4,0.7-4.8,2-6.8c0.4-0.6,0.8-1.1,1.2-1.7c2.4-2.8,6-4.4,9.6-4.4C-292.6-202.1-286.8-196.3-286.8-189.2z M-336.2-174.6h-6.4
		v-19.3h6.4V-174.6z"/>
	<path d="M-322.1-175.6c-0.4-0.6-1.1-0.9-1.8-0.7c-0.7,0.2-1.1,0.8-1.2,1.4c-0.1,0.7,0.3,1.3,1,1.6c0.6,0.3,1.4,0.1,1.8-0.3
		C-321.7-174.1-321.6-175-322.1-175.6z"/>
	<g>
		<g>
			<path d="M63.8-205c-17.5,0-31.7,14.2-31.7,31.7s14.2,31.7,31.7,31.7s31.7-14.2,31.7-31.7C95.4-190.8,81.2-205,63.8-205z
				 M63.8-143.8c-16.3,0-29.5-13.2-29.5-29.5s13.2-29.5,29.5-29.5s29.5,13.2,29.5,29.5C93.3-157.1,80.1-143.8,63.8-143.8z"/>
		</g>
	</g>
	<g>
		<g>
			<path d="M63.8-199.7c-14.6,0-26.4,11.8-26.4,26.4S49.2-147,63.8-147s26.4-11.8,26.4-26.4C90.1-187.9,78.3-199.7,63.8-199.7z
				 M63.8-149.1c-13.4,0-24.3-10.9-24.3-24.3s10.9-24.3,24.3-24.3S88-186.8,88-173.4C88-160,77.2-149.1,63.8-149.1z"/>
		</g>
	</g>
	<g>
		<g>
			<rect x="62.7" y="-194.5" width="2.1" height="2.1"/>
		</g>
	</g>
	<g>
		<g>
			<rect x="62.7" y="-154.4" width="2.1" height="2.1"/>
		</g>
	</g>
	<g>
		<g>
			<rect x="52.7" y="-191.8" transform="matrix(0.866 -0.5001 0.5001 0.866 102.5884 1.3087)" width="2.1" height="2.1"/>
		</g>
	</g>
	<g>
		<g>
			<rect x="72.7" y="-157.1" transform="matrix(0.866 -0.5001 0.5001 0.866 87.9138 15.9849)" width="2.1" height="2.1"/>
		</g>
	</g>
	<g>
		<g>
			<rect x="45.3" y="-184.4" transform="matrix(0.5 -0.866 0.866 0.5 182.0136 -51.5072)" width="2.1" height="2.1"/>
		</g>
	</g>
	<g>
		<g>
			<rect x="80.1" y="-164.4" transform="matrix(0.5 -0.866 0.866 0.5 182.0085 -11.4182)" width="2.1" height="2.1"/>
		</g>
	</g>
	<g>
		<g>
			<rect x="42.7" y="-174.4" width="2.1" height="2.1"/>
		</g>
	</g>
	<g>
		<g>
			<rect x="82.8" y="-174.4" width="2.1" height="2.1"/>
		</g>
	</g>
	<g>
		<g>
			<rect x="45.3" y="-164.4" transform="matrix(0.8661 -0.4999 0.4999 0.8661 87.8647 1.3222)" width="2.1" height="2.1"/>
		</g>
	</g>
	<g>
		<g>
			<rect x="80.1" y="-184.4" transform="matrix(0.866 -0.5 0.5 0.866 102.5621 15.9886)" width="2.1" height="2.1"/>
		</g>
	</g>
	<g>
		<g>
			<rect x="52.7" y="-157.1" transform="matrix(0.5001 -0.866 0.866 0.5001 161.95 -31.4542)" width="2.1" height="2.1"/>
		</g>
	</g>
	<g>
		<g>
			<rect x="72.7" y="-191.8" transform="matrix(0.5001 -0.866 0.866 0.5001 202.0343 -31.4442)" width="2.1" height="2.1"/>
		</g>
	</g>
	<g>
		<g>
			<path d="M62.7-190.2v16.3l-10,6l1.1,1.8l10.6-6.3c0.3-0.2,0.5-0.5,0.5-0.9v-16.9H62.7z"/>
		</g>
	</g>
	<g>
		<g>
			<g>
				<path d="M-688.4,92.9c-1,0-1.7,0.8-1.7,1.7s0.8,1.7,1.7,1.7h0c1,0,1.7-0.8,1.7-1.7S-687.5,92.9-688.4,92.9z"/>
				<path d="M-621.8,64.5c0.2-0.9-0.3-1.8-1.1-2.1c-4.1-1.4-9.1-4.5-9.1-11.4v-3.7c0-5.5-0.9-9.6-2.9-12.5
					c-2.3-3.5-6.2-5.2-11.4-5.2c-5.2,0-9,1.8-11.4,5.2c-1.9,2.9-2.9,7-2.9,12.5V51c0,6.9-4.9,10-9.1,11.4c-0.9,0.3-1.4,1.2-1.1,2.1
					c0.9,3.6,2.3,5.7,4.8,6.9c-0.5,0.5-1,1.1-1.4,1.7c-2.6-3.9-7.5-5.2-11.7-6.4c-0.8-0.2-1.5-0.4-2.3-0.6v-1.2
					c4.7-2.5,7.9-7.5,7.9-13.2v-6.9c0-8.3-6.7-15-15-15c-8.3,0-15,6.7-15,15v6.9c0,5.7,3.2,10.6,7.9,13.2v1.2
					c-0.7,0.2-1.5,0.4-2.2,0.6c-5.9,1.6-13.3,3.6-13.4,12.6c0,0,0,0,0,0v15.3c0,1,0.8,1.7,1.7,1.7h13.2c1,0,1.7-0.8,1.7-1.7
					s-0.8-1.7-1.7-1.7h-2.1v-7.1c0-1-0.8-1.7-1.7-1.7s-1.7,0.8-1.7,1.7v7.1h-5.9V79.4c0.1-6,4.2-7.5,10.9-9.3
					c0.6-0.2,1.1-0.3,1.7-0.5c0.9,2.8,3.6,4.9,6.8,4.9c3.2,0,5.8-2.1,6.8-4.9c0.6,0.2,1.1,0.3,1.7,0.5c6.7,1.8,10.8,3.3,10.9,9.3
					v13.5h-5.9v-7.1c0-1-0.8-1.7-1.7-1.7s-1.7,0.8-1.7,1.7v7.1h-2.1c-1,0-1.7,0.8-1.7,1.7s0.8,1.7,1.7,1.7h26.5c1,0,1.7-0.8,1.7-1.7
					s-0.8-1.7-1.7-1.7h-2.1v-7.1c0-1-0.8-1.7-1.7-1.7s-1.7,0.8-1.7,1.7v7.1h-5.9V79.4c0.1-6,4.2-7.5,10.9-9.3
					c0.6-0.2,1.1-0.3,1.7-0.5c0.9,2.8,3.6,4.9,6.8,4.9c3.2,0,5.8-2.1,6.8-4.9c0.6,0.2,1.1,0.3,1.7,0.5c6.7,1.8,10.8,3.3,10.9,9.3
					v13.5h-5.9v-7.1c0-1-0.8-1.7-1.7-1.7c-1,0-1.7,0.8-1.7,1.7v7.1h-2.1c-1,0-1.7,0.8-1.7,1.7s0.8,1.7,1.7,1.7h13.2
					c1,0,1.7-0.8,1.7-1.7V79.4c0,0,0,0,0,0c-0.1-3.7-1.3-6.2-3.2-8C-624.1,70.2-622.7,68.1-621.8,64.5L-621.8,64.5z M-699.9,44.8
					c0-6.3,5.2-11.5,11.5-11.5c6.3,0,11.5,5.2,11.5,11.5v1.8c-4.6,0.2-10.4-0.4-14.7-3.3c-0.8-0.5-1.8-0.4-2.4,0.4
					c-1.5,1.9-3.3,2.4-5.9,2.7V44.8z M-684.8,67.4c0,2-1.6,3.6-3.6,3.6c-2,0-3.6-1.6-3.6-3.6v-1.1c1.2,0.3,2.4,0.5,3.6,0.5
					c1.3,0,2.5-0.2,3.6-0.4V67.4z M-688.4,63.3c-6.3,0-11.5-5.2-11.5-11.5V50c2.8-0.3,5.5-0.8,7.7-2.9c4.8,2.7,10.6,3.3,15.3,3.1
					v1.6C-676.9,58.1-682.1,63.3-688.4,63.3L-688.4,63.3z M-654.7,36.8c1.7-2.5,4.4-3.7,8.5-3.7c4,0,6.8,1.2,8.5,3.7
					c1.4,2,2.1,5,2.3,9.1c-3.2,0.6-7.1,0.1-9.2-4.1c-0.6-1.3-2.5-1.3-3.1,0c-2.1,4.2-5.9,4.6-9.2,4.1
					C-656.9,41.9-656.1,38.9-654.7,36.8z M-653.4,66.1c-0.7,0.2-1.5,0.4-2.2,0.6c-2.1,0.6-4.4,1.2-6.5,2.2c-2.7-0.5-3.9-1.3-4.7-3.8
					c2.8-1.2,6.3-3.3,8.3-7.1c1.3,2.2,3.1,4,5.3,5.3L-653.4,66.1L-653.4,66.1z M-642.6,67.4c0,2-1.6,3.6-3.6,3.6
					c-2,0-3.6-1.6-3.6-3.6v-2.6c1.2,0.3,2.4,0.5,3.6,0.5c1.3,0,2.5-0.2,3.6-0.5V67.4z M-646.3,61.8c-5.9,0-10.8-4.8-10.8-10.8v-1.5
					c0.7,0.1,1.5,0.2,2.2,0.2c3.5,0,6.5-1.3,8.6-3.8c2.1,2.5,5.1,3.8,8.6,3.8c0.7,0,1.4-0.1,2.2-0.2V51
					C-635.5,56.9-640.3,61.8-646.3,61.8z M-630.4,68.9c-2.1-1-4.4-1.6-6.5-2.2c-0.8-0.2-1.5-0.4-2.2-0.6v-2.8c2.2-1.3,4-3.1,5.2-5.3
					c2,3.8,5.4,5.9,8.3,7.1C-626.5,67.6-627.6,68.4-630.4,68.9L-630.4,68.9z"/>
				<path d="M-646.3,92.9c-1,0-1.7,0.8-1.7,1.7s0.8,1.7,1.7,1.7h0c1,0,1.7-0.8,1.7-1.7S-645.3,92.9-646.3,92.9z"/>
			</g>
		</g>
	</g>
	<path d="M-295.7,87.5h-2.7V74.4c0-0.7-0.6-1.3-1.3-1.3c-0.7,0-1.3,0.6-1.3,1.3v13.1h-34.7V60.8h11.1c0.7,0,1.3-0.6,1.3-1.3
		s-0.6-1.3-1.3-1.3H-337c-0.7,0-1.3,0.6-1.3,1.3v28h-2.7c-0.7,0-1.3,0.6-1.3,1.3v2.7c0,3.7,3,6.7,6.7,6.7h34.7c3.7,0,6.7-3,6.7-6.7
		v-2.7C-294.4,88.1-295,87.5-295.7,87.5z M-297,91.5c0,2.2-1.8,4-4,4h-2.7v-1.3c0-0.7-0.6-1.3-1.3-1.3s-1.3,0.6-1.3,1.3v1.3h-24
		v-1.3c0-0.7-0.6-1.3-1.3-1.3s-1.3,0.6-1.3,1.3v1.3h-2.7c-2.2,0-4-1.8-4-4v-1.3h42.7V91.5z"/>
	<path d="M-273,26.2h2.7c0.7,0,1.3-0.6,1.3-1.3s-0.6-1.3-1.3-1.3h-2.7c-2.2,0-4,1.8-4,4v1.3h-1.3c-0.7,0-1.3,0.6-1.3,1.3
		s0.6,1.3,1.3,1.3h1.3v4c0,0.7,0.6,1.3,1.3,1.3s1.3-0.6,1.3-1.3v-4h1.3c0.7,0,1.3-0.6,1.3-1.3s-0.6-1.3-1.3-1.3h-1.3v-1.3
		C-274.4,26.8-273.8,26.2-273,26.2z"/>
	<path d="M-266.4,18.2h-16c-2.2,0-4,1.8-4,4v2.7c0,0.7,0.6,1.3,1.3,1.3s1.3-0.6,1.3-1.3v-2.7c0-0.7,0.6-1.3,1.3-1.3h16
		c0.7,0,1.3,0.6,1.3,1.3v16c0,0.7-0.6,1.3-1.3,1.3h-16c-0.7,0-1.3-0.6-1.3-1.3v-8c0-0.7-0.6-1.3-1.3-1.3s-1.3,0.6-1.3,1.3v8
		c0,2.2,1.8,4,4,4h16c2.2,0,4-1.8,4-4v-16C-262.4,20-264.1,18.2-266.4,18.2z"/>
	<path d="M-279.7,71.5c0,2.9,2.4,5.3,5.3,5.3s5.3-2.4,5.3-5.3s-2.4-5.3-5.3-5.3S-279.7,68.6-279.7,71.5z M-271.7,71.5
		c0,1.5-1.2,2.7-2.7,2.7s-2.7-1.2-2.7-2.7s1.2-2.7,2.7-2.7S-271.7,70-271.7,71.5z"/>
	<path d="M-266.4,59.5h-16c-2.2,0-4,1.8-4,4v16c0,2.2,1.8,4,4,4h16c2.2,0,4-1.8,4-4v-2.7c0-0.7-0.6-1.3-1.3-1.3
		c-0.7,0-1.3,0.6-1.3,1.3v2.7c0,0.7-0.6,1.3-1.3,1.3h-16c-0.7,0-1.3-0.6-1.3-1.3v-16c0-0.7,0.6-1.3,1.3-1.3h16
		c0.7,0,1.3,0.6,1.3,1.3v8c0,0.7,0.6,1.3,1.3,1.3c0.7,0,1.3-0.6,1.3-1.3v-8C-262.4,61.3-264.1,59.5-266.4,59.5z"/>
	<path d="M-312.4,34c0.2,0.1,0.5,0.2,0.7,0.2c0.2,0,0.4-0.1,0.6-0.1l8-4c0.7-0.3,0.9-1.1,0.6-1.8c-0.1-0.2-0.3-0.5-0.6-0.6l-8-4
		c-0.7-0.3-1.5-0.1-1.8,0.6c-0.1,0.2-0.1,0.4-0.1,0.6v8C-313,33.3-312.8,33.7-312.4,34z M-310.4,27l3.7,1.8l-3.7,1.8V27z"/>
	<path d="M-309,40.8c6.6,0,12-5.4,12-12s-5.4-12-12-12s-12,5.4-12,12S-315.7,40.8-309,40.8z M-309,19.5c5.2,0,9.3,4.2,9.3,9.3
		s-4.2,9.3-9.3,9.3c-5.2,0-9.3-4.2-9.3-9.3S-314.2,19.5-309,19.5z"/>
	<path d="M-295.7,46.2c0.4,0,0.8-0.2,1.1-0.5l4-5.3c0.4-0.6,0.3-1.4-0.3-1.9c-0.6-0.4-1.4-0.3-1.9,0.3l-4,5.3
		c-0.4,0.6-0.3,1.4,0.3,1.9C-296.3,46.1-296,46.2-295.7,46.2z"/>
	<path d="M-292.8,51c0.3,0.3,0.6,0.5,1.1,0.5c0.3,0,0.6-0.1,0.8-0.3l5.3-4c0.6-0.4,0.7-1.3,0.3-1.9c-0.4-0.6-1.3-0.7-1.9-0.3l-5.3,4
		C-293.1,49.6-293.2,50.4-292.8,51L-292.8,51z"/>
	<path d="M-279.7,53.9c-0.1-0.7-0.8-1.2-1.5-1.1c0,0,0,0-0.1,0l-6.7,1.3c-0.7,0.1-1.3,0.7-1.2,1.5s0.7,1.3,1.5,1.2h0.3l6.7-1.3
		C-280,55.4-279.6,54.7-279.7,53.9C-279.7,53.9-279.7,53.9-279.7,53.9z"/>
	<path d="M-341,54.2h16c0.7,0,1.3-0.6,1.3-1.3V31.5c0-0.7-0.6-1.3-1.3-1.3h-16c-0.7,0-1.3,0.6-1.3,1.3v21.3
		C-342.4,53.6-341.8,54.2-341,54.2z M-339.7,32.8h13.3v18.7h-13.3V32.8z"/>
	<path d="M-330.4,35.5h-2.7c-0.7,0-1.3,0.6-1.3,1.3c0,0.7,0.6,1.3,1.3,1.3h2.7c0.7,0,1.3-0.6,1.3-1.3
		C-329,36.1-329.6,35.5-330.4,35.5z"/>
	<path d="M-330.4,40.8h-5.3c-0.7,0-1.3,0.6-1.3,1.3s0.6,1.3,1.3,1.3h5.3c0.7,0,1.3-0.6,1.3-1.3S-329.6,40.8-330.4,40.8z"/>
	<path d="M-330.4,46.2h-5.3c-0.7,0-1.3,0.6-1.3,1.3s0.6,1.3,1.3,1.3h5.3c0.7,0,1.3-0.6,1.3-1.3S-329.6,46.2-330.4,46.2z"/>
	<path d="M-296.9,53.8c-0.4-0.6-1.2-0.9-1.8-0.5c-0.6,0.4-0.9,1.2-0.5,1.8l5.9,10.2l-21.3,8c0,0,0,0-0.1,0h-0.1l-3.5,2l-2.3,1.3
		c-0.6,0.4-1.3,0.5-2,0.3c-0.7-0.2-1.3-0.6-1.6-1.2l-2.7-4.6c-0.7-1.3-0.2-2.8,1-3.5l4.6-2.7l3.3,5.8c0.2,0.4,0.7,0.7,1.2,0.7
		c0.7,0,1.3-0.6,1.3-1.3c0-0.2-0.1-0.5-0.2-0.7l-3.4-5.9l16.7-13.8l0.5,0.9c0.4,0.6,1.2,0.9,1.8,0.5c0.6-0.4,0.9-1.2,0.5-1.8
		l-1.3-2.3c-0.2-0.3-0.5-0.6-0.9-0.6c-0.4-0.1-0.8,0-1.1,0.3l-18.7,15.4l-5.7,3.3c-2.1,1.2-3.1,3.7-2.5,6L-331,72
		c-1.9,1.1-2.6,3.5-1.5,5.5c0.5,0.9,1.4,1.6,2.4,1.9c0.3,0.1,0.7,0.1,1,0.1c0.7,0,1.4-0.2,2-0.5l1.3-0.8c0.6,0.7,1.4,1.1,2.3,1.4
		c0.5,0.1,0.9,0.2,1.4,0.2c0.9,0,1.9-0.2,2.7-0.7l1.2-0.7l2.7,4.6c1.1,1.9,3.5,2.6,5.5,1.5c1.9-1.1,2.6-3.5,1.5-5.5c0,0,0,0,0,0
		l-2.4-4.2l20-7.5c0.4-0.1,0.7-0.4,0.8-0.8c0.1-0.4,0.1-0.8-0.1-1.1L-296.9,53.8z M-328.4,76.6c-0.3,0.2-0.7,0.2-1,0.1
		c-0.3-0.1-0.6-0.3-0.8-0.6c-0.2-0.3-0.2-0.7-0.1-1c0.1-0.3,0.3-0.6,0.6-0.8l1.2-0.7l1.3,2.3L-328.4,76.6z M-310.8,80.3
		c0.2,0.3,0.2,0.7,0.1,1c-0.1,0.3-0.3,0.6-0.6,0.8c-0.6,0.4-1.4,0.2-1.8-0.5l-2.7-4.6l2.2-1.3h0.1L-310.8,80.3z"/>
	<g>
		<g>
			<path d="M86,91.1l-3-8.9c-1-3.1-3.7-5.4-6.9-6l-8.5-1.6v-0.7c1.5-0.9,2.8-2,3.8-3.4H74c2.1,0,3.8-1.7,3.8-3.8V51.5
				c0-9.2-7.4-16.6-16.6-16.6s-16.6,7.4-16.6,16.6v8.9c0,2.5,1.8,4.5,4.1,5c0.7,3.7,3,6.8,6.1,8.6v0.7l-8.5,1.6
				c-3.2,0.6-5.8,2.9-6.9,6l-0.5,1.5l-4.3-4.3c-0.5-0.5-0.5-1.3,0-1.8l5-5l-9.5-9.5l-5.7,5.7c-1.7,1.7-2.6,3.9-2.6,6.3
				s0.9,4.6,2.6,6.3l17.3,17.3c1.7,1.7,3.9,2.6,6.3,2.6c2.4,0,4.6-0.9,6.3-2.6l6.2-5.7l-1.9-1.9H86z M75.3,66.9
				c0,0.7-0.6,1.3-1.3,1.3h-1.1c0.4-0.8,0.7-1.7,0.8-2.7c0.5-0.1,1-0.3,1.5-0.6V66.9z M74,62.7v-4.4c0.8,0.4,1.3,1.3,1.3,2.2
				S74.8,62.2,74,62.7z M48.5,62.7c-0.8-0.4-1.3-1.3-1.3-2.2s0.5-1.8,1.3-2.2V62.7z M48.5,54.1v1.5c-0.5,0.1-0.9,0.3-1.3,0.5v-4.5
				c0-7.7,6.3-14,14-14s14,6.3,14,14v4.5c-0.4-0.2-0.8-0.4-1.3-0.5v-1.5h-1.3c-3.8,0-7.3-1.5-10-4.1l-1.5-1.5L59.8,50
				c-2.7,2.7-6.2,4.1-10,4.1H48.5z M51,63v-6.4c3.8-0.3,7.4-1.9,10.2-4.5c2.8,2.7,6.4,4.3,10.2,4.5V63c0,1.9-0.5,3.6-1.4,5.1h-8.8
				v2.6H68c-1.8,1.6-4.2,2.6-6.7,2.6C55.6,73.3,51,68.7,51,63z M65.1,75.2L65.1,75.2l-3.8,3.9l-3.8-3.8v-0.1
				c1.2,0.4,2.5,0.6,3.8,0.6C62.6,75.8,63.9,75.6,65.1,75.2z M41.9,83.1c0.7-2.2,2.6-3.8,4.9-4.3l8.9-1.6l5.5,5.5l5.5-5.5l8.9,1.6
				c2.3,0.4,4.2,2.1,4.9,4.3l1.8,5.5H56l-5-5l-5.5,5c-0.5,0.5-1.3,0.5-1.8,0L41,85.8L41.9,83.1z M30.2,66.7l5.9,5.9L34.6,74
				l-5.9-5.9L30.2,66.7z M52.6,96.9c-1.2,1.2-2.8,1.9-4.5,1.9s-3.3-0.7-4.5-1.9L26.3,79.7c-1.2-1.2-1.9-2.8-1.9-4.5
				c0-1.7,0.7-3.3,1.9-4.5l0.7-0.7l5.9,5.9l0,0c-1.5,1.5-1.5,3.9,0,5.4l9.2,9.2c0.7,0.7,1.7,1.1,2.7,1.1s2-0.4,2.7-1.1l0.1-0.1
				l5.9,5.9L52.6,96.9z M55.2,94.5l-5.9-5.9l1.7-1.5l5.9,5.9L55.2,94.5z"/>
		</g>
	</g>
	<g>
		<g>
			<path d="M97,22.2H79.1c-2.1,0-3.8,1.7-3.8,3.8v10.2c0,2.1,1.7,3.8,3.8,3.8h3.4l-1.3,7.7l12.3-7.7H97c2.1,0,3.8-1.7,3.8-3.8V26
				C100.8,23.9,99.1,22.2,97,22.2z M98.3,36.2c0,0.7-0.6,1.3-1.3,1.3h-4.2l-8.1,5.1l0.9-5.1h-6.4c-0.7,0-1.3-0.6-1.3-1.3V26
				c0-0.7,0.6-1.3,1.3-1.3H97c0.7,0,1.3,0.6,1.3,1.3V36.2z"/>
		</g>
	</g>
	<g>
		<g>
			<rect x="80.4" y="27.3" width="15.3" height="2.6"/>
		</g>
	</g>
	<g>
		<g>
			<rect x="80.4" y="32.4" width="10.2" height="2.6"/>
		</g>
	</g>
	<g>
		<g>
			<rect x="93.2" y="32.4" width="2.6" height="2.6"/>
		</g>
	</g>
	<g>
		<g>
			<path d="M61.2,26c-16.7,0-31.1,11.5-34.8,27.6l-2.4-4l-2.2,1.3l4.5,7.5l7.5-4.5l-1.3-2.2L29,53.8c3.6-14.7,16.9-25.2,32.2-25.2
				c3.4,0,6.7,0.5,9.8,1.5l0.8-2.4C68.4,26.5,64.9,26,61.2,26z"/>
		</g>
	</g>
	<g>
		<g>
			<path d="M100.2,50.5L92.7,46l-4.5,7.5l2.2,1.3l2.2-3.7c1.2,3.4,1.8,7,1.8,10.7c0,7.6-2.6,15-7.4,20.9l2,1.6
				c5.1-6.3,8-14.3,8-22.5c0-3.9-0.6-7.7-1.9-11.4l3.8,2.3L100.2,50.5z"/>
		</g>
	</g>
</g>
<g>
	<g>
		<path d="M451.8-205.7c-6.6,0-11.7,5.3-11.7,11.8c0,6.6,5.3,11.7,11.7,11.7c6.5,0,11.8-5.3,11.8-11.8
			C463.7-200.5,458.4-205.7,451.8-205.7z M451.8-184.7c-5.1,0-9.2-4.1-9.2-9.2s4.2-9.2,9.2-9.2c5.1,0,9.2,4.1,9.2,9.2
			S456.9-184.7,451.8-184.7z"/>
	</g>
</g>
<g>
	<g>
		<path d="M455.6-192.1c-0.1-0.2-0.1-0.4-0.2-0.6c-0.1-0.2-0.2-0.4-0.3-0.6s-0.2-0.3-0.4-0.5c-0.2-0.2-0.3-0.3-0.6-0.4
			c-0.2-0.2-0.4-0.2-0.6-0.3c-0.2-0.1-0.4-0.2-0.6-0.3c-0.2-0.1-0.5-0.2-0.6-0.2c-0.1,0-0.2-0.1-0.3-0.2c-0.1-0.1-0.2-0.1-0.3-0.2
			c-0.1-0.1-0.2-0.1-0.3-0.2c-0.1-0.1-0.2-0.2-0.2-0.2c-0.1-0.1-0.2-0.2-0.2-0.3c-0.1-0.1-0.1-0.2-0.1-0.3c0-0.2,0-0.2,0-0.4
			c0-0.1,0.1-0.2,0.1-0.3c0.1-0.1,0.1-0.2,0.2-0.3c0.1-0.1,0.2-0.2,0.2-0.2c0.1-0.1,0.2-0.2,0.4-0.2c0.2-0.1,0.2-0.1,0.4-0.1
			c0.1,0,0.2,0,0.2,0s0.2,0,0.2,0c0.2,0,0.2,0,0.4,0.1c0.2,0,0.3,0.1,0.4,0.1c0.1,0,0.2,0.1,0.3,0.1c0.2,0,0.2,0.1,0.3,0.1l0.4,0.2
			l0.1-0.5l0.2-1.3v-0.3l-0.3-0.1c-0.1,0-0.2-0.1-0.3-0.1c-0.1,0-0.2-0.1-0.3-0.1c-0.1,0-0.2-0.1-0.4-0.1s-0.2-0.1-0.4-0.1h-0.1
			v-1.1v-0.4h-0.4h-1.1h-0.4v0.4v1.2h-0.1c-0.2,0.1-0.5,0.2-0.7,0.3c-0.2,0.1-0.4,0.2-0.6,0.4c-0.2,0.2-0.3,0.3-0.5,0.6
			c-0.2,0.2-0.2,0.4-0.3,0.6c-0.1,0.2-0.2,0.5-0.2,0.7c-0.1,0.2-0.1,0.6-0.1,0.8s0,0.4,0.1,0.6c0.1,0.2,0.1,0.4,0.2,0.6
			c0.1,0.2,0.2,0.4,0.3,0.6c0.2,0.2,0.2,0.3,0.4,0.5c0.2,0.2,0.3,0.3,0.6,0.4c0.2,0.2,0.4,0.2,0.6,0.3c0.2,0.1,0.5,0.2,0.6,0.3
			c0.2,0.1,0.5,0.2,0.6,0.2c0.1,0,0.2,0.1,0.3,0.2c0.1,0.1,0.2,0.1,0.3,0.2c0.1,0.1,0.2,0.2,0.2,0.2c0.1,0.1,0.2,0.2,0.2,0.2
			c0.1,0.1,0.1,0.2,0.2,0.3c0,0.1,0.1,0.2,0.1,0.4c0,0.2,0,0.2,0,0.4c0,0.1-0.1,0.2-0.2,0.3c-0.1,0.1-0.2,0.2-0.2,0.2
			c-0.1,0.1-0.2,0.2-0.3,0.2c-0.1,0.1-0.2,0.1-0.3,0.2c-0.1,0-0.2,0.1-0.4,0.1c-0.1,0-0.2,0-0.3,0c-0.1,0-0.2,0-0.3,0
			c-0.2,0-0.3,0-0.4,0c-0.2,0-0.3-0.1-0.4-0.1c-0.2,0-0.3-0.1-0.5-0.2s-0.3-0.1-0.5-0.2c-0.1,0-0.2-0.1-0.2-0.1
			c-0.1,0-0.2-0.1-0.2-0.1l-0.5-0.2l-0.1,0.6l-0.2,1.5v0.2l0.2,0.1c0.3-0.1,0.5,0,0.7,0.1c0.2,0.1,0.4,0.2,0.6,0.2
			c0.2,0.1,0.4,0.1,0.6,0.2c0.2,0.1,0.4,0.1,0.6,0.1h0.2v1.2v0.4h0.4h1.1h0.4v-0.4v-1.3h0.1c0.2-0.1,0.5-0.2,0.7-0.3
			c0.2-0.1,0.4-0.2,0.6-0.4c0.2-0.2,0.3-0.3,0.5-0.6c0.2-0.2,0.2-0.4,0.4-0.6c0.1-0.2,0.2-0.5,0.2-0.7c0.1-0.2,0.1-0.5,0.1-0.8
			C455.6-191.7,455.6-191.9,455.6-192.1z"/>
	</g>
</g>
</svg>
