<?xml version="1.0" encoding="utf-8"?>
<!-- Generator: Adobe Illustrator 23.0.6, SVG Export Plug-In . SVG Version: 6.00 Build 0)  -->
<svg version="1.1" id="Layer_1" xmlns="http://www.w3.org/2000/svg" xmlns:xlink="http://www.w3.org/1999/xlink" x="0px" y="0px"
	 viewBox="0 0 109.7 98.5" style="enable-background:new 0 0 109.7 98.5;" xml:space="preserve">
<style type="text/css">
	.st0{fill:#292828;}
</style>
<path class="st0" d="M33,22.9l-0.4-0.1L32.2,23L11.6,33.3l-0.8,0.4v32.7l0.9,0.4l10,4.3l10.9,4.7l66.3-7.5V31.9L33,22.9z M19.6,67
	l-5.9-2.5v-29l5.9-2.9V67z M31.3,72l-8.8-3.8V31.1l8.8-4.4V72z M95.9,65.6l-61.7,7V26l61.7,8.4V65.6z"/>
<path class="st0" d="M16.7,43.4c-0.8,0-1.5,0.7-1.5,1.5v10.3c0,0.8,0.7,1.5,1.5,1.5c0.8,0,1.5-0.7,1.5-1.5c0,0,0,0,0,0V44.9
	C18.1,44.1,17.5,43.4,16.7,43.4z"/>
<path class="st0" d="M26.9,43.4c-0.8,0-1.5,0.7-1.5,1.5c0,0,0,0,0,0v11.7c0,0.8,0.7,1.5,1.5,1.5c0.8,0,1.5-0.7,1.5-1.5c0,0,0,0,0,0
	V44.9C28.4,44.1,27.8,43.4,26.9,43.4z"/>
<path class="st0" d="M91.7,36.1l-52.8-5.9c-0.8-0.1-1.5,0.5-1.6,1.3c0,0.1,0,0.1,0,0.2v35.2c0,0.8,0.7,1.5,1.5,1.5h0
	c0,0,0.1,0,0.1,0L91.7,64c0.8-0.1,1.3-0.7,1.3-1.5v-25C93,36.8,92.4,36.2,91.7,36.1z M46,64.8l-5.9,0.5v-32L46,34V64.8z M54.8,64.1
	L49,64.6V34.3l5.9,0.7V64.1z M63.6,63.3l-5.9,0.5V35.3l5.9,0.7V63.3z M72.4,62.6l-5.9,0.5V36.2l5.9,0.7V62.6z M81.3,61.9l-5.9,0.5
	V37.2l5.9,0.7V61.9z M90.1,61.1l-5.9,0.5V38.2l5.9,0.7V61.1z"/>
</svg>
