<?xml version="1.0" encoding="utf-8"?>
<!-- Generator: Adobe Illustrator 23.0.6, SVG Export Plug-In . SVG Version: 6.00 Build 0)  -->
<svg version="1.1" id="Layer_1" xmlns="http://www.w3.org/2000/svg" xmlns:xlink="http://www.w3.org/1999/xlink" x="0px" y="0px"
	 viewBox="0 0 107.7 98.5" style="enable-background:new 0 0 107.7 98.5;" xml:space="preserve">
<style type="text/css">
	.st0{fill:#292828;}
	.st1{fill:#F9F9F9;}
</style>
<g>
	<path class="st0" d="M27.3,29.1L26.8,29l-0.4,0.2L5.9,39.5l-0.8,0.4v32.7L6,73l10,4.3l10.9,4.7l66.3-7.5V38L27.3,29.1z M13.9,73.2
		L8,70.7v-29l5.9-2.9V73.2z M25.6,78.2l-8.8-3.8V37.3l8.8-4.4V78.2z M90.2,71.8l-61.7,7V32.2l61.7,8.4V71.8z"/>
	<path class="st0" d="M11,49.6c-0.8,0-1.5,0.7-1.5,1.5v10.3c0,0.8,0.7,1.5,1.5,1.5c0.8,0,1.5-0.7,1.5-1.5V51.1
		C12.4,50.3,11.8,49.6,11,49.6C11,49.6,11,49.6,11,49.6z"/>
	<path class="st0" d="M21.2,49.6c-0.8,0-1.5,0.7-1.5,1.5v11.7c0,0.8,0.7,1.5,1.5,1.5c0.8,0,1.5-0.7,1.5-1.5V51.1
		C22.7,50.3,22,49.6,21.2,49.6z"/>
	<path class="st0" d="M86,42.3l-52.8-5.9c-0.8-0.1-1.5,0.5-1.6,1.3c0,0.1,0,0.1,0,0.2v35.2c0,0.8,0.7,1.5,1.5,1.5c0,0,0.1,0,0.1,0
		l52.8-4.4c0.8-0.1,1.3-0.7,1.3-1.5v-25C87.3,43,86.7,42.4,86,42.3z M40.3,71l-5.9,0.5v-32l5.9,0.7V71z M49.1,70.3l-5.9,0.5V40.5
		l5.9,0.7V70.3z M57.9,69.5L52.1,70V41.5l5.9,0.7V69.5z M66.7,68.8l-5.9,0.5V42.4l5.9,0.7V68.8z M75.5,68.1l-5.9,0.5V43.4l5.9,0.7
		V68.1z M84.3,67.3l-5.9,0.5V44.4l5.9,0.7V67.3z"/>
	<g>
		<circle class="st1" cx="76.5" cy="37.7" r="21.1"/>
		<path class="st0" d="M92,22.9c-8.3-8.3-21.8-8.3-30.1,0.1s-8.3,21.8,0.1,30.1s21.8,8.3,30.1-0.1c4-4,6.2-9.4,6.2-15
			C98.3,32.4,96,26.9,92,22.9z M76.9,56.9C66.4,56.9,58,48.5,58,38s8.5-18.9,18.9-18.9c10.4,0,18.9,8.5,18.9,18.9
			C95.7,48.5,87.3,56.9,76.9,56.9z"/>
		<path class="st0" d="M76.9,21.8c-9,0-16.3,7.3-16.3,16.3s7.3,16.3,16.3,16.3S93.2,47,93.2,38c0,0,0,0,0,0
			C93.1,29,85.9,21.8,76.9,21.8z M76.9,51.8c-7.6,0-13.8-6.2-13.8-13.8c0-7.6,6.2-13.8,13.8-13.8c7.6,0,13.8,6.2,13.8,13.8v0
			C90.6,45.7,84.5,51.8,76.9,51.8L76.9,51.8z"/>
		<path class="st0" d="M80.6,34.3c0,0.7,0.6,1.3,1.3,1.3c0.7,0,1.3-0.6,1.3-1.3c0,0,0,0,0,0c0-1.5-0.8-2.8-2-3.7
			c-0.9-0.7-1.9-1.1-3-1.3V28c0-0.7-0.6-1.3-1.3-1.3c-0.7,0-1.3,0.6-1.3,1.3c0,0,0,0,0,0v1.4c-1.1,0.2-2.1,0.6-3,1.3
			c-2,1.3-2.6,4.1-1.2,6.1c0.3,0.5,0.7,0.9,1.2,1.2c0.9,0.7,1.9,1.1,3,1.3v5c-1.4-0.4-2.5-1.3-2.5-2.4c0-0.7-0.6-1.2-1.3-1.2
			c-0.7,0-1.2,0.6-1.2,1.2c0,1.5,0.8,2.8,2,3.7c0.9,0.7,1.9,1.1,3,1.3v1.4c0,0.7,0.6,1.3,1.3,1.3c0.7,0,1.3-0.6,1.3-1.3v-1.4
			c1.1-0.2,2.1-0.6,3-1.3c2-1.3,2.6-4.1,1.2-6.1c-0.3-0.5-0.7-0.9-1.2-1.2c-0.9-0.7-1.9-1.1-3-1.3v-5C79.6,32.3,80.6,33.2,80.6,34.3
			L80.6,34.3z M73.1,34.3c0-1.1,1.1-2,2.5-2.4v4.7C74.2,36.3,73.1,35.3,73.1,34.3L73.1,34.3z M80.6,41.8c0,1.1-1.1,2-2.5,2.4v-4.7
			C79.6,39.8,80.6,40.7,80.6,41.8L80.6,41.8z"/>
	</g>
</g>
</svg>
