<?xml version="1.0" encoding="utf-8"?>
<!-- Generator: Adobe Illustrator 23.0.6, SVG Export Plug-In . SVG Version: 6.00 Build 0)  -->
<svg version="1.1" id="Layer_1" xmlns="http://www.w3.org/2000/svg" xmlns:xlink="http://www.w3.org/1999/xlink" x="0px" y="0px"
	 viewBox="0 0 76.6 98.5" style="enable-background:new 0 0 76.6 98.5;" xml:space="preserve">
<style type="text/css">
	.st0{fill:#0B2999;}
</style>
<g>
	<path class="st0" d="M63.8,21.7H60c-0.5,0-0.9,0.4-0.9,0.9s0.4,0.9,0.9,0.9h3.8c0.2,0,0.4,0.2,0.4,0.4V47c0,0.2-0.2,0.4-0.4,0.4
		H28.4v-1.7h23.3c0.5,0,0.9-0.4,0.9-0.9c0-0.5-0.4-0.9-0.9-0.9H28.4v-3.7c0-2.3-1.9-4.2-4.2-4.2c-2.3,0-4.2,1.9-4.2,4.2V44h-2
		c-0.3-1.2-1.2-2.1-2.4-2.4v-6.1c0-0.5-0.4-0.9-0.9-0.9c-0.5,0-0.9,0.4-0.9,0.9v6.9c0,0.5,0.4,0.9,0.9,0.9c0,0,0,0,0,0
		c0.9,0,1.7,0.7,1.7,1.7c0,0.5,0.4,0.9,0.9,0.9c0,0,0,0,0,0H20v1.7h-7.5c-0.2,0-0.4-0.2-0.4-0.4V23.8c0-0.2,0.2-0.4,0.4-0.4h11.9
		v1.7h-7.2c-0.5,0-0.9,0.4-0.9,0.9c0,0,0,0,0,0c0,0.9-0.7,1.7-1.7,1.7c-0.5,0-0.9,0.4-0.9,0.9c0,0,0,0,0,0v3.2
		c0,0.5,0.4,0.9,0.9,0.9c0.5,0,0.9-0.4,0.9-0.9v-2.4c1.2-0.3,2.1-1.2,2.4-2.4h6.5v0.3c0,2.1,1.7,3.8,3.8,3.8c0.9,0,1.8-0.3,2.5-1
		c1,1.8,3.3,2.5,5.1,1.5c0.6-0.3,1.1-0.8,1.5-1.5c1.5,1.4,3.9,1.3,5.3-0.3c0.2-0.3,0.4-0.5,0.6-0.8c1.6,1.3,4,1.1,5.3-0.4
		c0.4-0.5,0.7-1,0.8-1.6h9c0.3,1.2,1.2,2.1,2.4,2.4v12.3c-1.2,0.3-2.1,1.2-2.4,2.4h-2.9c-0.5,0-0.9,0.4-0.9,0.9
		c0,0.5,0.4,0.9,0.9,0.9c0,0,0,0,0,0h3.6c0.5,0,0.9-0.4,0.9-0.9c0,0,0,0,0,0c0-0.9,0.7-1.7,1.7-1.7c0.5,0,0.9-0.4,0.9-0.9
		c0,0,0,0,0,0V28.6c0-0.5-0.4-0.9-0.9-0.9c0,0,0,0,0,0c-0.9,0-1.7-0.7-1.7-1.7c0-0.5-0.4-0.9-0.9-0.9c0,0,0,0,0,0h-9.7v-1.7h6.9
		c0.5,0,0.9-0.4,0.9-0.9s-0.4-0.9-0.9-0.9h-7.1c-0.4-1.1-1.5-1.9-2.7-1.9h-1.9c-0.7,0-1.4,0.3-2,0.8c-0.5-0.5-1.2-0.8-2-0.8h-1.9
		c-0.7,0-1.4,0.3-2,0.8c-0.5-0.5-1.2-0.8-2-0.8h-1.9c-0.7,0-1.4,0.3-2,0.8c-0.5-0.5-1.2-0.8-2-0.8h-1.9c-1.2,0-2.3,0.8-2.7,1.9H12.5
		c-1.2,0-2.1,1-2.1,2.1V47c0,1.2,1,2.1,2.1,2.1H20v6.4c0,1.8,0.7,3.6,2,4.9l3.7,3.7v13.7c0,0.5,0.4,0.9,0.9,0.9
		c0.5,0,0.9-0.4,0.9-0.9c0,0,0,0,0,0v-14c0-0.2-0.1-0.4-0.3-0.6l-4-4c-1-1-1.5-2.3-1.5-3.7V40.3c0-1.4,1.1-2.5,2.5-2.5
		c1.4,0,2.5,1.1,2.5,2.5v8c0,0.5,0.4,0.9,0.9,0.9c0,0,0,0,0,0c3.9,0,7,3.2,7,7v0.6c0,0.5,0.4,0.9,0.9,0.9c0.5,0,0.8-0.4,0.9-0.9
		v-0.6c0-2.8-1.3-5.4-3.6-7h18.1v0.4c0,1.5-0.5,3-1.4,4.3L47,57.3c-0.1,0.1-0.2,0.3-0.2,0.5v20c0,0.5,0.4,0.9,0.9,0.9
		s0.9-0.4,0.9-0.9c0,0,0,0,0,0V58.1l2.3-3.2c1.1-1.5,1.7-3.4,1.7-5.3v-0.4h11.2c1.2,0,2.1-1,2.1-2.1V23.8
		C65.9,22.7,65,21.7,63.8,21.7z M44.7,21.5h1.9c0.6,0,1.1,0.5,1.1,1.1V26c0,1.1-0.9,2-2,2c-1.1,0-2-0.9-2-2c0,0,0,0,0,0v-3.4
		C43.6,22,44.1,21.6,44.7,21.5L44.7,21.5z M38.9,21.5h1.9c0.6,0,1.1,0.5,1.1,1.1v4.6c0,1.1-0.9,2-2,2c-1.1,0-2-0.9-2-2v-4.6
		C37.8,22,38.3,21.6,38.9,21.5L38.9,21.5z M33.1,21.5H35c0.6,0,1.1,0.5,1.1,1.1v5.6c0,1.1-0.9,2-2,2l0,0c-1.1,0-2-0.9-2-2v-5.6
		C32,22,32.5,21.6,33.1,21.5L33.1,21.5z M26.2,22.6c0-0.6,0.5-1.1,1.1-1.1h1.9c0.6,0,1.1,0.5,1.1,1.1v4.6c0,1.1-0.9,2-2,2
		c-1.1,0-2-0.9-2-2L26.2,22.6L26.2,22.6z"/>
	<path class="st0" d="M31.6,33c-0.5-0.1-0.9,0.3-1,0.7c-0.1,0.4-0.1,0.8-0.1,1.2c0,4.2,3.4,7.6,7.6,7.6s7.6-3.4,7.6-7.6
		c0-0.7-0.1-1.4-0.3-2.1c-0.1-0.5-0.6-0.7-1.1-0.6c-0.5,0.1-0.7,0.6-0.6,1.1l0,0c0.9,3.1-0.9,6.4-4,7.3c-3.1,0.9-6.4-0.9-7.3-4
		c-0.2-0.8-0.3-1.7-0.2-2.5C32.4,33.5,32.1,33.1,31.6,33C31.6,33,31.6,33,31.6,33z"/>
</g>
</svg>
