<?xml version="1.0" encoding="utf-8"?>
<!-- Generator: Adobe Illustrator 23.0.6, SVG Export Plug-In . SVG Version: 6.00 Build 0)  -->
<svg version="1.1" id="Capa_1" xmlns="http://www.w3.org/2000/svg" xmlns:xlink="http://www.w3.org/1999/xlink" x="0px" y="0px"
	 viewBox="0 0 147.06 104.35" style="enable-background:new 0 0 147.06 104.35;" xml:space="preserve">
<style type="text/css">
	.st0{fill:#FFC107;}
	.st1{clip-path:url(#SVGID_2_);}
	.st2{fill:#000222;}
	.st3{fill:#FFFFFF;}
	.st4{clip-path:url(#SVGID_4_);}
	.st5{fill:#222222;}
	.st6{clip-path:url(#SVGID_8_);}
	.st7{clip-path:url(#SVGID_10_);}
	.st8{fill:#F9F9F9;}
	.st9{clip-path:url(#SVGID_12_);}
	.st10{fill:none;}
	.st11{clip-path:url(#SVGID_14_);}
	.st12{clip-path:url(#SVGID_16_);}
	.st13{fill:#FFFFFF;stroke:#1D1D1B;stroke-miterlimit:10;}
	.st14{clip-path:url(#SVGID_20_);}
	.st15{clip-path:url(#SVGID_22_);}
	.st16{clip-path:url(#SVGID_26_);}
	.st17{clip-path:url(#SVGID_28_);fill:#C7CADF;}
	.st18{clip-path:url(#SVGID_28_);}
	.st19{clip-path:url(#SVGID_30_);fill:#C7CADF;}
	.st20{clip-path:url(#SVGID_30_);}
	.st21{opacity:0.15;}
	.st22{clip-path:url(#SVGID_32_);}
	.st23{clip-path:url(#SVGID_36_);}
	.st24{clip-path:url(#SVGID_40_);}
	.st25{clip-path:url(#SVGID_44_);}
	.st26{fill:#555555;}
	.st27{clip-path:url(#SVGID_52_);}
	.st28{clip-path:url(#SVGID_54_);}
	.st29{clip-path:url(#SVGID_56_);}
	.st30{clip-path:url(#SVGID_52_);fill:#F9F9F9;}
	.st31{clip-path:url(#SVGID_58_);}
	.st32{clip-path:url(#SVGID_52_);fill:#000222;}
	.st33{clip-path:url(#SVGID_52_);fill:#FFC107;}
	.st34{clip-path:url(#SVGID_52_);fill:none;}
	.st35{clip-path:url(#SVGID_60_);}
	.st36{clip-path:url(#SVGID_62_);}
	.st37{clip-path:url(#SVGID_66_);}
	.st38{clip-path:url(#SVGID_68_);}
	.st39{clip-path:url(#SVGID_72_);}
	.st40{clip-path:url(#SVGID_74_);fill:#C7CADF;}
	.st41{clip-path:url(#SVGID_74_);}
	.st42{clip-path:url(#SVGID_52_);fill:#222222;}
	.st43{clip-path:url(#SVGID_76_);}
	.st44{clip-path:url(#SVGID_80_);}
	.st45{clip-path:url(#SVGID_84_);}
	.st46{clip-path:url(#SVGID_88_);}
	.st47{fill:#B3D9FB;}
	.st48{fill:#EDAC0A;}
	.st49{fill:none;stroke:#EDAC0A;stroke-width:5;stroke-miterlimit:10;}
</style>
<g>
	<g>
		<path class="st48" d="M117.99,14.75H30.52c-5.14,0-9.33,4.18-9.33,9.33v54.05c0,5.14,4.18,9.33,9.33,9.33h87.47
			c5.14,0,9.33-4.18,9.33-9.33V24.08C127.32,18.94,123.13,14.75,117.99,14.75z M116.77,20.97l-1.24,1.04L77.95,53.29
			c-2.14,1.79-5.26,1.79-7.4,0L32.98,22.01l-1.24-1.04H116.77z M27.41,25.46l30.61,25.49L27.41,71.32V25.46z M117.99,81.24H30.52
			c-1.5,0-2.76-1.07-3.05-2.49L63.01,55.1l3.57,2.97c2.22,1.85,4.95,2.78,7.68,2.78s5.45-0.93,7.68-2.78l3.57-2.97l35.54,23.65
			C120.75,80.17,119.49,81.24,117.99,81.24z M121.1,71.32L90.49,50.95l30.61-25.49V71.32z"/>
	</g>
</g>
</svg>
