<?xml version="1.0" encoding="utf-8"?>
<!-- Generator: Adobe Illustrator 23.0.6, SVG Export Plug-In . SVG Version: 6.00 Build 0)  -->
<svg version="1.1" id="Capa_1" xmlns="http://www.w3.org/2000/svg" xmlns:xlink="http://www.w3.org/1999/xlink" x="0px" y="0px"
	 viewBox="0 0 147.06 104.35" style="enable-background:new 0 0 147.06 104.35;" xml:space="preserve">
<style type="text/css">
	.st0{fill:#FFC107;}
	.st1{clip-path:url(#SVGID_2_);}
	.st2{fill:#000222;}
	.st3{fill:#FFFFFF;}
	.st4{clip-path:url(#SVGID_4_);}
	.st5{fill:#222222;}
	.st6{clip-path:url(#SVGID_8_);}
	.st7{clip-path:url(#SVGID_10_);}
	.st8{fill:#F9F9F9;}
	.st9{clip-path:url(#SVGID_12_);}
	.st10{fill:none;}
	.st11{clip-path:url(#SVGID_14_);}
	.st12{clip-path:url(#SVGID_16_);}
	.st13{fill:#FFFFFF;stroke:#1D1D1B;stroke-miterlimit:10;}
	.st14{clip-path:url(#SVGID_20_);}
	.st15{clip-path:url(#SVGID_22_);}
	.st16{clip-path:url(#SVGID_26_);}
	.st17{clip-path:url(#SVGID_28_);fill:#C7CADF;}
	.st18{clip-path:url(#SVGID_28_);}
	.st19{clip-path:url(#SVGID_30_);fill:#C7CADF;}
	.st20{clip-path:url(#SVGID_30_);}
	.st21{opacity:0.15;}
	.st22{clip-path:url(#SVGID_32_);}
	.st23{clip-path:url(#SVGID_36_);}
	.st24{clip-path:url(#SVGID_40_);}
	.st25{clip-path:url(#SVGID_44_);}
	.st26{fill:#555555;}
	.st27{clip-path:url(#SVGID_52_);}
	.st28{clip-path:url(#SVGID_54_);}
	.st29{clip-path:url(#SVGID_56_);}
	.st30{clip-path:url(#SVGID_52_);fill:#F9F9F9;}
	.st31{clip-path:url(#SVGID_58_);}
	.st32{clip-path:url(#SVGID_52_);fill:#000222;}
	.st33{clip-path:url(#SVGID_52_);fill:#FFC107;}
	.st34{clip-path:url(#SVGID_52_);fill:none;}
	.st35{clip-path:url(#SVGID_60_);}
	.st36{clip-path:url(#SVGID_62_);}
	.st37{clip-path:url(#SVGID_66_);}
	.st38{clip-path:url(#SVGID_68_);}
	.st39{clip-path:url(#SVGID_72_);}
	.st40{clip-path:url(#SVGID_74_);fill:#C7CADF;}
	.st41{clip-path:url(#SVGID_74_);}
	.st42{clip-path:url(#SVGID_52_);fill:#222222;}
	.st43{clip-path:url(#SVGID_76_);}
	.st44{clip-path:url(#SVGID_80_);}
	.st45{clip-path:url(#SVGID_84_);}
	.st46{clip-path:url(#SVGID_88_);}
	.st47{fill:#B3D9FB;}
	.st48{fill:#EDAC0A;}
	.st49{fill:none;stroke:#EDAC0A;stroke-width:5;stroke-miterlimit:10;}
</style>
<g>
	<g>
		<path class="st49" d="M111.37,67.07c-5.73,0-11.28-0.92-16.44-2.62c-1.59-0.51-3.41-0.14-4.67,1.13L80.13,75.72
			C67.07,69.09,56.41,58.43,49.78,45.4l10.13-10.18c1.27-1.27,1.63-3.08,1.13-4.67c-1.7-5.16-2.62-10.71-2.62-16.44
			c0-2.56-2.05-4.6-4.6-4.6H37.7c-2.53,0-4.6,2.05-4.6,4.6c0,43.24,35.04,78.28,78.28,78.28c2.56,0,4.6-2.05,4.6-4.6V71.67
			C115.97,69.11,113.92,67.07,111.37,67.07z"/>
	</g>
</g>
</svg>
