<?xml version="1.0" encoding="utf-8"?>
<!-- Generator: Adobe Illustrator 23.0.6, SVG Export Plug-In . SVG Version: 6.00 Build 0)  -->
<svg version="1.1" id="Layer_1" xmlns="http://www.w3.org/2000/svg" xmlns:xlink="http://www.w3.org/1999/xlink" x="0px" y="0px"
	 viewBox="0 0 91.7 98.5" style="enable-background:new 0 0 91.7 98.5;" xml:space="preserve">
<style type="text/css">
	.st0{fill:#292828;}
</style>
<g>
	<path class="st0" d="M72,23.2C57.6,8.7,34.2,8.6,19.7,22.9S5.1,60.7,19.5,75.2c0.1,0.1,0.1,0.1,0.2,0.2C34.1,89.9,57.5,90,72,75.6
		s14.6-37.8,0.2-52.2C72.1,23.3,72,23.2,72,23.2z M45.8,81.9c-18,0-32.6-14.6-32.6-32.6s14.6-32.6,32.6-32.6s32.6,14.6,32.6,32.6
		l0,0C78.5,67.3,63.9,81.9,45.8,81.9L45.8,81.9z"/>
	<path class="st0" d="M45.8,21.1c-15.6,0-28.2,12.6-28.2,28.2s12.6,28.2,28.2,28.2S74,64.8,74,49.3l0,0C74,33.7,61.4,21.1,45.8,21.1
		z M45.8,73.1C32.7,73.1,22,62.4,22,49.3s10.7-23.8,23.8-23.8c13.2,0,23.8,10.7,23.8,23.8c0,0,0,0,0,0C69.7,62.4,59,73.1,45.8,73.1z
		"/>
	<path class="st0" d="M52.3,42.8c0,1.2,1,2.2,2.2,2.2c1.2,0,2.1-1,2.2-2.2c-0.1-2.5-1.3-4.9-3.4-6.3c-1.6-1.1-3.4-1.9-5.3-2.2v-2.3
		c0-1.2-1-2.2-2.2-2.2s-2.2,1-2.2,2.2l0,0v2.3c-1.9,0.3-3.7,1-5.3,2.2c-2.1,1.5-3.3,3.8-3.4,6.3c0.1,2.5,1.3,4.9,3.4,6.3
		c1.6,1.1,3.4,1.9,5.3,2.2v8.6c-2.5-0.6-4.3-2.2-4.3-4.1c0-1.2-1-2.2-2.2-2.2c-1.2,0-2.1,1-2.2,2.2c0.1,2.5,1.3,4.9,3.4,6.3
		c1.6,1.1,3.4,1.9,5.3,2.2v2.4c0,1.2,1,2.2,2.2,2.2s2.2-1,2.2-2.2v-2.4c1.9-0.3,3.7-1,5.3-2.2c3.5-2.3,4.5-7,2.1-10.5
		c-0.6-0.9-1.3-1.6-2.1-2.1c-1.6-1.1-3.4-1.9-5.3-2.2v-8.6C50.5,39.3,52.3,40.9,52.3,42.8L52.3,42.8z M39.3,42.8
		c0-1.8,1.8-3.5,4.3-4.1v8.2C41.2,46.2,39.3,44.6,39.3,42.8z M52.3,55.8c0,1.8-1.8,3.5-4.3,4.1v-8.2C50.5,52.3,52.3,53.9,52.3,55.8z
		"/>
</g>
</svg>
