<?xml version="1.0" encoding="utf-8"?>
<!-- Generator: Adobe Illustrator 23.0.6, SVG Export Plug-In . SVG Version: 6.00 Build 0)  -->
<svg version="1.1" id="Capa_1" xmlns="http://www.w3.org/2000/svg" xmlns:xlink="http://www.w3.org/1999/xlink" x="0px" y="0px"
	 viewBox="0 0 147.06 104.35" style="enable-background:new 0 0 147.06 104.35;" xml:space="preserve">
<style type="text/css">
	.st0{fill:#FFC107;}
	.st1{clip-path:url(#SVGID_2_);}
	.st2{fill:#000222;}
	.st3{fill:#FFFFFF;}
	.st4{clip-path:url(#SVGID_4_);}
	.st5{fill:#222222;}
	.st6{clip-path:url(#SVGID_8_);}
	.st7{clip-path:url(#SVGID_10_);}
	.st8{fill:#F9F9F9;}
	.st9{clip-path:url(#SVGID_12_);}
	.st10{fill:none;}
	.st11{clip-path:url(#SVGID_14_);}
	.st12{clip-path:url(#SVGID_16_);}
	.st13{fill:#FFFFFF;stroke:#1D1D1B;stroke-miterlimit:10;}
	.st14{clip-path:url(#SVGID_20_);}
	.st15{clip-path:url(#SVGID_22_);}
	.st16{clip-path:url(#SVGID_26_);}
	.st17{clip-path:url(#SVGID_28_);fill:#C7CADF;}
	.st18{clip-path:url(#SVGID_28_);}
	.st19{clip-path:url(#SVGID_30_);fill:#C7CADF;}
	.st20{clip-path:url(#SVGID_30_);}
	.st21{opacity:0.15;}
	.st22{clip-path:url(#SVGID_32_);}
	.st23{clip-path:url(#SVGID_36_);}
	.st24{clip-path:url(#SVGID_40_);}
	.st25{clip-path:url(#SVGID_44_);}
	.st26{fill:#555555;}
	.st27{clip-path:url(#SVGID_52_);}
	.st28{clip-path:url(#SVGID_54_);}
	.st29{clip-path:url(#SVGID_56_);}
	.st30{clip-path:url(#SVGID_52_);fill:#F9F9F9;}
	.st31{clip-path:url(#SVGID_58_);}
	.st32{clip-path:url(#SVGID_52_);fill:#000222;}
	.st33{clip-path:url(#SVGID_52_);fill:#FFC107;}
	.st34{clip-path:url(#SVGID_52_);fill:none;}
	.st35{clip-path:url(#SVGID_60_);}
	.st36{clip-path:url(#SVGID_62_);}
	.st37{clip-path:url(#SVGID_66_);}
	.st38{clip-path:url(#SVGID_68_);}
	.st39{clip-path:url(#SVGID_72_);}
	.st40{clip-path:url(#SVGID_74_);fill:#C7CADF;}
	.st41{clip-path:url(#SVGID_74_);}
	.st42{clip-path:url(#SVGID_52_);fill:#222222;}
	.st43{clip-path:url(#SVGID_76_);}
	.st44{clip-path:url(#SVGID_80_);}
	.st45{clip-path:url(#SVGID_84_);}
	.st46{clip-path:url(#SVGID_88_);}
	.st47{fill:#B3D9FB;}
	.st48{fill:#EDAC0A;}
	.st49{fill:none;stroke:#EDAC0A;stroke-width:5;stroke-miterlimit:10;}
</style>
<g>
	<g>
		<path class="st48" d="M73.53,6c-24.59,0-44.6,20.01-44.6,44.6s20.01,44.6,44.6,44.6c24.59,0,44.6-20.01,44.6-44.6S98.12,6,73.53,6
			z M73.53,88.68c-21,0-38.09-17.09-38.09-38.09s17.09-38.09,38.09-38.09s38.09,17.09,38.09,38.08
			C111.62,71.6,94.53,88.68,73.53,88.68z"/>
	</g>
</g>
<g>
	<g>
		<path class="st48" d="M88.72,50.6H74.62V31.06c0-1.8-1.46-3.26-3.26-3.26c-1.8,0-3.26,1.46-3.26,3.26v22.79
			c0,1.8,1.46,3.26,3.26,3.26h17.36c1.8,0,3.26-1.46,3.26-3.26C91.98,52.05,90.52,50.6,88.72,50.6z"/>
	</g>
</g>
</svg>
